<?xml version="1.0" standalone="no"?>
<!DOCTYPE svg PUBLIC "-//W3C//DTD SVG 1.1//EN" "http://www.w3.org/Graphics/SVG/1.1/DTD/svg11.dtd">
<svg xmlns="http://www.w3.org/2000/svg"><metadata>This SVG WebFont was generated by YouWorkForThem.
Copyright Â© 2017 by Daniel Hernandez. All rights reserved.</metadata><defs><font horiz-adv-x="0" id="ywftsvg"><font-face ascent="1638" bbox="-1321.89 -549 2767 2100.16" cap-height="1470" descent="-410" font-family="" font-stretch="normal" font-weight="400" panose-1="0 0 5 0 0 0 0 0 0 0" underline-position="0" underline-thickness="0" unicode-range="U+0020-FB02" units-per-em="2048" x-height="1008"/><missing-glyph horiz-adv-x="972"/><glyph d="M1235 137q23 0 20 -24l-12 -88q-2 -25 -29 -25h-385q-23 0 -18 25l12 88q4 25 27 24h108l103 733h-555l-103 -733h193q23 0 20 -24l-12 -88q-2 -25 -29 -25h-469q-25 0 -20 25l12 88q4 25 27 24h108l103 733h-127q-25 0 -21 25l13 88q4 25 26 25h127l19 125 q27 180 114.5 266t243.5 86q133 0 197 -64q18 -18 2 -41l-47 -65q-18 -25 -43 -8q-66 33 -111 32q-72 0 -121 -50t-63 -146l-19 -135h699q25 0 22 -25l-119 -846h107zM1174 1206q-51 0 -85 36t-34 85q0 59 43 100t100 41q49 0 83 -35.5t34 -86.5q0 -59 -41 -99.5t-100 -40.5 z" glyph-name="uniFB01" horiz-adv-x="1294" unicode="fi"/><glyph d="M106 0q-25 0 -20 25l12 88q4 25 27 24h108l103 733h-127q-25 0 -21 25l13 88q4 25 26 25h127l19 125q27 180 114.5 266t243.5 86q133 0 197 -64q18 -18 2 -41l-47 -65q-18 -25 -43 -8q-66 33 -111 32q-72 0 -121 -50t-63 -146l-19 -135h234q27 0 22 -25l-14 -88 q-2 -25 -27 -25h-235l-103 -733h193q23 0 20 -24l-12 -88q-2 -25 -29 -25h-469zM825 0q-23 0 -20 25l12 88q2 25 29 24h106l168 1196h-106q-27 0 -23 25l13 88q4 25 28 24h225q51 0 43 -51l-178 -1282h105q27 0 22 -24l-12 -88q-4 -25 -29 -25h-383z" glyph-name="uniFB02" horiz-adv-x="1288" unicode="fl"/><glyph d="M1647 1421q18 -18 2 -41l-47 -65q-18 -25 -43 -8q-66 33 -111 32q-72 0 -121 -50t-63 -146l-19 -135h234q25 0 22 -25l-14 -88q-4 -25 -27 -25h-235l-103 -733h193q25 0 20 -24l-12 -88q-4 -25 -29 -25h-469q-23 0 -20 25l12 88q2 25 27 24h108l103 733h-549l-103 -733 h193q23 0 20 -24l-12 -88q-2 -25 -29 -25h-469q-25 0 -20 25l12 88q4 25 27 24h108l103 733h-127q-25 0 -21 25l13 88q4 25 26 25h127l19 125q27 180 114.5 266t243.5 86q133 0 197 -64q18 -18 2 -41l-47 -65q-18 -25 -43 -8q-66 33 -111 32q-72 0 -121 -50t-63 -146 l-19 -135h547l19 125q27 180 114.5 266t243.5 86q134 -1 197 -64z" glyph-name="f_f.liga" horiz-adv-x="1413" unicode="ff"/><glyph d="M1954 137q25 0 20 -24l-12 -88q-4 -25 -29 -25h-385q-20 0 -18 25l12 88q2 25 27 24h108l103 733h-555l-103 -733h193q25 0 20 -24l-12 -88q-4 -25 -29 -25h-469q-23 0 -20 25l12 88q2 25 27 24h108l103 733h-549l-103 -733h193q23 0 20 -24l-12 -88q-2 -25 -29 -25h-469 q-25 0 -20 25l12 88q4 25 27 24h108l103 733h-127q-25 0 -21 25l13 88q4 25 26 25h127l19 125q27 180 114.5 266t243.5 86q133 0 197 -64q18 -18 2 -41l-47 -65q-18 -25 -43 -8q-66 33 -111 32q-72 0 -121 -50t-63 -146l-19 -135h547l19 125q27 180 114.5 266t243.5 86 q133 0 197 -64q18 -18 2 -41l-47 -65q-18 -25 -43 -8q-66 33 -111 32q-72 0 -121 -50t-63 -146l-19 -135h699q27 0 22 -25l-119 -846h107zM1892 1206q-51 0 -84.5 36t-33.5 85q0 59 43 100t100 41q49 0 83 -35.5t34 -86.5q0 -59 -41.5 -99.5t-100.5 -40.5z" glyph-name="f_f_i.liga" horiz-adv-x="2013" unicode="ffi"/><glyph d="M1647 1421q18 -18 2 -41l-47 -65q-18 -25 -43 -8q-66 33 -111 32q-72 0 -121 -50t-63 -146l-19 -135h234q25 0 22 -25l-14 -88q-4 -25 -27 -25h-235l-103 -733h193q25 0 20 -24l-12 -88q-4 -25 -29 -25h-469q-23 0 -20 25l12 88q2 25 27 24h108l103 733h-549l-103 -733 h193q23 0 20 -24l-12 -88q-2 -25 -29 -25h-469q-25 0 -20 25l12 88q4 25 27 24h108l103 733h-127q-25 0 -21 25l13 88q4 25 26 25h127l19 125q27 180 114.5 266t243.5 86q133 0 197 -64q18 -18 2 -41l-47 -65q-18 -25 -43 -8q-66 33 -111 32q-72 0 -121 -50t-63 -146 l-19 -135h547l19 125q27 180 114.5 266t243.5 86q134 -1 197 -64zM1542 0q-23 0 -20 25l12 88q2 25 29 24h106l168 1196h-106q-27 0 -23 25l12 88q4 25 29 24h225q51 0 43 -51l-178 -1282h105q27 0 22 -24l-12 -88q-4 -25 -29 -25h-383z" glyph-name="f_f_l.liga" horiz-adv-x="2004" unicode="ffl"/><glyph glyph-name=".notdef" horiz-adv-x="972"/><glyph glyph-name="glyph1"/><glyph glyph-name="glyph2" horiz-adv-x="681"/><glyph glyph-name="space" horiz-adv-x="495" unicode=" "/><glyph d="M287 385q-25 0 -23 25l142 1122q0 25 26 24h131q23 0 21 -24l-176 -1122q-6 -25 -27 -25h-94zM287 -14q-51 0 -86 34.5t-35 85.5q0 61 40 101.5t101 40.5q51 0 85 -38t34 -89q0 -57 -41 -96t-98 -39z" glyph-name="exclam" horiz-adv-x="557" unicode="!"/><glyph d="M307 1087q-27 0 -22 27l49 416q4 27 28 26h93q27 0 22 -26l-69 -416q-4 -27 -31 -27h-70zM571 1087q-29 0 -24 27l51 416q4 27 29 26h92q27 0 22 -26l-69 -416q-4 -27 -31 -27h-70z" glyph-name="quotedbl" horiz-adv-x="645" unicode="&quot;"/><glyph d="M184 -14q-25 0 -12 24l115 283h-154q-27 0 -20 24l10 76q4 25 27 25h188l108 276h-151q-27 0 -23 27l11 74q4 27 28 26h189l121 291q6 20 28 21h109q23 0 12 -27l-121 -285h250l121 291q8 23 27 23h108q25 0 12 -27l-118 -287h153q25 0 21 -26l-11 -74q-6 -27 -26 -27 h-193l-106 -276h155q25 0 21 -23l-10 -78q-6 -25 -29 -24h-190l-115 -283q-12 -25 -35 -24h-100q-27 0 -15 24l115 283h-250l-112 -283q-12 -25 -35 -24h-103zM487 418h250l109 276h-250z" glyph-name="numbersign" horiz-adv-x="1183" unicode="#"/><glyph d="M1266 1440q25 0 20 -23l-59 -424q-2 -25 -27 -24h-127q-23 0 -18 26l6 54q4 35 -6.5 72.5t-40 79.5t-97 68.5t-163.5 26.5q-147 0 -218 -58t-71 -157q0 -33 9 -61.5t21.5 -49t37 -40t43 -31.5t53.5 -25.5t55.5 -20.5t60 -19.5t58.5 -18.5q182 -59 272 -148t90 -241 q0 -182 -123.5 -287.5t-320.5 -111.5l-23 -158q-6 -25 -30 -25h-103q-25 0 -20 25l24 170q-207 45 -278 217l-25 -190q-4 -25 -28 -25h-111q-25 0 -21 25l64 450q2 23 27 23h127q23 0 18 -25l-4 -27q-2 -14 4 -45.5t29.5 -77t61.5 -86t107.5 -69.5t157.5 -29q139 0 215 63.5 t76 166.5q0 55 -20.5 95t-69.5 70.5t-89 47t-116 41t-116.5 40t-104 50t-97.5 71.5t-60.5 97.5t-26.5 136.5q0 188 138 289.5t341 101.5l20 152q2 25 27 24h103q25 0 22 -24l-25 -168q133 -37 199 -144l14 125q2 25 25 25h113z" glyph-name="dollar" horiz-adv-x="1208" unicode="$"/><glyph d="M449 -55q-23 4 -11 26l887 1538q12 23 39 19l100 -15q23 -4 9 -26l-887 -1536q-10 -23 -33 -19zM514 745q-143 0 -223 87.5t-80 240.5q0 184 110.5 300t274.5 112q133 -2 214 -86t81 -240q0 -180 -103.5 -297t-273.5 -117zM526 895q88 0 141.5 71.5t53.5 184.5 q0 186 -146 186q-90 0 -142 -72.5t-52 -183.5q0 -186 145 -186zM1346 -14q-143 0 -223.5 87t-80.5 240q0 184 111 299t274 113q133 -2 214 -86t81 -240q0 -180 -103 -296.5t-273 -116.5zM1358 135q88 0 141 72t53 184q0 186 -145 187q-90 0 -142.5 -73t-52.5 -183 q1 -187 146 -187z" glyph-name="percent" horiz-adv-x="1724" unicode="%"/><glyph d="M1319 745q25 0 20 -24l-12 -94q-6 -25 -29 -25h-135q-31 -209 -139 -356l55 -103h123q25 0 23 -26l-13 -92q-6 -25 -28 -25h-166q-49 0 -88 68l-27 49q-164 -131 -375 -131q-193 0 -297 104.5t-104 271.5q0 295 365 482q-80 152 -80 295q0 152 107.5 248t260.5 96 q129 0 212 -72t83 -194q0 -139 -78.5 -231.5t-277.5 -190.5l2 -2v-2l227 -410q51 96 64 192l20 148q4 25 27 24h260zM762 1337q-76 0 -127 -51t-51 -133q0 -100 73 -244q147 68 201.5 125.5t54.5 147.5q0 72 -38.5 113.5t-112.5 41.5zM549 133q164 0 285 107l-275 485 q-63 -37 -96 -60.5t-79 -66.5t-66.5 -97.5t-20.5 -121.5q0 -117 69.5 -181.5t182.5 -64.5z" glyph-name="ampersand" horiz-adv-x="1296" unicode="&amp;"/><glyph d="M309 1087q-27 0 -22 27l49 416q4 27 29 26h90q29 0 24 -26l-69 -416q-4 -27 -31 -27h-70z" glyph-name="quotesingle" horiz-adv-x="382" unicode="'"/><glyph d="M160 379q0 281 61.5 512t158.5 374.5t214 221.5t235 78q27 0 23 -29l-14 -94q-4 -27 -29 -27q-72 0 -155 -72.5t-156.5 -199.5t-121.5 -330t-48 -434q0 -279 74.5 -435.5t177.5 -156.5q27 0 20 -29l-12 -92q-4 -29 -29 -28q-164 0 -281.5 196.5t-117.5 544.5z" glyph-name="parenleft" horiz-adv-x="671" unicode="("/><glyph d="M680 823q0 -281 -61.5 -512t-159 -374.5t-214 -221t-235.5 -77.5q-27 0 -22 28l14 94q4 27 29 27q72 0 154.5 72.5t156.5 199.5t122 330t48 434q0 279 -75 435.5t-177 156.5q-27 0 -20 29l12 92q4 29 29 29q164 0 281.5 -197t117.5 -545z" glyph-name="parenright" horiz-adv-x="671" unicode=")"/><glyph d="M637 1288l156 182q23 27 41 3l38 -50q16 -20 -6 -41l-182 -145l213 29q12 2 18.5 -6.5t4.5 -20.5l-11 -70q-4 -31 -30 -26l-213 20l149 -139q18 -18 -4 -39l-55 -49q-25 -20 -37 0l-109 178l-4 -227q0 -27 -33 -27h-69q-12 0 -19.5 8.5t-3.5 18.5l56 225l-156 -176 q-23 -23 -41 -2l-39 49q-20 25 6 41l191 139l-222 -22q-12 -2 -18 6t-4 20l10 70q4 31 31 27l215 -27l-152 145q-18 18 4 39l56 49q25 20 37 0l108 -178l6 228q0 10 10.5 18t20.5 8h70q31 0 24 -26z" glyph-name="asterisk" horiz-adv-x="837" unicode="*"/><glyph d="M432 139q-23 0 -20 27l45 321h-293q-29 0 -25 27l15 104q4 27 32 27h293l47 334q4 27 27 27h119q27 0 22 -27l-47 -334h293q27 0 23 -27l-15 -104q-4 -27 -30 -27h-293l-45 -321q-4 -27 -29 -27h-119z" glyph-name="plus" horiz-adv-x="944" unicode="+"/><glyph d="M141 -238q-10 0 -14 3.5t-2 11.5l8 61q2 14 14 15q37 0 73 27.5t42 76.5q2 16 2 31q-10 -2 -24 -2q-45 0 -80 33.5t-35 84.5q0 66 39 105t102 39q55 0 88 -40t33 -120q0 -168 -73 -247t-173 -79z" glyph-name="comma" horiz-adv-x="487" unicode=","/><glyph d="M219 455q-27 0 -22 26l14 105q4 27 31 26h608q27 0 22 -26l-14 -105q-6 -27 -31 -26h-608z" glyph-name="hyphen" horiz-adv-x="917" unicode="-"/><glyph d="M242 -14q-51 0 -86 34.5t-35 85.5q0 61 40 101.5t101 40.5q51 0 85 -38t34 -89q0 -57 -41 -96t-98 -39z" glyph-name="period" horiz-adv-x="471" unicode="."/><glyph d="M63 -152q-27 0 -16 31l701 1653q10 25 32 24h125q25 0 15 -24l-705 -1657q-8 -27 -33 -27h-119z" glyph-name="slash" horiz-adv-x="770" unicode="/"/><glyph d="M692 -14q-231 0 -366.5 175t-135.5 441q0 395 180.5 638t479.5 243q225 0 360.5 -173t135.5 -438q0 -393 -176.5 -639.5t-477.5 -246.5zM713 137q203 0 327.5 203t124.5 534q0 217 -83 337t-251 120q-213 0 -336.5 -200.5t-123.5 -530.5q0 -213 90 -338t252 -125z" glyph-name="zero" horiz-adv-x="1329" unicode="0"/><glyph d="M131 0q-25 0 -20 25l12 94q4 25 29 24h319l162 1147l-334 -149q-25 -10 -31 12l-30 92q-6 25 16 33l383 174q39 18 68 18h96q23 0 20 -24l-182 -1303h285q23 0 20 -24l-14 -94q-4 -25 -27 -25h-772z" glyph-name="one" horiz-adv-x="944" unicode="1"/><glyph d="M90 0q-25 0 -20 25l8 59q12 88 70.5 170t142.5 144.5t182 123t194.5 120.5t175.5 122.5t127 141.5t48 165q0 119 -73 189.5t-197 70.5q-100 0 -181.5 -39t-169.5 -131q-16 -18 -32 -2l-72 74q-16 16 0 37q188 213 475 213q190 0 311 -110.5t121 -280.5 q0 -121 -58.5 -229.5t-147.5 -184.5t-199.5 -150.5t-209 -130t-180 -121t-110.5 -124.5l641 -2l20 147q2 25 27 25h119q25 0 22 -25l-39 -272q-4 -25 -28 -25h-967z" glyph-name="two" horiz-adv-x="1181" unicode="2"/><glyph d="M573 -14q-172 0 -289.5 67.5t-174.5 182.5q-10 23 8 38l78 64q18 14 32 0q2 -2 24.5 -32t46.5 -53.5t63.5 -53t98 -46t128.5 -16.5q160 0 253 86t93 228q0 240 -293 239h-76q-29 0 -24 31l12 88q4 31 33 31h57q53 0 105.5 11t108.5 39t91 85t35 137q0 219 -260 219 q-98 0 -160.5 -34.5t-175.5 -135.5q-18 -16 -33 -2l-73 76q-14 14 2 35q203 213 467 213q211 0 314 -106.5t103 -250.5q0 -84 -36.5 -155.5t-87 -111.5t-94.5 -62.5t-66 -22.5v-2q72 -6 151.5 -89t79.5 -239q0 -207 -152.5 -332.5t-388.5 -125.5z" glyph-name="three" horiz-adv-x="1148" unicode="3"/><glyph d="M530 0q-23 0 -20 25l12 94q2 25 29 24h227l41 308h-686q-23 0 -20 24l16 103q8 49 39 84q301 354 498 811q10 23 34 22h140q14 0 19 -11t-1 -22q-195 -442 -545 -862h529l67 477q4 25 29 25h119q25 0 22 -25l-67 -477h170q25 0 20 -27l-14 -98q-4 -25 -29 -24h-170 l-41 -308h170q25 0 21 -24l-13 -94q-4 -25 -26 -25h-570z" glyph-name="four" horiz-adv-x="1196" unicode="4"/><glyph d="M602 -14q-162 0 -288 66.5t-189 180.5q-12 23 6 35l86 70q20 14 35 0q2 -2 22.5 -30.5t45 -53.5t63.5 -53.5t97.5 -46t125.5 -17.5q160 0 261.5 92.5t101.5 255.5q0 141 -79 218t-226 77q-51 0 -111.5 -10t-98.5 -21.5t-84 -26.5t-51 -15q-23 -10 -41 -3t-14 37l101 705 q4 25 28 24h785q25 0 20 -24l-37 -262q-4 -25 -28 -25h-119q-25 0 -21 25l19 137h-496l-59 -430l39 10q39 12 97 21.5t118 9.5q211 0 324.5 -123t113.5 -315q0 -231 -154.5 -369.5t-392.5 -138.5z" glyph-name="five" horiz-adv-x="1159" unicode="5"/><glyph d="M676 -14q-219 0 -354.5 142t-135.5 423q0 414 183.5 673t498.5 259q264 0 392 -191q12 -16 -7 -35l-92 -73q-23 -14 -35 2q-61 82 -125.5 113.5t-150.5 31.5q-176 0 -312.5 -161.5t-156.5 -428.5q0 -10 -4 -26h4q66 92 168 146t225 54q190 0 315 -114.5t125 -302.5 q0 -219 -151 -365.5t-387 -146.5zM375 422q0 -123 82 -204t233.5 -81t249.5 96.5t98 245.5q0 139 -83 212t-214 73q-147 0 -256.5 -91t-109.5 -251z" glyph-name="six" horiz-adv-x="1224" unicode="6"/><glyph d="M307 0q-31 0 -10 35l754 1282h-645l-25 -174q-4 -25 -29 -25h-119q-25 0 -20 25l43 303q2 25 27 24h956q23 0 18 -24l-10 -84q-4 -41 -55 -129l-709 -1206q-16 -27 -37 -27h-139z" glyph-name="seven" horiz-adv-x="1093" unicode="7"/><glyph d="M631 -14q-221 0 -351 111.5t-130 287.5q0 86 28.5 156.5t69.5 113.5t90 74t86 43t59 14v5q-47 0 -114.5 77.5t-67.5 204.5q0 158 129 284t375 126q227 0 333.5 -106.5t106.5 -243.5q0 -72 -23.5 -131.5t-56 -97.5t-72.5 -64.5t-71 -37.5t-49 -11v-5q61 -10 145 -101 t84 -241q0 -211 -148.5 -334.5t-422.5 -123.5zM733 842q330 0 330 266q0 96 -66.5 160.5t-210.5 62.5q-145 -2 -226 -76.5t-81 -187.5q0 -115 78 -170t176 -55zM645 137q178 0 277.5 80t99.5 221q0 115 -75 188.5t-214 73.5h-51q-154 0 -252 -85t-98 -214q0 -123 83 -193.5 t230 -70.5z" glyph-name="eight" horiz-adv-x="1234" unicode="8"/><glyph d="M602 -14q-276 0 -436 213q-14 16 6 32l94 78q16 14 33 -2q74 -88 143.5 -129t171.5 -41q182 0 302 141.5t133 395.5l6 39h-4q-59 -82 -158.5 -134.5t-220.5 -52.5q-203 0 -328 114t-125 318q0 227 152.5 376t394.5 149q217 0 349 -139.5t132 -436.5q0 -195 -35.5 -356.5 t-109.5 -290.5t-202 -201.5t-298 -72.5zM698 678q145 0 256 91t111 265q0 145 -88 221t-232 76q-154 0 -252 -99t-98 -255q0 -150 83 -224.5t220 -74.5z" glyph-name="nine" horiz-adv-x="1228" unicode="9"/><glyph d="M367 737q-51 0 -86 35t-35 86q0 61 40 101t101 40q51 0 85 -37.5t34 -89.5q0 -57 -41 -96t-98 -39zM262 -14q-51 0 -86 34.5t-35 85.5q0 61 40 101.5t102 40.5q51 0 84.5 -38t33.5 -89q0 -57 -41 -96t-98 -39z" glyph-name="colon" horiz-adv-x="512" unicode=":"/><glyph d="M375 737q-51 0 -86 35t-35 86q0 61 40 101t101 40q51 0 85 -37.5t34 -89.5q0 -57 -41 -96t-98 -39zM162 -238q-10 0 -14.5 3.5t-2.5 11.5l9 61q2 14 14 15q37 0 72.5 27.5t42.5 76.5q2 16 2 31q-10 -2 -25 -2q-45 0 -80 33.5t-35 84.5q0 66 39 105t103 39q55 0 88 -40 t33 -120q0 -168 -73 -247t-173 -79z" glyph-name="semicolon" horiz-adv-x="530" unicode=";"/><glyph d="M760 88l-610 371q-27 16 -23 43l6 39q4 27 35 43l715 372q12 6 19 2t5 -16l-16 -123q-8 -31 -33 -43l-502 -254l430 -254q25 -14 21 -43l-16 -121q-8 -30 -31 -16z" glyph-name="less" horiz-adv-x="894" unicode="&lt;"/><glyph d="M250 645q-27 0 -23 29l15 102q4 29 30 29h627q27 0 23 -29l-15 -102q-4 -29 -30 -29h-627zM193 246q-25 0 -21 26l14 105q4 27 29 26h627q27 0 22 -26l-14 -105q-4 -27 -31 -26h-626z" glyph-name="equal" horiz-adv-x="944" unicode="="/><glyph d="M156 88q-10 -6 -17.5 -1t-5.5 17l17 121q4 29 34 43l504 254l-432 254q-29 14 -23 45l19 119q4 29 27 16l612 -372q27 -16 22 -43l-6 -39q-4 -25 -35 -43z" glyph-name="greater" horiz-adv-x="894" unicode=">"/><glyph d="M449 385q-23 0 -23 21q4 109 58.5 192.5t129 136.5t148.5 104.5t125 123t51 163.5q0 246 -246 246q-137 0 -225 -95t-94 -255q-4 -25 -27 -25h-121q-23 0 -22 21q-2 82 25.5 168t85 162.5t159.5 126t234 49.5q197 0 301 -106.5t104 -276.5q0 -123 -49 -214t-121 -147.5 t-145.5 -105.5t-131 -115.5t-67.5 -148.5q-4 -25 -29 -25h-120zM467 -14q-51 0 -86 34.5t-35 85.5q0 61 40 101.5t101 40.5q51 0 85 -38t34 -89q0 -57 -41 -96t-98 -39z" glyph-name="question" horiz-adv-x="1024" unicode="?"/><glyph d="M1331 -123q10 -23 -12 -33q-16 -12 -50 -28.5t-153 -45t-254 -28.5q-322 0 -516 202.5t-194 518.5q0 354 227 585.5t547 231.5q297 0 470 -169t173 -421q0 -258 -135.5 -404.5t-309.5 -146.5q-59 0 -88.5 25.5t-21.5 79.5l2 14l-4 -8q-6 -6 -14.5 -16.5t-19.5 -23.5 t-28.5 -25.5t-39 -23.5t-50.5 -17.5t-59 -6.5q-104 0 -186.5 80t-82.5 238q0 211 106.5 332.5t254.5 121.5q131 0 192 -84l13 41q6 23 26 23h76q25 0 21 -25l-76 -596h14q111 0 188.5 110.5t77.5 307.5q0 201 -136 326t-363 125q-268 0 -445.5 -194.5t-177.5 -477.5 q0 -256 159 -418t404 -162q117 0 216.5 20.5t140.5 41.5l41 20q25 16 30 -12zM1065 700q-14 29 -57 57.5t-109 28.5q-96 0 -160.5 -86t-64.5 -227q0 -111 47 -162t117 -51q80 0 137 70.5t67 163.5z" glyph-name="at" horiz-adv-x="1527" unicode="@"/><glyph d="M993 0q-23 0 -20 25l12 94q2 25 29 24h139l-72 357h-542l-174 -357h135q25 0 22 -24l-14 -94q-4 -25 -29 -25h-436q-23 0 -18 25l12 94q4 25 26 24h130l585 1184h-110q-25 0 -21 25l12 94q4 25 29 24h264q47 0 69.5 -20t33.5 -68l270 -1239h129q25 0 21 -24l-13 -94 q-4 -25 -28 -25h-441zM922 1268h-13l-297 -621h439z" glyph-name="A" horiz-adv-x="1468" unicode="A"/><glyph d="M117 0q-23 0 -21 25l13 94q2 25 26 24h150l166 1184h-148q-25 0 -20 25l12 94q4 25 27 24h608q170 0 274.5 -102t104.5 -248q0 -121 -64.5 -221t-173.5 -137q109 -31 163 -111t54 -192q0 -221 -140 -340t-403 -119h-628zM549 827l264 2q133 2 225 76t92 203 q0 115 -71.5 167t-169.5 52h-268zM455 143h293q170 0 268 78t98 238q0 109 -76.5 169t-206.5 60h-301z" glyph-name="B" horiz-adv-x="1310" unicode="B"/><glyph d="M1405 371q16 -12 0 -43q-205 -342 -606 -342q-264 0 -437.5 182t-173.5 465q0 205 62.5 368.5t170 267t245 159t290.5 55.5q164 0 265.5 -63.5t140.5 -137.5l22 164q4 25 25 24h111q25 0 20 -24l-63 -445q-4 -27 -27 -26h-121q-27 0 -22 24l2 17q14 111 -84.5 215 t-280.5 104q-240 0 -409.5 -179t-169.5 -513q0 -236 128 -373t328 -137q276 0 463 281q18 27 39 12z" glyph-name="C" horiz-adv-x="1441" unicode="C"/><glyph d="M115 0q-20 0 -19 25l13 94q2 25 26 24h150l166 1184h-150q-23 0 -18 25l12 94q4 25 27 24h503q293 0 475.5 -171t182.5 -461q0 -387 -217 -612.5t-611 -225.5h-540zM629 143q328 0 502 179.5t174 504.5q0 238 -129 369t-385 131h-170l-168 -1184h176z" glyph-name="D" horiz-adv-x="1460" unicode="D"/><glyph d="M115 0q-20 0 -19 25l13 94q2 25 26 24h150l166 1184h-150q-23 0 -18 25l12 94q4 25 27 24h1036q23 0 20 -24l-47 -326q-4 -25 -26 -24h-117q-20 0 -19 24l29 207h-577l-70 -498h481q25 0 23 -24l-13 -96q-2 -25 -30 -25h-482l-75 -541h579l29 205q2 25 29 25h114 q23 0 21 -25l-45 -323q-2 -25 -27 -25h-1040z" glyph-name="E" horiz-adv-x="1282" unicode="E"/><glyph d="M115 0q-20 0 -19 25l13 94q2 25 26 24h150l166 1184h-150q-23 0 -18 25l12 94q4 25 27 24h1003q27 0 23 -24l-48 -326q-2 -25 -28 -24h-117q-20 0 -18 24l28 207h-544l-74 -518h454q23 0 21 -25l-14 -100q-4 -25 -29 -25h-453l-71 -516h223q23 0 20 -24l-14 -94 q-4 -25 -27 -25h-542z" glyph-name="F" horiz-adv-x="1198" unicode="F"/><glyph d="M799 -14q-264 0 -437.5 182t-173.5 465q0 205 62.5 368.5t170 267t245 159t290.5 55.5q164 0 265.5 -60.5t142.5 -132.5l20 156q4 25 25 24h111q25 0 20 -24l-57 -416q-4 -27 -29 -26h-121q-23 0 -22 24l2 16q14 106 -85.5 198.5t-283.5 92.5q-240 0 -409.5 -179 t-169.5 -513q0 -236 128 -373t328 -137q254 0 428 211l27 186h-363q-25 0 -18 27l12 92q4 27 27 27h502q25 0 20 -27l-88 -624q-4 -25 -27 -25h-104q-25 0 -20 25l18 137q-176 -176 -436 -176z" glyph-name="G" horiz-adv-x="1488" unicode="G"/><glyph d="M1006 0q-23 0 -17 25l12 94q2 25 25 24h150l73 516h-723l-73 -516h149q25 0 21 -24l-13 -94q-6 -25 -28 -25h-467q-25 0 -19 25l13 94q2 25 26 24h150l166 1184h-150q-25 0 -18 25l12 94q4 25 27 24h466q23 0 21 -24l-12 -94q-6 -25 -29 -25h-147l-74 -518h723l73 518 h-149q-25 0 -18 25l12 94q4 25 26 24h467q23 0 21 -24l-12 -94q-6 -25 -29 -25h-150l-165 -1184h149q25 0 21 -24l-15 -94q-2 -25 -26 -25h-469z" glyph-name="H" horiz-adv-x="1589" unicode="H"/><glyph d="M117 0q-23 0 -21 25l13 94q2 25 26 24h150l166 1184h-148q-25 0 -20 25l12 94q4 25 27 24h466q23 0 21 -24l-12 -94q-2 -25 -29 -25h-147l-166 -1184h145q27 0 23 -24l-13 -94q-4 -25 -28 -25h-465z" glyph-name="I" horiz-adv-x="698" unicode="I"/><glyph d="M309 133q86 0 135.5 58.5t67.5 183.5l133 952h-160q-23 0 -20 25l14 94q4 25 27 24h477q25 0 23 -24l-15 -94q-4 -25 -28 -25h-148l-133 -952q-29 -205 -114 -297t-267 -92q-168 0 -240 90q-18 20 -2 41l60 71q20 27 41 9q69 -64 149 -64z" glyph-name="J" horiz-adv-x="872" unicode="J"/><glyph d="M1188 0q-74 0 -101 92l-114 395q-18 66 -65.5 107t-112.5 41h-273l-67 -492h180q25 0 20 -24l-12 -94q-4 -25 -29 -25h-499q-20 0 -19 25l13 94q2 25 26 24h150l166 1184h-150q-23 0 -18 25l12 94q4 25 27 24h464q25 0 21 -24l-12 -94q-4 -25 -29 -25h-145l-78 -551h200 q70 0 144 32t144.5 95.5t124.5 173t75 250.5h-152q-23 0 -20 25l14 94q4 25 27 24h465q25 0 20 -24l-14 -94q-2 -25 -27 -25h-141q-35 -238 -136.5 -395.5t-242.5 -222.5q63 -31 89 -72t44 -113l103 -381h120q25 0 23 -24l-14 -94q-4 -25 -29 -25h-172z" glyph-name="K" horiz-adv-x="1435" unicode="K"/><glyph d="M115 0q-20 0 -19 25l13 94q2 25 26 24h150l166 1184h-150q-23 0 -18 25l12 94q4 25 27 24h462q29 0 25 -26l-12 -90q-4 -27 -33 -27h-143l-168 -1184h548l29 205q2 25 27 25h114q29 0 25 -25l-45 -321q-4 -27 -33 -27h-1003z" glyph-name="L" horiz-adv-x="1193" unicode="L"/><glyph d="M1225 0q-20 0 -19 25l11 94q4 25 28 24h131l158 1110h-4l-508 -1022q-33 -68 -100 -67q-70 0 -84 67l-224 1022h-12l-156 -1110h136q25 0 20 -24l-14 -94q-2 -25 -27 -25h-446q-20 0 -19 25l13 94q2 25 26 24h150l166 1184h-150q-23 0 -20 25l14 94q4 25 27 24h323 q68 0 84 -67l164 -744l49 -268h10q86 170 131 264l363 746q33 70 106 69h324q25 0 20 -24l-14 -94q-2 -25 -27 -25h-149l-166 -1184h150q25 0 18 -24l-12 -94q-4 -25 -27 -25h-444z" glyph-name="M" horiz-adv-x="1783" unicode="M"/><glyph d="M1171 0q-66 0 -92 63l-407 961l-70 188h-4l-152 -1069h150q27 0 22 -24l-14 -94q-2 -25 -29 -25h-460q-20 0 -19 25l13 94q2 25 26 24h150l166 1184h-150q-23 0 -18 25l12 94q4 25 27 24h274q66 0 94 -69l404 -948l80 -213h4l153 1087h-149q-23 0 -21 25l15 94 q4 25 26 24h457q25 0 22 -24l-14 -94q-4 -25 -29 -25h-147l-182 -1302q-2 -25 -27 -25h-111z" glyph-name="N" horiz-adv-x="1550" unicode="N"/><glyph d="M799 -14q-260 0 -437.5 178t-177.5 461q0 397 216 627.5t558 230.5q266 0 436.5 -174t170.5 -465q0 -406 -213 -632t-553 -226zM813 133q233 0 403 186.5t170 505.5q0 248 -125.5 379t-320.5 131q-238 0 -408 -184t-170 -508q0 -244 130.5 -377t320.5 -133z" glyph-name="O" horiz-adv-x="1542" unicode="O"/><glyph d="M117 0q-23 0 -21 25l13 94q2 25 26 24h150l166 1184h-148q-25 0 -20 25l12 94q4 25 27 24h585q193 0 308.5 -115.5t115.5 -287.5q0 -246 -144.5 -378t-430.5 -132h-244l-57 -414h190q23 0 21 -24l-15 -94q-4 -25 -26 -25h-508zM776 700q180 0 279.5 87t99.5 266 q0 139 -81 206.5t-208 67.5h-245l-89 -627h244z" glyph-name="P" horiz-adv-x="1241" unicode="P"/><glyph d="M1403 -88l24 -115q4 -20 -16 -30q-25 -12 -101.5 -31t-164.5 -19q-117 0 -210 33t-145.5 82t-80 91t-35.5 75q-215 41 -352.5 211t-137.5 416q0 397 216 627.5t558 230.5q266 0 436.5 -174t170.5 -465q0 -375 -183.5 -598t-486.5 -256q59 -113 279 -113q90 0 200 43 q23 10 29 -8zM362 643q0 -244 130.5 -377t320.5 -133q233 0 403 186.5t170 505.5q0 248 -125.5 379t-320.5 131q-238 0 -408 -184t-170 -508z" glyph-name="Q" horiz-adv-x="1540" unicode="Q"/><glyph d="M1124 0q-80 0 -110 88l-140 401q-18 53 -40.5 80t-69.5 27h-246l-63 -453h149q23 0 21 -24l-15 -94q-4 -25 -26 -25h-469q-20 0 -19 25l13 94q2 25 26 24h150l166 1184h-148q-25 0 -20 25l12 94q4 25 27 24h604q178 0 295.5 -100t117.5 -280q0 -178 -94 -300t-266 -163 q45 -35 78 -138l110 -346h127q25 0 23 -24l-14 -94q-4 -25 -29 -25h-150zM778 739q186 0 284.5 79t98.5 261q0 131 -84 189.5t-215 58.5h-241l-84 -588h241z" glyph-name="R" horiz-adv-x="1345" unicode="R"/><glyph d="M127 0q-25 0 -21 25l66 473q4 25 29 24h121q20 0 18 -26l-4 -29q-2 -14 6 -48t34.5 -83t68.5 -93t119 -76t175 -32q147 0 225 74t78 194q0 47 -18 84t-43 60.5t-74 46t-84 35t-98 30.5q-84 25 -125 39.5t-109.5 49t-102.5 74.5t-61.5 107.5t-27.5 155.5q0 178 134 288 t355 110q279 0 383 -170l17 135q4 25 24 25h109q23 0 20 -25l-61 -440q-2 -27 -27 -27h-123q-25 0 -20 25l8 61q6 37 -8 79t-48 86t-106.5 72.5t-171.5 28.5q-158 0 -235.5 -66.5t-77.5 -176.5q0 -61 25.5 -107.5t77 -75t101.5 -48t122 -40.5q25 -6 37 -10q182 -55 281 -140 t99 -251q0 -184 -119.5 -308t-351.5 -124q-334 0 -456 227l-25 -188q-4 -25 -29 -25h-106z" glyph-name="S" horiz-adv-x="1265" unicode="S"/><glyph d="M408 0q-29 0 -25 27l12 90q4 27 33 26h143l166 1184h-336l-28 -205q-4 -29 -29 -28h-113q-27 0 -22 28l45 322q4 27 31 26h1112q27 0 22 -26l-45 -322q-4 -29 -28 -28h-113q-25 0 -21 28l29 205h-334l-166 -1184h148q25 0 20 -26l-12 -90q-4 -27 -29 -27h-460z" glyph-name="T" horiz-adv-x="1267" unicode="T"/><glyph d="M1296 1327h-147q-27 0 -21 25l13 94q2 25 28 24h463q23 0 21 -24l-15 -94q-4 -25 -26 -25h-150l-108 -776q-41 -291 -189.5 -428t-410.5 -137q-246 0 -365 145t-80 420l109 776h-150q-23 0 -18 25l12 94q4 25 27 24h469q25 0 20 -24l-12 -94q-6 -25 -29 -25h-147 l-111 -782q-27 -193 39 -296.5t260 -103.5q176 0 277.5 105.5t128.5 281.5z" glyph-name="U" horiz-adv-x="1505" unicode="U"/><glyph d="M711 0q-39 0 -56.5 18.5t-27.5 63.5l-277 1245h-125q-25 0 -20 25l12 94q4 25 27 24h446q23 0 21 -24l-15 -94q-4 -25 -26 -25h-138l232 -1141h12l551 1141h-131q-25 0 -20 25l12 94q4 25 29 24h440q23 0 20 -24l-12 -94q-2 -25 -29 -25h-125l-622 -1245 q-23 -45 -43.5 -63.5t-59.5 -18.5h-75z" glyph-name="V" horiz-adv-x="1484" unicode="V"/><glyph d="M569 0q-74 0 -82 82l-141 1245h-121q-25 0 -20 25l12 94q4 25 29 24h444q27 0 23 -24l-15 -94q-2 -25 -28 -25h-138l99 -1126h12l461 1208q23 61 76 61h61q31 0 43 -14t16 -47l125 -1208h13l417 1126h-137q-23 0 -20 25l12 94q2 25 29 24h438q23 0 21 -24l-13 -94 q-2 -25 -28 -25h-119l-490 -1245q-33 -82 -106 -82h-82q-76 0 -84 82l-107 1044h-8l-403 -1044q-33 -82 -109 -82h-80z" glyph-name="W" horiz-adv-x="2007" unicode="W"/><glyph d="M1581 1470q25 0 21 -24l-15 -94q-2 -25 -26 -25h-136l-510 -606l328 -578h150q25 0 22 -24l-12 -94q-2 -25 -29 -25h-471q-23 0 -20 25l12 94q2 25 29 24h123l-263 467l-374 -467h118q25 0 21 -24l-14 -94q-2 -25 -27 -25h-469q-23 0 -21 25l13 94q2 25 26 24h144 l501 600l-329 584h-133q-27 0 -23 25l14 94q2 25 27 24h471q20 0 19 -24l-13 -94q-2 -25 -26 -25h-140l265 -475l385 475h-125q-25 0 -21 25l12 94q4 25 29 24h467z" glyph-name="X" horiz-adv-x="1417" unicode="X"/><glyph d="M438 0q-25 0 -20 25l12 94q4 25 29 24h149l64 445l-305 739h-129q-25 0 -21 25l12 94q4 25 27 24h455q27 0 22 -24l-14 -94q-2 -25 -29 -25h-133l219 -584h8l381 584h-129q-25 0 -20 25l14 94q2 25 27 24h452q23 0 21 -24l-12 -94q-2 -25 -29 -25h-131l-516 -739 l-62 -445h152q23 0 20 -24l-14 -94q-4 -25 -27 -25h-473z" glyph-name="Y" horiz-adv-x="1349" unicode="Y"/><glyph d="M117 0q-25 0 -21 27l13 86q2 20 47 69l964 1141h-676l-24 -168q-4 -27 -33 -27h-111q-27 0 -22 27l41 289q4 27 29 26h1009q27 0 23 -26l-10 -74q-4 -27 -54 -84l-964 -1139h682l24 168q4 27 29 27h113q27 0 22 -27l-39 -288q-6 -27 -31 -27h-1011z" glyph-name="Z" horiz-adv-x="1243" unicode="Z"/><glyph d="M571 -362h-399q-25 0 -22 24l264 1882q4 25 28 25h400q29 0 24 -29l-12 -88q-4 -27 -33 -27h-254l-231 -1644h256q27 0 22 -29l-12 -88q-4 -26 -31 -26z" glyph-name="bracketleft" horiz-adv-x="690" unicode="["/><glyph d="M545 -152q-23 0 -29 25l-235 1657q-2 27 20 26h123q27 0 29 -24l235 -1659q2 -25 -20 -25h-123z" glyph-name="backslash" horiz-adv-x="770" unicode="\"/><glyph d="M18 -362q-29 0 -24 26l12 88q4 29 31 29h256l231 1644h-256q-27 0 -22 27l12 88q4 29 31 29h399q25 0 23 -25l-265 -1882q-4 -25 -28 -24h-400z" glyph-name="bracketright" horiz-adv-x="690" unicode="]"/><glyph d="M178 768l451 692q20 31 47 31h41q29 0 39 -29l256 -696q10 -27 -19 -27h-123q-27 0 -36 27l-168 498l-308 -498q-16 -27 -47 -27h-121q-12 0 -16 8.5t4 20.5z" glyph-name="asciicircum" horiz-adv-x="976" unicode="^"/><glyph d="M104 -205q-25 0 -20 27l14 104q4 27 29 27h881q27 0 22 -27l-14 -104q-4 -27 -29 -27h-883z" glyph-name="underscore" horiz-adv-x="1148" unicode="_"/><glyph d="M543 1112l-291 274q-18 18 0 39l78 76q20 20 37 4l276 -291q18 -18 -2 -38l-59 -60q-21 -22 -39 -4z" glyph-name="grave" horiz-adv-x="595" unicode="`"/><glyph d="M999 137q29 0 25 -24l-12 -88q-6 -25 -31 -25h-172q-39 0 -58.5 23.5t-13.5 62.5l8 74h-2q-137 -174 -344 -174q-131 0 -215 70.5t-84 185.5q0 166 127 251t346 85h213l9 51q33 250 -211 250q-152 0 -262 -88q-25 -16 -41 6l-43 73q-10 20 14 39q141 113 358 113 q199 0 289 -107.5t66 -285.5l-70 -492h104zM750 313l18 136h-217q-125 0 -200 -47.5t-75 -139.5q0 -61 44.5 -97t120 -36t143 35t96.5 66.5t70 82.5z" glyph-name="a" horiz-adv-x="1044" unicode="a"/><glyph d="M649 -14q-123 0 -206 60t-103 130h-4l-21 -151q-4 -25 -30 -25h-109q-25 0 -22 25l184 1308h-109q-25 0 -20 25l12 88q4 25 27 24h254q23 0 20 -24l-73 -520q-12 -66 -17 -80h4q39 74 132.5 125t211.5 51q176 0 279.5 -123t103.5 -326q0 -264 -146.5 -425.5 t-367.5 -161.5zM651 129q139 0 238.5 119t99.5 305q0 158 -67.5 242t-190.5 84q-133 0 -240.5 -120t-107.5 -317q0 -145 71.5 -229t196.5 -84z" glyph-name="b" horiz-adv-x="1165" unicode="b"/><glyph d="M674 1022q109 0 176.5 -40t85.5 -87h4l10 90q2 27 27 27h86q25 0 20 -27l-51 -371q-6 -25 -28 -24h-101q-23 0 -20 24l8 56q10 68 -47.5 138.5t-177.5 70.5q-152 0 -250.5 -117t-98.5 -316q0 -147 73 -232t200 -85q43 0 81 9t72.5 30.5t52 34t48.5 41.5l30 28q20 16 37 0 l58 -59q12 -12 -2 -35q-18 -25 -44 -49.5t-76 -61t-127 -59t-165 -22.5q-182 0 -297 120.5t-115 319.5q0 272 153 434t378 162z" glyph-name="c" horiz-adv-x="1056" unicode="c"/><glyph d="M522 -14q-168 0 -272.5 121.5t-104.5 312.5q0 270 141.5 436t375.5 166q123 0 200.5 -58.5t102.5 -129.5h6q-2 45 4 79l59 420h-106q-23 0 -21 25l13 88q2 25 28 24h252q25 0 21 -24l-185 -1309h107q25 0 20 -24l-12 -88q-4 -25 -27 -25h-184q-86 0 -72 86l13 86h-2 q-47 -76 -139.5 -131t-217.5 -55zM563 129q147 0 255 123t108 315q0 143 -74 227.5t-184 84.5q-150 0 -249.5 -119t-99.5 -320q0 -137 66.5 -224t177.5 -87z" glyph-name="d" horiz-adv-x="1202" unicode="d"/><glyph d="M674 1022q170 0 269 -118t99 -310q0 -137 -41 -137h-682v-17q0 -147 75 -229t194 -82q27 0 52.5 4t45 10.5t41 17.5t35.5 18t32.5 21.5t26.5 21.5t24.5 21.5t18.5 16.5q18 20 37 2l57 -59q14 -16 0 -37q-16 -23 -41.5 -46.5t-72.5 -57t-120 -55t-155 -21.5 q-186 0 -305 123.5t-119 324.5q0 283 154 435.5t375 152.5zM879 594q10 127 -46.5 206t-168.5 79q-129 0 -212 -79t-114 -206h541z" glyph-name="e" horiz-adv-x="1038" unicode="e"/><glyph d="M106 0q-25 0 -20 25l12 88q4 25 27 24h108l103 733h-127q-25 0 -21 25l13 88q4 25 26 25h127l19 125q27 180 114.5 266t243.5 86q133 0 197 -64q18 -18 2 -41l-47 -65q-18 -25 -43 -8q-66 33 -111 32q-72 0 -121 -50t-63 -146l-19 -135h234q27 0 22 -25l-14 -88 q-2 -25 -27 -25h-235l-103 -733h193q23 0 20 -24l-12 -88q-2 -25 -29 -25h-469z" glyph-name="f" horiz-adv-x="694" unicode="f"/><glyph d="M879 172h-5q-43 -76 -134 -131t-218 -55q-168 0 -272.5 121.5t-104.5 312.5q0 270 141.5 436t375.5 166q125 0 202.5 -56.5t110.5 -131.5h6l18 149q4 25 27 25h238q23 0 20 -25l-12 -88q-2 -25 -27 -25h-106l-119 -845q-63 -459 -561 -459q-209 0 -350 121q-20 18 -3 37 l70 81q14 18 35 5l14 -13q16 -12 28.5 -21t37 -22.5t50.5 -23t60.5 -15.5t73.5 -6q334 0 377 316l4 28q5 37 23 119zM563 129q147 0 255 123t108 315q0 143 -74 227.5t-184 84.5q-150 0 -249.5 -119t-99.5 -320q0 -137 66.5 -224t177.5 -87z" glyph-name="g" horiz-adv-x="1202" unicode="g"/><glyph d="M459 864h6q111 158 311 158q164 0 251 -103.5t63 -275.5l-72 -506h106q27 0 23 -24l-12 -88q-6 -25 -31 -25h-189q-45 0 -63 19.5t-10 66.5l73 537q16 117 -32.5 184t-151.5 67q-178 0 -276 -182l-78 -555h104q23 0 21 -24l-13 -88q-2 -25 -26 -25h-385q-20 0 -19 25 l13 88q2 25 26 24h109l168 1196h-109q-25 0 -20 25l12 88q4 25 27 24h237q23 0 21 -24l-66 -471z" glyph-name="h" horiz-adv-x="1173" unicode="h"/><glyph d="M442 1206q-51 0 -84.5 36t-33.5 85q0 59 43 100t100 41q49 0 83 -35.5t34 -86.5q0 -59 -41.5 -99.5t-100.5 -40.5zM98 0q-20 0 -18 25l12 88q2 25 27 24h108l103 733h-109q-25 0 -20 25l12 88q4 25 29 25h252q27 0 22 -25l-119 -846h107q25 0 20 -24l-12 -88 q-4 -25 -29 -25h-385z" glyph-name="i" horiz-adv-x="563" unicode="i"/><glyph d="M432 1206q-51 0 -85 36t-34 85q0 59 43 100t101 41q49 0 82.5 -35.5t33.5 -86.5q0 -59 -41 -99.5t-100 -40.5zM489 1008q23 0 21 -25l-150 -1067q-51 -348 -358 -348q-125 0 -197 63q-18 18 -4 41l60 74q18 25 41 8q61 -41 116 -41q68 0 113 53.5t59 151.5l134 952h-107 q-25 0 -20 25l12 88q4 25 27 25h253z" glyph-name="j" horiz-adv-x="520" unicode="j"/><glyph d="M1182 1008q23 0 18 -25l-12 -88q-4 -25 -27 -25h-92l-330 -272l260 -461h113q23 0 21 -24l-13 -88q-2 -25 -26 -25h-160q-49 0 -72 39l-256 448l-205 -163l-26 -187h108q20 0 19 -24l-13 -88q-2 -25 -26 -25h-385q-20 0 -19 25l13 88q2 25 26 24h109l168 1196h-109 q-25 0 -20 25l12 88q4 25 27 24h254q23 0 20 -24l-131 -938l432 362h-78q-25 0 -20 25l12 88q4 25 27 25h381z" glyph-name="k" horiz-adv-x="1122" unicode="k"/><glyph d="M80 0q-23 0 -21 25l13 88q2 25 28 24h107l168 1196h-107q-27 0 -22 25l12 88q4 25 29 24h225q51 0 43 -51l-178 -1282h104q27 0 23 -24l-12 -88q-4 -25 -29 -25h-383z" glyph-name="l" horiz-adv-x="542" unicode="l"/><glyph d="M1731 137q27 0 22 -24l-12 -88q-6 -25 -31 -25h-188q-45 0 -63.5 19.5t-10.5 66.5l74 537q14 117 -30 184t-134 67q-156 0 -268 -176q0 -18 -5 -55l-71 -506h100q25 0 23 -24l-13 -88q-6 -25 -30 -25h-371q-23 0 -16 25l12 88q2 25 24 24h101l67 486q14 117 -29.5 184 t-133.5 67q-162 0 -275 -188l-78 -549h107q23 0 20 -24l-12 -88q-2 -25 -29 -25h-383q-25 0 -18 25l12 88q2 25 27 24h106l105 733h-109q-25 0 -20 25l12 88q4 25 27 25h235q20 0 19 -25l-19 -111h8q119 150 310 150q215 0 276 -180q47 72 132 126t202 54 q152 0 232.5 -101.5t60.5 -277.5l-72 -506h107z" glyph-name="m" horiz-adv-x="1777" unicode="m"/><glyph d="M98 0q-25 0 -18 25l12 88q2 25 27 24h106l105 733h-109q-25 0 -20 25l12 88q4 25 27 25h235q25 0 21 -25l-21 -119h8q125 158 314 158q164 0 251 -103.5t62 -275.5l-72 -506h107q27 0 22 -24l-12 -88q-6 -25 -31 -25h-188q-45 0 -63.5 19.5t-10.5 66.5l74 537 q16 117 -33 184t-151 67q-174 0 -279 -182l-78 -555h107q23 0 20 -24l-12 -88q-6 -25 -27 -25h-385z" glyph-name="n" horiz-adv-x="1191" unicode="n"/><glyph d="M567 -14q-188 0 -306 123.5t-118 324.5q0 256 153 422t394 166q195 0 310.5 -125t115.5 -326q0 -266 -150.5 -425.5t-398.5 -159.5zM588 129q150 0 253 122t103 304q0 143 -72.5 233.5t-199.5 90.5q-150 0 -252.5 -122t-102.5 -304q0 -150 71 -237t200 -87z" glyph-name="o" horiz-adv-x="1118" unicode="o"/><glyph d="M18 -420q-23 0 -18 25l12 88q4 25 27 24h108l162 1153h-108q-20 0 -19 25l13 88q2 25 26 25h244q23 0 18 -25q-12 -76 -26 -154h6q41 80 136 136.5t218 56.5q176 0 279.5 -123t103.5 -326q0 -264 -146.5 -425.5t-367.5 -161.5q-123 0 -206 60t-101 130h-4 q-6 -78 -13 -131l-45 -328h125q25 0 21 -24l-12 -88q-4 -25 -27 -25h-406zM688 129q139 0 238.5 119t99.5 305q0 158 -67.5 242t-190.5 84q-133 0 -240.5 -120t-107.5 -317q0 -145 71.5 -229t196.5 -84z" glyph-name="p" horiz-adv-x="1202" unicode="p"/><glyph d="M662 -420q-23 0 -21 25l12 88q2 25 27 24h129l45 324q8 66 23 131h-3q-39 -76 -132 -131t-220 -55q-168 0 -272.5 121.5t-104.5 312.5q0 270 141.5 436t375.5 166q127 0 204.5 -57.5t106.5 -130.5h6l18 149q2 25 27 25h111q25 0 20 -25l-178 -1266h106q23 0 21 -24 l-12 -88q-2 -25 -27 -25h-403zM563 129q147 0 255 123t108 315q0 143 -74 227.5t-184 84.5q-150 0 -249.5 -119t-99.5 -320q0 -137 66.5 -224t177.5 -87z" glyph-name="q" horiz-adv-x="1165" unicode="q"/><glyph d="M98 0q-20 0 -18 25l12 88q2 25 27 24h106l105 733h-109q-25 0 -20 25l12 88q4 25 27 25h235q25 0 21 -25l-29 -201h6q6 18 27.5 49t65.5 75t124 75t178 31q27 0 23 -27l-17 -119q-4 -27 -30 -26h-39q-133 0 -237.5 -114t-125.5 -259l-47 -330h180q23 0 21 -24l-12 -88 q-2 -25 -29 -25h-457z" glyph-name="r" horiz-adv-x="792" unicode="r"/><glyph d="M539 -14q-135 0 -208 46t-87 89h-4q-10 -88 -11 -94q-4 -27 -30 -27h-80q-29 0 -23 27l47 327q4 27 29 27h90q23 0 23 -27v-6q-4 -74 58.5 -146.5t182.5 -72.5q104 0 164 40t60 105q0 53 -39 88t-97.5 51.5t-127 39t-127 48t-97.5 82t-39 140.5q0 139 106.5 219t262.5 80 q186 0 254 -109h2l4 68q4 27 33 27h80q27 0 22 -27l-39 -287q-6 -27 -33 -26h-88q-27 0 -22 26l4 29q10 72 -50.5 114t-168.5 42q-86 0 -139.5 -37t-53.5 -103q0 -55 54.5 -90t131 -54.5t154.5 -46t132.5 -89t54.5 -158.5q0 -145 -104.5 -230t-280.5 -85z" glyph-name="s" horiz-adv-x="968" unicode="s"/><glyph d="M510 -14q-137 0 -209 91t-47 257l76 536h-156q-29 0 -24 27l12 84q4 27 31 27h155l29 206q4 29 29 29h116q29 0 25 -29l-29 -206h297q29 0 25 -27l-13 -84q-4 -27 -30 -27h-297l-76 -534q-14 -109 17.5 -157t109.5 -48q51 0 111 33q31 18 43 -6l34 -70q10 -23 -14 -41 q-78 -61 -215 -61z" glyph-name="t" horiz-adv-x="745" unicode="t"/><glyph d="M524 -14q-158 0 -240.5 103.5t-58.5 275.5l72 505h-107q-27 0 -22 25l12 88q4 25 31 25h248q25 0 22 -25l-84 -598q-16 -117 29 -184.5t143 -67.5q174 0 279 182l78 555h-109q-23 0 -18 25l12 88q4 25 27 25h252q25 0 20 -25l-119 -846h111q20 0 18 -24l-12 -88 q-2 -25 -27 -25h-174q-86 0 -71 86l8 57h-6q-72 -84 -136 -116q-80 -41 -178 -41z" glyph-name="u" horiz-adv-x="1159" unicode="u"/><glyph d="M506 0q-35 0 -43 37l-199 833h-100q-25 0 -21 25l13 88q4 25 28 25h394q25 0 20 -25l-12 -88q-4 -25 -27 -25h-113l148 -714h4l363 714h-101q-25 0 -20 25l12 88q4 25 27 25h378q25 0 21 -25l-12 -88q-4 -25 -29 -25h-98l-434 -833q-18 -37 -52 -37h-147z" glyph-name="v" horiz-adv-x="1155" unicode="v"/><glyph d="M451 0q-35 0 -41 43l-142 827h-106q-23 0 -21 25l13 88q2 25 26 25h369q25 0 20 -25l-10 -88q-6 -25 -31 -25h-88l95 -690h4l290 783q16 45 56 45h78q45 0 47 -43l63 -785h4l287 690h-82q-25 0 -22 25l12 88q2 25 28 25h361q23 0 20 -25l-12 -88q-2 -25 -27 -25h-96 l-372 -827q-23 -43 -54 -43h-123q-43 0 -45 43l-61 700h-6l-258 -700q-16 -43 -58 -43h-118z" glyph-name="w" horiz-adv-x="1558" unicode="w"/><glyph d="M1143 1006q25 0 22 -25l-12 -88q-6 -25 -31 -25h-69l-353 -370l224 -361h98q27 0 22 -24l-12 -88q-6 -25 -31 -25h-362q-25 0 -23 25l13 88q2 25 28 24h95l-162 262l-250 -262h74q25 0 22 -24l-12 -88q-6 -25 -29 -25h-323q-23 0 -21 25l12 88q2 25 27 24h72l358 371 l-215 362h-100q-20 0 -19 25l13 88q2 25 26 25h365q25 0 20 -25l-12 -88q-4 -25 -29 -25h-92l152 -264l245 262h-73q-23 0 -21 25l13 88q2 25 26 25h324z" glyph-name="x" horiz-adv-x="1073" unicode="x"/><glyph d="M1257 1008q25 0 21 -25l-12 -88q-4 -25 -29 -25h-98l-434 -833l-7 -10l-59 -113q-37 -68 -48 -90.5t-42 -73.5t-46.5 -67.5t-46 -47t-57 -41t-62.5 -19.5t-79 -9q-78 0 -129 21.5t-66 43.5q-14 20 0 37l64 72q14 16 35 2q49 -33 98 -33q72 0 120 47t105 160l43 84h-24 q-20 0 -28.5 7t-12.5 30l-199 833h-100q-25 0 -21 25l13 88q4 25 28 25h396q23 0 18 -25l-10 -88q-2 -25 -29 -25h-115l152 -727h4l365 727h-103q-23 0 -20 25l12 88q2 25 27 25h376z" glyph-name="y" horiz-adv-x="1153" unicode="y"/><glyph d="M104 0q-23 0 -18 25l10 84q4 33 41 69l662 692h-441l-22 -163q-4 -25 -25 -25h-102q-25 0 -21 25l39 276q2 25 27 25h745q25 0 21 -25l-8 -72q-4 -27 -39 -65l-666 -709h469l23 162q4 25 26 25h101q25 0 20 -25l-39 -274q-2 -25 -26 -25h-777z" glyph-name="z" horiz-adv-x="980" unicode="z"/><glyph d="M211 -41l49 352q14 102 -23.5 169t-76.5 67q-29 0 -25 28l10 64q4 27 31 27q39 0 96.5 66.5t71.5 170.5l47 340q27 182 123 253t260 71q29 0 25 -27l-13 -90q-4 -27 -32 -27q-170 0 -197 -194l-45 -324q-10 -82 -49 -147.5t-72 -89.5l-33 -27l-10 -70q12 -8 28.5 -26.5 t40 -86t11.5 -149.5l-47 -336q-14 -102 22.5 -146t120.5 -44q27 0 23 -27l-12 -90q-4 -27 -31 -26q-145 0 -230.5 77.5t-62.5 241.5z" glyph-name="braceleft" horiz-adv-x="649" unicode="{"/><glyph d="M184 -268q-25 0 -22 24l250 1776q2 25 28 24h123q23 0 21 -24l-250 -1776q-2 -25 -29 -24h-121z" glyph-name="bar" horiz-adv-x="563" unicode="|"/><glyph d="M45 -360q-29 0 -25 26l13 90q4 27 33 27q168 0 194 190l47 336q8 51 26.5 97.5t39 75t41 50t32.5 29.5l15 10l10 70q-12 8 -28.5 27.5t-39 87t-12.5 149.5l45 324q14 104 -20.5 149t-120.5 45q-29 0 -25 27l15 90q4 27 30 27q141 0 227.5 -80t63.5 -244l-47 -340 q-14 -104 24 -170.5t76 -66.5q29 0 25 -27l-10 -64q-4 -29 -31 -28q-39 0 -96.5 -66.5t-71.5 -169.5l-49 -352q-27 -190 -125 -254.5t-256 -64.5z" glyph-name="braceright" horiz-adv-x="649" unicode="}"/><glyph d="M221 446q-23 0 -22 21q0 106 62.5 184t187.5 78q72 0 152.5 -46t123.5 -46q78 0 86 72q2 27 31 26h110q23 0 23 -20q0 -106 -62.5 -185t-187.5 -79q-84 0 -162 47t-114 47q-78 0 -87 -74q-2 -25 -30 -25h-111z" glyph-name="asciitilde" horiz-adv-x="1005" unicode="~"/><glyph d="M381 760q-51 0 -86 34.5t-35 86.5q0 61 40 101t101 40q51 0 85 -38t34 -89q0 -57 -41 -96t-98 -39zM303 623h94q25 0 21 -25l-139 -1122q-6 -25 -29 -25h-129q-27 0 -23 25l176 1122q4 25 29 25z" glyph-name="exclamdown" horiz-adv-x="524" unicode="¡"/><glyph d="M1126 1155q25 0 21 -27l-51 -370q-6 -25 -29 -25h-100q-25 0 -21 25l8 55q10 68 -50 138.5t-191 70.5q-160 0 -263.5 -117t-103.5 -315q0 -147 78 -232.5t213 -85.5q74 0 141.5 28t90 45t65.5 56q20 16 35 0l59 -59q12 -14 -4 -35q-20 -29 -55 -59.5t-120 -69.5t-187 -47 l-19 -131q-4 -25 -29 -25h-104q-25 0 -18 25l18 137q-154 29 -246 143.5t-92 288.5q0 252 137 410t346 182l19 137q2 25 26 25h103q25 0 22 -25l-20 -139q80 -14 130 -49t64 -72h5l10 90q2 27 26 27h86z" glyph-name="cent" horiz-adv-x="1112" unicode="¢"/><glyph d="M860 1483q203 0 316.5 -114t89.5 -308l-4 -33q-4 -25 -27 -24h-129q-20 0 -19 24l5 35q14 113 -60 188.5t-194 75.5q-152 0 -246 -81t-94 -230q0 -57 11 -110.5t37.5 -128.5t33.5 -91h426q23 0 18 -27l-10 -75q-2 -25 -27 -25h-379v-20q0 -111 -65.5 -214.5 t-153.5 -170.5h733q25 0 21 -25l-15 -104q-2 -25 -26 -25h-957q-23 0 -20 25l14 98q6 31 27 45q2 2 26.5 17.5t39 24.5t43 30.5t47 40t41 47t37 57.5t23.5 65.5t9 75.5q0 23 -2 33h-248q-23 0 -20 25l10 75q4 27 27 27h200q-4 12 -19 50t-23.5 59.5t-18.5 56.5t-14.5 73 t-4.5 79q0 209 147.5 344t393.5 135z" glyph-name="sterling" horiz-adv-x="1212" unicode="£"/><glyph d="M1294 1214q16 -18 -2 -36l-131 -134q72 -113 72 -268q0 -262 -152 -424l93 -131q12 -18 -11 -35l-94 -65q-23 -12 -33 2l-88 129q-117 -61 -268 -62q-139 0 -244 70l-127 -133q-20 -20 -37 -4l-84 78q-18 16 2 37l134 137q-72 115 -72 264q0 256 151 420l-94 135 q-10 16 10 35l95 63q20 14 32 -2l89 -129q115 66 268 66q141 0 244 -68l124 129q20 20 39 2zM426 657q0 -147 71.5 -232t202.5 -85q152 0 256.5 121t104.5 299q0 141 -74 229t-203 88q-152 0 -255 -121t-103 -299z" glyph-name="currency" horiz-adv-x="1280" unicode="¤"/><glyph d="M1538 1470q23 0 21 -24l-13 -94q-2 -25 -28 -25h-129l-424 -604h249q23 0 19 -27l-8 -65q-4 -27 -27 -27h-315l-13 -16l-20 -152h321q27 0 23 -26l-10 -66q-4 -27 -29 -27h-321l-25 -174h152q23 0 20 -24l-14 -94q-4 -25 -27 -25h-473q-25 0 -21 25l13 94q4 25 28 24h154 l25 174h-326q-27 0 -23 27l11 66q4 27 28 26h326l23 152l-7 16h-319q-25 0 -21 27l9 65q4 27 28 27h254l-252 604h-129q-23 0 -20 25l12 94q2 25 27 24h454q25 0 23 -24l-14 -94q-4 -25 -29 -25h-133l219 -584h8l381 584h-129q-23 0 -20 25l12 94q2 25 26 24h453z" glyph-name="yen" horiz-adv-x="1411" unicode="¥"/><glyph d="M338 840q-23 0 -21 24l95 668q2 25 26 24h123q25 0 23 -24l-95 -668q-2 -25 -28 -24h-123zM182 -268q-23 0 -20 24l94 668q2 25 27 25h123q25 0 22 -25l-94 -668q-2 -25 -29 -24h-123z" glyph-name="brokenbar" horiz-adv-x="563" unicode="¦"/><glyph d="M1208 449q0 -168 -131 -287q66 -68 66 -217q0 -197 -136.5 -308.5t-361.5 -111.5q-98 0 -176 25.5t-125 68.5t-73.5 81t-41.5 79l-26 -215q-6 -25 -29 -25h-106q-25 0 -21 23l66 473q2 25 28 24h119q23 0 21 -24l-5 -31q-2 -14 5.5 -47t33 -81t64.5 -90t113.5 -72.5 t169.5 -30.5q135 0 215.5 67.5t80.5 165.5q0 106 -74.5 170t-181 95.5t-214 67.5t-182.5 118t-75 215q0 170 129 266q-66 76 -65 211q0 182 128 303t339 121q133 0 224 -45t130 -119l17 129q0 25 26 25h107q25 0 20 -23l-61 -440q-6 -27 -27 -27h-123q-23 0 -18 25l8 59 q10 84 -62.5 171t-244.5 87q-129 0 -206 -67.5t-77 -172.5q0 -96 76 -157.5t183.5 -94t215 -69.5t183 -114.5t75.5 -200.5zM1026 418q0 78 -59.5 129t-136 73.5t-181 55.5t-162.5 69q-80 -49 -79.5 -135t59.5 -142t135 -78.5t180.5 -56.5t161.5 -69q82 60 82 154z" glyph-name="section" horiz-adv-x="1253" unicode="§"/><glyph d="M350 1192q-49 0 -83 34t-34 83q0 59 42 99t100 40q47 0 80.5 -35t33.5 -86q0 -55 -40 -95t-99 -40zM735 1192q-49 0 -83 34t-34 83q0 59 42 99t100 40q47 0 80.5 -35t33.5 -86q0 -55 -40 -95t-99 -40z" glyph-name="dieresis" horiz-adv-x="684" unicode="¨"/><glyph d="M1419 766q0 -295 -198.5 -494.5t-477.5 -199.5q-242 0 -399.5 165.5t-159.5 417.5q-2 289 202 494t478 205q242 0 398.5 -167t156.5 -421zM1280 754q0 201 -120 327.5t-312 126.5q-215 0 -367.5 -152.5t-152.5 -383.5q0 -201 117.5 -329t310.5 -128q213 0 368.5 154 t155.5 385zM1042 541q10 -10 5 -25q-88 -162 -285 -162q-133 0 -214 86t-81 244q0 176 110.5 287.5t268.5 111.5q182 0 256 -161q8 -20 -6 -29l-80 -49q-18 -10 -25 4q-41 98 -160 98q-88 0 -155.5 -66.5t-67.5 -177.5q0 -104 46 -157t120 -53q125 0 180 90q8 18 25 6z" glyph-name="copyright" horiz-adv-x="1406" unicode="©"/><glyph d="M834 938q16 0 16 -16l-12 -86q-2 -16 -21 -17h-137q-53 0 -47 55l4 44h-4q-80 -109 -207 -109q-88 0 -141.5 48t-53.5 128q0 100 84 157.5t244 57.5h100l5 27q20 137 -125 137q-25 0 -49.5 -5t-44 -12.5t-34 -14.5t-26.5 -15t-14 -8q-16 -8 -23 8l-26 69q-6 14 4 23 q12 10 36.5 24.5t82 32t118.5 17.5q129 0 195.5 -70t50.5 -190l-41 -285h66zM633 1012l14 98h-90q-178 0 -178 -111q0 -76 88 -75q96 0 166 88z" glyph-name="ordfeminine" horiz-adv-x="817" unicode="ª"/><glyph d="M463 123l-289 313q-20 20 -18 43l6 49q2 18 31 43l378 314q8 8 17.5 6t7.5 -17l-16 -135q-2 -23 -33 -45l-242 -200l184 -201q23 -23 21 -45l-18 -115q-6 -33 -29 -10zM866 123l-288 313q-20 20 -19 43l6 49q2 18 31 43l379 314q8 8 17 6t7 -17l-16 -135q-2 -23 -33 -45 l-241 -200l184 -201q23 -23 20 -45l-18 -115q-6 -33 -29 -10z" glyph-name="guillemotleft" horiz-adv-x="1040" unicode="«"/><glyph d="M985 289q-23 0 -20 24l49 351h-783q-29 0 -24 26l12 88q4 27 33 27h901q27 0 23 -27l-66 -465q-4 -25 -29 -24h-96z" glyph-name="logicalnot" horiz-adv-x="1206" unicode="¬"/><glyph d="M1419 766q0 -291 -201.5 -492.5t-474.5 -201.5q-242 0 -399.5 165.5t-159.5 417.5q-2 289 202 494t478 205q242 0 398.5 -167t156.5 -421zM1280 754q0 201 -120 327.5t-312 126.5q-215 0 -367.5 -152.5t-152.5 -383.5q0 -201 117.5 -329t310.5 -128q213 0 368.5 154 t155.5 385zM492 362q-8 0 -7 13l13 90q0 10 10 10h53l70 494h-53q-8 0 -7 14l13 88q0 10 10 10h289q90 0 143 -52t53 -148q0 -80 -45 -135.5t-119 -79.5q8 -14 23 -54l49 -137h66q8 0 8 -10l-12 -90q-4 -12 -13 -13h-102q-31 0 -45 48l-70 200q-16 43 -41 43h-78l-24 -178 h65q10 0 11 -12l-13 -88q-2 -12 -14 -13h-233zM715 756h116q127 0 127 114q0 98 -98 99h-115z" glyph-name="registered" horiz-adv-x="1406" unicode="®"/><glyph d="M274 1225q-27 0 -20 26l12 86q4 29 29 29h579q27 0 23 -29l-12 -86q-6 -27 -31 -26h-580z" glyph-name="macron" horiz-adv-x="823" unicode="¯"/><glyph d="M492 926q-106 0 -171 66.5t-65 178.5q0 139 88 226.5t215 87.5q106 0 171 -66.5t65 -179.5q0 -139 -88 -226t-215 -87zM508 1061q61 0 105 44t44 118q0 59 -31.5 93t-82.5 34q-61 0 -105.5 -44t-44.5 -118q0 -59 32 -93t83 -34z" glyph-name="degree" horiz-adv-x="708" unicode="°"/><glyph d="M504 330q-23 0 -21 26l45 322h-292q-29 0 -25 27l14 104q4 27 33 27h293l47 333q4 27 27 27h118q27 0 23 -27l-47 -333h293q29 0 24 -27l-16 -104q-4 -27 -31 -27h-293l-45 -322q-4 -27 -28 -26h-119zM143 66q-27 0 -22 26l14 103q4 29 31 28h756q25 0 20 -28l-14 -103 q-4 -27 -29 -26h-756z" glyph-name="plusminus" horiz-adv-x="1030" unicode="±"/><glyph d="M346 1110q-23 -14 -37 6l-45 62q-16 18 8 39l357 290q23 18 39 -2l59 -82q16 -20 -10 -39z" glyph-name="acute" horiz-adv-x="616" unicode="´"/><glyph d="M944 0q-43 0 -60.5 19.5t-11.5 66.5l11 76h-4q-106 -176 -308 -176q-113 0 -184 47l-65 -469q-2 -25 -27 -25h-121q-23 0 -20 25l184 1306h-111q-23 0 -20 25l12 88q2 25 29 25h192q43 0 60.5 -19.5t11.5 -66.5l-74 -519q-18 -129 28 -199.5t142 -70.5q170 0 281 182 l78 555h-105q-23 0 -20 25l12 88q2 25 29 25h247q20 0 19 -25l-119 -846h107q27 0 22 -24l-12 -88q-4 -25 -29 -25h-174z" glyph-name="uni00B5" horiz-adv-x="1230" unicode="µ"/><glyph d="M889 -160q-20 0 -19 25l205 1452h-139l-205 -1452q-2 -25 -29 -25h-127q-27 0 -20 25l86 618h-35q-193 0 -305.5 109.5t-112.5 312.5q0 262 165 413.5t399 151.5h602q23 0 20 -24l-14 -105q-6 -25 -29 -24h-82l-205 -1452q-4 -25 -26 -25h-129z" glyph-name="paragraph" horiz-adv-x="1290" unicode="¶"/><glyph d="M330 481q-51 0 -85 36t-34 85q0 59 43 100t100 41q49 0 83 -35.5t34 -86.5q0 -59 -41 -99.5t-100 -40.5z" glyph-name="periodcentered" horiz-adv-x="509" unicode="·"/><glyph d="M172 -420q-90 0 -149 47q-12 10 0 33l32 59q10 20 35 7q45 -27 88 -27q61 0 62 57q0 55 -86 56q-49 0 -33 38l74 166l104 -2l-51 -110q47 -6 90 -41t43 -107q0 -78 -52.5 -127t-156.5 -49z" glyph-name="cedilla" horiz-adv-x="483" unicode="¸"/><glyph d="M522 811q-125 -2 -201.5 78t-78.5 211q0 168 101 275.5t261 107.5q129 0 206 -81t77 -210q0 -174 -100.5 -277.5t-264.5 -103.5zM543 942q78 0 132 66.5t54 165.5q0 80 -38 129t-105 49q-78 0 -132.5 -66.5t-54.5 -165.5q0 -82 38 -130t106 -48z" glyph-name="ordmasculine" horiz-adv-x="806" unicode="º"/><glyph d="M150 133l18 133q2 25 31 45l241 197l-184 205q-23 27 -20 45l18 116q2 14 11 16.5t18 -5.5l288 -314q23 -23 21 -43l-8 -49q-2 -18 -31 -43l-379 -313q-8 -8 -17 -6t-7 16zM553 133l18 133q2 25 31 45l242 197l-185 205q-23 27 -20 45l18 116q2 14 11.5 16.5t17.5 -5.5 l289 -314q23 -23 20 -43l-8 -49q-2 -18 -31 -43l-378 -313q-8 -8 -17.5 -6t-7.5 16z" glyph-name="guillemotright" horiz-adv-x="1007" unicode="»"/><glyph d="M446 -55q-23 4 -10 26l887 1538q10 23 39 19l100 -15q18 -4 8 -24l-886 -1538q-12 -23 -35 -19zM729 827q18 0 19 -18l-15 -94q-2 -20 -22 -21h-490q-18 0 -16 21l14 94q2 18 21 18h176l73 516l-176 -90q-14 -6 -18 7l-33 88q-6 12 12 22l230 119q27 14 53 14h102 q14 0 15 -18l-92 -658h147zM1430 584q4 16 18 16h125q18 0 14 -16l-37 -269h88q16 0 15 -14l-15 -100q-4 -16 -18 -17h-90l-23 -168q-4 -16 -18 -16h-127q-16 0 -12 16l22 168h-403q-16 0 -15 15l13 80q4 31 28 65q133 178 262 442q12 23 35 23h127q20 0 11 -25 q-154 -299 -281 -471h242z" glyph-name="onequarter" horiz-adv-x="1667" unicode="¼"/><glyph d="M436 -55q-23 4 -10 26l887 1538q10 23 39 19l100 -15q18 -4 8 -24l-887 -1538q-12 -23 -34 -19zM721 827q18 0 18 -18l-14 -94q-2 -20 -23 -21h-489q-18 0 -16 21l14 94q2 18 20 18h177l73 516l-176 -90q-14 -6 -18 7l-33 88q-6 12 12 22l230 119q27 14 53 14h102 q14 0 15 -18l-93 -658h148zM1421 815q125 0 193.5 -68.5t68.5 -164.5q0 -86 -44 -148.5t-109.5 -97.5t-133 -62.5t-120.5 -62.5t-66 -78h406q16 0 16 -16l-14 -97q-4 -20 -23 -20h-565q-18 0 -16 20l8 62q12 96 69.5 162.5t128 100.5t139 61.5t116 69.5t47.5 104 q0 43 -31 68.5t-84 25.5q-104 0 -184 -103q-12 -16 -25 -4l-84 60q-10 6 -2 18q108 170 309 170z" glyph-name="onehalf" horiz-adv-x="1683" unicode="½"/><glyph d="M551 -68l-102 13q-23 4 -11 26l887 1538q10 23 39 19l100 -15q18 -4 9 -24l-887 -1538q-12 -23 -35 -19zM487 686q-133 0 -208.5 46t-96.5 89q-6 12 6 21l93 78q10 10 20 0q78 -92 195 -93q70 0 113.5 30t43.5 81q0 106 -153 106h-51q-14 0 -13 15l13 92q2 16 18 16h35 q68 0 121 28t53 87q0 86 -113 86q-51 0 -86 -21.5t-82 -70.5q-12 -12 -22 -4l-86 61q-12 8 -2 21q106 154 293 153q125 0 192.5 -61.5t67.5 -142.5q0 -86 -66.5 -138.5t-107.5 -54.5q16 -4 34.5 -12t46 -26.5t45 -55.5t17.5 -84q0 -111 -87.5 -178.5t-232.5 -67.5zM1432 584 q4 16 18 16h125q18 0 14 -16l-37 -269h88q16 0 15 -14l-15 -100q-4 -16 -18 -17h-90l-23 -168q-4 -16 -18 -16h-127q-16 0 -12 16l22 168h-403q-16 0 -15 15l13 80q4 31 28 65q133 178 263 442q10 23 34 23h127q20 0 11 -25q-154 -299 -281 -471h242z" glyph-name="threequarters" horiz-adv-x="1673" unicode="¾"/><glyph d="M684 1022q51 0 86 -35t35 -86q0 -61 -40 -101t-101 -40q-51 0 -85 38t-34 89q0 57 41 96t98 39zM702 623q23 0 23 -21q-4 -109 -58.5 -192.5t-129 -137t-148.5 -104.5t-125 -123t-51 -164q0 -246 246 -246q137 0 225 95.5t94 255.5q4 25 27 24h121q23 0 22 -20 q2 -82 -25.5 -168t-85 -163t-160 -126t-233.5 -49q-197 0 -301 106.5t-104 276.5q0 123 49 214t121 147.5t145.5 105.5t131 115.5t67.5 148.5q4 25 29 25h120z" glyph-name="questiondown" horiz-adv-x="1005" unicode="¿"/><glyph d="M1067 1573l-311 258q-23 14 -2 39l71 80q20 25 39 6l297 -275q18 -14 0 -36l-55 -66q-16 -24 -39 -6zM993 0q-23 0 -20 25l12 94q2 25 29 24h139l-72 357h-542l-174 -357h135q25 0 22 -24l-14 -94q-4 -25 -29 -25h-436q-23 0 -18 25l12 94q4 25 26 24h130l585 1184h-110 q-25 0 -21 25l12 94q4 25 29 24h264q47 0 69.5 -20t33.5 -68l270 -1239h129q25 0 21 -24l-13 -94q-4 -25 -28 -25h-441zM922 1268h-13l-297 -621h439z" glyph-name="Agrave" horiz-adv-x="1468" unicode="À"/><glyph d="M803 1577q-20 -16 -37 6l-45 66q-14 20 10 39l373 274q23 16 37 -6l59 -88q16 -20 -12 -39zM993 0q-23 0 -20 25l12 94q2 25 29 24h139l-72 357h-542l-174 -357h135q25 0 22 -24l-14 -94q-4 -25 -29 -25h-436q-23 0 -18 25l12 94q4 25 26 24h130l585 1184h-110 q-25 0 -21 25l12 94q4 25 29 24h264q47 0 69.5 -20t33.5 -68l270 -1239h129q25 0 21 -24l-13 -94q-4 -25 -28 -25h-441zM922 1268h-13l-297 -621h439z" glyph-name="Aacute" horiz-adv-x="1468" unicode="Á"/><glyph d="M711 1577q-20 -16 -37 4l-45 64q-14 23 8 38l328 252q14 10 22 11q10 0 21 -11l270 -260q18 -18 0 -39l-57 -55q-18 -20 -37 -2l-211 193zM993 0q-23 0 -20 25l12 94q2 25 29 24h139l-72 357h-542l-174 -357h135q25 0 22 -24l-14 -94q-4 -25 -29 -25h-436q-23 0 -18 25 l12 94q4 25 26 24h130l585 1184h-110q-25 0 -21 25l12 94q4 25 29 24h264q47 0 69.5 -20t33.5 -68l270 -1239h129q25 0 21 -24l-13 -94q-4 -25 -28 -25h-441zM922 1268h-13l-297 -621h439z" glyph-name="Acircumflex" horiz-adv-x="1468" unicode="Â"/><glyph d="M645 1626q-20 0 -20 19q0 102 54 170.5t165 68.5q70 0 140.5 -52t105.5 -52q72 0 79 114q0 25 27 25h78q23 0 22 -21q0 -119 -53 -188.5t-164 -69.5q-72 0 -138.5 52.5t-104.5 52.5q-76 0 -84 -94q-2 -25 -29 -25h-78zM993 0q-23 0 -20 25l12 94q2 25 29 24h139l-72 357 h-542l-174 -357h135q25 0 22 -24l-14 -94q-4 -25 -29 -25h-436q-23 0 -18 25l12 94q4 25 26 24h130l585 1184h-110q-25 0 -21 25l12 94q4 25 29 24h264q47 0 69.5 -20t33.5 -68l270 -1239h129q25 0 21 -24l-13 -94q-4 -25 -28 -25h-441zM922 1268h-13l-297 -621h439z" glyph-name="Atilde" horiz-adv-x="1468" unicode="Ã"/><glyph d="M754 1647q-47 0 -79 33.5t-32 78.5q0 57 40 96t93 39q47 0 80 -34.5t33 -81.5q0 -53 -39 -92t-96 -39zM1149 1647q-47 0 -79 33.5t-32 78.5q0 57 40 96t93 39q47 0 80 -34.5t33 -81.5q0 -53 -39 -92t-96 -39zM993 0q-23 0 -20 25l12 94q2 25 29 24h139l-72 357h-542 l-174 -357h135q25 0 22 -24l-14 -94q-4 -25 -29 -25h-436q-23 0 -18 25l12 94q4 25 26 24h130l585 1184h-110q-25 0 -21 25l12 94q4 25 29 24h264q47 0 69.5 -20t33.5 -68l270 -1239h129q25 0 21 -24l-13 -94q-4 -25 -28 -25h-441zM922 1268h-13l-297 -621h439z" glyph-name="Adieresis" horiz-adv-x="1468" unicode="Ä"/><glyph d="M946 1559q-74 0 -124 52t-50 126q0 94 58.5 152.5t146.5 58.5q76 0 126 -55.5t50 -129.5q0 -88 -60.5 -146t-146.5 -58zM958 1675q31 0 52.5 23.5t21.5 58.5q0 31 -17.5 52.5t-43.5 21.5q-35 0 -56.5 -22.5t-21.5 -61.5q0 -29 19 -50.5t46 -21.5zM993 0q-23 0 -20 25 l12 94q2 25 29 24h139l-72 357h-542l-174 -357h135q25 0 22 -24l-14 -94q-4 -25 -29 -25h-436q-23 0 -18 25l12 94q4 25 26 24h130l585 1184h-110q-25 0 -21 25l12 94q4 25 29 24h264q47 0 69.5 -20t33.5 -68l270 -1239h129q25 0 21 -24l-13 -94q-4 -25 -28 -25h-441z M922 1268h-13l-297 -621h439z" glyph-name="Aring" horiz-adv-x="1468" unicode="Å"/><glyph d="M33 0q-20 0 -19 25l13 94q2 25 26 24h129l637 1180h-112q-23 0 -19 25l12 98q4 25 27 24h1364q23 0 20 -24l-47 -326q-4 -25 -26 -24h-117q-20 0 -18 24l28 207h-577l-74 -522h483q27 0 23 -25l-12 -96q-4 -25 -31 -25h-483l-72 -516h579l29 205q2 25 29 25h114 q23 0 21 -25l-45 -323q-2 -25 -27 -25h-1032q-20 0 -18 25l12 94q2 25 27 24h147l74 516h-465l-277 -516h138q27 0 22 -24l-14 -94q-6 -25 -27 -25h-442zM713 809h405l72 514h-203z" glyph-name="AE" horiz-adv-x="2013" unicode="Æ"/><glyph d="M1520 1470q25 0 20 -24l-63 -445q-4 -27 -27 -26h-121q-27 0 -22 24l2 17q14 111 -84.5 215t-280.5 104q-240 0 -409.5 -179t-169.5 -513q0 -236 128 -373t328 -137q276 0 463 281q18 27 39 12l82 -55q16 -12 0 -43q-190 -324 -565 -342l-43 -92q53 -6 100 -44t47 -118 q0 -86 -57.5 -140.5t-171.5 -54.5q-88 0 -166 51q-12 12 0 37l37 66q10 25 39 6q47 -29 96 -29q68 0 67 64q0 61 -94 61q-51 0 -37 43l70 154q-238 27 -388.5 204t-150.5 439q0 205 62.5 368.5t170 267t245 159t290.5 55.5q164 0 265.5 -63.5t140.5 -137.5l22 164 q4 25 25 24h111z" glyph-name="Ccedilla" horiz-adv-x="1441" unicode="Ç"/><glyph d="M1004 1573l-312 258q-23 14 -2 39l72 80q20 25 39 6l297 -275q18 -14 0 -36l-56 -66q-15 -24 -38 -6zM115 0q-20 0 -19 25l13 94q2 25 26 24h150l166 1184h-150q-23 0 -18 25l12 94q4 25 27 24h1036q23 0 20 -24l-47 -326q-4 -25 -26 -24h-117q-20 0 -19 24l29 207h-577 l-70 -498h481q25 0 23 -24l-13 -96q-2 -25 -30 -25h-482l-75 -541h579l29 205q2 25 29 25h114q23 0 21 -25l-45 -323q-2 -25 -27 -25h-1040z" glyph-name="Egrave" horiz-adv-x="1282" unicode="È"/><glyph d="M739 1577q-20 -16 -37 6l-45 66q-14 20 11 39l372 274q23 16 37 -6l60 -88q16 -20 -13 -39zM115 0q-20 0 -19 25l13 94q2 25 26 24h150l166 1184h-150q-23 0 -18 25l12 94q4 25 27 24h1036q23 0 20 -24l-47 -326q-4 -25 -26 -24h-117q-20 0 -19 24l29 207h-577l-70 -498 h481q25 0 23 -24l-13 -96q-2 -25 -30 -25h-482l-75 -541h579l29 205q2 25 29 25h114q23 0 21 -25l-45 -323q-2 -25 -27 -25h-1040z" glyph-name="Eacute" horiz-adv-x="1282" unicode="É"/><glyph d="M647 1577q-20 -16 -37 4l-45 64q-14 23 8 38l328 252q14 10 23 11q10 0 20 -11l270 -260q18 -18 0 -39l-57 -55q-18 -20 -37 -2l-211 193zM115 0q-20 0 -19 25l13 94q2 25 26 24h150l166 1184h-150q-23 0 -18 25l12 94q4 25 27 24h1036q23 0 20 -24l-47 -326 q-4 -25 -26 -24h-117q-20 0 -19 24l29 207h-577l-70 -498h481q25 0 23 -24l-13 -96q-2 -25 -30 -25h-482l-75 -541h579l29 205q2 25 29 25h114q23 0 21 -25l-45 -323q-2 -25 -27 -25h-1040z" glyph-name="Ecircumflex" horiz-adv-x="1282" unicode="Ê"/><glyph d="M690 1647q-47 0 -78.5 33.5t-31.5 78.5q0 57 39.5 96t93.5 39q47 0 79.5 -34.5t32.5 -81.5q0 -53 -39 -92t-96 -39zM1085 1647q-47 0 -78.5 33.5t-31.5 78.5q0 57 40 96t93 39q47 0 80 -34.5t33 -81.5q0 -53 -39.5 -92t-96.5 -39zM115 0q-20 0 -19 25l13 94q2 25 26 24 h150l166 1184h-150q-23 0 -18 25l12 94q4 25 27 24h1036q23 0 20 -24l-47 -326q-4 -25 -26 -24h-117q-20 0 -19 24l29 207h-577l-70 -498h481q25 0 23 -24l-13 -96q-2 -25 -30 -25h-482l-75 -541h579l29 205q2 25 29 25h114q23 0 21 -25l-45 -323q-2 -25 -27 -25h-1040z" glyph-name="Edieresis" horiz-adv-x="1282" unicode="Ë"/><glyph d="M705 1573l-312 258q-23 14 -2 39l72 80q20 25 39 6l297 -275q18 -14 0 -36l-56 -66q-15 -24 -38 -6zM117 0q-23 0 -21 25l13 94q2 25 26 24h150l166 1184h-148q-25 0 -20 25l12 94q4 25 27 24h466q23 0 21 -24l-12 -94q-2 -25 -29 -25h-147l-166 -1184h145q27 0 23 -24 l-13 -94q-4 -25 -28 -25h-465z" glyph-name="Igrave" horiz-adv-x="698" unicode="Ì"/><glyph d="M440 1577q-20 -16 -37 6l-45 66q-14 20 11 39l372 274q23 16 37 -6l60 -88q16 -20 -13 -39zM117 0q-23 0 -21 25l13 94q2 25 26 24h150l166 1184h-148q-25 0 -20 25l12 94q4 25 27 24h466q23 0 21 -24l-12 -94q-2 -25 -29 -25h-147l-166 -1184h145q27 0 23 -24l-13 -94 q-4 -25 -28 -25h-465z" glyph-name="Iacute" horiz-adv-x="698" unicode="Í"/><glyph d="M348 1577q-20 -16 -37 4l-45 64q-14 23 8 38l328 252q14 10 23 11q10 0 20 -11l270 -260q18 -18 0 -39l-57 -55q-18 -20 -37 -2l-211 193zM117 0q-23 0 -21 25l13 94q2 25 26 24h150l166 1184h-148q-25 0 -20 25l12 94q4 25 27 24h466q23 0 21 -24l-12 -94 q-2 -25 -29 -25h-147l-166 -1184h145q27 0 23 -24l-13 -94q-4 -25 -28 -25h-465z" glyph-name="Icircumflex" horiz-adv-x="698" unicode="Î"/><glyph d="M391 1647q-47 0 -78.5 33.5t-31.5 78.5q0 57 39.5 96t93.5 39q47 0 79.5 -34.5t32.5 -81.5q0 -53 -39 -92t-96 -39zM786 1647q-47 0 -78.5 33.5t-31.5 78.5q0 57 40 96t93 39q47 0 80 -34.5t33 -81.5q0 -53 -39.5 -92t-96.5 -39zM117 0q-23 0 -21 25l13 94q2 25 26 24 h150l166 1184h-148q-25 0 -20 25l12 94q4 25 27 24h466q23 0 21 -24l-12 -94q-2 -25 -29 -25h-147l-166 -1184h145q27 0 23 -24l-13 -94q-4 -25 -28 -25h-465z" glyph-name="Idieresis" horiz-adv-x="698" unicode="Ï"/><glyph d="M825 1470q293 0 475.5 -171t182.5 -461q0 -387 -217 -612.5t-611 -225.5h-540q-20 0 -19 25l13 94q2 25 26 24h150l73 525h-157q-29 0 -23 28l12 82q6 27 33 27h154l74 522h-150q-23 0 -18 25l12 94q4 25 27 24h503zM629 143q328 0 502 179.5t174 504.5q0 238 -129 369 t-385 131h-170l-74 -522h217q14 0 22.5 -7t6.5 -20l-13 -82q-10 -29 -37 -28h-217l-73 -525h176z" glyph-name="Eth" horiz-adv-x="1460" unicode="Ð"/><glyph d="M719 1626q-20 0 -21 19q0 102 54.5 170.5t165.5 68.5q70 0 140 -52t105 -52q72 0 80 114q0 25 27 25h78q23 0 22 -21q0 -119 -53 -188.5t-164 -69.5q-72 0 -138.5 52.5t-105.5 52.5q-76 0 -84 -94q-2 -25 -28 -25h-78zM1171 0q-66 0 -92 63l-407 961l-70 188h-4 l-152 -1069h150q27 0 22 -24l-14 -94q-2 -25 -29 -25h-460q-20 0 -19 25l13 94q2 25 26 24h150l166 1184h-150q-23 0 -18 25l12 94q4 25 27 24h274q66 0 94 -69l404 -948l80 -213h4l153 1087h-149q-23 0 -21 25l15 94q4 25 26 24h457q25 0 22 -24l-14 -94q-4 -25 -29 -25 h-147l-182 -1302q-2 -25 -27 -25h-111z" glyph-name="Ntilde" horiz-adv-x="1550" unicode="Ñ"/><glyph d="M1124 1573l-311 258q-23 14 -2 39l72 80q20 25 39 6l297 -275q18 -14 0 -36l-56 -66q-16 -24 -39 -6zM799 -14q-260 0 -437.5 178t-177.5 461q0 397 216 627.5t558 230.5q266 0 436.5 -174t170.5 -465q0 -406 -213 -632t-553 -226zM813 133q233 0 403 186.5t170 505.5 q0 248 -125.5 379t-320.5 131q-238 0 -408 -184t-170 -508q0 -244 130.5 -377t320.5 -133z" glyph-name="Ograve" horiz-adv-x="1542" unicode="Ò"/><glyph d="M860 1577q-20 -16 -37 6l-45 66q-14 20 10 39l373 274q23 16 37 -6l59 -88q16 -20 -12 -39zM799 -14q-260 0 -437.5 178t-177.5 461q0 397 216 627.5t558 230.5q266 0 436.5 -174t170.5 -465q0 -406 -213 -632t-553 -226zM813 133q233 0 403 186.5t170 505.5 q0 248 -125.5 379t-320.5 131q-238 0 -408 -184t-170 -508q0 -244 130.5 -377t320.5 -133z" glyph-name="Oacute" horiz-adv-x="1542" unicode="Ó"/><glyph d="M768 1577q-20 -16 -37 4l-45 64q-14 23 8 38l328 252q14 10 22 11q10 0 21 -11l270 -260q18 -18 0 -39l-57 -55q-18 -20 -37 -2l-211 193zM799 -14q-260 0 -437.5 178t-177.5 461q0 397 216 627.5t558 230.5q266 0 436.5 -174t170.5 -465q0 -406 -213 -632t-553 -226z M813 133q233 0 403 186.5t170 505.5q0 248 -125.5 379t-320.5 131q-238 0 -408 -184t-170 -508q0 -244 130.5 -377t320.5 -133z" glyph-name="Ocircumflex" horiz-adv-x="1542" unicode="Ô"/><glyph d="M702 1626q-20 0 -20 19q0 102 54.5 170.5t164.5 68.5q70 0 140.5 -52t105.5 -52q72 0 80 114q0 25 26 25h78q23 0 23 -21q0 -119 -53.5 -188.5t-163.5 -69.5q-72 0 -138.5 52.5t-105.5 52.5q-76 0 -84 -94q-2 -25 -29 -25h-78zM799 -14q-260 0 -437.5 178t-177.5 461 q0 397 216 627.5t558 230.5q266 0 436.5 -174t170.5 -465q0 -406 -213 -632t-553 -226zM813 133q233 0 403 186.5t170 505.5q0 248 -125.5 379t-320.5 131q-238 0 -408 -184t-170 -508q0 -244 130.5 -377t320.5 -133z" glyph-name="Otilde" horiz-adv-x="1542" unicode="Õ"/><glyph d="M811 1647q-47 0 -79 33.5t-32 78.5q0 57 40 96t94 39q47 0 79.5 -34.5t32.5 -81.5q0 -53 -39 -92t-96 -39zM1206 1647q-47 0 -78.5 33.5t-31.5 78.5q0 57 40 96t93 39q47 0 79.5 -34.5t32.5 -81.5q0 -53 -39 -92t-96 -39zM799 -14q-260 0 -437.5 178t-177.5 461 q0 397 216 627.5t558 230.5q266 0 436.5 -174t170.5 -465q0 -406 -213 -632t-553 -226zM813 133q233 0 403 186.5t170 505.5q0 248 -125.5 379t-320.5 131q-238 0 -408 -184t-170 -508q0 -244 130.5 -377t320.5 -133z" glyph-name="Odieresis" horiz-adv-x="1542" unicode="Ö"/><glyph d="M543 705l229 210q20 18 35 0l76 -90q14 -18 -2 -34l-230 -211l176 -220q12 -20 -4 -36l-90 -78q-20 -16 -35 0l-178 219l-244 -225q-20 -16 -32 0l-76 92q-16 20 4 37l240 223l-176 221q-12 18 4 39l90 76q20 16 35 -2z" glyph-name="multiply" horiz-adv-x="894" unicode="×"/><glyph d="M1229 1425q156 -72 246 -223t90 -358q0 -406 -213 -632t-553 -226q-86 0 -170 22l-43 -100q-8 -27 -35 -27h-105q-25 0 -14 27l66 153q-143 80 -228.5 226.5t-85.5 337.5q0 397 216 627.5t558 230.5q78 0 138 -15l41 97q10 25 34 24h103q27 0 14 -24zM362 643 q0 -299 197 -434l477 1118q-41 8 -96 8q-238 0 -408 -184t-170 -508zM813 133q233 0 403 186.5t170 505.5q0 330 -219 453l-479 -1128q66 -17 125 -17z" glyph-name="Oslash" horiz-adv-x="1542" unicode="Ø"/><glyph d="M1106 1573l-311 258q-23 14 -2 39l71 80q20 25 39 6l297 -275q18 -14 0 -36l-55 -66q-16 -24 -39 -6zM1296 1327h-147q-27 0 -21 25l13 94q2 25 28 24h463q23 0 21 -24l-15 -94q-4 -25 -26 -25h-150l-108 -776q-41 -291 -189.5 -428t-410.5 -137q-246 0 -365 145t-80 420 l109 776h-150q-23 0 -18 25l12 94q4 25 27 24h469q25 0 20 -24l-12 -94q-6 -25 -29 -25h-147l-111 -782q-27 -193 39 -296.5t260 -103.5q176 0 277.5 105.5t128.5 281.5z" glyph-name="Ugrave" horiz-adv-x="1505" unicode="Ù"/><glyph d="M842 1577q-20 -16 -37 6l-45 66q-14 20 10 39l373 274q23 16 37 -6l59 -88q16 -20 -12 -39zM1296 1327h-147q-27 0 -21 25l13 94q2 25 28 24h463q23 0 21 -24l-15 -94q-4 -25 -26 -25h-150l-108 -776q-41 -291 -189.5 -428t-410.5 -137q-246 0 -365 145t-80 420l109 776 h-150q-23 0 -18 25l12 94q4 25 27 24h469q25 0 20 -24l-12 -94q-6 -25 -29 -25h-147l-111 -782q-27 -193 39 -296.5t260 -103.5q176 0 277.5 105.5t128.5 281.5z" glyph-name="Uacute" horiz-adv-x="1505" unicode="Ú"/><glyph d="M750 1577q-20 -16 -37 4l-45 64q-14 23 8 38l328 252q14 10 22 11q10 0 21 -11l270 -260q18 -18 0 -39l-57 -55q-18 -20 -37 -2l-211 193zM1296 1327h-147q-27 0 -21 25l13 94q2 25 28 24h463q23 0 21 -24l-15 -94q-4 -25 -26 -25h-150l-108 -776q-41 -291 -189.5 -428 t-410.5 -137q-246 0 -365 145t-80 420l109 776h-150q-23 0 -18 25l12 94q4 25 27 24h469q25 0 20 -24l-12 -94q-6 -25 -29 -25h-147l-111 -782q-27 -193 39 -296.5t260 -103.5q176 0 277.5 105.5t128.5 281.5z" glyph-name="Ucircumflex" horiz-adv-x="1505" unicode="Û"/><glyph d="M793 1647q-47 0 -79 33.5t-32 78.5q0 57 40 96t93 39q47 0 80 -34.5t33 -81.5q0 -53 -39 -92t-96 -39zM1188 1647q-47 0 -79 33.5t-32 78.5q0 57 40 96t93 39q47 0 80 -34.5t33 -81.5q0 -53 -39 -92t-96 -39zM1296 1327h-147q-27 0 -21 25l13 94q2 25 28 24h463 q23 0 21 -24l-15 -94q-4 -25 -26 -25h-150l-108 -776q-41 -291 -189.5 -428t-410.5 -137q-246 0 -365 145t-80 420l109 776h-150q-23 0 -18 25l12 94q4 25 27 24h469q25 0 20 -24l-12 -94q-6 -25 -29 -25h-147l-111 -782q-27 -193 39 -296.5t260 -103.5q176 0 277.5 105.5 t128.5 281.5z" glyph-name="Udieresis" horiz-adv-x="1505" unicode="Ü"/><glyph d="M780 1577q-20 -16 -37 6l-45 66q-14 20 11 39l372 274q23 16 37 -6l60 -88q16 -20 -13 -39zM438 0q-25 0 -20 25l12 94q4 25 29 24h149l64 445l-305 739h-129q-25 0 -21 25l12 94q4 25 27 24h455q27 0 22 -24l-14 -94q-2 -25 -29 -25h-133l219 -584h8l381 584h-129 q-25 0 -20 25l14 94q2 25 27 24h452q23 0 21 -24l-12 -94q-2 -25 -29 -25h-131l-516 -739l-62 -445h152q23 0 20 -24l-14 -94q-4 -25 -27 -25h-473z" glyph-name="Yacute" horiz-adv-x="1349" unicode="Ý"/><glyph d="M115 0q-25 0 -19 25l13 94q2 25 26 24h150l166 1184h-150q-25 0 -18 25l12 94q4 25 27 24h507q23 0 21 -24l-14 -94q-6 -25 -27 -25h-191l-20 -160h266q193 0 309.5 -109.5t116.5 -271.5q0 -238 -144.5 -363.5t-432.5 -125.5h-238l-22 -154h190q25 0 21 -24l-15 -94 q-2 -25 -26 -25h-508zM494 440h239q180 0 279.5 82t99.5 250q0 127 -81 189.5t-208 62.5h-245z" glyph-name="Thorn" horiz-adv-x="1249" unicode="Þ"/><glyph d="M78 0q-25 0 -19 25l13 88q2 25 26 24h109l121 860q70 496 503 496q150 0 239 -85t89 -191q0 -96 -33.5 -163t-82 -100.5t-95.5 -60.5t-80.5 -61.5t-33.5 -81.5q0 -45 37.5 -82t92 -67t108.5 -65.5t92 -98t38 -146.5q0 -143 -92 -224t-268 -81q-90 0 -155.5 29.5 t-98.5 76.5t-45.5 76t-18.5 55.5t13 34.5l96 45q25 12 33 -12q6 -20 19 -51t61.5 -72t111.5 -41q86 0 126 43t40 111q0 51 -38 91t-91 70.5t-106.5 64.5t-91.5 90t-38 132q0 86 34 145.5t81 91t94 59.5t81 66.5t34 94.5q0 68 -47 110.5t-135 42.5q-113 0 -197 -86t-106 -256 l-121 -860h78q25 0 20 -24l-12 -88q-4 -25 -29 -25h-356z" glyph-name="germandbls" horiz-adv-x="1208" unicode="ß"/><glyph d="M711 1112l-291 274q-18 18 0 39l78 76q20 20 37 4l276 -291q18 -18 -2 -38l-59 -60q-21 -22 -39 -4zM999 137q29 0 25 -24l-12 -88q-6 -25 -31 -25h-172q-39 0 -58.5 23.5t-13.5 62.5l8 74h-2q-137 -174 -344 -174q-131 0 -215 70.5t-84 185.5q0 166 127 251t346 85h213 l9 51q33 250 -211 250q-152 0 -262 -88q-25 -16 -41 6l-43 73q-10 20 14 39q141 113 358 113q199 0 289 -107.5t66 -285.5l-70 -492h104zM750 313l18 136h-217q-125 0 -200 -47.5t-75 -139.5q0 -61 44.5 -97t120 -36t143 35t96.5 66.5t70 82.5z" glyph-name="agrave" horiz-adv-x="1044" unicode="à"/><glyph d="M502 1116l-45 62q-16 18 8 39l356 290q23 18 39 -2l60 -82q16 -20 -11 -39l-370 -274q-23 -14 -37 6zM999 137q29 0 25 -24l-12 -88q-6 -25 -31 -25h-172q-39 0 -58.5 23.5t-13.5 62.5l8 74h-2q-137 -174 -344 -174q-131 0 -215 70.5t-84 185.5q0 166 127 251t346 85h213 l9 51q33 250 -211 250q-152 0 -262 -88q-25 -16 -41 6l-43 73q-10 20 14 39q141 113 358 113q199 0 289 -107.5t66 -285.5l-70 -492h104zM750 313l18 136h-217q-125 0 -200 -47.5t-75 -139.5q0 -61 44.5 -97t120 -36t143 35t96.5 66.5t70 82.5z" glyph-name="aacute" horiz-adv-x="1044" unicode="á"/><glyph d="M358 1122l-49 62q-14 23 8 39l340 276q14 10 23 10q10 0 20 -10l265 -276q18 -23 0 -39l-58 -54q-23 -23 -37 -4l-204 209l-271 -217q-23 -16 -37 4zM999 137q29 0 25 -24l-12 -88q-6 -25 -31 -25h-172q-39 0 -58.5 23.5t-13.5 62.5l8 74h-2q-137 -174 -344 -174 q-131 0 -215 70.5t-84 185.5q0 166 127 251t346 85h213l9 51q33 250 -211 250q-152 0 -262 -88q-25 -16 -41 6l-43 73q-10 20 14 39q141 113 358 113q199 0 289 -107.5t66 -285.5l-70 -492h104zM750 313l18 136h-217q-125 0 -200 -47.5t-75 -139.5q0 -61 44.5 -97t120 -36 t143 35t96.5 66.5t70 82.5z" glyph-name="acircumflex" horiz-adv-x="1044" unicode="â"/><glyph d="M334 1157q-20 0 -21 19q0 104 54.5 172.5t164.5 68.5q70 0 140.5 -52t105.5 -52q72 0 80 117q0 25 27 24h78q23 0 22 -20q0 -260 -217 -260q-72 0 -138.5 52t-105.5 52q-76 0 -84 -96q-2 -25 -28 -25h-78zM999 137q29 0 25 -24l-12 -88q-6 -25 -31 -25h-172 q-39 0 -58.5 23.5t-13.5 62.5l8 74h-2q-137 -174 -344 -174q-131 0 -215 70.5t-84 185.5q0 166 127 251t346 85h213l9 51q33 250 -211 250q-152 0 -262 -88q-25 -16 -41 6l-43 73q-10 20 14 39q141 113 358 113q199 0 289 -107.5t66 -285.5l-70 -492h104zM750 313l18 136 h-217q-125 0 -200 -47.5t-75 -139.5q0 -61 44.5 -97t120 -36t143 35t96.5 66.5t70 82.5z" glyph-name="atilde" horiz-adv-x="1044" unicode="ã"/><glyph d="M449 1192q-49 0 -83 34t-34 83q0 59 42 99t99 40q47 0 81 -35t34 -86q0 -55 -40 -95t-99 -40zM834 1192q-49 0 -83 34t-34 83q0 59 42 99t99 40q47 0 81 -35t34 -86q0 -55 -40 -95t-99 -40zM999 137q29 0 25 -24l-12 -88q-6 -25 -31 -25h-172q-39 0 -58.5 23.5 t-13.5 62.5l8 74h-2q-137 -174 -344 -174q-131 0 -215 70.5t-84 185.5q0 166 127 251t346 85h213l9 51q33 250 -211 250q-152 0 -262 -88q-25 -16 -41 6l-43 73q-10 20 14 39q141 113 358 113q199 0 289 -107.5t66 -285.5l-70 -492h104zM750 313l18 136h-217 q-125 0 -200 -47.5t-75 -139.5q0 -61 44.5 -97t120 -36t143 35t96.5 66.5t70 82.5z" glyph-name="adieresis" horiz-adv-x="1044" unicode="ä"/><glyph d="M639 1135q-74 0 -124 52t-50 126q0 94 58.5 152.5t146.5 58.5q76 0 126 -55.5t50 -129.5q0 -88 -60.5 -146t-146.5 -58zM664 1407q-35 0 -56.5 -22.5t-21.5 -61.5q0 -29 19.5 -50.5t45.5 -21.5q31 0 52.5 23.5t21.5 58.5q0 31 -17 52.5t-44 21.5zM999 137q29 0 25 -24 l-12 -88q-6 -25 -31 -25h-172q-39 0 -58.5 23.5t-13.5 62.5l8 74h-2q-137 -174 -344 -174q-131 0 -215 70.5t-84 185.5q0 166 127 251t346 85h213l9 51q33 250 -211 250q-152 0 -262 -88q-25 -16 -41 6l-43 73q-10 20 14 39q141 113 358 113q199 0 289 -107.5t66 -285.5 l-70 -492h104zM750 313l18 136h-217q-125 0 -200 -47.5t-75 -139.5q0 -61 44.5 -97t120 -36t143 35t96.5 66.5t70 82.5z" glyph-name="aring" horiz-adv-x="1044" unicode="å"/><glyph d="M1305 1022q170 0 269 -118t99 -310q0 -137 -41 -137h-682v-17q0 -147 75 -229t194 -82q27 0 52 4t44.5 10.5t41 17.5t36 18t33 21.5t26.5 21.5t24.5 21.5t18.5 16.5q18 20 37 2l57 -59q14 -16 0 -37q-16 -23 -41.5 -46.5t-73 -57t-120 -55t-154.5 -21.5 q-129 0 -228.5 61.5t-150.5 171.5q-168 -233 -420 -233q-131 0 -215 70.5t-84 185.5q0 166 127 251t344 85h215l7 51q37 250 -211 250q-150 0 -260 -88q-29 -18 -41 6l-43 73q-10 18 14 39q141 113 358 113q233 0 320 -152q146 152 373 152zM1509 594q10 127 -46 206 t-169 79q-129 0 -212 -79t-113 -206h540zM440 129q106 0 186.5 58.5t155.5 166.5q-6 39 -6 80v15h-223q-125 0 -201 -47.5t-76 -139.5q0 -61 44 -97t120 -36z" glyph-name="ae" horiz-adv-x="1669" unicode="æ"/><glyph d="M1063 1012q25 0 20 -27l-51 -371q-6 -25 -28 -24h-101q-23 0 -20 24l8 56q10 68 -47.5 138.5t-177.5 70.5q-152 0 -250.5 -117t-98.5 -316q0 -147 73 -232t200 -85q43 0 81 9t72.5 30.5t52 34t48.5 41.5l30 28q20 16 37 0l58 -59q12 -12 -2 -35q-25 -33 -60 -66.5 t-125 -76.5t-196 -49l-41 -86q49 -6 94 -43t45 -113q0 -82 -54.5 -133t-164.5 -51q-94 0 -156 49q-16 10 0 35l33 61q12 20 37 6q45 -27 92 -26q66 0 66 59q0 57 -91 57q-51 0 -34 41l67 150q-152 25 -244 141.5t-92 292.5q0 272 153 434t378 162q109 0 176.5 -40t85.5 -87 h4l10 90q2 27 27 27h86z" glyph-name="ccedilla" horiz-adv-x="1056" unicode="ç"/><glyph d="M772 1112l-291 274q-18 18 0 39l78 76q20 20 37 4l276 -291q18 -18 -2 -38l-59 -60q-21 -22 -39 -4zM674 1022q170 0 269 -118t99 -310q0 -137 -41 -137h-682v-17q0 -147 75 -229t194 -82q27 0 52.5 4t45 10.5t41 17.5t35.5 18t32.5 21.5t26.5 21.5t24.5 21.5t18.5 16.5 q18 20 37 2l57 -59q14 -16 0 -37q-16 -23 -41.5 -46.5t-72.5 -57t-120 -55t-155 -21.5q-186 0 -305 123.5t-119 324.5q0 283 154 435.5t375 152.5zM879 594q10 127 -46.5 206t-168.5 79q-129 0 -212 -79t-114 -206h541z" glyph-name="egrave" horiz-adv-x="1038" unicode="è"/><glyph d="M563 1116l-45 62q-16 18 8 39l357 290q23 18 39 -2l59 -82q16 -20 -10 -39l-371 -274q-23 -14 -37 6zM674 1022q170 0 269 -118t99 -310q0 -137 -41 -137h-682v-17q0 -147 75 -229t194 -82q27 0 52.5 4t45 10.5t41 17.5t35.5 18t32.5 21.5t26.5 21.5t24.5 21.5t18.5 16.5 q18 20 37 2l57 -59q14 -16 0 -37q-16 -23 -41.5 -46.5t-72.5 -57t-120 -55t-155 -21.5q-186 0 -305 123.5t-119 324.5q0 283 154 435.5t375 152.5zM879 594q10 127 -46.5 206t-168.5 79q-129 0 -212 -79t-114 -206h541z" glyph-name="eacute" horiz-adv-x="1038" unicode="é"/><glyph d="M420 1122l-49 62q-14 23 8 39l340 276q14 10 22 10q10 0 21 -10l264 -276q18 -23 0 -39l-57 -54q-23 -23 -37 -4l-205 209l-270 -217q-23 -16 -37 4zM674 1022q170 0 269 -118t99 -310q0 -137 -41 -137h-682v-17q0 -147 75 -229t194 -82q27 0 52.5 4t45 10.5t41 17.5 t35.5 18t32.5 21.5t26.5 21.5t24.5 21.5t18.5 16.5q18 20 37 2l57 -59q14 -16 0 -37q-16 -23 -41.5 -46.5t-72.5 -57t-120 -55t-155 -21.5q-186 0 -305 123.5t-119 324.5q0 283 154 435.5t375 152.5zM879 594q10 127 -46.5 206t-168.5 79q-129 0 -212 -79t-114 -206h541z " glyph-name="ecircumflex" horiz-adv-x="1038" unicode="ê"/><glyph d="M510 1192q-49 0 -83 34t-34 83q0 59 42 99t100 40q47 0 80.5 -35t33.5 -86q0 -55 -40 -95t-99 -40zM895 1192q-49 0 -83 34t-34 83q0 59 42 99t100 40q47 0 80.5 -35t33.5 -86q0 -55 -40 -95t-99 -40zM674 1022q170 0 269 -118t99 -310q0 -137 -41 -137h-682v-17 q0 -147 75 -229t194 -82q27 0 52.5 4t45 10.5t41 17.5t35.5 18t32.5 21.5t26.5 21.5t24.5 21.5t18.5 16.5q18 20 37 2l57 -59q14 -16 0 -37q-16 -23 -41.5 -46.5t-72.5 -57t-120 -55t-155 -21.5q-186 0 -305 123.5t-119 324.5q0 283 154 435.5t375 152.5zM879 594 q10 127 -46.5 206t-168.5 79q-129 0 -212 -79t-114 -206h541z" glyph-name="edieresis" horiz-adv-x="1038" unicode="ë"/><glyph d="M508 1112l-291 274q-20 18 0 39l78 76q20 20 37 4l276 -291q18 -18 -2 -38l-59 -60q-23 -22 -39 -4zM98 0q-20 0 -18 25l12 88q2 25 27 24h108l103 733h-109q-25 0 -20 25l12 88q4 25 29 25h252q27 0 22 -25l-119 -846h107q25 0 20 -24l-12 -88q-4 -25 -29 -25h-385z" glyph-name="igrave" horiz-adv-x="563" unicode="ì"/><glyph d="M336 1110q-23 -14 -37 6l-45 62q-16 18 8 39l356 290q23 18 39 -2l60 -82q16 -20 -10 -39zM98 0q-20 0 -18 25l12 88q2 25 27 24h108l103 733h-109q-25 0 -20 25l12 88q4 25 29 25h252q27 0 22 -25l-119 -846h107q25 0 20 -24l-12 -88q-4 -25 -29 -25h-385z" glyph-name="iacute" horiz-adv-x="563" unicode="í"/><glyph d="M193 1118q-23 -16 -37 4l-50 62q-14 23 9 39l340 276q14 10 22 10q10 0 21 -10l264 -276q18 -23 0 -39l-57 -54q-23 -23 -37 -4l-205 209zM98 0q-20 0 -18 25l12 88q2 25 27 24h108l103 733h-109q-25 0 -20 25l12 88q4 25 29 25h252q27 0 22 -25l-119 -846h107 q25 0 20 -24l-12 -88q-4 -25 -29 -25h-385z" glyph-name="icircumflex" horiz-adv-x="563" unicode="î"/><glyph d="M246 1192q-49 0 -83 34t-34 83q0 59 42 99t99 40q47 0 81 -35t34 -86q0 -55 -40 -95t-99 -40zM631 1192q-49 0 -83 34t-34 83q0 59 42 99t99 40q47 0 81 -35t34 -86q0 -55 -40 -95t-99 -40zM98 0q-20 0 -18 25l12 88q2 25 27 24h108l103 733h-109q-25 0 -20 25l12 88 q4 25 29 25h252q27 0 22 -25l-119 -846h107q25 0 20 -24l-12 -88q-4 -25 -29 -25h-385z" glyph-name="idieresis" horiz-adv-x="563" unicode="ï"/><glyph d="M1219 1427q14 -18 -5 -36l-112 -103q92 -154 92 -403q0 -158 -20.5 -290t-68.5 -245.5t-120 -193.5t-179.5 -125t-244.5 -45q-184 0 -302 117.5t-118 304.5q0 244 147.5 397t411.5 153q209 0 314 -129q27 207 -39 342l-103 -92q-20 -18 -38 0l-56 64q-18 18 4 39l111 100 q-72 55 -172 55q-41 0 -83 -8t-75 -21.5t-56.5 -25.5t-43.5 -25l-19 -12q-18 -10 -28 6l-47 82q-12 16 10 33q18 16 53 37.5t124 50.5t183 29q162 0 275 -90l108 98q18 14 33 0zM580 129q174 0 284.5 153.5t134.5 407.5q-37 41 -117.5 78t-195.5 37q-168 0 -269.5 -108.5 t-101.5 -270.5q0 -133 74 -215t191 -82z" glyph-name="eth" horiz-adv-x="1167" unicode="ð"/><glyph d="M451 1157q-20 0 -21 19q0 104 54.5 172.5t164.5 68.5q70 0 140.5 -52t105.5 -52q72 0 80 117q0 25 26 24h78q23 0 23 -20q0 -260 -217 -260q-72 0 -138.5 52t-105.5 52q-76 0 -84 -96q-4 -25 -29 -25h-77zM98 0q-25 0 -18 25l12 88q2 25 27 24h106l105 733h-109 q-25 0 -20 25l12 88q4 25 27 25h235q25 0 21 -25l-21 -119h8q125 158 314 158q164 0 251 -103.5t62 -275.5l-72 -506h107q27 0 22 -24l-12 -88q-6 -25 -31 -25h-188q-45 0 -63.5 19.5t-10.5 66.5l74 537q16 117 -33 184t-151 67q-174 0 -279 -182l-78 -555h107q23 0 20 -24 l-12 -88q-6 -25 -27 -25h-385z" glyph-name="ntilde" horiz-adv-x="1191" unicode="ñ"/><glyph d="M801 1112l-291 274q-18 18 0 39l78 76q20 20 37 4l276 -291q18 -18 -2 -38l-59 -60q-21 -22 -39 -4zM567 -14q-188 0 -306 123.5t-118 324.5q0 256 153 422t394 166q195 0 310.5 -125t115.5 -326q0 -266 -150.5 -425.5t-398.5 -159.5zM588 129q150 0 253 122t103 304 q0 143 -72.5 233.5t-199.5 90.5q-150 0 -252.5 -122t-102.5 -304q0 -150 71 -237t200 -87z" glyph-name="ograve" horiz-adv-x="1118" unicode="ò"/><glyph d="M629 1110q-23 -14 -37 6l-45 62q-16 18 8 39l356 290q23 18 39 -2l60 -82q16 -20 -11 -39zM567 -14q-188 0 -306 123.5t-118 324.5q0 256 153 422t394 166q195 0 310.5 -125t115.5 -326q0 -266 -150.5 -425.5t-398.5 -159.5zM588 129q150 0 253 122t103 304 q0 143 -72.5 233.5t-199.5 90.5q-150 0 -252.5 -122t-102.5 -304q0 -150 71 -237t200 -87z" glyph-name="oacute" horiz-adv-x="1118" unicode="ó"/><glyph d="M485 1118q-23 -16 -36 4l-50 62q-14 23 9 39l340 276q14 10 22 10q10 0 21 -10l264 -276q18 -23 0 -39l-58 -54q-23 -23 -36 -4l-205 209zM567 -14q-188 0 -306 123.5t-118 324.5q0 256 153 422t394 166q195 0 310.5 -125t115.5 -326q0 -266 -150.5 -425.5t-398.5 -159.5 zM588 129q150 0 253 122t103 304q0 143 -72.5 233.5t-199.5 90.5q-150 0 -252.5 -122t-102.5 -304q0 -150 71 -237t200 -87z" glyph-name="ocircumflex" horiz-adv-x="1118" unicode="ô"/><glyph d="M424 1157q-20 0 -21 19q0 104 54.5 172.5t165.5 68.5q70 0 140.5 -52t104.5 -52q72 0 80 117q0 25 27 24h78q23 0 22 -20q0 -260 -217 -260q-72 0 -138.5 52t-105.5 52q-76 0 -84 -96q-2 -25 -28 -25h-78zM567 -14q-188 0 -306 123.5t-118 324.5q0 256 153 422t394 166 q195 0 310.5 -125t115.5 -326q0 -266 -150.5 -425.5t-398.5 -159.5zM588 129q150 0 253 122t103 304q0 143 -72.5 233.5t-199.5 90.5q-150 0 -252.5 -122t-102.5 -304q0 -150 71 -237t200 -87z" glyph-name="otilde" horiz-adv-x="1118" unicode="õ"/><glyph d="M539 1192q-49 0 -83 34t-34 83q0 59 42 99t99 40q47 0 81 -35t34 -86q0 -55 -40 -95t-99 -40zM924 1192q-49 0 -83 34t-34 83q0 59 42 99t99 40q47 0 81 -35t34 -86q0 -55 -40 -95t-99 -40zM567 -14q-188 0 -306 123.5t-118 324.5q0 256 153 422t394 166 q195 0 310.5 -125t115.5 -326q0 -266 -150.5 -425.5t-398.5 -159.5zM588 129q150 0 253 122t103 304q0 143 -72.5 233.5t-199.5 90.5q-150 0 -252.5 -122t-102.5 -304q0 -150 71 -237t200 -87z" glyph-name="odieresis" horiz-adv-x="1118" unicode="ö"/><glyph d="M535 754q-43 0 -70 27.5t-27 70.5q0 51 38 89t89 38q41 0 67.5 -28.5t26.5 -71.5q0 -51 -37.5 -88t-86.5 -37zM190 489q-12 0 -18 8.5t-4 20.5l14 103q4 29 31 28h608q25 0 21 -28l-15 -103q-4 -29 -28 -29h-609zM451 160q-43 0 -70 28.5t-27 69.5q0 51 38 89t91 38 q41 0 68 -28.5t27 -71.5q0 -49 -39 -87t-88 -38z" glyph-name="divide" horiz-adv-x="847" unicode="÷"/><glyph d="M969 928q147 -125 147 -357q0 -266 -150.5 -425.5t-398.5 -159.5q-94 0 -168 30l-26 -41q-16 -25 -35 -24h-111q-10 0 -15 7t1 17l70 113q-139 123 -140 346q0 256 153 422t394 166q88 0 164 -29l20 35q16 27 37 27h109q29 0 12 -27zM317 453q0 -133 58 -220l395 629 q-45 16 -98 17q-150 0 -252.5 -122t-102.5 -304zM588 129q150 0 253 122t103 304q0 141 -67 225l-396 -633q48 -18 107 -18z" glyph-name="oslash" horiz-adv-x="1118" unicode="ø"/><glyph d="M797 1112l-291 274q-18 18 0 39l78 76q20 20 37 4l276 -291q18 -18 -2 -38l-59 -60q-21 -22 -39 -4zM524 -14q-158 0 -240.5 103.5t-58.5 275.5l72 505h-107q-27 0 -22 25l12 88q4 25 31 25h248q25 0 22 -25l-84 -598q-16 -117 29 -184.5t143 -67.5q174 0 279 182l78 555 h-109q-23 0 -18 25l12 88q4 25 27 25h252q25 0 20 -25l-119 -846h111q20 0 18 -24l-12 -88q-2 -25 -27 -25h-174q-86 0 -71 86l8 57h-6q-72 -84 -136 -116q-80 -41 -178 -41z" glyph-name="ugrave" horiz-adv-x="1159" unicode="ù"/><glyph d="M625 1110q-23 -14 -37 6l-45 62q-16 18 8 39l356 290q23 18 39 -2l60 -82q16 -20 -11 -39zM524 -14q-158 0 -240.5 103.5t-58.5 275.5l72 505h-107q-27 0 -22 25l12 88q4 25 31 25h248q25 0 22 -25l-84 -598q-16 -117 29 -184.5t143 -67.5q174 0 279 182l78 555h-109 q-23 0 -18 25l12 88q4 25 27 25h252q25 0 20 -25l-119 -846h111q20 0 18 -24l-12 -88q-2 -25 -27 -25h-174q-86 0 -71 86l8 57h-6q-72 -84 -136 -116q-80 -41 -178 -41z" glyph-name="uacute" horiz-adv-x="1159" unicode="ú"/><glyph d="M481 1118q-23 -16 -37 4l-49 62q-14 23 8 39l340 276q14 10 23 10q10 0 20 -10l265 -276q18 -23 0 -39l-58 -54q-23 -23 -37 -4l-204 209zM524 -14q-158 0 -240.5 103.5t-58.5 275.5l72 505h-107q-27 0 -22 25l12 88q4 25 31 25h248q25 0 22 -25l-84 -598 q-16 -117 29 -184.5t143 -67.5q174 0 279 182l78 555h-109q-23 0 -18 25l12 88q4 25 27 25h252q25 0 20 -25l-119 -846h111q20 0 18 -24l-12 -88q-2 -25 -27 -25h-174q-86 0 -71 86l8 57h-6q-72 -84 -136 -116q-80 -41 -178 -41z" glyph-name="ucircumflex" horiz-adv-x="1159" unicode="û"/><glyph d="M535 1192q-49 0 -83 34t-34 83q0 59 42 99t99 40q47 0 81 -35t34 -86q0 -55 -40 -95t-99 -40zM920 1192q-49 0 -83 34t-34 83q0 59 42 99t99 40q47 0 81 -35t34 -86q0 -55 -40 -95t-99 -40zM524 -14q-158 0 -240.5 103.5t-58.5 275.5l72 505h-107q-27 0 -22 25l12 88 q4 25 31 25h248q25 0 22 -25l-84 -598q-16 -117 29 -184.5t143 -67.5q174 0 279 182l78 555h-109q-23 0 -18 25l12 88q4 25 27 25h252q25 0 20 -25l-119 -846h111q20 0 18 -24l-12 -88q-2 -25 -27 -25h-174q-86 0 -71 86l8 57h-6q-72 -84 -136 -116q-80 -41 -178 -41z" glyph-name="udieresis" horiz-adv-x="1159" unicode="ü"/><glyph d="M629 1116l-45 62q-16 18 8 39l356 290q23 18 39 -2l60 -82q16 -20 -11 -39l-370 -274q-23 -14 -37 6zM1257 1008q25 0 21 -25l-12 -88q-4 -25 -29 -25h-98l-434 -833l-7 -10l-59 -113q-37 -68 -48 -90.5t-42 -73.5t-46.5 -67.5t-46 -47t-57 -41t-62.5 -19.5t-79 -9 q-78 0 -129 21.5t-66 43.5q-14 20 0 37l64 72q14 16 35 2q49 -33 98 -33q72 0 120 47t105 160l43 84h-24q-20 0 -28.5 7t-12.5 30l-199 833h-100q-25 0 -21 25l13 88q4 25 28 25h396q23 0 18 -25l-10 -88q-2 -25 -29 -25h-115l152 -727h4l365 727h-103q-23 0 -20 25l12 88 q2 25 27 25h376z" glyph-name="yacute" horiz-adv-x="1153" unicode="ý"/><glyph d="M-29 -420q-20 0 -18 25l12 88q2 25 27 24h108l226 1616h-109q-20 0 -18 25l12 88q2 25 27 24h254q25 0 18 -24q-4 -43 -43 -311.5t-47 -305.5h6q37 80 131 136.5t213 56.5q176 0 279.5 -123t103.5 -326q0 -264 -146.5 -425.5t-367.5 -161.5q-123 0 -206 60t-101 130h-4 q-6 -78 -13 -131l-45 -328h125q23 0 21 -24l-13 -88q-2 -25 -26 -25h-406zM641 129q139 0 238.5 119t99.5 305q0 158 -67.5 242t-190.5 84q-133 0 -240.5 -120t-107.5 -317q0 -145 71.5 -229t196.5 -84z" glyph-name="thorn" horiz-adv-x="1155" unicode="þ"/><glyph d="M575 1192q-49 0 -82.5 34t-33.5 83q0 59 42 99t99 40q47 0 81 -35t34 -86q0 -55 -40.5 -95t-99.5 -40zM961 1192q-49 0 -83 34t-34 83q0 59 42 99t99 40q47 0 81 -35t34 -86q0 -55 -40 -95t-99 -40zM1257 1008q25 0 21 -25l-12 -88q-4 -25 -29 -25h-98l-434 -833l-7 -10 l-59 -113q-37 -68 -48 -90.5t-42 -73.5t-46.5 -67.5t-46 -47t-57 -41t-62.5 -19.5t-79 -9q-78 0 -129 21.5t-66 43.5q-14 20 0 37l64 72q14 16 35 2q49 -33 98 -33q72 0 120 47t105 160l43 84h-24q-20 0 -28.5 7t-12.5 30l-199 833h-100q-25 0 -21 25l13 88q4 25 28 25h396 q23 0 18 -25l-10 -88q-2 -25 -29 -25h-115l152 -727h4l365 727h-103q-23 0 -20 25l12 88q2 25 27 25h376z" glyph-name="ydieresis" horiz-adv-x="1153" unicode="ÿ"/><glyph d="M657 1655q-27 0 -22 26l12 86q4 29 29 29h579q27 0 23 -29l-12 -86q-6 -27 -31 -26h-578zM993 0q-23 0 -20 25l12 94q2 25 29 24h139l-72 357h-542l-174 -357h135q25 0 22 -24l-14 -94q-4 -25 -29 -25h-436q-23 0 -18 25l12 94q4 25 26 24h130l585 1184h-110 q-25 0 -21 25l12 94q4 25 29 24h264q47 0 69.5 -20t33.5 -68l270 -1239h129q25 0 21 -24l-13 -94q-4 -25 -28 -25h-441zM922 1268h-13l-297 -621h439z" glyph-name="Amacron" horiz-adv-x="1468" unicode="Ā"/><glyph d="M350 1225q-27 0 -20 26l12 86q4 29 29 29h579q27 0 23 -29l-12 -86q-6 -27 -31 -26h-580zM999 137q29 0 25 -24l-12 -88q-6 -25 -31 -25h-172q-39 0 -58.5 23.5t-13.5 62.5l8 74h-2q-137 -174 -344 -174q-131 0 -215 70.5t-84 185.5q0 166 127 251t346 85h213l9 51 q33 250 -211 250q-152 0 -262 -88q-25 -16 -41 6l-43 73q-10 20 14 39q141 113 358 113q199 0 289 -107.5t66 -285.5l-70 -492h104zM750 313l18 136h-217q-125 0 -200 -47.5t-75 -139.5q0 -61 44.5 -97t120 -36t143 35t96.5 66.5t70 82.5z" glyph-name="amacron" horiz-adv-x="1044" unicode="ā"/><glyph d="M899 1599q-131 0 -209 78t-76 211q0 37 31 37h86q29 0 25 -29q-4 -72 35.5 -118.5t111.5 -46.5q156 0 174 167q0 27 31 27h88q25 0 21 -22q-23 -304 -318 -304zM993 0q-23 0 -20 25l12 94q2 25 29 24h139l-72 357h-542l-174 -357h135q25 0 22 -24l-14 -94q-4 -25 -29 -25 h-436q-23 0 -18 25l12 94q4 25 26 24h130l585 1184h-110q-25 0 -21 25l12 94q4 25 29 24h264q47 0 69.5 -20t33.5 -68l270 -1239h129q25 0 21 -24l-13 -94q-4 -25 -28 -25h-441zM922 1268h-13l-297 -621h439z" glyph-name="Abreve" horiz-adv-x="1468" unicode="Ă"/><glyph d="M651 1126q-131 0 -208.5 81t-75.5 218q0 37 30 37h86q29 0 25 -28q-4 -74 36 -125.5t111 -51.5q154 0 174 179q0 27 31 26h88q25 0 21 -22q-25 -314 -318 -314zM999 137q29 0 25 -24l-12 -88q-6 -25 -31 -25h-172q-39 0 -58.5 23.5t-13.5 62.5l8 74h-2 q-137 -174 -344 -174q-131 0 -215 70.5t-84 185.5q0 166 127 251t346 85h213l9 51q33 250 -211 250q-152 0 -262 -88q-25 -16 -41 6l-43 73q-10 20 14 39q141 113 358 113q199 0 289 -107.5t66 -285.5l-70 -492h104zM750 313l18 136h-217q-125 0 -200 -47.5t-75 -139.5 q0 -61 44.5 -97t120 -36t143 35t96.5 66.5t70 82.5z" glyph-name="abreve" horiz-adv-x="1044" unicode="ă"/><glyph d="M1454 143q25 0 21 -24l-13 -94q-4 -25 -28 -25h-156q-152 -98 -152 -213q0 -63 54 -63q33 0 61 18q27 16 37 -6l25 -60q10 -23 -9 -32q-63 -43 -143 -43q-158 0 -158 149q0 86 53.5 154.5t110.5 95.5h-164q-23 0 -20 25l12 94q2 25 29 24h139l-72 357h-542l-174 -357h135 q25 0 22 -24l-14 -94q-4 -25 -29 -25h-436q-23 0 -18 25l12 94q4 25 26 24h130l585 1184h-110q-25 0 -21 25l12 94q4 25 29 24h264q47 0 69.5 -20t33.5 -68l270 -1239h129zM612 647h439l-129 621h-13z" glyph-name="Aogonek" horiz-adv-x="1468" unicode="Ą"/><glyph d="M999 137q29 0 25 -24l-12 -88q-6 -25 -31 -25h-20q-152 -98 -152 -213q0 -63 53 -63q33 0 62 18q27 16 37 -6l24 -60q10 -23 -8 -32q-63 -43 -143 -43q-158 0 -158 149q0 86 53 154.5t111 95.5h-31q-39 0 -58.5 23.5t-13.5 62.5l8 74h-2q-137 -174 -344 -174 q-131 0 -215 70.5t-84 185.5q0 166 127 251t346 85h213l9 51q33 250 -211 250q-152 0 -262 -88q-25 -16 -41 6l-43 73q-10 20 14 39q141 113 358 113q199 0 289 -107.5t66 -285.5l-70 -492h104zM750 313l18 136h-217q-125 0 -200 -47.5t-75 -139.5q0 -61 44.5 -97t120 -36 t143 35t96.5 66.5t70 82.5z" glyph-name="aogonek" horiz-adv-x="1044" unicode="ą"/><glyph d="M840 1577q-20 -16 -37 6l-45 66q-14 20 10 39l373 274q23 16 37 -6l59 -88q16 -20 -12 -39zM1405 371q16 -12 0 -43q-205 -342 -606 -342q-264 0 -437.5 182t-173.5 465q0 205 62.5 368.5t170 267t245 159t290.5 55.5q164 0 265.5 -63.5t140.5 -137.5l22 164q4 25 25 24 h111q25 0 20 -24l-63 -445q-4 -27 -27 -26h-121q-27 0 -22 24l2 17q14 111 -84.5 215t-280.5 104q-240 0 -409.5 -179t-169.5 -513q0 -236 128 -373t328 -137q276 0 463 281q18 27 39 12z" glyph-name="Cacute" horiz-adv-x="1441" unicode="Ć"/><glyph d="M612 1110q-23 -14 -37 6l-45 62q-16 18 9 39l356 290q23 18 39 -2l59 -82q16 -20 -10 -39zM674 1022q109 0 176.5 -40t85.5 -87h4l10 90q2 27 27 27h86q25 0 20 -27l-51 -371q-6 -25 -28 -24h-101q-23 0 -20 24l8 56q10 68 -47.5 138.5t-177.5 70.5q-152 0 -250.5 -117 t-98.5 -316q0 -147 73 -232t200 -85q43 0 81 9t72.5 30.5t52 34t48.5 41.5l30 28q20 16 37 0l58 -59q12 -12 -2 -35q-18 -25 -44 -49.5t-76 -61t-127 -59t-165 -22.5q-182 0 -297 120.5t-115 319.5q0 272 153 434t378 162z" glyph-name="cacute" horiz-adv-x="1056" unicode="ć"/><glyph d="M748 1577q-20 -16 -37 4l-45 64q-14 23 8 38l327 252q14 10 23 11q10 0 20 -11l271 -260q18 -18 0 -39l-58 -55q-18 -20 -36 -2l-211 193zM1405 371q16 -12 0 -43q-205 -342 -606 -342q-264 0 -437.5 182t-173.5 465q0 205 62.5 368.5t170 267t245 159t290.5 55.5 q164 0 265.5 -63.5t140.5 -137.5l22 164q4 25 25 24h111q25 0 20 -24l-63 -445q-4 -27 -27 -26h-121q-27 0 -22 24l2 17q14 111 -84.5 215t-280.5 104q-240 0 -409.5 -179t-169.5 -513q0 -236 128 -373t328 -137q276 0 463 281q18 27 39 12z" glyph-name="Ccircumflex" horiz-adv-x="1441" unicode="Ĉ"/><glyph d="M469 1118q-23 -16 -37 4l-49 62q-14 23 8 39l340 276q14 10 23 10q10 0 20 -10l264 -276q18 -23 0 -39l-57 -54q-23 -23 -37 -4l-205 209zM674 1022q109 0 176.5 -40t85.5 -87h4l10 90q2 27 27 27h86q25 0 20 -27l-51 -371q-6 -25 -28 -24h-101q-23 0 -20 24l8 56 q10 68 -47.5 138.5t-177.5 70.5q-152 0 -250.5 -117t-98.5 -316q0 -147 73 -232t200 -85q43 0 81 9t72.5 30.5t52 34t48.5 41.5l30 28q20 16 37 0l58 -59q12 -12 -2 -35q-18 -25 -44 -49.5t-76 -61t-127 -59t-165 -22.5q-182 0 -297 120.5t-115 319.5q0 272 153 434t378 162 z" glyph-name="ccircumflex" horiz-adv-x="1056" unicode="ĉ"/><glyph d="M985 1624q-47 0 -77.5 33t-30.5 78q0 57 38.5 94t92.5 37q45 0 77.5 -33t32.5 -80q0 -53 -38 -91t-95 -38zM1405 371q16 -12 0 -43q-205 -342 -606 -342q-264 0 -437.5 182t-173.5 465q0 205 62.5 368.5t170 267t245 159t290.5 55.5q164 0 265.5 -63.5t140.5 -137.5 l22 164q4 25 25 24h111q25 0 20 -24l-63 -445q-4 -27 -27 -26h-121q-27 0 -22 24l2 17q14 111 -84.5 215t-280.5 104q-240 0 -409.5 -179t-169.5 -513q0 -236 128 -373t328 -137q276 0 463 281q18 27 39 12z" glyph-name="Cdotaccent" horiz-adv-x="1441" unicode="Ċ"/><glyph d="M719 1206q-51 0 -85 36t-34 85q0 59 43 100t100 41q49 0 83 -35.5t34 -86.5q0 -59 -41 -99.5t-100 -40.5zM674 1022q109 0 176.5 -40t85.5 -87h4l10 90q2 27 27 27h86q25 0 20 -27l-51 -371q-6 -25 -28 -24h-101q-23 0 -20 24l8 56q10 68 -47.5 138.5t-177.5 70.5 q-152 0 -250.5 -117t-98.5 -316q0 -147 73 -232t200 -85q43 0 81 9t72.5 30.5t52 34t48.5 41.5l30 28q20 16 37 0l58 -59q12 -12 -2 -35q-18 -25 -44 -49.5t-76 -61t-127 -59t-165 -22.5q-182 0 -297 120.5t-115 319.5q0 272 153 434t378 162z" glyph-name="cdotaccent" horiz-adv-x="1056" unicode="ċ"/><glyph d="M975 1569q-10 0 -21 10l-274 264q-18 18 2 37l57 53q23 20 39 4l211 -194l264 194q20 14 37 -4l49 -61q16 -16 -10 -39l-334 -254q-14 -10 -20 -10zM1405 371q16 -12 0 -43q-205 -342 -606 -342q-264 0 -437.5 182t-173.5 465q0 205 62.5 368.5t170 267t245 159 t290.5 55.5q164 0 265.5 -63.5t140.5 -137.5l22 164q4 25 25 24h111q25 0 20 -24l-63 -445q-4 -27 -27 -26h-121q-27 0 -22 24l2 17q14 111 -84.5 215t-280.5 104q-240 0 -409.5 -179t-169.5 -513q0 -236 128 -373t328 -137q276 0 463 281q18 27 39 12z" glyph-name="Ccaron" horiz-adv-x="1441" unicode="Č"/><glyph d="M692 1108q-10 0 -20 10l-262 277q-16 20 2 37l57 53q23 20 39 4l199 -207l272 217q20 14 37 -4l49 -61q14 -18 -10 -39l-342 -277q-15 -10 -21 -10zM674 1022q109 0 176.5 -40t85.5 -87h4l10 90q2 27 27 27h86q25 0 20 -27l-51 -371q-6 -25 -28 -24h-101q-23 0 -20 24 l8 56q10 68 -47.5 138.5t-177.5 70.5q-152 0 -250.5 -117t-98.5 -316q0 -147 73 -232t200 -85q43 0 81 9t72.5 30.5t52 34t48.5 41.5l30 28q20 16 37 0l58 -59q12 -12 -2 -35q-18 -25 -44 -49.5t-76 -61t-127 -59t-165 -22.5q-182 0 -297 120.5t-115 319.5q0 272 153 434 t378 162z" glyph-name="ccaron" horiz-adv-x="1056" unicode="č"/><glyph d="M891 1569q-10 0 -21 10l-274 264q-18 18 2 37l57 53q20 20 39 4l211 -194l264 194q20 14 37 -4l49 -61q16 -16 -10 -39l-334 -254q-14 -10 -20 -10zM115 0q-20 0 -19 25l13 94q2 25 26 24h150l166 1184h-150q-23 0 -18 25l12 94q4 25 27 24h503q293 0 475.5 -171 t182.5 -461q0 -387 -217 -612.5t-611 -225.5h-540zM629 143q328 0 502 179.5t174 504.5q0 238 -129 369t-385 131h-170l-168 -1184h176z" glyph-name="Dcaron" horiz-adv-x="1460" unicode="Ď"/><glyph d="M1300 1018q-10 0 -14 3t-2 11l8 62q2 14 15 14q37 0 72.5 27.5t41.5 76.5q2 16 2 31q-10 -2 -24 -2q-45 0 -80 34t-35 85q0 66 39 104.5t102 38.5q55 0 88 -40t33 -120q0 -168 -73 -246.5t-173 -78.5zM522 -14q-168 0 -272.5 121.5t-104.5 312.5q0 270 141.5 436 t375.5 166q123 0 200.5 -58.5t102.5 -129.5h6q-2 45 4 79l59 420h-106q-23 0 -21 25l13 88q2 25 28 24h252q25 0 21 -24l-185 -1309h107q25 0 20 -24l-12 -88q-4 -25 -27 -25h-184q-86 0 -72 86l13 86h-2q-47 -76 -139.5 -131t-217.5 -55zM563 129q147 0 255 123t108 315 q0 143 -74 227.5t-184 84.5q-150 0 -249.5 -119t-99.5 -320q0 -137 66.5 -224t177.5 -87z" glyph-name="dcaron" horiz-adv-x="1251" unicode="ď"/><glyph d="M825 1470q293 0 475.5 -171t182.5 -461q0 -387 -217 -612.5t-611 -225.5h-540q-20 0 -19 25l13 94q2 25 26 24h150l73 525h-157q-29 0 -23 28l12 82q6 27 33 27h154l74 522h-150q-23 0 -18 25l12 94q4 25 27 24h503zM629 143q328 0 502 179.5t174 504.5q0 238 -129 369 t-385 131h-170l-74 -522h217q14 0 22.5 -7t6.5 -20l-13 -82q-10 -29 -37 -28h-217l-73 -525h176z" glyph-name="Dcroat" horiz-adv-x="1460" unicode="Đ"/><glyph d="M1294 1223q31 0 27 -27l-12 -82q-6 -29 -33 -29h-107l-133 -948h107q25 0 20 -24l-12 -88q-4 -25 -27 -25h-184q-86 0 -72 86l13 86h-2q-47 -76 -139.5 -131t-217.5 -55q-168 0 -272.5 121.5t-104.5 312.5q0 270 141.5 436t375.5 166q123 0 200.5 -58.5t102.5 -129.5h6 q-2 45 4 79l24 172h-217q-29 0 -20 29l12 82q4 27 29 27h215l16 110h-106q-23 0 -21 25l13 88q2 25 28 24h252q25 0 21 -24l-31 -223h104zM563 129q147 0 255 123t108 315q0 143 -74 227.5t-184 84.5q-150 0 -249.5 -119t-99.5 -320q0 -137 66.5 -224t177.5 -87z" glyph-name="dcroat" horiz-adv-x="1202" unicode="đ"/><glyph d="M594 1655q-27 0 -23 26l13 86q4 29 28 29h580q27 0 22 -29l-12 -86q-6 -27 -31 -26h-577zM115 0q-20 0 -19 25l13 94q2 25 26 24h150l166 1184h-150q-23 0 -18 25l12 94q4 25 27 24h1036q23 0 20 -24l-47 -326q-4 -25 -26 -24h-117q-20 0 -19 24l29 207h-577l-70 -498 h481q25 0 23 -24l-13 -96q-2 -25 -30 -25h-482l-75 -541h579l29 205q2 25 29 25h114q23 0 21 -25l-45 -323q-2 -25 -27 -25h-1040z" glyph-name="Emacron" horiz-adv-x="1282" unicode="Ē"/><glyph d="M412 1225q-27 0 -21 26l12 86q4 29 29 29h580q27 0 22 -29l-12 -86q-6 -27 -31 -26h-579zM674 1022q170 0 269 -118t99 -310q0 -137 -41 -137h-682v-17q0 -147 75 -229t194 -82q27 0 52.5 4t45 10.5t41 17.5t35.5 18t32.5 21.5t26.5 21.5t24.5 21.5t18.5 16.5q18 20 37 2 l57 -59q14 -16 0 -37q-16 -23 -41.5 -46.5t-72.5 -57t-120 -55t-155 -21.5q-186 0 -305 123.5t-119 324.5q0 283 154 435.5t375 152.5zM879 594q10 127 -46.5 206t-168.5 79q-129 0 -212 -79t-114 -206h541z" glyph-name="emacron" horiz-adv-x="1038" unicode="ē"/><glyph d="M895 1599q-131 0 -209 78t-76 211q0 37 31 37h86q29 0 25 -29q-4 -72 35.5 -118.5t111.5 -46.5q156 0 174 167q0 27 31 27h88q25 0 20 -22q-22 -304 -317 -304zM115 0q-20 0 -19 25l13 94q2 25 26 24h150l166 1184h-150q-23 0 -18 25l12 94q4 25 27 24h1036q23 0 20 -24 l-47 -326q-4 -25 -26 -24h-117q-20 0 -19 24l29 207h-577l-70 -498h481q25 0 23 -24l-13 -96q-2 -25 -30 -25h-482l-75 -541h579l29 205q2 25 29 25h114q23 0 21 -25l-45 -323q-2 -25 -27 -25h-1040z" glyph-name="Ebreve" horiz-adv-x="1282" unicode="Ĕ"/><glyph d="M713 1126q-131 0 -209 81t-76 218q0 37 31 37h86q29 0 24 -28q-4 -74 36 -125.5t112 -51.5q154 0 174 179q0 27 31 26h88q25 0 20 -22q-24 -314 -317 -314zM674 1022q170 0 269 -118t99 -310q0 -137 -41 -137h-682v-17q0 -147 75 -229t194 -82q27 0 52.5 4t45 10.5 t41 17.5t35.5 18t32.5 21.5t26.5 21.5t24.5 21.5t18.5 16.5q18 20 37 2l57 -59q14 -16 0 -37q-16 -23 -41.5 -46.5t-72.5 -57t-120 -55t-155 -21.5q-186 0 -305 123.5t-119 324.5q0 283 154 435.5t375 152.5zM879 594q10 127 -46.5 206t-168.5 79q-129 0 -212 -79t-114 -206 h541z" glyph-name="ebreve" horiz-adv-x="1038" unicode="ĕ"/><glyph d="M885 1624q-47 0 -78 33t-31 78q0 57 39 94t92 37q45 0 78 -33t33 -80q0 -53 -38 -91t-95 -38zM115 0q-20 0 -19 25l13 94q2 25 26 24h150l166 1184h-150q-23 0 -18 25l12 94q4 25 27 24h1036q23 0 20 -24l-47 -326q-4 -25 -26 -24h-117q-20 0 -19 24l29 207h-577 l-70 -498h481q25 0 23 -24l-13 -96q-2 -25 -30 -25h-482l-75 -541h579l29 205q2 25 29 25h114q23 0 21 -25l-45 -323q-2 -25 -27 -25h-1040z" glyph-name="Edotaccent" horiz-adv-x="1282" unicode="Ė"/><glyph d="M707 1206q-51 0 -85 36t-34 85q0 59 43 100t100 41q49 0 83 -35.5t34 -86.5q0 -59 -41 -99.5t-100 -40.5zM674 1022q170 0 269 -118t99 -310q0 -137 -41 -137h-682v-17q0 -147 75 -229t194 -82q27 0 52.5 4t45 10.5t41 17.5t35.5 18t32.5 21.5t26.5 21.5t24.5 21.5 t18.5 16.5q18 20 37 2l57 -59q14 -16 0 -37q-16 -23 -41.5 -46.5t-72.5 -57t-120 -55t-155 -21.5q-186 0 -305 123.5t-119 324.5q0 283 154 435.5t375 152.5zM879 594q10 127 -46.5 206t-168.5 79q-129 0 -212 -79t-114 -206h541z" glyph-name="edotaccent" horiz-adv-x="1038" unicode="ė"/><glyph d="M1358 1470q23 0 20 -24l-47 -326q-4 -25 -26 -24h-117q-20 0 -19 24l29 207h-577l-70 -498h481q25 0 23 -24l-13 -96q-2 -25 -30 -25h-482l-75 -541h579l29 205q2 25 29 25h114q23 0 21 -25l-45 -323q-2 -25 -27 -25h-43q-152 -98 -151 -213q0 -63 53 -63q33 0 61 18 q27 16 37 -6l25 -60q10 -23 -9 -32q-63 -43 -143 -43q-158 0 -158 149q0 86 53.5 154.5t110.5 95.5h-876q-20 0 -19 25l13 94q2 25 26 24h150l166 1184h-150q-23 0 -18 25l12 94q4 25 27 24h1036z" glyph-name="Eogonek" horiz-adv-x="1282" unicode="Ę"/><glyph d="M674 1022q170 0 269 -118t99 -310q0 -137 -41 -137h-682v-17q0 -147 75 -229t194 -82q27 0 52.5 4t45 10.5t41 17.5t35.5 18t32.5 21.5t26.5 21.5t24.5 21.5t18.5 16.5q18 20 37 2l57 -59q14 -16 0 -37q-102 -135 -280 -170q-145 -92 -146 -209q0 -63 54 -63q33 0 61 18 q27 16 37 -6l25 -60q10 -23 -9 -32q-66 -43 -143 -43q-158 0 -158 149q0 76 43 139.5t97 96.5q-174 10 -284 133t-110 315q0 283 154 435.5t375 152.5zM879 594q10 127 -46.5 206t-168.5 79q-129 0 -212 -79t-114 -206h541z" glyph-name="eogonek" horiz-adv-x="1038" unicode="ę"/><glyph d="M874 1569q-10 0 -20 10l-274 264q-18 18 2 37l57 53q20 20 39 4l211 -194l264 194q20 14 37 -4l49 -61q16 -16 -10 -39l-334 -254q-15 -10 -21 -10zM115 0q-20 0 -19 25l13 94q2 25 26 24h150l166 1184h-150q-23 0 -18 25l12 94q4 25 27 24h1036q23 0 20 -24l-47 -326 q-4 -25 -26 -24h-117q-20 0 -19 24l29 207h-577l-70 -498h481q25 0 23 -24l-13 -96q-2 -25 -30 -25h-482l-75 -541h579l29 205q2 25 29 25h114q23 0 21 -25l-45 -323q-2 -25 -27 -25h-1040z" glyph-name="Ecaron" horiz-adv-x="1282" unicode="Ě"/><glyph d="M1053 1434q14 -18 -11 -39l-342 -277q-14 -10 -20 -10q-10 0 -21 10l-262 277q-16 20 2 37l58 53q23 20 39 4l198 -207l273 217q20 14 37 -4zM674 1022q170 0 269 -118t99 -310q0 -137 -41 -137h-682v-17q0 -147 75 -229t194 -82q27 0 52.5 4t45 10.5t41 17.5t35.5 18 t32.5 21.5t26.5 21.5t24.5 21.5t18.5 16.5q18 20 37 2l57 -59q14 -16 0 -37q-16 -23 -41.5 -46.5t-72.5 -57t-120 -55t-155 -21.5q-186 0 -305 123.5t-119 324.5q0 283 154 435.5t375 152.5zM879 594q10 127 -46.5 206t-168.5 79q-129 0 -212 -79t-114 -206h541z" glyph-name="ecaron" horiz-adv-x="1038" unicode="ě"/><glyph d="M739 1577q-20 -16 -37 4l-45 64q-14 23 9 38l327 252q14 10 23 11q10 0 20 -11l271 -260q18 -18 0 -39l-58 -55q-18 -20 -37 -2l-211 193zM799 -14q-264 0 -437.5 182t-173.5 465q0 205 62.5 368.5t170 267t245 159t290.5 55.5q164 0 265.5 -60.5t142.5 -132.5l20 156 q4 25 25 24h111q25 0 20 -24l-57 -416q-4 -27 -29 -26h-121q-23 0 -22 24l2 16q14 106 -85.5 198.5t-283.5 92.5q-240 0 -409.5 -179t-169.5 -513q0 -236 128 -373t328 -137q254 0 428 211l27 186h-363q-25 0 -18 27l12 92q4 27 27 27h502q25 0 20 -27l-88 -624 q-4 -25 -27 -25h-104q-25 0 -20 25l18 137q-176 -176 -436 -176z" glyph-name="Gcircumflex" horiz-adv-x="1488" unicode="Ĝ"/><glyph d="M496 1118q-23 -16 -37 4l-49 62q-14 23 8 39l340 276q14 10 22 10q10 0 21 -10l264 -276q18 -23 0 -39l-57 -54q-23 -23 -37 -4l-205 209zM879 172h-5q-43 -76 -134 -131t-218 -55q-168 0 -272.5 121.5t-104.5 312.5q0 270 141.5 436t375.5 166q125 0 202.5 -56.5 t110.5 -131.5h6l18 149q4 25 27 25h238q23 0 20 -25l-12 -88q-2 -25 -27 -25h-106l-119 -845q-63 -459 -561 -459q-209 0 -350 121q-20 18 -3 37l70 81q14 18 35 5l14 -13q16 -12 28.5 -21t37 -22.5t50.5 -23t60.5 -15.5t73.5 -6q334 0 377 316l4 28q5 37 23 119zM563 129 q147 0 255 123t108 315q0 143 -74 227.5t-184 84.5q-150 0 -249.5 -119t-99.5 -320q0 -137 66.5 -224t177.5 -87z" glyph-name="gcircumflex" horiz-adv-x="1202" unicode="ĝ"/><glyph d="M987 1599q-131 0 -209 78t-76 211q0 37 31 37h86q29 0 25 -29q-4 -72 36 -118.5t111 -46.5q156 0 174 167q0 27 31 27h88q25 0 21 -22q-23 -304 -318 -304zM799 -14q-264 0 -437.5 182t-173.5 465q0 205 62.5 368.5t170 267t245 159t290.5 55.5q164 0 265.5 -60.5 t142.5 -132.5l20 156q4 25 25 24h111q25 0 20 -24l-57 -416q-4 -27 -29 -26h-121q-23 0 -22 24l2 16q14 106 -85.5 198.5t-283.5 92.5q-240 0 -409.5 -179t-169.5 -513q0 -236 128 -373t328 -137q254 0 428 211l27 186h-363q-25 0 -18 27l12 92q4 27 27 27h502q25 0 20 -27 l-88 -624q-4 -25 -27 -25h-104q-25 0 -20 25l18 137q-176 -176 -436 -176z" glyph-name="Gbreve" horiz-adv-x="1488" unicode="Ğ"/><glyph d="M752 1126q-131 0 -209 81t-76 218q0 37 31 37h86q29 0 24 -28q-4 -74 36 -125.5t112 -51.5q154 0 174 179q0 27 31 26h88q25 0 20 -22q-24 -314 -317 -314zM879 172h-5q-43 -76 -134 -131t-218 -55q-168 0 -272.5 121.5t-104.5 312.5q0 270 141.5 436t375.5 166 q125 0 202.5 -56.5t110.5 -131.5h6l18 149q4 25 27 25h238q23 0 20 -25l-12 -88q-2 -25 -27 -25h-106l-119 -845q-63 -459 -561 -459q-209 0 -350 121q-20 18 -3 37l70 81q14 18 35 5l14 -13q16 -12 28.5 -21t37 -22.5t50.5 -23t60.5 -15.5t73.5 -6q334 0 377 316l4 28 q5 37 23 119zM563 129q147 0 255 123t108 315q0 143 -74 227.5t-184 84.5q-150 0 -249.5 -119t-99.5 -320q0 -137 66.5 -224t177.5 -87z" glyph-name="gbreve" horiz-adv-x="1202" unicode="ğ"/><glyph d="M977 1624q-47 0 -78 33t-31 78q0 57 39 94t92 37q45 0 78 -33t33 -80q0 -53 -38 -91t-95 -38zM799 -14q-264 0 -437.5 182t-173.5 465q0 205 62.5 368.5t170 267t245 159t290.5 55.5q164 0 265.5 -60.5t142.5 -132.5l20 156q4 25 25 24h111q25 0 20 -24l-57 -416 q-4 -27 -29 -26h-121q-23 0 -22 24l2 16q14 106 -85.5 198.5t-283.5 92.5q-240 0 -409.5 -179t-169.5 -513q0 -236 128 -373t328 -137q254 0 428 211l27 186h-363q-25 0 -18 27l12 92q4 27 27 27h502q25 0 20 -27l-88 -624q-4 -25 -27 -25h-104q-25 0 -20 25l18 137 q-176 -176 -436 -176z" glyph-name="Gdotaccent" horiz-adv-x="1488" unicode="Ġ"/><glyph d="M745 1206q-51 0 -84.5 36t-33.5 85q0 59 43 100t100 41q49 0 83 -35.5t34 -86.5q0 -59 -41.5 -99.5t-100.5 -40.5zM879 172h-5q-43 -76 -134 -131t-218 -55q-168 0 -272.5 121.5t-104.5 312.5q0 270 141.5 436t375.5 166q125 0 202.5 -56.5t110.5 -131.5h6l18 149 q4 25 27 25h238q23 0 20 -25l-12 -88q-2 -25 -27 -25h-106l-119 -845q-63 -459 -561 -459q-209 0 -350 121q-20 18 -3 37l70 81q14 18 35 5l14 -13q16 -12 28.5 -21t37 -22.5t50.5 -23t60.5 -15.5t73.5 -6q334 0 377 316l4 28q5 37 23 119zM563 129q147 0 255 123t108 315 q0 143 -74 227.5t-184 84.5q-150 0 -249.5 -119t-99.5 -320q0 -137 66.5 -224t177.5 -87z" glyph-name="gdotaccent" horiz-adv-x="1202" unicode="ġ"/><glyph d="M799 -14q-264 0 -437.5 182t-173.5 465q0 205 62.5 368.5t170 267t245 159t290.5 55.5q164 0 265.5 -60.5t142.5 -132.5l20 156q4 25 25 24h111q25 0 20 -24l-57 -416q-4 -27 -29 -26h-121q-23 0 -22 24l2 16q14 106 -85.5 198.5t-283.5 92.5q-240 0 -409.5 -179 t-169.5 -513q0 -236 128 -373t328 -137q254 0 428 211l27 186h-363q-25 0 -18 27l12 92q4 27 27 27h502q25 0 20 -27l-88 -624q-4 -25 -27 -25h-104q-25 0 -20 25l18 137q-176 -176 -436 -176zM649 -530q-14 0 -12 14l8 63q2 12 14 13q33 0 68 19.5t41 51.5q2 8 2 23l-8 -2 h-17q-45 0 -79.5 33.5t-34.5 85.5q0 66 39 104.5t102 38.5q55 0 88 -40t33 -120q0 -145 -73 -214.5t-171 -69.5z" glyph-name="Gcommaaccent" horiz-adv-x="1488" unicode="Ģ"/><glyph d="M858 1577q14 0 12 -14l-8 -64q-2 -12 -14 -12q-33 0 -68 -19.5t-41 -52.5q-2 -8 -2 -22h8q8 2 17 2q45 0 80 -34t35 -85q0 -66 -39 -104.5t-103 -38.5q-55 0 -88 39.5t-33 119.5q0 145 73 215t171 70zM879 172h-5q-43 -76 -134 -131t-218 -55q-168 0 -272.5 121.5 t-104.5 312.5q0 270 141.5 436t375.5 166q125 0 202.5 -56.5t110.5 -131.5h6l18 149q4 25 27 25h238q23 0 20 -25l-12 -88q-2 -25 -27 -25h-106l-119 -845q-63 -459 -561 -459q-209 0 -350 121q-20 18 -3 37l70 81q14 18 35 5l14 -13q16 -12 28.5 -21t37 -22.5t50.5 -23 t60.5 -15.5t73.5 -6q334 0 377 316l4 28q5 37 23 119zM563 129q147 0 255 123t108 315q0 143 -74 227.5t-184 84.5q-150 0 -249.5 -119t-99.5 -320q0 -137 66.5 -224t177.5 -87z" glyph-name="gcommaaccent" horiz-adv-x="1202" unicode="ģ"/><glyph d="M791 1577q-20 -16 -37 4l-45 64q-14 23 8 38l327 252q14 10 23 11q10 0 20 -11l271 -260q18 -18 0 -39l-58 -55q-18 -20 -36 -2l-211 193zM1006 0q-23 0 -17 25l12 94q2 25 25 24h150l73 516h-723l-73 -516h149q25 0 21 -24l-13 -94q-6 -25 -28 -25h-467q-25 0 -19 25 l13 94q2 25 26 24h150l166 1184h-150q-25 0 -18 25l12 94q4 25 27 24h466q23 0 21 -24l-12 -94q-6 -25 -29 -25h-147l-74 -518h723l73 518h-149q-25 0 -18 25l12 94q4 25 26 24h467q23 0 21 -24l-12 -94q-6 -25 -29 -25h-150l-165 -1184h149q25 0 21 -24l-15 -94 q-2 -25 -26 -25h-469z" glyph-name="Hcircumflex" horiz-adv-x="1589" unicode="Ĥ"/><glyph d="M252 1577q-20 -16 -37 4l-45 64q-14 23 8 38l328 252q14 10 22 11q10 0 21 -11l270 -260q18 -18 0 -39l-57 -55q-18 -20 -37 -2l-211 193zM459 864h6q111 158 311 158q164 0 251 -103.5t63 -275.5l-72 -506h106q27 0 23 -24l-12 -88q-6 -25 -31 -25h-189q-45 0 -63 19.5 t-10 66.5l73 537q16 117 -32.5 184t-151.5 67q-178 0 -276 -182l-78 -555h104q23 0 21 -24l-13 -88q-2 -25 -26 -25h-385q-20 0 -19 25l13 88q2 25 26 24h109l168 1196h-109q-25 0 -20 25l12 88q4 25 27 24h237q23 0 21 -24l-66 -471z" glyph-name="hcircumflex" horiz-adv-x="1173" unicode="ĥ"/><glyph d="M1681 1470q23 0 21 -24l-12 -94q-6 -25 -29 -25h-150l-30 -221h104q23 0 19 -23l-13 -92q-4 -23 -24 -22h-107l-114 -826h149q25 0 21 -24l-15 -94q-2 -25 -26 -25h-469q-23 0 -17 25l12 94q2 25 25 24h150l73 516h-723l-73 -516h149q25 0 21 -24l-13 -94q-6 -25 -28 -25 h-467q-25 0 -19 25l13 94q2 25 26 24h150l114 826h-102q-23 0 -18 22l12 92q4 23 24 23h105l31 221h-150q-25 0 -18 25l12 94q4 25 27 24h466q23 0 21 -24l-12 -94q-6 -25 -29 -25h-147l-31 -221h723l30 221h-149q-25 0 -18 25l12 94q4 25 26 24h467zM1270 809l22 160h-723 l-22 -160h723z" glyph-name="Hbar" horiz-adv-x="1589" unicode="Ħ"/><glyph d="M1124 137q27 0 23 -24l-12 -88q-6 -25 -31 -25h-189q-45 0 -63 19.5t-10 66.5l73 537q16 117 -32.5 184t-151.5 67q-178 0 -276 -182l-78 -555h104q23 0 21 -24l-13 -88q-2 -25 -26 -25h-385q-20 0 -19 25l13 88q2 25 26 24h109l133 948h-168q-29 0 -20 29l12 82 q4 27 29 27h165l17 110h-109q-25 0 -20 25l12 88q4 25 27 24h237q23 0 21 -24l-31 -223h172q31 0 27 -27l-13 -82q-6 -29 -32 -29h-172l-17 -110l-18 -111h6q111 158 311 158q164 0 251 -103.5t63 -275.5l-72 -506h106z" glyph-name="hbar" horiz-adv-x="1173" unicode="ħ"/><glyph d="M283 1626q-20 0 -21 19q0 102 54.5 170.5t164.5 68.5q70 0 140.5 -52t105.5 -52q72 0 80 114q0 25 27 25h77q23 0 23 -21q0 -119 -53.5 -188.5t-163.5 -69.5q-72 0 -138.5 52.5t-105.5 52.5q-76 0 -84 -94q-4 -25 -29 -25h-77zM117 0q-23 0 -21 25l13 94q2 25 26 24h150 l166 1184h-148q-25 0 -20 25l12 94q4 25 27 24h466q23 0 21 -24l-12 -94q-2 -25 -29 -25h-147l-166 -1184h145q27 0 23 -24l-13 -94q-4 -25 -28 -25h-465z" glyph-name="Itilde" horiz-adv-x="698" unicode="Ĩ"/><glyph d="M160 1157q-18 0 -19 19q0 104 48.5 172.5t148.5 68.5q63 0 126.5 -52t94.5 -52q63 0 72 117q0 25 24 24h70q20 0 20 -20q0 -260 -196 -260q-63 0 -122.5 52t-94.5 52q-70 0 -76 -96q-2 -25 -27 -25h-69zM98 0q-20 0 -18 25l12 88q2 25 27 24h108l103 733h-109 q-25 0 -20 25l12 88q4 25 29 25h252q27 0 22 -25l-119 -846h107q25 0 20 -24l-12 -88q-4 -25 -29 -25h-385z" glyph-name="itilde" horiz-adv-x="563" unicode="ĩ"/><glyph d="M295 1655q-27 0 -23 26l13 86q4 29 28 29h580q27 0 22 -29l-12 -86q-6 -27 -31 -26h-577zM117 0q-23 0 -21 25l13 94q2 25 26 24h150l166 1184h-148q-25 0 -20 25l12 94q4 25 27 24h466q23 0 21 -24l-12 -94q-2 -25 -29 -25h-147l-166 -1184h145q27 0 23 -24l-13 -94 q-4 -25 -28 -25h-465z" glyph-name="Imacron" horiz-adv-x="698" unicode="Ī"/><glyph d="M188 1225q-23 0 -18 26l10 86q4 29 25 29h489q8 0 14.5 -8t4.5 -21l-11 -86q-6 -27 -26 -26h-488zM98 0q-20 0 -18 25l12 88q2 25 27 24h108l103 733h-109q-25 0 -20 25l12 88q4 25 29 25h252q27 0 22 -25l-119 -846h107q25 0 20 -24l-12 -88q-4 -25 -29 -25h-385z" glyph-name="imacron" horiz-adv-x="563" unicode="ī"/><glyph d="M596 1599q-131 0 -209 78t-76 211q0 37 31 37h86q29 0 25 -29q-4 -72 35.5 -118.5t111.5 -46.5q156 0 174 167q0 27 31 27h88q25 0 20 -22q-22 -304 -317 -304zM117 0q-23 0 -21 25l13 94q2 25 26 24h150l166 1184h-148q-25 0 -20 25l12 94q4 25 27 24h466q23 0 21 -24 l-12 -94q-2 -25 -29 -25h-147l-166 -1184h145q27 0 23 -24l-13 -94q-4 -25 -28 -25h-465z" glyph-name="Ibreve" horiz-adv-x="698" unicode="Ĭ"/><glyph d="M449 1126q-131 0 -209 81t-76 218q0 37 31 37h86q29 0 24 -28q-4 -74 36 -125.5t112 -51.5q154 0 174 179q0 27 30 26h88q25 0 21 -22q-24 -314 -317 -314zM98 0q-20 0 -18 25l12 88q2 25 27 24h108l103 733h-109q-25 0 -20 25l12 88q4 25 29 25h252q27 0 22 -25 l-119 -846h107q25 0 20 -24l-12 -88q-4 -25 -29 -25h-385z" glyph-name="ibreve" horiz-adv-x="563" unicode="ĭ"/><glyph d="M788 1470q23 0 21 -24l-12 -94q-2 -25 -29 -25h-147l-166 -1184h145q27 0 23 -24l-13 -94q-4 -25 -28 -25h-146q-152 -98 -151 -213q0 -63 53 -63q33 0 61 18q27 16 37 -6l25 -60q10 -23 -8 -32q-63 -43 -144 -43q-158 0 -157 149q0 86 53 154.5t110 95.5h-198 q-23 0 -21 25l13 94q2 25 26 24h150l166 1184h-148q-25 0 -20 25l12 94q4 25 27 24h466z" glyph-name="Iogonek" horiz-adv-x="698" unicode="Į"/><glyph d="M467 1468q49 0 83 -35.5t34 -86.5q0 -59 -41 -99.5t-101 -40.5q-51 0 -84.5 36t-33.5 85q0 59 43 100t100 41zM504 137q25 0 20 -24l-12 -88q-4 -25 -29 -25h-112q-152 -98 -152 -213q0 -63 53 -63q33 0 62 18q27 16 37 -6l24 -60q10 -23 -8 -32q-63 -43 -143 -43 q-158 0 -158 149q0 86 53.5 154.5t110.5 95.5h-152q-20 0 -18 25l12 88q2 25 27 24h108l103 733h-109q-25 0 -20 25l12 88q4 25 29 25h252q27 0 22 -25l-119 -846h107z" glyph-name="iogonek" horiz-adv-x="563" unicode="į"/><glyph d="M586 1624q-47 0 -78 33t-31 78q0 57 39 94t92 37q45 0 78 -33t33 -80q0 -53 -38 -91t-95 -38zM117 0q-23 0 -21 25l13 94q2 25 26 24h150l166 1184h-148q-25 0 -20 25l12 94q4 25 27 24h466q23 0 21 -24l-12 -94q-2 -25 -29 -25h-147l-166 -1184h145q27 0 23 -24l-13 -94 q-4 -25 -28 -25h-465z" glyph-name="Idotaccent" horiz-adv-x="698" unicode="İ"/><glyph d="M98 0q-20 0 -18 25l12 88q2 25 27 24h108l103 733h-109q-25 0 -20 25l12 88q4 25 29 25h252q27 0 22 -25l-119 -846h107q25 0 20 -24l-12 -88q-4 -25 -29 -25h-385z" glyph-name="dotlessi" horiz-adv-x="563" unicode="ı"/><glyph d="M117 0q-23 0 -21 25l13 94q2 25 26 24h150l166 1184h-148q-25 0 -20 25l12 94q4 25 27 24h466q23 0 21 -24l-12 -94q-2 -25 -29 -25h-147l-166 -1184h145q27 0 23 -24l-13 -94q-4 -25 -28 -25h-465zM1008 133q86 0 135 58.5t67 183.5l133 952h-159q-25 0 -21 25l15 94 q2 25 26 24h477q27 0 23 -24l-14 -94q-2 -25 -29 -25h-148l-133 -952q-29 -205 -113.5 -297t-267.5 -92q-168 0 -239 90q-18 20 -2 41l59 71q20 27 41 9q70 -64 150 -64z" glyph-name="IJ" horiz-adv-x="1570" unicode="Ĳ"/><glyph d="M442 1206q-51 0 -84.5 36t-33.5 85q0 59 43 100t100 41q49 0 83 -35.5t34 -86.5q0 -59 -41.5 -99.5t-100.5 -40.5zM995 1206q-51 0 -84.5 36t-33.5 85q0 59 43 100t100 41q49 0 83 -35.5t34 -86.5q0 -59 -41.5 -99.5t-100.5 -40.5zM98 0q-20 0 -18 25l12 88q2 25 27 24 h108l103 733h-109q-25 0 -20 25l12 88q4 25 29 25h252q27 0 22 -25l-119 -846h107q25 0 20 -24l-12 -88q-4 -25 -29 -25h-385zM1053 1008q25 0 20 -25l-149 -1067q-51 -348 -359 -348q-125 0 -196 63q-18 18 -4 41l59 74q18 25 41 8q61 -41 117 -41q68 0 112.5 53.5 t59.5 151.5l133 952h-107q-23 0 -20 25l12 88q2 25 27 25h254z" glyph-name="ij" horiz-adv-x="1083" unicode="ĳ"/><glyph d="M530 1577q-20 -16 -36 4l-45 64q-14 23 8 38l327 252q14 10 23 11q10 0 20 -11l271 -260q18 -18 0 -39l-58 -55q-18 -20 -36 -2l-211 193zM309 133q86 0 135.5 58.5t67.5 183.5l133 952h-160q-23 0 -20 25l14 94q4 25 27 24h477q25 0 23 -24l-15 -94q-4 -25 -28 -25h-148 l-133 -952q-29 -205 -114 -297t-267 -92q-168 0 -240 90q-18 20 -2 41l60 71q20 27 41 9q69 -64 149 -64z" glyph-name="Jcircumflex" horiz-adv-x="872" unicode="Ĵ"/><glyph d="M180 1118q-20 -16 -37 4l-47 62q-14 23 8 39l340 276q14 10 23 10q10 0 20 -10l265 -276q18 -23 0 -39l-58 -54q-23 -20 -37 -4l-204 209zM489 1008q23 0 21 -25l-150 -1067q-51 -348 -358 -348q-125 0 -197 63q-18 18 -4 41l60 74q18 25 41 8q61 -41 116 -41 q68 0 113 53.5t59 151.5l134 952h-107q-25 0 -20 25l12 88q4 25 27 25h253z" glyph-name="jcircumflex" horiz-adv-x="520" unicode="ĵ"/><glyph d="M1188 0q-74 0 -101 92l-114 395q-18 66 -65.5 107t-112.5 41h-273l-67 -492h180q25 0 20 -24l-12 -94q-4 -25 -29 -25h-499q-20 0 -19 25l13 94q2 25 26 24h150l166 1184h-150q-23 0 -18 25l12 94q4 25 27 24h464q25 0 21 -24l-12 -94q-4 -25 -29 -25h-145l-78 -551h200 q70 0 144 32t144.5 95.5t124.5 173t75 250.5h-152q-23 0 -20 25l14 94q4 25 27 24h465q25 0 20 -24l-14 -94q-2 -25 -27 -25h-141q-35 -238 -136.5 -395.5t-242.5 -222.5q63 -31 89 -72t44 -113l103 -381h120q25 0 23 -24l-14 -94q-4 -25 -29 -25h-172zM659 -530 q-14 0 -12 14l8 63q4 12 15 13q33 0 67.5 19.5t40.5 51.5q2 8 2 23l-8 -2h-16q-45 0 -80 33.5t-35 85.5q0 66 39 104.5t102 38.5q55 0 88 -40t33 -120q0 -145 -73 -214.5t-171 -69.5z" glyph-name="Kcommaaccent" horiz-adv-x="1435" unicode="Ķ"/><glyph d="M1182 1008q23 0 18 -25l-12 -88q-4 -25 -27 -25h-92l-330 -272l260 -461h113q23 0 21 -24l-13 -88q-2 -25 -26 -25h-160q-49 0 -72 39l-256 448l-205 -163l-26 -187h108q20 0 19 -24l-13 -88q-2 -25 -26 -25h-385q-20 0 -19 25l13 88q2 25 26 24h109l168 1196h-109 q-25 0 -20 25l12 88q4 25 27 24h254q23 0 20 -24l-131 -938l432 362h-78q-25 0 -20 25l12 88q4 25 27 25h381zM641 -86q55 0 88 -40t33 -120q0 -145 -73 -214.5t-171 -69.5q-14 0 -12 14l8 63q2 12 14 13q33 0 68 19.5t41 51.5q2 8 2 23l-8 -2h-17q-45 0 -79.5 33.5 t-34.5 85.5q0 66 39 104.5t102 38.5z" glyph-name="kcommaaccent" horiz-adv-x="1122" unicode="ķ"/><glyph d="M1202 1008q23 0 19 -25l-13 -88q-4 -25 -26 -25h-92l-334 -274l258 -459h119q23 0 20 -24l-12 -88q-2 -25 -27 -25h-151q-49 0 -72 39l-260 455l-209 -168l-27 -189h109q20 0 18 -24l-12 -88q-2 -25 -27 -25h-385q-20 0 -18 25l12 88q2 25 27 24h108l105 733h-109 q-23 0 -20 25l12 88q2 25 27 25h254q25 0 20 -25l-67 -475l432 362h-78q-25 0 -21 25l13 88q4 25 26 25h381z" glyph-name="kgreenlandic" horiz-adv-x="1142" unicode="ĸ"/><glyph d="M578 1577q-20 -16 -37 6l-45 66q-14 20 10 39l373 274q23 16 36 -6l60 -88q16 -20 -12 -39zM115 0q-20 0 -19 25l13 94q2 25 26 24h150l166 1184h-150q-23 0 -18 25l12 94q4 25 27 24h462q29 0 25 -26l-12 -90q-4 -27 -33 -27h-143l-168 -1184h548l29 205q2 25 27 25h114 q29 0 25 -25l-45 -321q-4 -27 -33 -27h-1003z" glyph-name="Lacute" horiz-adv-x="1193" unicode="Ĺ"/><glyph d="M358 1577q-20 -16 -36 6l-46 66q-14 20 11 39l372 274q23 16 37 -6l60 -88q16 -20 -13 -39zM80 0q-23 0 -21 25l13 88q2 25 28 24h107l168 1196h-107q-27 0 -22 25l12 88q4 25 29 24h225q51 0 43 -51l-178 -1282h104q27 0 23 -24l-12 -88q-4 -25 -29 -25h-383z" glyph-name="lacute" horiz-adv-x="542" unicode="ĺ"/><glyph d="M115 0q-20 0 -19 25l13 94q2 25 26 24h150l166 1184h-150q-23 0 -18 25l12 94q4 25 27 24h462q29 0 25 -26l-12 -90q-4 -27 -33 -27h-143l-168 -1184h548l29 205q2 25 27 25h114q29 0 25 -25l-45 -321q-4 -27 -33 -27h-1003zM535 -530q-14 0 -13 14l8 63q2 12 15 13 q33 0 67.5 19.5t40.5 51.5q2 8 2 23l-8 -2h-16q-45 0 -80 33.5t-35 85.5q0 66 39 104.5t102 38.5q55 0 88 -40t33 -120q0 -145 -72.5 -214.5t-170.5 -69.5z" glyph-name="Lcommaaccent" horiz-adv-x="1193" unicode="Ļ"/><glyph d="M80 0q-23 0 -21 25l13 88q2 25 28 24h107l168 1196h-107q-27 0 -22 25l12 88q4 25 29 24h225q51 0 43 -51l-178 -1282h104q27 0 23 -24l-12 -88q-4 -25 -29 -25h-383zM119 -530q-14 0 -13 14l9 63q4 12 14 13q33 0 67.5 19.5t41.5 51.5q2 8 2 23l-9 -2h-16 q-45 0 -80 33.5t-35 85.5q0 66 39 104.5t103 38.5q55 0 87.5 -40t32.5 -120q0 -145 -72.5 -214.5t-170.5 -69.5z" glyph-name="lcommaaccent" horiz-adv-x="542" unicode="ļ"/><glyph d="M924 1018q-10 0 -14.5 3t-2.5 11l8 62q2 14 15 14q37 0 72.5 27.5t41.5 76.5q2 16 3 31q-10 -2 -25 -2q-45 0 -80 34t-35 85q0 66 39 104.5t103 38.5q55 0 87.5 -40t32.5 -120q0 -168 -72.5 -246.5t-172.5 -78.5zM115 0q-20 0 -19 25l13 94q2 25 26 24h150l166 1184h-150 q-23 0 -18 25l12 94q4 25 27 24h462q29 0 25 -26l-12 -90q-4 -27 -33 -27h-143l-168 -1184h548l29 205q2 25 27 25h114q29 0 25 -25l-45 -321q-4 -27 -33 -27h-1003z" glyph-name="Lcaron" horiz-adv-x="1193" unicode="Ľ"/><glyph d="M639 1018q-10 0 -14 3t-2 11l8 62q2 14 14 14q37 0 73 27.5t42 76.5q2 16 2 31q-10 -2 -25 -2q-45 0 -79.5 34t-34.5 85q0 66 38.5 104.5t102.5 38.5q55 0 88 -40t33 -120q0 -168 -73 -246.5t-173 -78.5zM80 0q-23 0 -21 25l13 88q2 25 28 24h107l168 1196h-107 q-27 0 -22 25l12 88q4 25 29 24h225q51 0 43 -51l-178 -1282h104q27 0 23 -24l-12 -88q-4 -25 -29 -25h-383z" glyph-name="lcaron" horiz-adv-x="589" unicode="ľ"/><glyph d="M115 0q-20 0 -19 25l13 94q2 25 26 24h150l166 1184h-150q-23 0 -18 25l12 94q4 25 27 24h462q29 0 25 -26l-12 -90q-4 -27 -33 -27h-143l-168 -1184h548l29 205q2 25 27 25h114q29 0 25 -25l-45 -321q-4 -27 -33 -27h-1003zM1075 705q-51 0 -85 35.5t-34 84.5 q0 59 43 100.5t101 41.5q49 0 83 -36t34 -87q0 -59 -41.5 -99t-100.5 -40z" glyph-name="Ldot" horiz-adv-x="1193" unicode="Ŀ"/><glyph d="M80 0q-23 0 -21 25l13 88q2 25 28 24h107l168 1196h-107q-27 0 -22 25l12 88q4 25 29 24h225q51 0 43 -51l-178 -1282h104q27 0 23 -24l-12 -88q-4 -25 -29 -25h-383zM659 629q-51 0 -84.5 35.5t-33.5 85.5q0 59 43 100t100 41q49 0 83 -36t34 -87q0 -59 -41.5 -99 t-100.5 -40z" glyph-name="ldot" horiz-adv-x="589" unicode="ŀ"/><glyph d="M1171 373q29 0 25 -25l-45 -321q-4 -27 -33 -27h-1003q-20 0 -19 25l13 94q2 25 26 24h150l63 447l-192 -103q-27 -14 -37 11l-33 84q-10 23 14 36l271 146l80 563h-150q-23 0 -18 25l12 94q4 25 27 24h462q29 0 25 -26l-12 -90q-4 -27 -33 -27h-143l-66 -465l190 103 q25 16 35 -11l33 -84q10 -25 -16 -39l-267 -143l-77 -545h548l29 205q2 25 27 25h114z" glyph-name="Lslash" horiz-adv-x="1193" unicode="Ł"/><glyph d="M762 870q12 -23 -12 -41l-226 -147l-75 -545h104q25 0 22 -24l-12 -88q-2 -25 -28 -25h-383q-25 0 -21 25l12 88q4 25 29 24h107l59 422l-139 -92q-23 -12 -35 6l-45 80q-12 23 12 39l234 156l81 585h-106q-25 0 -23 25l13 88q2 25 28 24h226q51 0 43 -51l-76 -549 l129 86q27 14 39 -6z" glyph-name="lslash" horiz-adv-x="669" unicode="ł"/><glyph d="M877 1577q-20 -16 -37 6l-45 66q-14 20 10 39l373 274q23 16 36 -6l60 -88q16 -20 -12 -39zM1171 0q-66 0 -92 63l-407 961l-70 188h-4l-152 -1069h150q27 0 22 -24l-14 -94q-2 -25 -29 -25h-460q-20 0 -19 25l13 94q2 25 26 24h150l166 1184h-150q-23 0 -18 25l12 94 q4 25 27 24h274q66 0 94 -69l404 -948l80 -213h4l153 1087h-149q-23 0 -21 25l15 94q4 25 26 24h457q25 0 22 -24l-14 -94q-4 -25 -29 -25h-147l-182 -1302q-2 -25 -27 -25h-111z" glyph-name="Nacute" horiz-adv-x="1550" unicode="Ń"/><glyph d="M655 1110q-23 -14 -37 6l-45 62q-16 18 9 39l356 290q23 18 39 -2l59 -82q16 -20 -10 -39zM98 0q-25 0 -18 25l12 88q2 25 27 24h106l105 733h-109q-25 0 -20 25l12 88q4 25 27 25h235q25 0 21 -25l-21 -119h8q125 158 314 158q164 0 251 -103.5t62 -275.5l-72 -506h107 q27 0 22 -24l-12 -88q-6 -25 -31 -25h-188q-45 0 -63.5 19.5t-10.5 66.5l74 537q16 117 -33 184t-151 67q-174 0 -279 -182l-78 -555h107q23 0 20 -24l-12 -88q-6 -25 -27 -25h-385z" glyph-name="nacute" horiz-adv-x="1191" unicode="ń"/><glyph d="M1171 0q-66 0 -92 63l-407 961l-70 188h-4l-152 -1069h150q27 0 22 -24l-14 -94q-2 -25 -29 -25h-460q-20 0 -19 25l13 94q2 25 26 24h150l166 1184h-150q-23 0 -18 25l12 94q4 25 27 24h274q66 0 94 -69l404 -948l80 -213h4l153 1087h-149q-23 0 -21 25l15 94 q4 25 26 24h457q25 0 22 -24l-14 -94q-4 -25 -29 -25h-147l-182 -1302q-2 -25 -27 -25h-111zM662 -530q-14 0 -13 14l8 63q2 12 15 13q33 0 67.5 19.5t40.5 51.5q2 8 2 23l-8 -2h-16q-45 0 -80 33.5t-35 85.5q0 66 39 104.5t102 38.5q55 0 88 -40t33 -120 q0 -145 -72.5 -214.5t-170.5 -69.5z" glyph-name="Ncommaaccent" horiz-adv-x="1550" unicode="Ņ"/><glyph d="M98 0q-25 0 -18 25l12 88q2 25 27 24h106l105 733h-109q-25 0 -20 25l12 88q4 25 27 25h235q25 0 21 -25l-21 -119h8q125 158 314 158q164 0 251 -103.5t62 -275.5l-72 -506h107q27 0 22 -24l-12 -88q-6 -25 -31 -25h-188q-45 0 -63.5 19.5t-10.5 66.5l74 537 q16 117 -33 184t-151 67q-174 0 -279 -182l-78 -555h107q23 0 20 -24l-12 -88q-6 -25 -27 -25h-385zM518 -530q-14 0 -12 14l8 63q2 12 14 13q33 0 68 19.5t41 51.5q2 8 2 23l-8 -2h-17q-45 0 -79.5 33.5t-34.5 85.5q0 66 39 104.5t102 38.5q55 0 88 -40t33 -120 q0 -145 -73 -214.5t-171 -69.5z" glyph-name="ncommaaccent" horiz-adv-x="1191" unicode="ņ"/><glyph d="M1012 1569q-10 0 -21 10l-274 264q-18 18 2 37l57 53q23 20 39 4l211 -194l264 194q20 14 37 -4l49 -61q16 -16 -10 -39l-334 -254q-14 -10 -20 -10zM1171 0q-66 0 -92 63l-407 961l-70 188h-4l-152 -1069h150q27 0 22 -24l-14 -94q-2 -25 -29 -25h-460q-20 0 -19 25 l13 94q2 25 26 24h150l166 1184h-150q-23 0 -18 25l12 94q4 25 27 24h274q66 0 94 -69l404 -948l80 -213h4l153 1087h-149q-23 0 -21 25l15 94q4 25 26 24h457q25 0 22 -24l-14 -94q-4 -25 -29 -25h-147l-182 -1302q-2 -25 -27 -25h-111z" glyph-name="Ncaron" horiz-adv-x="1550" unicode="Ň"/><glyph d="M735 1108q-10 0 -20 10l-262 277q-16 20 2 37l57 53q23 20 39 4l199 -207l272 217q20 14 37 -4l49 -61q14 -18 -10 -39l-342 -277q-15 -10 -21 -10zM98 0q-25 0 -18 25l12 88q2 25 27 24h106l105 733h-109q-25 0 -20 25l12 88q4 25 27 25h235q25 0 21 -25l-21 -119h8 q125 158 314 158q164 0 251 -103.5t62 -275.5l-72 -506h107q27 0 22 -24l-12 -88q-6 -25 -31 -25h-188q-45 0 -63.5 19.5t-10.5 66.5l74 537q16 117 -33 184t-151 67q-174 0 -279 -182l-78 -555h107q23 0 20 -24l-12 -88q-6 -25 -27 -25h-385z" glyph-name="ncaron" horiz-adv-x="1191" unicode="ň"/><glyph d="M250 1108q-10 0 -10 10l8 68q2 12 14 12q35 0 69 28.5t46 82.5q2 10 2 24h-2q-2 0 -5 -1t-8.5 -1h-9.5q-45 0 -79.5 34t-34.5 83q0 68 38.5 106.5t102.5 38.5q55 0 88 -41t33 -118q0 -168 -74 -247t-178 -79zM240 0q-25 0 -19 25l12 88q4 25 27 24h107l104 733h-109 q-23 0 -20 25l12 88q2 25 27 25h235q23 0 21 -25l-21 -119h9q125 158 313 158q164 0 251 -103.5t62 -275.5l-71 -506h106q25 0 23 -24l-13 -88q-6 -25 -30 -25h-189q-45 0 -63.5 19.5t-9.5 66.5l73 537q16 117 -33 184t-151 67q-174 0 -279 -182l-77 -555h106q25 0 21 -24 l-13 -88q-6 -25 -26 -25h-385z" glyph-name="napostrophe" horiz-adv-x="1335" unicode="ŉ"/><glyph d="M678 -475q-25 0 -21 26l15 103q4 25 28 24q215 0 312.5 74t128.5 244l2 8q-39 0 -64 59l-407 961l-70 188h-4l-152 -1069h148q25 0 22 -24l-14 -94q-4 -25 -29 -25h-458q-20 0 -19 25l13 94q2 25 26 24h150l166 1184h-150q-23 0 -18 25l12 94q4 25 27 24h274q66 0 94 -69 l404 -948l80 -213h4l153 1087h-149q-23 0 -21 25l15 94q4 25 26 24h457q25 0 22 -24l-14 -94q-4 -25 -29 -25h-145l-184 -1309q-39 -270 -179.5 -381.5t-451.5 -111.5z" glyph-name="Eng" horiz-adv-x="1550" unicode="Ŋ"/><glyph d="M641 -434q-123 0 -199 76q-16 16 2 39l64 73q18 20 39 4q61 -49 110 -49q72 0 119 54.5t62 152.5l98 707q16 117 -33 184t-151 67q-174 0 -279 -182l-78 -555h107q23 0 20 -24l-12 -88q-6 -25 -27 -25h-385q-25 0 -18 25l12 88q2 25 27 24h106l105 733h-109q-25 0 -20 25 l12 88q4 25 27 25h235q25 0 21 -25l-21 -119h8q125 158 314 158q164 0 251 -103.5t62 -275.5l-104 -729q-50 -348 -365 -348z" glyph-name="eng" horiz-adv-x="1155" unicode="ŋ"/><glyph d="M715 1655q-27 0 -23 26l13 86q4 29 28 29h580q27 0 22 -29l-12 -86q-6 -27 -31 -26h-577zM799 -14q-260 0 -437.5 178t-177.5 461q0 397 216 627.5t558 230.5q266 0 436.5 -174t170.5 -465q0 -406 -213 -632t-553 -226zM813 133q233 0 403 186.5t170 505.5 q0 248 -125.5 379t-320.5 131q-238 0 -408 -184t-170 -508q0 -244 130.5 -377t320.5 -133z" glyph-name="Omacron" horiz-adv-x="1542" unicode="Ō"/><glyph d="M440 1225q-27 0 -20 26l12 86q4 29 29 29h579q27 0 23 -29l-12 -86q-6 -27 -31 -26h-580zM567 -14q-188 0 -306 123.5t-118 324.5q0 256 153 422t394 166q195 0 310.5 -125t115.5 -326q0 -266 -150.5 -425.5t-398.5 -159.5zM588 129q150 0 253 122t103 304 q0 143 -72.5 233.5t-199.5 90.5q-150 0 -252.5 -122t-102.5 -304q0 -150 71 -237t200 -87z" glyph-name="omacron" horiz-adv-x="1118" unicode="ō"/><glyph d="M1016 1599q-131 0 -209 78t-76 211q0 37 31 37h86q29 0 24 -29q-4 -72 36 -118.5t112 -46.5q156 0 174 167q0 27 31 27h88q25 0 20 -22q-22 -304 -317 -304zM799 -14q-260 0 -437.5 178t-177.5 461q0 397 216 627.5t558 230.5q266 0 436.5 -174t170.5 -465 q0 -406 -213 -632t-553 -226zM813 133q233 0 403 186.5t170 505.5q0 248 -125.5 379t-320.5 131q-238 0 -408 -184t-170 -508q0 -244 130.5 -377t320.5 -133z" glyph-name="Obreve" horiz-adv-x="1542" unicode="Ŏ"/><glyph d="M741 1126q-131 0 -208.5 81t-75.5 218q0 37 30 37h86q29 0 25 -28q-4 -74 36 -125.5t111 -51.5q154 0 175 179q0 27 30 26h88q25 0 21 -22q-25 -314 -318 -314zM567 -14q-188 0 -306 123.5t-118 324.5q0 256 153 422t394 166q195 0 310.5 -125t115.5 -326 q0 -266 -150.5 -425.5t-398.5 -159.5zM588 129q150 0 253 122t103 304q0 143 -72.5 233.5t-199.5 90.5q-150 0 -252.5 -122t-102.5 -304q0 -150 71 -237t200 -87z" glyph-name="obreve" horiz-adv-x="1118" unicode="ŏ"/><glyph d="M782 1581q-25 -20 -45 -2l-53 49q-20 14 0 39l268 303q18 23 37 4l76 -67q18 -18 -2 -41zM1165 1581q-25 -20 -45 -2l-53 49q-20 14 0 39l268 303q18 23 37 4l76 -67q18 -18 -2 -41zM799 -14q-260 0 -437.5 178t-177.5 461q0 397 216 627.5t558 230.5q266 0 436.5 -174 t170.5 -465q0 -406 -213 -632t-553 -226zM813 133q233 0 403 186.5t170 505.5q0 248 -125.5 379t-320.5 131q-238 0 -408 -184t-170 -508q0 -244 130.5 -377t320.5 -133z" glyph-name="Ohungarumlaut" horiz-adv-x="1542" unicode="Ő"/><glyph d="M526 1112q-18 -18 -37 -2l-59 47q-23 14 -2 39l244 317q16 23 39 7l77 -64q20 -16 0 -41zM850 1112q-18 -18 -37 -2l-59 47q-23 14 -2 39l243 317q16 23 39 7l78 -64q20 -16 0 -41zM567 -14q-188 0 -306 123.5t-118 324.5q0 256 153 422t394 166q195 0 310.5 -125 t115.5 -326q0 -266 -150.5 -425.5t-398.5 -159.5zM588 129q150 0 253 122t103 304q0 143 -72.5 233.5t-199.5 90.5q-150 0 -252.5 -122t-102.5 -304q0 -150 71 -237t200 -87z" glyph-name="ohungarumlaut" horiz-adv-x="1118" unicode="ő"/><glyph d="M813 0q-276 14 -451.5 185t-175.5 440q0 387 230.5 616t584.5 229h897q27 0 23 -24l-47 -326q-2 -25 -27 -24h-116q-25 0 -19 24l29 207h-580l-71 -522h483q25 0 20 -25l-12 -96q-4 -25 -29 -25h-483l-74 -516h582l29 205q4 25 26 25h117q25 0 20 -25l-45 -323 q-6 -25 -28 -25h-883zM834 147l165 1176q-285 0 -459.5 -187.5t-174.5 -492.5q0 -229 134 -358.5t335 -137.5z" glyph-name="OE" horiz-adv-x="1824" unicode="Œ"/><glyph d="M1468 1022q170 0 269.5 -118t99.5 -310q0 -137 -41 -137h-682v-17q0 -147 75 -229t193 -82q27 0 52.5 4t45 10.5t41 17.5t36 18t33 21.5t26.5 21.5t24.5 21.5t18.5 16.5q18 20 37 2l57 -59q14 -16 0 -37q-16 -23 -41.5 -46.5t-73 -57t-120 -55t-154.5 -21.5 q-119 0 -214 53t-149 149q-152 -203 -434 -202q-188 0 -306 123.5t-118 324.5q0 256 153 422t394 166q252 0 365 -199q149 199 413 199zM588 129q150 0 253 122t103 304q0 143 -72.5 233.5t-199.5 90.5q-150 0 -252.5 -122t-102.5 -304q0 -150 71 -237t200 -87zM1673 594 q10 127 -46 206t-169 79q-129 0 -212 -79t-113 -206h540z" glyph-name="oe" horiz-adv-x="1832" unicode="œ"/><glyph d="M766 1577q-20 -16 -37 6l-45 66q-14 20 10 39l373 274q23 16 37 -6l59 -88q16 -20 -12 -39zM1124 0q-80 0 -110 88l-140 401q-18 53 -40.5 80t-69.5 27h-246l-63 -453h149q23 0 21 -24l-15 -94q-4 -25 -26 -25h-469q-20 0 -19 25l13 94q2 25 26 24h150l166 1184h-148 q-25 0 -20 25l12 94q4 25 27 24h604q178 0 295.5 -100t117.5 -280q0 -178 -94 -300t-266 -163q45 -35 78 -138l110 -346h127q25 0 23 -24l-14 -94q-4 -25 -29 -25h-150zM778 739q186 0 284.5 79t98.5 261q0 131 -84 189.5t-215 58.5h-241l-84 -588h241z" glyph-name="Racute" horiz-adv-x="1345" unicode="Ŕ"/><glyph d="M502 1110q-23 -14 -37 6l-45 62q-16 18 8 39l356 290q23 18 39 -2l60 -82q16 -20 -11 -39zM98 0q-20 0 -18 25l12 88q2 25 27 24h106l105 733h-109q-25 0 -20 25l12 88q4 25 27 25h235q25 0 21 -25l-29 -201h6q6 18 27.5 49t65.5 75t124 75t178 31q27 0 23 -27l-17 -119 q-4 -27 -30 -26h-39q-133 0 -237.5 -114t-125.5 -259l-47 -330h180q23 0 21 -24l-12 -88q-2 -25 -29 -25h-457z" glyph-name="racute" horiz-adv-x="792" unicode="ŕ"/><glyph d="M1124 0q-80 0 -110 88l-140 401q-18 53 -40.5 80t-69.5 27h-246l-63 -453h149q23 0 21 -24l-15 -94q-4 -25 -26 -25h-469q-20 0 -19 25l13 94q2 25 26 24h150l166 1184h-148q-25 0 -20 25l12 94q4 25 27 24h604q178 0 295.5 -100t117.5 -280q0 -178 -94 -300t-266 -163 q45 -35 78 -138l110 -346h127q25 0 23 -24l-14 -94q-4 -25 -29 -25h-150zM778 739q186 0 284.5 79t98.5 261q0 131 -84 189.5t-215 58.5h-241l-84 -588h241zM588 -530q-14 0 -13 14l9 63q2 12 14 13q33 0 67.5 19.5t41.5 51.5q2 8 2 23l-9 -2h-16q-45 0 -80 33.5t-35 85.5 q0 66 39 104.5t103 38.5q55 0 87.5 -40t32.5 -120q0 -145 -72.5 -214.5t-170.5 -69.5z" glyph-name="Rcommaaccent" horiz-adv-x="1345" unicode="Ŗ"/><glyph d="M98 0q-20 0 -18 25l12 88q2 25 27 24h106l105 733h-109q-25 0 -20 25l12 88q4 25 27 25h235q25 0 21 -25l-29 -201h6q6 18 27.5 49t65.5 75t124 75t178 31q27 0 23 -27l-17 -119q-4 -27 -30 -26h-39q-133 0 -237.5 -114t-125.5 -259l-47 -330h180q23 0 21 -24l-12 -88 q-2 -25 -29 -25h-457zM147 -530q-14 0 -12 14l8 63q4 12 15 13q33 0 67.5 19.5t40.5 51.5q2 8 2 23l-8 -2h-16q-45 0 -80 33.5t-35 85.5q0 66 39 104.5t102 38.5q55 0 88 -40t33 -120q0 -145 -73 -214.5t-171 -69.5z" glyph-name="rcommaaccent" horiz-adv-x="792" unicode="ŗ"/><glyph d="M901 1569q-10 0 -20 10l-275 264q-18 18 2 37l58 53q23 20 39 4l210 -194l265 194q20 14 37 -4l49 -61q16 -16 -11 -39l-333 -254q-15 -10 -21 -10zM1124 0q-80 0 -110 88l-140 401q-18 53 -40.5 80t-69.5 27h-246l-63 -453h149q23 0 21 -24l-15 -94q-4 -25 -26 -25h-469 q-20 0 -19 25l13 94q2 25 26 24h150l166 1184h-148q-25 0 -20 25l12 94q4 25 27 24h604q178 0 295.5 -100t117.5 -280q0 -178 -94 -300t-266 -163q45 -35 78 -138l110 -346h127q25 0 23 -24l-14 -94q-4 -25 -29 -25h-150zM778 739q186 0 284.5 79t98.5 261q0 131 -84 189.5 t-215 58.5h-241l-84 -588h241z" glyph-name="Rcaron" horiz-adv-x="1345" unicode="Ř"/><glyph d="M582 1108q-10 0 -21 10l-262 277q-16 20 2 37l57 53q23 20 39 4l199 -207l272 217q20 14 37 -4l49 -61q14 -18 -10 -39l-342 -277q-14 -10 -20 -10zM98 0q-20 0 -18 25l12 88q2 25 27 24h106l105 733h-109q-25 0 -20 25l12 88q4 25 27 25h235q25 0 21 -25l-29 -201h6 q6 18 27.5 49t65.5 75t124 75t178 31q27 0 23 -27l-17 -119q-4 -27 -30 -26h-39q-133 0 -237.5 -114t-125.5 -259l-47 -330h180q23 0 21 -24l-12 -88q-2 -25 -29 -25h-457z" glyph-name="rcaron" horiz-adv-x="792" unicode="ř"/><glyph d="M733 1577q-20 -16 -37 6l-45 66q-14 20 11 39l372 274q23 16 37 -6l59 -88q16 -20 -12 -39zM127 0q-25 0 -21 25l66 473q4 25 29 24h121q20 0 18 -26l-4 -29q-2 -14 6 -48t34.5 -83t68.5 -93t119 -76t175 -32q147 0 225 74t78 194q0 47 -18 84t-43 60.5t-74 46t-84 35 t-98 30.5q-84 25 -125 39.5t-109.5 49t-102.5 74.5t-61.5 107.5t-27.5 155.5q0 178 134 288t355 110q279 0 383 -170l17 135q4 25 24 25h109q23 0 20 -25l-61 -440q-2 -27 -27 -27h-123q-25 0 -20 25l8 61q6 37 -8 79t-48 86t-106.5 72.5t-171.5 28.5q-158 0 -235.5 -66.5 t-77.5 -176.5q0 -61 25.5 -107.5t77 -75t101.5 -48t122 -40.5q25 -6 37 -10q182 -55 281 -140t99 -251q0 -184 -119.5 -308t-351.5 -124q-334 0 -456 227l-25 -188q-4 -25 -29 -25h-106z" glyph-name="Sacute" horiz-adv-x="1265" unicode="Ś"/><glyph d="M549 1110q-23 -14 -37 6l-45 62q-16 18 8 39l356 290q23 18 39 -2l60 -82q16 -20 -10 -39zM539 -14q-135 0 -208 46t-87 89h-4q-10 -88 -11 -94q-4 -27 -30 -27h-80q-29 0 -23 27l47 327q4 27 29 27h90q23 0 23 -27v-6q-4 -74 58.5 -146.5t182.5 -72.5q104 0 164 40 t60 105q0 53 -39 88t-97.5 51.5t-127 39t-127 48t-97.5 82t-39 140.5q0 139 106.5 219t262.5 80q186 0 254 -109h2l4 68q4 27 33 27h80q27 0 22 -27l-39 -287q-6 -27 -33 -26h-88q-27 0 -22 26l4 29q10 72 -50.5 114t-168.5 42q-86 0 -139.5 -37t-53.5 -103q0 -55 54.5 -90 t131 -54.5t154.5 -46t132.5 -89t54.5 -158.5q0 -145 -104.5 -230t-280.5 -85z" glyph-name="sacute" horiz-adv-x="968" unicode="ś"/><glyph d="M641 1577q-20 -16 -37 4l-45 64q-14 23 8 38l328 252q14 10 23 11q10 0 20 -11l270 -260q18 -18 0 -39l-57 -55q-18 -20 -37 -2l-211 193zM127 0q-25 0 -21 25l66 473q4 25 29 24h121q20 0 18 -26l-4 -29q-2 -14 6 -48t34.5 -83t68.5 -93t119 -76t175 -32q147 0 225 74 t78 194q0 47 -18 84t-43 60.5t-74 46t-84 35t-98 30.5q-84 25 -125 39.5t-109.5 49t-102.5 74.5t-61.5 107.5t-27.5 155.5q0 178 134 288t355 110q279 0 383 -170l17 135q4 25 24 25h109q23 0 20 -25l-61 -440q-2 -27 -27 -27h-123q-25 0 -20 25l8 61q6 37 -8 79t-48 86 t-106.5 72.5t-171.5 28.5q-158 0 -235.5 -66.5t-77.5 -176.5q0 -61 25.5 -107.5t77 -75t101.5 -48t122 -40.5q25 -6 37 -10q182 -55 281 -140t99 -251q0 -184 -119.5 -308t-351.5 -124q-334 0 -456 227l-25 -188q-4 -25 -29 -25h-106z" glyph-name="Scircumflex" horiz-adv-x="1265" unicode="Ŝ"/><glyph d="M406 1118q-23 -16 -37 4l-50 62q-14 23 9 39l340 276q14 10 22 10q10 0 21 -10l264 -276q18 -23 0 -39l-57 -54q-23 -23 -37 -4l-205 209zM539 -14q-135 0 -208 46t-87 89h-4q-10 -88 -11 -94q-4 -27 -30 -27h-80q-29 0 -23 27l47 327q4 27 29 27h90q23 0 23 -27v-6 q-4 -74 58.5 -146.5t182.5 -72.5q104 0 164 40t60 105q0 53 -39 88t-97.5 51.5t-127 39t-127 48t-97.5 82t-39 140.5q0 139 106.5 219t262.5 80q186 0 254 -109h2l4 68q4 27 33 27h80q27 0 22 -27l-39 -287q-6 -27 -33 -26h-88q-27 0 -22 26l4 29q10 72 -50.5 114t-168.5 42 q-86 0 -139.5 -37t-53.5 -103q0 -55 54.5 -90t131 -54.5t154.5 -46t132.5 -89t54.5 -158.5q0 -145 -104.5 -230t-280.5 -85z" glyph-name="scircumflex" horiz-adv-x="968" unicode="ŝ"/><glyph d="M1321 1473q23 0 20 -25l-61 -440q-2 -27 -27 -27h-123q-25 0 -20 25l8 61q6 37 -8 79t-48 86t-106.5 72.5t-171.5 28.5q-158 0 -235.5 -66.5t-77.5 -176.5q0 -61 25.5 -107.5t77 -75t101.5 -48t122 -40.5q25 -6 37 -10q182 -55 281 -140t99 -251q0 -184 -119.5 -308 t-351.5 -124h-34l-43 -92q53 -6 100 -44t47 -118q0 -86 -57.5 -140.5t-171.5 -54.5q-88 0 -166 51q-12 12 0 37l37 66q10 25 39 6q47 -29 96 -29q68 0 67 64q0 61 -94 61q-51 0 -37 43l72 162q-219 41 -311 215l-25 -188q-4 -25 -29 -25h-106q-25 0 -21 25l66 473 q4 25 29 24h121q20 0 18 -26l-4 -29q-2 -14 6 -48t34.5 -83t68.5 -93t119 -76t175 -32q147 0 225 74t78 194q0 47 -18 84t-43 60.5t-74 46t-84 35t-98 30.5q-84 25 -125 39.5t-109.5 49t-102.5 74.5t-61.5 107.5t-27.5 155.5q0 178 134 288t355 110q279 0 383 -170l17 135 q4 25 24 25h109z" glyph-name="Scedilla" horiz-adv-x="1265" unicode="Ş"/><glyph d="M965 1008q27 0 22 -27l-39 -287q-6 -27 -33 -26h-88q-27 0 -22 26l4 29q10 72 -50.5 114t-168.5 42q-86 0 -139.5 -37t-53.5 -103q0 -55 54.5 -90t131 -54.5t154.5 -46t132.5 -89t54.5 -158.5q0 -145 -103.5 -230t-279.5 -85l-41 -86q49 -6 94 -43t45 -113 q0 -82 -54.5 -133t-164.5 -51q-94 0 -156 49q-16 10 0 35l33 61q12 20 37 6q45 -27 92 -26q66 0 66 59q0 57 -91 57q-51 0 -34 41l67 154q-84 16 -131 54t-59 71h-4q-10 -88 -11 -94q-4 -27 -30 -27h-80q-29 0 -23 27l47 327q4 27 29 27h90q23 0 23 -27v-6 q-4 -74 58.5 -146.5t182.5 -72.5q104 0 164 40t60 105q0 53 -39 88t-97.5 51.5t-127 39t-127 48t-97.5 82t-39 140.5q0 139 106.5 219t262.5 80q186 0 254 -109h2l4 68q4 27 33 27h80z" glyph-name="scedilla" horiz-adv-x="968" unicode="ş"/><glyph d="M868 1569q-10 0 -20 10l-275 264q-18 18 2 37l58 53q23 20 39 4l211 -194l264 194q20 14 37 -4l49 -61q16 -16 -10 -39l-334 -254q-15 -10 -21 -10zM127 0q-25 0 -21 25l66 473q4 25 29 24h121q20 0 18 -26l-4 -29q-2 -14 6 -48t34.5 -83t68.5 -93t119 -76t175 -32 q147 0 225 74t78 194q0 47 -18 84t-43 60.5t-74 46t-84 35t-98 30.5q-84 25 -125 39.5t-109.5 49t-102.5 74.5t-61.5 107.5t-27.5 155.5q0 178 134 288t355 110q279 0 383 -170l17 135q4 25 24 25h109q23 0 20 -25l-61 -440q-2 -27 -27 -27h-123q-25 0 -20 25l8 61 q6 37 -8 79t-48 86t-106.5 72.5t-171.5 28.5q-158 0 -235.5 -66.5t-77.5 -176.5q0 -61 25.5 -107.5t77 -75t101.5 -48t122 -40.5q25 -6 37 -10q182 -55 281 -140t99 -251q0 -184 -119.5 -308t-351.5 -124q-334 0 -456 227l-25 -188q-4 -25 -29 -25h-106z" glyph-name="Scaron" horiz-adv-x="1265" unicode="Š"/><glyph d="M629 1108q-10 0 -21 10l-262 277q-16 20 2 37l58 53q23 20 38 4l199 -207l272 217q20 14 37 -4l49 -61q14 -18 -10 -39l-342 -277q-14 -10 -20 -10zM539 -14q-135 0 -208 46t-87 89h-4q-10 -88 -11 -94q-4 -27 -30 -27h-80q-29 0 -23 27l47 327q4 27 29 27h90 q23 0 23 -27v-6q-4 -74 58.5 -146.5t182.5 -72.5q104 0 164 40t60 105q0 53 -39 88t-97.5 51.5t-127 39t-127 48t-97.5 82t-39 140.5q0 139 106.5 219t262.5 80q186 0 254 -109h2l4 68q4 27 33 27h80q27 0 22 -27l-39 -287q-6 -27 -33 -26h-88q-27 0 -22 26l4 29 q10 72 -50.5 114t-168.5 42q-86 0 -139.5 -37t-53.5 -103q0 -55 54.5 -90t131 -54.5t154.5 -46t132.5 -89t54.5 -158.5q0 -145 -104.5 -230t-280.5 -85z" glyph-name="scaron" horiz-adv-x="968" unicode="š"/><glyph d="M1397 1470q27 0 22 -26l-45 -322q-4 -29 -28 -28h-113q-25 0 -21 28l29 205h-334l-166 -1184h148q25 0 20 -26l-12 -90q-4 -27 -29 -27h-166l-49 -106q53 -6 100.5 -44t47.5 -118q0 -86 -57.5 -140.5t-172.5 -54.5q-88 0 -165 51q-12 12 0 37l36 66q10 25 39 6 q47 -29 97 -29q68 0 67 64q0 61 -94 61q-51 0 -37 43l74 164h-180q-29 0 -25 27l12 90q4 27 33 26h143l166 1184h-336l-28 -205q-4 -29 -29 -28h-113q-27 0 -22 28l45 322q4 27 31 26h1112z" glyph-name="Tcommaaccent" horiz-adv-x="1267" unicode="Ţ"/><glyph d="M815 1008q29 0 25 -27l-13 -84q-4 -27 -30 -27h-297l-76 -534q-14 -109 17.5 -157t109.5 -48q51 0 111 33q31 18 43 -6l34 -70q10 -23 -14 -41q-63 -57 -195 -61l-41 -86q49 -6 94.5 -43t45.5 -113q0 -82 -54.5 -133t-164.5 -51q-94 0 -156 49q-16 10 0 35l33 61 q12 20 37 6q45 -27 92 -26q66 0 65 59q0 57 -90 57q-51 0 -35 41l70 154q-98 27 -145.5 114t-26.5 224l76 536h-156q-29 0 -24 27l12 84q4 27 31 27h155l29 206q4 29 29 29h116q29 0 25 -29l-29 -206h297z" glyph-name="tcommaaccent" horiz-adv-x="745" unicode="ţ"/><glyph d="M860 1569q-10 0 -20 10l-275 264q-18 18 2 37l58 53q23 20 39 4l210 -194l265 194q20 14 37 -4l49 -61q16 -16 -11 -39l-333 -254q-15 -10 -21 -10zM408 0q-29 0 -25 27l12 90q4 27 33 26h143l166 1184h-336l-28 -205q-4 -29 -29 -28h-113q-27 0 -22 28l45 322 q4 27 31 26h1112q27 0 22 -26l-45 -322q-4 -29 -28 -28h-113q-25 0 -21 28l29 205h-334l-166 -1184h148q25 0 20 -26l-12 -90q-4 -27 -29 -27h-460z" glyph-name="Tcaron" horiz-adv-x="1267" unicode="Ť"/><glyph d="M604 1059q-10 0 -14 3t-2 11l8 62q2 14 14 14q37 0 73 27.5t42 76.5q2 16 2 31q-10 -2 -25 -2q-45 0 -79.5 34t-34.5 85q0 66 39 104.5t102 38.5q55 0 88 -40t33 -120q0 -168 -73 -246.5t-173 -78.5zM510 -14q-137 0 -209 91t-47 257l76 536h-156q-29 0 -24 27l12 84 q4 27 31 27h155l29 206q4 29 29 29h116q29 0 25 -29l-29 -206h297q29 0 25 -27l-13 -84q-4 -27 -30 -27h-297l-76 -534q-14 -109 17.5 -157t109.5 -48q51 0 111 33q31 18 43 -6l34 -70q10 -23 -14 -41q-78 -61 -215 -61z" glyph-name="tcaron" horiz-adv-x="745" unicode="ť"/><glyph d="M1397 1470q27 0 22 -26l-45 -322q-4 -29 -28 -28h-113q-25 0 -21 28l29 205h-334l-82 -584h185q14 0 22 -7t6 -19l-12 -82q-10 -29 -37 -29h-182l-66 -463h148q25 0 20 -26l-12 -90q-4 -27 -29 -27h-460q-29 0 -25 27l12 90q4 27 33 26h143l66 463h-191q-29 0 -22 29 l12 82q6 27 33 26h186l82 584h-336l-28 -205q-4 -29 -29 -28h-113q-27 0 -22 28l45 322q4 27 31 26h1112z" glyph-name="Tbar" horiz-adv-x="1267" unicode="Ŧ"/><glyph d="M825 1008q29 0 25 -27l-12 -84q-4 -27 -31 -27h-297l-39 -274h191q29 0 24 -29l-12 -80q-4 -29 -31 -28h-190l-19 -123q-14 -109 17.5 -157t109.5 -48q51 0 111 33q31 18 43 -6l35 -70q10 -23 -15 -41q-76 -61 -215 -61q-137 0 -208.5 91t-47.5 257l19 125h-156 q-27 0 -23 28l13 82q6 27 30 27h154l39 274h-156q-29 0 -24 27l12 84q4 27 31 27h155l29 206q4 29 29 29h116q29 0 25 -29l-29 -206h297z" glyph-name="tbar" horiz-adv-x="757" unicode="ŧ"/><glyph d="M684 1626q-20 0 -20 19q0 102 54 170.5t165 68.5q70 0 140.5 -52t104.5 -52q72 0 80 114q0 25 27 25h78q23 0 22 -21q0 -119 -53 -188.5t-164 -69.5q-72 0 -138.5 52.5t-105.5 52.5q-76 0 -83 -94q-4 -25 -29 -25h-78zM1296 1327h-147q-27 0 -21 25l13 94q2 25 28 24h463 q23 0 21 -24l-15 -94q-4 -25 -26 -25h-150l-108 -776q-41 -291 -189.5 -428t-410.5 -137q-246 0 -365 145t-80 420l109 776h-150q-23 0 -18 25l12 94q4 25 27 24h469q25 0 20 -24l-12 -94q-6 -25 -29 -25h-147l-111 -782q-27 -193 39 -296.5t260 -103.5q176 0 277.5 105.5 t128.5 281.5z" glyph-name="Utilde" horiz-adv-x="1505" unicode="Ũ"/><glyph d="M420 1157q-20 0 -21 19q0 104 54.5 172.5t164.5 68.5q70 0 140.5 -52t105.5 -52q72 0 80 117q0 25 27 24h78q23 0 22 -20q0 -260 -217 -260q-72 0 -138.5 52t-105.5 52q-76 0 -84 -96q-2 -25 -28 -25h-78zM524 -14q-158 0 -240.5 103.5t-58.5 275.5l72 505h-107 q-27 0 -22 25l12 88q4 25 31 25h248q25 0 22 -25l-84 -598q-16 -117 29 -184.5t143 -67.5q174 0 279 182l78 555h-109q-23 0 -18 25l12 88q4 25 27 25h252q25 0 20 -25l-119 -846h111q20 0 18 -24l-12 -88q-2 -25 -27 -25h-174q-86 0 -71 86l8 57h-6q-72 -84 -136 -116 q-80 -41 -178 -41z" glyph-name="utilde" horiz-adv-x="1159" unicode="ũ"/><glyph d="M696 1655q-27 0 -22 26l12 86q4 29 29 29h579q27 0 23 -29l-12 -86q-6 -27 -31 -26h-578zM1296 1327h-147q-27 0 -21 25l13 94q2 25 28 24h463q23 0 21 -24l-15 -94q-4 -25 -26 -25h-150l-108 -776q-41 -291 -189.5 -428t-410.5 -137q-246 0 -365 145t-80 420l109 776 h-150q-23 0 -18 25l12 94q4 25 27 24h469q25 0 20 -24l-12 -94q-6 -25 -29 -25h-147l-111 -782q-27 -193 39 -296.5t260 -103.5q176 0 277.5 105.5t128.5 281.5z" glyph-name="Umacron" horiz-adv-x="1505" unicode="Ū"/><glyph d="M436 1225q-27 0 -20 26l12 86q4 29 29 29h579q27 0 23 -29l-12 -86q-6 -27 -31 -26h-580zM524 -14q-158 0 -240.5 103.5t-58.5 275.5l72 505h-107q-27 0 -22 25l12 88q4 25 31 25h248q25 0 22 -25l-84 -598q-16 -117 29 -184.5t143 -67.5q174 0 279 182l78 555h-109 q-23 0 -18 25l12 88q4 25 27 25h252q25 0 20 -25l-119 -846h111q20 0 18 -24l-12 -88q-2 -25 -27 -25h-174q-86 0 -71 86l8 57h-6q-72 -84 -136 -116q-80 -41 -178 -41z" glyph-name="umacron" horiz-adv-x="1159" unicode="ū"/><glyph d="M997 1599q-131 0 -208.5 78t-75.5 211q0 37 30 37h86q29 0 25 -29q-4 -72 36 -118.5t111 -46.5q156 0 175 167q0 27 30 27h88q25 0 21 -22q-23 -304 -318 -304zM1296 1327h-147q-27 0 -21 25l13 94q2 25 28 24h463q23 0 21 -24l-15 -94q-4 -25 -26 -25h-150l-108 -776 q-41 -291 -189.5 -428t-410.5 -137q-246 0 -365 145t-80 420l109 776h-150q-23 0 -18 25l12 94q4 25 27 24h469q25 0 20 -24l-12 -94q-6 -25 -29 -25h-147l-111 -782q-27 -193 39 -296.5t260 -103.5q176 0 277.5 105.5t128.5 281.5z" glyph-name="Ubreve" horiz-adv-x="1505" unicode="Ŭ"/><glyph d="M737 1126q-131 0 -208.5 81t-75.5 218q0 37 30 37h86q29 0 25 -28q-4 -74 36 -125.5t111 -51.5q154 0 174 179q0 27 31 26h88q25 0 21 -22q-25 -314 -318 -314zM524 -14q-158 0 -240.5 103.5t-58.5 275.5l72 505h-107q-27 0 -22 25l12 88q4 25 31 25h248q25 0 22 -25 l-84 -598q-16 -117 29 -184.5t143 -67.5q174 0 279 182l78 555h-109q-23 0 -18 25l12 88q4 25 27 25h252q25 0 20 -25l-119 -846h111q20 0 18 -24l-12 -88q-2 -25 -27 -25h-174q-86 0 -71 86l8 57h-6q-72 -84 -136 -116q-80 -41 -178 -41z" glyph-name="ubreve" horiz-adv-x="1159" unicode="ŭ"/><glyph d="M985 1559q-74 0 -124 52t-50 126q0 94 58.5 152.5t146.5 58.5q76 0 126 -55.5t50 -129.5q0 -88 -60.5 -146t-146.5 -58zM997 1675q31 0 52.5 23.5t21.5 58.5q0 31 -17.5 52.5t-43.5 21.5q-35 0 -56.5 -22.5t-21.5 -61.5q0 -29 19 -50.5t46 -21.5zM1296 1327h-147 q-27 0 -21 25l13 94q2 25 28 24h463q23 0 21 -24l-15 -94q-4 -25 -26 -25h-150l-108 -776q-41 -291 -189.5 -428t-410.5 -137q-246 0 -365 145t-80 420l109 776h-150q-23 0 -18 25l12 94q4 25 27 24h469q25 0 20 -24l-12 -94q-6 -25 -29 -25h-147l-111 -782 q-27 -193 39 -296.5t260 -103.5q176 0 277.5 105.5t128.5 281.5z" glyph-name="Uring" horiz-adv-x="1505" unicode="Ů"/><glyph d="M725 1135q-74 0 -124 52t-50 126q0 94 58.5 152.5t146.5 58.5q76 0 126 -55.5t50 -129.5q0 -88 -60.5 -146t-146.5 -58zM737 1251q31 0 52.5 23.5t21.5 58.5q0 31 -17.5 52.5t-43.5 21.5q-35 0 -56.5 -22.5t-21.5 -61.5q0 -29 19 -50.5t46 -21.5zM524 -14 q-158 0 -240.5 103.5t-58.5 275.5l72 505h-107q-27 0 -22 25l12 88q4 25 31 25h248q25 0 22 -25l-84 -598q-16 -117 29 -184.5t143 -67.5q174 0 279 182l78 555h-109q-23 0 -18 25l12 88q4 25 27 25h252q25 0 20 -25l-119 -846h111q20 0 18 -24l-12 -88q-2 -25 -27 -25h-174 q-86 0 -71 86l8 57h-6q-72 -84 -136 -116q-80 -41 -178 -41z" glyph-name="uring" horiz-adv-x="1159" unicode="ů"/><glyph d="M764 1581q-25 -20 -45 -2l-53 49q-20 14 0 39l268 303q18 23 37 4l76 -67q18 -18 -3 -41zM1147 1581q-25 -20 -45 -2l-53 49q-20 14 0 39l268 303q18 23 37 4l76 -67q18 -18 -3 -41zM1296 1327h-147q-27 0 -21 25l13 94q2 25 28 24h463q23 0 21 -24l-15 -94 q-4 -25 -26 -25h-150l-108 -776q-41 -291 -189.5 -428t-410.5 -137q-246 0 -365 145t-80 420l109 776h-150q-23 0 -18 25l12 94q4 25 27 24h469q25 0 20 -24l-12 -94q-6 -25 -29 -25h-147l-111 -782q-27 -193 39 -296.5t260 -103.5q176 0 277.5 105.5t128.5 281.5z" glyph-name="Uhungarumlaut" horiz-adv-x="1505" unicode="Ű"/><glyph d="M522 1112q-18 -18 -37 -2l-59 47q-23 14 -2 39l244 317q16 23 39 7l77 -64q20 -16 0 -41zM846 1112q-18 -18 -37 -2l-59 47q-23 14 -2 39l243 317q16 23 39 7l78 -64q20 -16 0 -41zM524 -14q-158 0 -240.5 103.5t-58.5 275.5l72 505h-107q-27 0 -22 25l12 88q4 25 31 25 h248q25 0 22 -25l-84 -598q-16 -117 29 -184.5t143 -67.5q174 0 279 182l78 555h-109q-23 0 -18 25l12 88q4 25 27 25h252q25 0 20 -25l-119 -846h111q20 0 18 -24l-12 -88q-2 -25 -27 -25h-174q-86 0 -71 86l8 57h-6q-72 -84 -136 -116q-80 -41 -178 -41z" glyph-name="uhungarumlaut" horiz-adv-x="1159" unicode="ű"/><glyph d="M1632 1470q23 0 21 -24l-15 -94q-4 -25 -26 -25h-150l-108 -776q-37 -262 -161 -399.5t-341 -159.5q-137 -96 -137 -205q0 -63 53 -63q33 0 61 18q27 16 37 -6l25 -60q10 -23 -8 -32q-63 -43 -144 -43q-158 0 -157 149q0 76 43 139.5t96 96.5q-229 10 -339 155.5 t-73 409.5l109 776h-150q-23 0 -18 25l12 94q4 25 27 24h469q25 0 20 -24l-12 -94q-6 -25 -29 -25h-147l-111 -782q-27 -193 39 -296.5t260 -103.5q176 0 277.5 105.5t128.5 281.5l112 795h-147q-27 0 -21 25l13 94q2 25 28 24h463z" glyph-name="Uogonek" horiz-adv-x="1505" unicode="Ų"/><glyph d="M1102 137q20 0 18 -24l-12 -88q-2 -25 -27 -25h-20q-152 -98 -152 -213q0 -63 54 -63q33 0 61 18q27 16 37 -6l24 -60q10 -23 -8 -32q-63 -43 -143 -43q-158 0 -158 149q0 86 53.5 154.5t110.5 95.5h-33q-86 0 -71 86l8 57h-6q-72 -84 -136 -116q-80 -41 -178 -41 q-158 0 -240.5 103.5t-58.5 275.5l72 505h-107q-27 0 -22 25l12 88q4 25 31 25h248q25 0 22 -25l-84 -598q-16 -117 29 -184.5t143 -67.5q174 0 279 182l78 555h-109q-23 0 -18 25l12 88q4 25 27 25h252q25 0 20 -25l-119 -846h111z" glyph-name="uogonek" horiz-adv-x="1159" unicode="ų"/><glyph d="M1001 1577q-20 -16 -36 4l-45 64q-14 23 8 38l327 252q14 10 23 11q10 0 20 -11l271 -260q18 -18 0 -39l-58 -55q-18 -20 -36 -2l-211 193zM569 0q-74 0 -82 82l-141 1245h-121q-25 0 -20 25l12 94q4 25 29 24h444q27 0 23 -24l-15 -94q-2 -25 -28 -25h-138l99 -1126h12 l461 1208q23 61 76 61h61q31 0 43 -14t16 -47l125 -1208h13l417 1126h-137q-23 0 -20 25l12 94q2 25 29 24h438q23 0 21 -24l-13 -94q-2 -25 -28 -25h-119l-490 -1245q-33 -82 -106 -82h-82q-76 0 -84 82l-107 1044h-8l-403 -1044q-33 -82 -109 -82h-80z" glyph-name="Wcircumflex" horiz-adv-x="2007" unicode="Ŵ"/><glyph d="M711 1118q-23 -16 -37 4l-49 62q-14 23 8 39l340 276q14 10 22 10q10 0 21 -10l264 -276q18 -23 0 -39l-57 -54q-23 -23 -37 -4l-205 209zM451 0q-35 0 -41 43l-142 827h-106q-23 0 -21 25l13 88q2 25 26 25h369q25 0 20 -25l-10 -88q-6 -25 -31 -25h-88l95 -690h4 l290 783q16 45 56 45h78q45 0 47 -43l63 -785h4l287 690h-82q-25 0 -22 25l12 88q2 25 28 25h361q23 0 20 -25l-12 -88q-2 -25 -27 -25h-96l-372 -827q-23 -43 -54 -43h-123q-43 0 -45 43l-61 700h-6l-258 -700q-16 -43 -58 -43h-118z" glyph-name="wcircumflex" horiz-adv-x="1558" unicode="ŵ"/><glyph d="M688 1577q-20 -16 -37 4l-45 64q-14 23 8 38l328 252q14 10 23 11q10 0 20 -11l270 -260q18 -18 0 -39l-57 -55q-18 -20 -37 -2l-211 193zM438 0q-25 0 -20 25l12 94q4 25 29 24h149l64 445l-305 739h-129q-25 0 -21 25l12 94q4 25 27 24h455q27 0 22 -24l-14 -94 q-2 -25 -29 -25h-133l219 -584h8l381 584h-129q-25 0 -20 25l14 94q2 25 27 24h452q23 0 21 -24l-12 -94q-2 -25 -29 -25h-131l-516 -739l-62 -445h152q23 0 20 -24l-14 -94q-4 -25 -27 -25h-473z" glyph-name="Ycircumflex" horiz-adv-x="1349" unicode="Ŷ"/><glyph d="M485 1122l-49 62q-14 23 8 39l340 276q14 10 23 10q10 0 20 -10l265 -276q18 -23 0 -39l-58 -54q-23 -23 -37 -4l-204 209l-271 -217q-23 -16 -37 4zM1257 1008q25 0 21 -25l-12 -88q-4 -25 -29 -25h-98l-434 -833l-7 -10l-59 -113q-37 -68 -48 -90.5t-42 -73.5 t-46.5 -67.5t-46 -47t-57 -41t-62.5 -19.5t-79 -9q-78 0 -129 21.5t-66 43.5q-14 20 0 37l64 72q14 16 35 2q49 -33 98 -33q72 0 120 47t105 160l43 84h-24q-20 0 -28.5 7t-12.5 30l-199 833h-100q-25 0 -21 25l13 88q4 25 28 25h396q23 0 18 -25l-10 -88q-2 -25 -29 -25 h-115l152 -727h4l365 727h-103q-23 0 -20 25l12 88q2 25 27 25h376z" glyph-name="ycircumflex" horiz-adv-x="1153" unicode="ŷ"/><glyph d="M731 1647q-47 0 -78.5 33.5t-31.5 78.5q0 57 39.5 96t93.5 39q47 0 79.5 -34.5t32.5 -81.5q0 -53 -39 -92t-96 -39zM1126 1647q-47 0 -78.5 33.5t-31.5 78.5q0 57 40 96t93 39q47 0 80 -34.5t33 -81.5q0 -53 -39.5 -92t-96.5 -39zM438 0q-25 0 -20 25l12 94q4 25 29 24 h149l64 445l-305 739h-129q-25 0 -21 25l12 94q4 25 27 24h455q27 0 22 -24l-14 -94q-2 -25 -29 -25h-133l219 -584h8l381 584h-129q-25 0 -20 25l14 94q2 25 27 24h452q23 0 21 -24l-12 -94q-2 -25 -29 -25h-131l-516 -739l-62 -445h152q23 0 20 -24l-14 -94 q-4 -25 -27 -25h-473z" glyph-name="Ydieresis" horiz-adv-x="1349" unicode="Ÿ"/><glyph d="M711 1577q-20 -16 -37 6l-45 66q-14 20 10 39l373 274q23 16 37 -6l59 -88q16 -20 -12 -39zM117 0q-25 0 -21 27l13 86q2 20 47 69l964 1141h-676l-24 -168q-4 -27 -33 -27h-111q-27 0 -22 27l41 289q4 27 29 26h1009q27 0 23 -26l-10 -74q-4 -27 -54 -84l-964 -1139h682 l24 168q4 27 29 27h113q27 0 22 -27l-39 -288q-6 -27 -31 -27h-1011z" glyph-name="Zacute" horiz-adv-x="1243" unicode="Ź"/><glyph d="M563 1110q-23 -14 -37 6l-45 62q-16 18 8 39l357 290q23 18 39 -2l59 -82q16 -20 -10 -39zM104 0q-23 0 -18 25l10 84q4 33 41 69l662 692h-441l-22 -163q-4 -25 -25 -25h-102q-25 0 -21 25l39 276q2 25 27 25h745q25 0 21 -25l-8 -72q-4 -27 -39 -65l-666 -709h469 l23 162q4 25 26 25h101q25 0 20 -25l-39 -274q-2 -25 -26 -25h-777z" glyph-name="zacute" horiz-adv-x="980" unicode="ź"/><glyph d="M856 1624q-47 0 -77.5 33t-30.5 78q0 57 38.5 94t92.5 37q45 0 77.5 -33t32.5 -80q0 -53 -38 -91t-95 -38zM117 0q-25 0 -21 27l13 86q2 20 47 69l964 1141h-676l-24 -168q-4 -27 -33 -27h-111q-27 0 -22 27l41 289q4 27 29 26h1009q27 0 23 -26l-10 -74q-4 -27 -54 -84 l-964 -1139h682l24 168q4 27 29 27h113q27 0 22 -27l-39 -288q-6 -27 -31 -27h-1011z" glyph-name="Zdotaccent" horiz-adv-x="1243" unicode="Ż"/><glyph d="M670 1206q-51 0 -85 36t-34 85q0 59 43 100t100 41q49 0 83 -35.5t34 -86.5q0 -59 -41 -99.5t-100 -40.5zM104 0q-23 0 -18 25l10 84q4 33 41 69l662 692h-441l-22 -163q-4 -25 -25 -25h-102q-25 0 -21 25l39 276q2 25 27 25h745q25 0 21 -25l-8 -72q-4 -27 -39 -65 l-666 -709h469l23 162q4 25 26 25h101q25 0 20 -25l-39 -274q-2 -25 -26 -25h-777z" glyph-name="zdotaccent" horiz-adv-x="980" unicode="ż"/><glyph d="M846 1569q-10 0 -21 10l-274 264q-18 18 2 37l57 53q20 20 39 4l211 -194l264 194q20 14 37 -4l49 -61q16 -16 -10 -39l-334 -254q-14 -10 -20 -10zM117 0q-25 0 -21 27l13 86q2 20 47 69l964 1141h-676l-24 -168q-4 -27 -33 -27h-111q-27 0 -22 27l41 289q4 27 29 26 h1009q27 0 23 -26l-10 -74q-4 -27 -54 -84l-964 -1139h682l24 168q4 27 29 27h113q27 0 22 -27l-39 -288q-6 -27 -31 -27h-1011z" glyph-name="Zcaron" horiz-adv-x="1243" unicode="Ž"/><glyph d="M643 1108q-10 0 -20 10l-263 277q-16 20 2 37l58 53q23 20 39 4l198 -207l273 217q20 14 37 -4l49 -61q14 -18 -10 -39l-342 -277q-15 -10 -21 -10zM104 0q-23 0 -18 25l10 84q4 33 41 69l662 692h-441l-22 -163q-4 -25 -25 -25h-102q-25 0 -21 25l39 276q2 25 27 25h745 q25 0 21 -25l-8 -72q-4 -27 -39 -65l-666 -709h469l23 162q4 25 26 25h101q25 0 20 -25l-39 -274q-2 -25 -26 -25h-777z" glyph-name="zcaron" horiz-adv-x="980" unicode="ž"/><glyph d="M106 0q-25 0 -20 25l12 88q4 25 27 24h108l103 733h-127q-25 0 -21 25l13 88q4 25 26 25h127l19 125q49 352 358 352q133 0 197 -64q18 -18 2 -41l-49 -67q-14 -23 -43 -6q-49 33 -109 32q-70 0 -120 -49t-64 -143l-142 -1010h193q23 0 20 -24l-12 -88q-2 -25 -29 -25 h-469z" glyph-name="longs" horiz-adv-x="661" unicode="ſ"/><glyph d="M707 -14q-248 0 -394.5 166.5t-146.5 437.5q0 68 6 104.5t14.5 43.5t20.5 7h1067q8 86 8 123q-2 211 -121 339t-297 128q-135 0 -244.5 -54t-220.5 -175q-20 -23 -39 -4l-71 74q-16 18 2 38q125 137 265 203t327 66q246 0 408.5 -173t162.5 -450q0 -395 -203.5 -634.5 t-543.5 -239.5zM729 133q186 0 329.5 129t188.5 338h-911q-14 -227 99.5 -347t293.5 -120z" glyph-name="uni018F" horiz-adv-x="1433" unicode="Ə"/><glyph d="M768 1483q127 0 199 -78q18 -18 2 -35l-66 -67q-16 -16 -33 -5q-49 39 -102 39q-162 0 -193 -204l-18 -125h250q25 0 20 -25l-12 -88q-4 -25 -29 -25h-247l-142 -999q-23 -166 -120 -258t-244 -92q-129 0 -197 78q-16 20 0 36l64 66q18 18 34 4q49 -39 103 -39 q76 0 127 53.5t65 153.5l140 997h-111q-25 0 -20 25l12 88q4 25 29 25h108l19 127q23 160 119 254t243 94z" glyph-name="florin" horiz-adv-x="815" unicode="ƒ"/><glyph d="M1638 1470q25 0 23 -24l-12 -94q-6 -25 -31 -25h-148l-182 -1302q-6 -25 -26 -25h-111q-66 0 -92 63l-408 961l-69 188h-4l-168 -1194q-39 -266 -179.5 -379.5t-437.5 -113.5q-27 0 -22 26l16 103q4 25 29 24q207 0 305 79t123 241l186 1329h-147q-25 0 -21 25l14 94 q2 25 27 24h275q39 0 57 -17t35 -52l405 -948l78 -213h4l154 1087h-150q-25 0 -18 25l12 94q4 25 27 24h456z" glyph-name="uni019D" horiz-adv-x="1529" unicode="Ɲ"/><glyph d="M967 1569q-10 0 -21 10l-274 264q-18 18 2 37l57 53q23 20 39 4l211 -194l264 194q20 14 37 -4l49 -61q16 -16 -10 -39l-334 -254q-14 -10 -20 -10zM799 -14q-264 0 -437.5 182t-173.5 465q0 205 62.5 368.5t170 267t245 159t290.5 55.5q164 0 265.5 -60.5t142.5 -132.5 l20 156q4 25 25 24h111q25 0 20 -24l-57 -416q-4 -27 -29 -26h-121q-23 0 -22 24l2 16q14 106 -85.5 198.5t-283.5 92.5q-240 0 -409.5 -179t-169.5 -513q0 -236 128 -373t328 -137q254 0 428 211l27 186h-363q-25 0 -18 27l12 92q4 27 27 27h502q25 0 20 -27l-88 -624 q-4 -25 -27 -25h-104q-25 0 -20 25l18 137q-176 -176 -436 -176z" glyph-name="Gcaron" horiz-adv-x="1488" unicode="Ǧ"/><glyph d="M719 1108q-10 0 -21 10l-262 277q-16 20 2 37l58 53q23 20 39 4l198 -207l273 217q20 14 36 -4l50 -61q14 -18 -11 -39l-342 -277q-14 -10 -20 -10zM879 172h-5q-43 -76 -134 -131t-218 -55q-168 0 -272.5 121.5t-104.5 312.5q0 270 141.5 436t375.5 166 q125 0 202.5 -56.5t110.5 -131.5h6l18 149q4 25 27 25h238q23 0 20 -25l-12 -88q-2 -25 -27 -25h-106l-119 -845q-63 -459 -561 -459q-209 0 -350 121q-20 18 -3 37l70 81q14 18 35 5l14 -13q16 -12 28.5 -21t37 -22.5t50.5 -23t60.5 -15.5t73.5 -6q334 0 377 316l4 28 q5 37 23 119zM563 129q147 0 255 123t108 315q0 143 -74 227.5t-184 84.5q-150 0 -249.5 -119t-99.5 -320q0 -137 66.5 -224t177.5 -87z" glyph-name="gcaron" horiz-adv-x="1202" unicode="ǧ"/><glyph d="M860 -12q-133 -98 -133 -201q0 -63 53 -63q33 0 62 18q27 16 37 -6l24 -60q10 -23 -8 -32q-63 -43 -143 -43q-158 0 -158 149q0 78 44 141.5t99 96.5q-240 25 -396.5 198.5t-156.5 438.5q0 397 216 627.5t558 230.5q266 0 436.5 -174t170.5 -465q0 -387 -194 -611.5 t-511 -244.5zM362 643q0 -244 130.5 -377t320.5 -133q233 0 403 186.5t170 505.5q0 248 -125.5 379t-320.5 131q-238 0 -408 -184t-170 -508z" glyph-name="uni01EA" horiz-adv-x="1542" unicode="Ǫ"/><glyph d="M631 -12q-135 -90 -135 -201q0 -63 53 -63q33 0 61 18q27 16 37 -6l25 -60q10 -23 -8 -32q-66 -43 -144 -43q-158 0 -158 149q0 78 44.5 141.5t99.5 98.5q-164 20 -263.5 141t-99.5 303q0 256 153 422t394 166q195 0 310.5 -125t115.5 -326q0 -248 -132 -404t-353 -179z M317 453q0 -150 71 -237t200 -87q150 0 253 122t103 304q0 143 -72.5 233.5t-199.5 90.5q-150 0 -252.5 -122t-102.5 -304z" glyph-name="uni01EB" horiz-adv-x="1118" unicode="ǫ"/><glyph d="M1524 1993q14 -20 -15 -39l-356 -189v-2q0 -88 -60.5 -146t-146.5 -58q-74 0 -124 52t-50 126q0 94 58.5 152.5t146.5 58.5q76 0 125 -56l336 203q25 14 35 -10zM958 1675q31 0 52.5 23.5t21.5 58.5q0 31 -17.5 52.5t-43.5 21.5q-35 0 -56.5 -22.5t-21.5 -61.5 q0 -29 19 -50.5t46 -21.5zM1454 143q25 0 21 -24l-13 -94q-4 -25 -28 -25h-441q-23 0 -20 25l12 94q2 25 29 24h139l-72 357h-542l-174 -357h135q25 0 22 -24l-14 -94q-4 -25 -29 -25h-436q-23 0 -18 25l12 94q4 25 26 24h130l585 1184h-110q-25 0 -21 25l12 94q4 25 29 24 h264q47 0 69.5 -20t33.5 -68l270 -1239h129zM612 647h439l-129 621h-13z" glyph-name="Aringacute" horiz-adv-x="1468" unicode="Ǻ"/><glyph d="M1051 1804q8 -6 7 -19t-9 -22l-252 -295q49 -55 49 -129q0 -88 -60.5 -146t-146.5 -58q-74 0 -124 52t-50 126q0 94 58.5 152.5t146.5 58.5h2l264 340q18 23 39 6zM651 1251q31 0 52.5 23.5t21.5 58.5q0 31 -17.5 52.5t-43.5 21.5q-35 0 -56.5 -22.5t-21.5 -61.5 q0 -29 19 -50.5t46 -21.5zM999 137q29 0 25 -24l-12 -88q-6 -25 -31 -25h-172q-39 0 -58.5 23.5t-13.5 62.5l8 74h-2q-137 -174 -344 -174q-131 0 -215 70.5t-84 185.5q0 166 127 251t346 85h213l9 51q33 250 -211 250q-152 0 -262 -88q-25 -16 -41 6l-43 73q-10 20 14 39 q141 113 358 113q199 0 289 -107.5t66 -285.5l-70 -492h104zM750 313l18 136h-217q-125 0 -200 -47.5t-75 -139.5q0 -61 44.5 -97t120 -36t143 35t96.5 66.5t70 82.5z" glyph-name="aringacute" horiz-adv-x="1044" unicode="ǻ"/><glyph d="M1300 1577q-20 -16 -36 6l-45 66q-14 20 10 39l373 274q23 16 36 -6l60 -88q16 -20 -12 -39zM33 0q-20 0 -19 25l13 94q2 25 26 24h129l637 1180h-112q-23 0 -19 25l12 98q4 25 27 24h1364q23 0 20 -24l-47 -326q-4 -25 -26 -24h-117q-20 0 -18 24l28 207h-577l-74 -522 h483q27 0 23 -25l-12 -96q-4 -25 -31 -25h-483l-72 -516h579l29 205q2 25 29 25h114q23 0 21 -25l-45 -323q-2 -25 -27 -25h-1032q-20 0 -18 25l12 94q2 25 27 24h147l74 516h-465l-277 -516h138q27 0 22 -24l-14 -94q-6 -25 -27 -25h-442zM713 809h405l72 514h-203z" glyph-name="AEacute" horiz-adv-x="2013" unicode="Ǽ"/><glyph d="M856 1116l-45 62q-16 18 8 39l357 290q23 18 38 -2l60 -82q16 -20 -10 -39l-371 -274q-23 -14 -37 6zM1305 1022q170 0 269 -118t99 -310q0 -137 -41 -137h-682v-17q0 -147 75 -229t194 -82q27 0 52 4t44.5 10.5t41 17.5t36 18t33 21.5t26.5 21.5t24.5 21.5t18.5 16.5 q18 20 37 2l57 -59q14 -16 0 -37q-16 -23 -41.5 -46.5t-73 -57t-120 -55t-154.5 -21.5q-129 0 -228.5 61.5t-150.5 171.5q-168 -233 -420 -233q-131 0 -215 70.5t-84 185.5q0 166 127 251t344 85h215l7 51q37 250 -211 250q-150 0 -260 -88q-29 -18 -41 6l-43 73 q-10 18 14 39q141 113 358 113q233 0 320 -152q146 152 373 152zM1509 594q10 127 -46 206t-169 79q-129 0 -212 -79t-113 -206h540zM440 129q106 0 186.5 58.5t155.5 166.5q-6 39 -6 80v15h-223q-125 0 -201 -47.5t-76 -139.5q0 -61 44 -97t120 -36z" glyph-name="aeacute" horiz-adv-x="1669" unicode="ǽ"/><glyph d="M823 1583l-45 66q-14 20 10 39l373 274q23 16 37 -6l59 -88q16 -20 -12 -39l-385 -252q-21 -17 -37 6zM1229 1425q156 -72 246 -223t90 -358q0 -406 -213 -632t-553 -226q-86 0 -170 22l-43 -100q-8 -27 -35 -27h-105q-25 0 -14 27l66 153q-143 80 -228.5 226.5 t-85.5 337.5q0 397 216 627.5t558 230.5q78 0 138 -15l41 97q10 25 34 24h103q27 0 14 -24zM362 643q0 -299 197 -434l477 1118q-41 8 -96 8q-238 0 -408 -184t-170 -508zM813 133q233 0 403 186.5t170 505.5q0 330 -219 453l-479 -1128q66 -17 125 -17z" glyph-name="Oslashacute" horiz-adv-x="1542" unicode="Ǿ"/><glyph d="M487 1116l-45 62q-16 18 9 39l356 290q23 18 39 -2l59 -82q16 -20 -10 -39l-371 -274q-23 -14 -37 6zM969 928q147 -125 147 -357q0 -266 -150.5 -425.5t-398.5 -159.5q-94 0 -168 30l-26 -41q-16 -25 -35 -24h-111q-10 0 -15 7t1 17l70 113q-139 123 -140 346 q0 256 153 422t394 166q88 0 164 -29l20 35q16 27 37 27h109q29 0 12 -27zM317 453q0 -133 58 -220l395 629q-45 16 -98 17q-150 0 -252.5 -122t-102.5 -304zM588 129q150 0 253 122t103 304q0 141 -67 225l-396 -633q48 -18 107 -18z" glyph-name="oslashacute" horiz-adv-x="1118" unicode="ǿ"/><glyph d="M127 0q-25 0 -21 25l66 473q4 25 29 24h121q20 0 18 -26l-4 -29q-2 -14 6 -48t34.5 -83t68.5 -93t119 -76t175 -32q147 0 225 74t78 194q0 47 -18 84t-43 60.5t-74 46t-84 35t-98 30.5q-84 25 -125 39.5t-109.5 49t-102.5 74.5t-61.5 107.5t-27.5 155.5q0 178 134 288 t355 110q279 0 383 -170l17 135q4 25 24 25h109q23 0 20 -25l-61 -440q-2 -27 -27 -27h-123q-25 0 -20 25l8 61q6 37 -8 79t-48 86t-106.5 72.5t-171.5 28.5q-158 0 -235.5 -66.5t-77.5 -176.5q0 -61 25.5 -107.5t77 -75t101.5 -48t122 -40.5q25 -6 37 -10q182 -55 281 -140 t99 -251q0 -184 -119.5 -308t-351.5 -124q-334 0 -456 227l-25 -188q-4 -25 -29 -25h-106zM498 -530q-14 0 -13 14l9 63q2 12 14 13q33 0 67.5 19.5t40.5 51.5q2 8 2 23l-8 -2h-16q-45 0 -80 33.5t-35 85.5q0 66 39 104.5t103 38.5q55 0 87.5 -40t32.5 -120 q0 -145 -72.5 -214.5t-170.5 -69.5z" glyph-name="Scommaaccent" horiz-adv-x="1265" unicode="Ș"/><glyph d="M539 -14q-135 0 -208 46t-87 89h-4q-10 -88 -11 -94q-4 -27 -30 -27h-80q-29 0 -23 27l47 327q4 27 29 27h90q23 0 23 -27v-6q-4 -74 58.5 -146.5t182.5 -72.5q104 0 164 40t60 105q0 53 -39 88t-97.5 51.5t-127 39t-127 48t-97.5 82t-39 140.5q0 139 106.5 219t262.5 80 q186 0 254 -109h2l4 68q4 27 33 27h80q27 0 22 -27l-39 -287q-6 -27 -33 -26h-88q-27 0 -22 26l4 29q10 72 -50.5 114t-168.5 42q-86 0 -139.5 -37t-53.5 -103q0 -55 54.5 -90t131 -54.5t154.5 -46t132.5 -89t54.5 -158.5q0 -145 -104.5 -230t-280.5 -85zM332 -530 q-14 0 -13 14l9 63q4 12 14 13q33 0 67.5 19.5t41.5 51.5q2 8 2 23l-9 -2h-16q-45 0 -80 33.5t-35 85.5q0 66 39 104.5t103 38.5q55 0 87.5 -40t32.5 -120q0 -145 -72.5 -214.5t-170.5 -69.5z" glyph-name="scommaaccent" horiz-adv-x="968" unicode="ș"/><glyph d="M408 0q-29 0 -25 27l12 90q4 27 33 26h143l166 1184h-336l-28 -205q-4 -29 -29 -28h-113q-27 0 -22 28l45 322q4 27 31 26h1112q27 0 22 -26l-45 -322q-4 -29 -28 -28h-113q-25 0 -21 28l29 205h-334l-166 -1184h148q25 0 20 -26l-12 -90q-4 -27 -29 -27h-460zM485 -530 q-14 0 -12 14l8 63q2 12 15 13q33 0 67.5 19.5t40.5 51.5q2 8 2 23l-8 -2h-16q-45 0 -80 33.5t-35 85.5q0 66 39 104.5t102 38.5q55 0 88 -40t33 -120q0 -145 -73 -214.5t-171 -69.5z" glyph-name="uni021A" horiz-adv-x="1267" unicode="Ț"/><glyph d="M510 -14q-137 0 -209 91t-47 257l76 536h-156q-29 0 -24 27l12 84q4 27 31 27h155l29 206q4 29 29 29h116q29 0 25 -29l-29 -206h297q29 0 25 -27l-13 -84q-4 -27 -30 -27h-297l-76 -534q-14 -109 17.5 -157t109.5 -48q51 0 111 33q31 18 43 -6l34 -70q10 -23 -14 -41 q-78 -61 -215 -61zM322 -530q-14 0 -13 14l8 63q2 12 15 13q33 0 67.5 19.5t40.5 51.5q2 8 2 23l-8 -2h-16q-45 0 -80 33.5t-35 85.5q0 66 39 104.5t102 38.5q55 0 88 -40t33 -120q0 -145 -72.5 -214.5t-170.5 -69.5z" glyph-name="uni021B" horiz-adv-x="745" unicode="ț"/><glyph d="M635 1655q-27 0 -23 26l13 86q4 29 28 29h580q27 0 22 -29l-12 -86q-6 -27 -31 -26h-577zM438 0q-25 0 -20 25l12 94q4 25 29 24h149l64 445l-305 739h-129q-25 0 -21 25l12 94q4 25 27 24h455q27 0 22 -24l-14 -94q-2 -25 -29 -25h-133l219 -584h8l381 584h-129 q-25 0 -20 25l14 94q2 25 27 24h452q23 0 21 -24l-12 -94q-2 -25 -29 -25h-131l-516 -739l-62 -445h152q23 0 20 -24l-14 -94q-4 -25 -27 -25h-473z" glyph-name="uni0232" horiz-adv-x="1349" unicode="Ȳ"/><glyph d="M477 1225q-27 0 -20 26l12 86q4 29 29 29h579q27 0 23 -29l-13 -86q-6 -27 -30 -26h-580zM1257 1008q25 0 21 -25l-12 -88q-4 -25 -29 -25h-98l-434 -833l-7 -10l-59 -113q-37 -68 -48 -90.5t-42 -73.5t-46.5 -67.5t-46 -47t-57 -41t-62.5 -19.5t-79 -9q-78 0 -129 21.5 t-66 43.5q-14 20 0 37l64 72q14 16 35 2q49 -33 98 -33q72 0 120 47t105 160l43 84h-24q-20 0 -28.5 7t-12.5 30l-199 833h-100q-25 0 -21 25l13 88q4 25 28 25h396q23 0 18 -25l-10 -88q-2 -25 -29 -25h-115l152 -727h4l365 727h-103q-23 0 -20 25l12 88q2 25 27 25h376z " glyph-name="uni0233" horiz-adv-x="1153" unicode="ȳ"/><glyph d="M489 1008q23 0 21 -25l-150 -1067q-51 -348 -358 -348q-125 0 -197 63q-18 18 -4 41l60 74q18 25 41 8q61 -41 116 -41q68 0 113 53.5t59 151.5l134 952h-107q-25 0 -20 25l12 88q4 25 27 25h253z" glyph-name="uni0237" horiz-adv-x="520" unicode="ȷ"/><glyph d="M614 1022q186 0 305 -124t119 -325q0 -283 -153.5 -435t-374.5 -152q-170 0 -269.5 117.5t-99.5 310.5q0 137 41 137h682v16q0 147 -74.5 229.5t-193.5 82.5q-27 0 -52.5 -4.5t-45 -10.5t-41 -17t-35.5 -18.5t-32.5 -21.5t-27 -21.5t-24.5 -21.5t-19 -16q-18 -20 -36 -3 l-58 60q-14 16 0 37q16 23 42 46t73 57t119.5 55.5t154.5 21.5zM520 129q129 0 212 79t114 206h-541q-10 -127 46 -206t169 -79z" glyph-name="uni0259" horiz-adv-x="1038" unicode="ə"/><glyph d="M1124 137q27 0 23 -24l-12 -88q-4 -25 -29 -25h-383q-23 0 -21 25l13 88q2 25 26 24h107l67 486q16 117 -31.5 184t-152.5 67q-172 0 -276 -182l-111 -778q-27 -186 -119 -267t-245 -81q-78 0 -130.5 26.5t-70.5 49.5q-14 16 4 39l63 73q18 20 39 4q61 -49 111 -49 q70 0 118 53.5t62 153.5l133 954h-108q-25 0 -21 25l13 88q4 25 28 25h234q25 0 20 -25l-18 -119h6q72 84 135 117q80 41 178 41q164 0 251 -103.5t63 -275.5l-72 -506h106z" glyph-name="uni0272" horiz-adv-x="1173" unicode="ɲ"/><glyph d="M326 1118q-23 -16 -37 4l-49 62q-14 23 8 39l340 276q14 10 22 10q10 0 21 -10l264 -276q18 -23 0 -39l-57 -54q-23 -23 -37 -4l-205 209z" glyph-name="circumflex" horiz-adv-x="839" unicode="ˆ"/><glyph d="M555 1108q-10 0 -20 10l-263 277q-16 20 2 37l58 53q23 20 39 4l198 -207l273 217q20 14 37 -4l49 -61q14 -18 -10 -39l-343 -277q-14 -10 -20 -10z" glyph-name="caron" horiz-adv-x="839" unicode="ˇ"/><glyph d="M555 1126q-131 0 -209 81t-76 218q0 37 31 37h86q29 0 25 -28q-4 -74 35.5 -125.5t111.5 -51.5q154 0 174 179q0 27 31 26h88q25 0 20 -22q-24 -314 -317 -314z" glyph-name="breve" horiz-adv-x="737" unicode="˘"/><glyph d="M373 1206q-51 0 -85 36t-34 85q0 59 43 100t100 41q49 0 83 -35.5t34 -86.5q0 -59 -41 -99.5t-100 -40.5z" glyph-name="dotaccent" horiz-adv-x="376" unicode="˙"/><glyph d="M436 1135q-74 0 -124 52t-50 126q0 94 58.5 152.5t146.5 58.5q76 0 126 -55.5t50 -129.5q0 -88 -60.5 -146t-146.5 -58zM449 1251q31 0 52 23.5t21 58.5q0 31 -17.5 52.5t-43.5 21.5q-35 0 -56.5 -22.5t-21.5 -61.5q0 -29 19.5 -50.5t46.5 -21.5z" glyph-name="ring" horiz-adv-x="460" unicode="˚"/><glyph d="M336 -324q10 -23 -8 -32q-63 -43 -144 -43q-158 0 -157 149q0 100 73.5 179t118.5 79h105q-164 -109 -164 -221q0 -63 53 -63q33 0 61 18q27 16 37 -6z" glyph-name="ogonek" horiz-adv-x="468" unicode="˛"/><glyph d="M281 1157q-20 0 -21 19q0 104 54.5 172.5t164.5 68.5q70 0 140.5 -52t105.5 -52q72 0 80 117q0 25 26 24h78q23 0 23 -20q0 -260 -217 -260q-72 0 -138.5 52t-105.5 52q-76 0 -84 -96q-2 -25 -29 -25h-77z" glyph-name="tilde" horiz-adv-x="786" unicode="˜"/><glyph d="M424 1112q-18 -18 -37 -2l-59 47q-23 14 -2 39l243 317q16 23 39 7l78 -64q20 -16 0 -41zM748 1112q-18 -18 -37 -2l-60 47q-23 14 -2 39l244 317q16 23 39 7l78 -64q20 -16 0 -41z" glyph-name="hungarumlaut" horiz-adv-x="948" unicode="˝"/><glyph d="M-29 1112l-290 274q-20 18 0 39l77 76q20 20 37 4l277 -291q18 -18 -2 -38l-60 -60q-23 -22 -39 -4z" glyph-name="gravecomb" unicode="̀"/><glyph d="M-264 1110q-23 -14 -37 6l-45 62q-16 18 8 39l356 290q23 18 39 -2l60 -82q16 -20 -11 -39z" glyph-name="acutecomb" unicode="́"/><glyph d="M-475 1118q-23 -16 -37 4l-49 62q-14 23 8 39l340 276q14 10 23 10q10 0 20 -10l264 -276q18 -23 0 -39l-57 -54q-23 -23 -37 -4l-205 209z" glyph-name="uni0302" unicode="̂"/><glyph d="M-545 1157q-20 0 -20 19q0 104 54 172.5t165 68.5q70 0 140.5 -52t105.5 -52q72 0 80 117q0 25 26 24h78q23 0 22 -20q0 -260 -217 -260q-72 0 -138 52t-105 52q-76 0 -84 -96q-4 -25 -29 -25h-78z" glyph-name="tildecomb" unicode="̃"/><glyph d="M-510 1225q-27 0 -20 26l12 86q4 29 29 29h579q27 0 23 -29l-13 -86q-6 -27 -30 -26h-580z" glyph-name="uni0304" unicode="̄"/><glyph d="M-190 1126q-131 0 -209 81t-76 218q0 37 31 37h86q29 0 24 -28q-4 -74 36 -125.5t112 -51.5q154 0 174 179q0 27 30 26h88q25 0 21 -22q-24 -314 -317 -314z" glyph-name="uni0306" unicode="̆"/><glyph d="M-20 1206q-51 0 -85 36t-34 85q0 59 43 100t100 41q49 0 83 -35.5t34 -86.5q0 -59 -41 -99.5t-100 -40.5z" glyph-name="uni0307" unicode="̇"/><glyph d="M-391 1192q-49 0 -83 34t-34 83q0 59 42 99t99 40q47 0 81 -35t34 -86q0 -55 -40 -95t-99 -40zM-6 1192q-49 0 -83 34t-34 83q0 59 42 99t99 40q47 0 81 -35t34 -86q0 -55 -40 -95t-99 -40z" glyph-name="uni0308" unicode="̈"/><glyph d="M-94 1135q-74 0 -124 52t-50 126q0 94 58 152.5t147 58.5q76 0 126 -55.5t50 -129.5q0 -88 -60.5 -146t-146.5 -58zM-82 1251q31 0 52.5 23.5t21.5 58.5q0 31 -17.5 52.5t-44.5 21.5q-35 0 -56 -22.5t-21 -61.5q0 -29 19 -50.5t46 -21.5z" glyph-name="uni030A" unicode="̊"/><glyph d="M-492 1112q-18 -18 -36 -2l-60 47q-23 14 -2 39l244 317q16 23 39 7l78 -64q20 -16 0 -41zM-168 1112q-18 -18 -37 -2l-59 47q-23 14 -2 39l243 317q16 23 39 7l78 -64q20 -16 0 -41z" glyph-name="uni030B" unicode="̋"/><glyph d="M-246 1108q-10 0 -20 10l-262 277q-16 20 2 37l57 53q23 20 39 4l199 -207l272 217q20 14 37 -4l49 -61q14 -18 -10 -39l-342 -277q-15 -10 -21 -10z" glyph-name="uni030C" unicode="̌"/><glyph d="M-227 -367q-51 0 -85 36t-34 85q0 59 43 100.5t100 41.5q49 0 83 -36t34 -87q0 -59 -41 -99.5t-100 -40.5z" glyph-name="dotbelowcomb" unicode="̣"/><glyph d="M-317 -530q-14 0 -13 14l8 63q2 12 15 13q33 0 67.5 19.5t40.5 51.5q2 8 2 23l-8 -2h-16q-45 0 -80 33.5t-35 85.5q0 66 39 104.5t102 38.5q55 0 88 -40t33 -120q0 -145 -72.5 -214.5t-170.5 -69.5z" glyph-name="uni0326" unicode="̦"/><glyph d="M-287 -420q-90 0 -149 47q-12 10 0 33l33 59q10 20 34 7q45 -27 88 -27q61 0 62 57q0 55 -86 56q-49 0 -33 38l74 166l104 -2l-51 -110q47 -6 90 -41t43 -107q0 -78 -52.5 -127t-156.5 -49z" glyph-name="uni0327" unicode="̧"/><glyph d="M-113 -324q10 -23 -8 -32q-66 -43 -143 -43q-158 0 -158 149q0 100 74 179t119 79h104q-164 -109 -164 -221q0 -63 53 -63q33 0 62 18q27 16 37 -6z" glyph-name="uni0328" unicode="̨"/><glyph d="M-614 494q-29 0 -21 28l12 82q4 27 29 27h492q31 0 26 -27l-12 -82q-6 -29 -33 -28h-493z" glyph-name="uni0335" unicode="̵"/><glyph d="M-1303 993q-23 0 -18 23l12 92q4 23 25 22h1270q23 0 18 -22l-12 -92q-4 -23 -25 -23h-1270z" glyph-name="uni0336" unicode="̶"/><glyph d="M-537 532q-25 -14 -34 7l-27 45q-14 20 14 39l549 362q27 18 37 -4l25 -45q12 -23 -13 -41z" glyph-name="uni0337" unicode="̷"/><glyph d="M-573 -35q-16 -25 -35 -24h-111q-10 0 -15 7t1 17l661 1053q16 27 37 26h109q29 0 12 -26z" glyph-name="uni0338" unicode="̸"/><glyph d="M1358 1573l-311 258q-23 14 -3 39l72 80q20 25 39 6l297 -275q18 -14 0 -36l-55 -66q-16 -24 -39 -6zM569 0q-74 0 -82 82l-141 1245h-121q-25 0 -20 25l12 94q4 25 29 24h444q27 0 23 -24l-15 -94q-2 -25 -28 -25h-138l99 -1126h12l461 1208q23 61 76 61h61q31 0 43 -14 t16 -47l125 -1208h13l417 1126h-137q-23 0 -20 25l12 94q2 25 29 24h438q23 0 21 -24l-13 -94q-2 -25 -28 -25h-119l-490 -1245q-33 -82 -106 -82h-82q-76 0 -84 82l-107 1044h-8l-403 -1044q-33 -82 -109 -82h-80z" glyph-name="Wgrave" horiz-adv-x="2007" unicode="Ẁ"/><glyph d="M1026 1112l-291 274q-18 18 0 39l78 76q20 20 37 4l276 -291q18 -18 -2 -38l-59 -60q-21 -22 -39 -4zM451 0q-35 0 -41 43l-142 827h-106q-23 0 -21 25l13 88q2 25 26 25h369q25 0 20 -25l-10 -88q-6 -25 -31 -25h-88l95 -690h4l290 783q16 45 56 45h78q45 0 47 -43 l63 -785h4l287 690h-82q-25 0 -22 25l12 88q2 25 28 25h361q23 0 20 -25l-12 -88q-2 -25 -27 -25h-96l-372 -827q-23 -43 -54 -43h-123q-43 0 -45 43l-61 700h-6l-258 -700q-16 -43 -58 -43h-118z" glyph-name="wgrave" horiz-adv-x="1558" unicode="ẁ"/><glyph d="M1094 1577q-20 -16 -37 6l-45 66q-14 20 10 39l373 274q23 16 37 -6l59 -88q16 -20 -12 -39zM569 0q-74 0 -82 82l-141 1245h-121q-25 0 -20 25l12 94q4 25 29 24h444q27 0 23 -24l-15 -94q-2 -25 -28 -25h-138l99 -1126h12l461 1208q23 61 76 61h61q31 0 43 -14t16 -47 l125 -1208h13l417 1126h-137q-23 0 -20 25l12 94q2 25 29 24h438q23 0 21 -24l-13 -94q-2 -25 -28 -25h-119l-490 -1245q-33 -82 -106 -82h-82q-76 0 -84 82l-107 1044h-8l-403 -1044q-33 -82 -109 -82h-80z" glyph-name="Wacute" horiz-adv-x="2007" unicode="Ẃ"/><glyph d="M854 1110q-23 -14 -37 6l-45 62q-16 18 8 39l357 290q23 18 39 -2l59 -82q16 -20 -10 -39zM451 0q-35 0 -41 43l-142 827h-106q-23 0 -21 25l13 88q2 25 26 25h369q25 0 20 -25l-10 -88q-6 -25 -31 -25h-88l95 -690h4l290 783q16 45 56 45h78q45 0 47 -43l63 -785h4 l287 690h-82q-25 0 -22 25l12 88q2 25 28 25h361q23 0 20 -25l-12 -88q-2 -25 -27 -25h-96l-372 -827q-23 -43 -54 -43h-123q-43 0 -45 43l-61 700h-6l-258 -700q-16 -43 -58 -43h-118z" glyph-name="wacute" horiz-adv-x="1558" unicode="ẃ"/><glyph d="M1044 1647q-47 0 -78.5 33.5t-31.5 78.5q0 57 40 96t93 39q47 0 80 -34.5t33 -81.5q0 -53 -39.5 -92t-96.5 -39zM1440 1647q-47 0 -79 33.5t-32 78.5q0 57 40 96t93 39q47 0 80 -34.5t33 -81.5q0 -53 -39 -92t-96 -39zM569 0q-74 0 -82 82l-141 1245h-121q-25 0 -20 25 l12 94q4 25 29 24h444q27 0 23 -24l-15 -94q-2 -25 -28 -25h-138l99 -1126h12l461 1208q23 61 76 61h61q31 0 43 -14t16 -47l125 -1208h13l417 1126h-137q-23 0 -20 25l12 94q2 25 29 24h438q23 0 21 -24l-13 -94q-2 -25 -28 -25h-119l-490 -1245q-33 -82 -106 -82h-82 q-76 0 -84 82l-107 1044h-8l-403 -1044q-33 -82 -109 -82h-80z" glyph-name="Wdieresis" horiz-adv-x="2007" unicode="Ẅ"/><glyph d="M764 1192q-49 0 -83 34t-34 83q0 59 42 99t99 40q47 0 81 -35t34 -86q0 -55 -40 -95t-99 -40zM1149 1192q-49 0 -83 34t-34 83q0 59 42 99t100 40q47 0 80.5 -35t33.5 -86q0 -55 -40 -95t-99 -40zM451 0q-35 0 -41 43l-142 827h-106q-23 0 -21 25l13 88q2 25 26 25h369 q25 0 20 -25l-10 -88q-6 -25 -31 -25h-88l95 -690h4l290 783q16 45 56 45h78q45 0 47 -43l63 -785h4l287 690h-82q-25 0 -22 25l12 88q2 25 28 25h361q23 0 20 -25l-12 -88q-2 -25 -27 -25h-96l-372 -827q-23 -43 -54 -43h-123q-43 0 -45 43l-61 700h-6l-258 -700 q-16 -43 -58 -43h-118z" glyph-name="wdieresis" horiz-adv-x="1558" unicode="ẅ"/><glyph d="M102 0q-20 0 -18 25l12 90q2 25 27 24h117l118 842q35 252 204 378t421 126q262 0 377 -115q23 -23 22 -45q0 -27 -36 -47q-12 -6 -62.5 -29.5t-75 -37t-67.5 -43t-65.5 -57.5t-41 -69t-18.5 -86q0 -59 35.5 -112t87 -99.5t102.5 -99.5t87 -133t36 -176 q0 -158 -106.5 -254t-282.5 -96q-98 0 -171 27.5t-109 70.5t-50 70.5t-20.5 50t16.5 35.5l109 57q23 12 32 -12q57 -145 199 -146q90 0 146.5 50.5t56.5 134.5q0 72 -36 131t-88 104t-104.5 94t-88.5 122t-36 163q0 100 50.5 181t105.5 120t121 68q-53 27 -174 26 q-143 0 -263 -93t-145 -269l-116 -832h112q23 0 21 -24l-13 -90q-2 -25 -26 -25h-402z" glyph-name="uni1E9E" horiz-adv-x="1366" unicode="ẞ"/><glyph d="M993 0q-23 0 -20 25l12 94q2 25 29 24h139l-72 357h-542l-174 -357h135q25 0 22 -24l-14 -94q-4 -25 -29 -25h-436q-23 0 -18 25l12 94q4 25 26 24h130l585 1184h-110q-25 0 -21 25l12 94q4 25 29 24h264q47 0 69.5 -20t33.5 -68l270 -1239h129q25 0 21 -24l-13 -94 q-4 -25 -28 -25h-441zM922 1268h-13l-297 -621h439zM702 -367q-51 0 -84.5 36t-33.5 85q0 59 43 100.5t100 41.5q49 0 83 -36t34 -87q0 -59 -41.5 -99.5t-100.5 -40.5z" glyph-name="uni1EA0" horiz-adv-x="1468" unicode="Ạ"/><glyph d="M999 137q29 0 25 -24l-12 -88q-6 -25 -31 -25h-172q-39 0 -58.5 23.5t-13.5 62.5l8 74h-2q-137 -174 -344 -174q-131 0 -215 70.5t-84 185.5q0 166 127 251t346 85h213l9 51q33 250 -211 250q-152 0 -262 -88q-25 -16 -41 6l-43 73q-10 20 14 39q141 113 358 113 q199 0 289 -107.5t66 -285.5l-70 -492h104zM750 313l18 136h-217q-125 0 -200 -47.5t-75 -139.5q0 -61 44.5 -97t120 -36t143 35t96.5 66.5t70 82.5zM496 -104q49 0 82.5 -36t33.5 -87q0 -59 -41 -99.5t-100 -40.5q-51 0 -85 36t-34 85q0 59 43.5 100.5t100.5 41.5z" glyph-name="uni1EA1" horiz-adv-x="1044" unicode="ạ"/><glyph d="M115 0q-20 0 -19 25l13 94q2 25 26 24h150l166 1184h-150q-23 0 -18 25l12 94q4 25 27 24h1036q23 0 20 -24l-47 -326q-4 -25 -26 -24h-117q-20 0 -19 24l29 207h-577l-70 -498h481q25 0 23 -24l-13 -96q-2 -25 -30 -25h-482l-75 -541h579l29 205q2 25 29 25h114 q23 0 21 -25l-45 -323q-2 -25 -27 -25h-1040zM623 -367q-51 0 -85 36t-34 85q0 59 43 100.5t100 41.5q49 0 83 -36t34 -87q0 -59 -41 -99.5t-100 -40.5z" glyph-name="uni1EB8" horiz-adv-x="1282" unicode="Ẹ"/><glyph d="M674 1022q170 0 269 -118t99 -310q0 -137 -41 -137h-682v-17q0 -147 75 -229t194 -82q27 0 52.5 4t45 10.5t41 17.5t35.5 18t32.5 21.5t26.5 21.5t24.5 21.5t18.5 16.5q18 20 37 2l57 -59q14 -16 0 -37q-16 -23 -41.5 -46.5t-72.5 -57t-120 -55t-155 -21.5 q-186 0 -305 123.5t-119 324.5q0 283 154 435.5t375 152.5zM879 594q10 127 -46.5 206t-168.5 79q-129 0 -212 -79t-114 -206h541zM530 -104q49 0 83 -36t34 -87q0 -59 -41 -99.5t-100 -40.5q-51 0 -85 36t-34 85q0 59 43 100.5t100 41.5z" glyph-name="uni1EB9" horiz-adv-x="1038" unicode="ẹ"/><glyph d="M582 1626q-20 0 -21 19q0 102 54.5 170.5t164.5 68.5q70 0 140.5 -52t105.5 -52q72 0 80 114q0 25 27 25h77q23 0 23 -21q0 -119 -53.5 -188.5t-163.5 -69.5q-72 0 -138.5 52.5t-105.5 52.5q-76 0 -84 -94q-4 -25 -29 -25h-77zM115 0q-20 0 -19 25l13 94q2 25 26 24h150 l166 1184h-150q-23 0 -18 25l12 94q4 25 27 24h1036q23 0 20 -24l-47 -326q-4 -25 -26 -24h-117q-20 0 -19 24l29 207h-577l-70 -498h481q25 0 23 -24l-13 -96q-2 -25 -30 -25h-482l-75 -541h579l29 205q2 25 29 25h114q23 0 21 -25l-45 -323q-2 -25 -27 -25h-1040z" glyph-name="uni1EBC" horiz-adv-x="1282" unicode="Ẽ"/><glyph d="M395 1157q-20 0 -20 19q0 104 54 172.5t165 68.5q70 0 140.5 -52t105.5 -52q72 0 80 117q0 25 26 24h78q23 0 23 -20q0 -260 -218 -260q-72 0 -138 52t-105 52q-76 0 -84 -96q-2 -25 -29 -25h-78zM674 1022q170 0 269 -118t99 -310q0 -137 -41 -137h-682v-17 q0 -147 75 -229t194 -82q27 0 52.5 4t45 10.5t41 17.5t35.5 18t32.5 21.5t26.5 21.5t24.5 21.5t18.5 16.5q18 20 37 2l57 -59q14 -16 0 -37q-16 -23 -41.5 -46.5t-72.5 -57t-120 -55t-155 -21.5q-186 0 -305 123.5t-119 324.5q0 283 154 435.5t375 152.5zM879 594 q10 127 -46.5 206t-168.5 79q-129 0 -212 -79t-114 -206h541z" glyph-name="uni1EBD" horiz-adv-x="1038" unicode="ẽ"/><glyph d="M117 0q-23 0 -21 25l13 94q2 25 26 24h150l166 1184h-148q-25 0 -20 25l12 94q4 25 27 24h466q23 0 21 -24l-12 -94q-2 -25 -29 -25h-147l-166 -1184h145q27 0 23 -24l-13 -94q-4 -25 -28 -25h-465zM309 -367q-51 0 -85 36t-34 85q0 59 43 100.5t101 41.5q49 0 83 -36 t34 -87q0 -59 -41.5 -99.5t-100.5 -40.5z" glyph-name="uni1ECA" horiz-adv-x="698" unicode="Ị"/><glyph d="M442 1206q-51 0 -84.5 36t-33.5 85q0 59 43 100t100 41q49 0 83 -35.5t34 -86.5q0 -59 -41.5 -99.5t-100.5 -40.5zM98 0q-20 0 -18 25l12 88q2 25 27 24h108l103 733h-109q-25 0 -20 25l12 88q4 25 29 25h252q27 0 22 -25l-119 -846h107q25 0 20 -24l-12 -88 q-4 -25 -29 -25h-385zM256 -367q-51 0 -85 36t-34 85q0 59 43 100.5t101 41.5q49 0 82.5 -36t33.5 -87q0 -59 -41 -99.5t-100 -40.5z" glyph-name="uni1ECB" horiz-adv-x="563" unicode="ị"/><glyph d="M799 -14q-260 0 -437.5 178t-177.5 461q0 397 216 627.5t558 230.5q266 0 436.5 -174t170.5 -465q0 -406 -213 -632t-553 -226zM813 133q233 0 403 186.5t170 505.5q0 248 -125.5 379t-320.5 131q-238 0 -408 -184t-170 -508q0 -244 130.5 -377t320.5 -133zM748 -367 q-51 0 -85 36t-34 85q0 59 43 100.5t100 41.5q49 0 83 -36t34 -87q0 -59 -41 -99.5t-100 -40.5z" glyph-name="uni1ECC" horiz-adv-x="1542" unicode="Ọ"/><glyph d="M567 -14q-188 0 -306 123.5t-118 324.5q0 256 153 422t394 166q195 0 310.5 -125t115.5 -326q0 -266 -150.5 -425.5t-398.5 -159.5zM588 129q150 0 253 122t103 304q0 143 -72.5 233.5t-199.5 90.5q-150 0 -252.5 -122t-102.5 -304q0 -150 71 -237t200 -87zM535 -367 q-51 0 -85 36t-34 85q0 59 43 100.5t100 41.5q49 0 83 -36t34 -87q0 -59 -41 -99.5t-100 -40.5z" glyph-name="uni1ECD" horiz-adv-x="1118" unicode="ọ"/><glyph d="M1296 1327h-147q-27 0 -21 25l13 94q2 25 28 24h463q23 0 21 -24l-15 -94q-4 -25 -26 -25h-150l-108 -776q-41 -291 -189.5 -428t-410.5 -137q-246 0 -365 145t-80 420l109 776h-150q-23 0 -18 25l12 94q4 25 27 24h469q25 0 20 -24l-12 -94q-6 -25 -29 -25h-147 l-111 -782q-27 -193 39 -296.5t260 -103.5q176 0 277.5 105.5t128.5 281.5zM729 -367q-51 0 -85 36t-34 85q0 59 43 100.5t101 41.5q49 0 82.5 -36t33.5 -87q0 -59 -41 -99.5t-100 -40.5z" glyph-name="uni1EE4" horiz-adv-x="1505" unicode="Ụ"/><glyph d="M524 -14q-158 0 -240.5 103.5t-58.5 275.5l72 505h-107q-27 0 -22 25l12 88q4 25 31 25h248q25 0 22 -25l-84 -598q-16 -117 29 -184.5t143 -67.5q174 0 279 182l78 555h-109q-23 0 -18 25l12 88q4 25 27 25h252q25 0 20 -25l-119 -846h111q20 0 18 -24l-12 -88 q-2 -25 -27 -25h-174q-86 0 -71 86l8 57h-6q-72 -84 -136 -116q-80 -41 -178 -41zM553 -367q-51 0 -85 36t-34 85q0 59 43 100.5t101 41.5q49 0 82.5 -36t33.5 -87q0 -59 -41 -99.5t-100 -40.5z" glyph-name="uni1EE5" horiz-adv-x="1159" unicode="ụ"/><glyph d="M1044 1573l-311 258q-23 14 -2 39l72 80q20 25 39 6l297 -275q18 -14 0 -36l-56 -66q-16 -24 -39 -6zM438 0q-25 0 -20 25l12 94q4 25 29 24h149l64 445l-305 739h-129q-25 0 -21 25l12 94q4 25 27 24h455q27 0 22 -24l-14 -94q-2 -25 -29 -25h-133l219 -584h8l381 584 h-129q-25 0 -20 25l14 94q2 25 27 24h452q23 0 21 -24l-12 -94q-2 -25 -29 -25h-131l-516 -739l-62 -445h152q23 0 20 -24l-14 -94q-4 -25 -27 -25h-473z" glyph-name="Ygrave" horiz-adv-x="1349" unicode="Ỳ"/><glyph d="M838 1112l-291 274q-18 18 0 39l78 76q20 20 37 4l276 -291q18 -18 -2 -38l-59 -60q-21 -22 -39 -4zM1257 1008q25 0 21 -25l-12 -88q-4 -25 -29 -25h-98l-434 -833l-7 -10l-59 -113q-37 -68 -48 -90.5t-42 -73.5t-46.5 -67.5t-46 -47t-57 -41t-62.5 -19.5t-79 -9 q-78 0 -129 21.5t-66 43.5q-14 20 0 37l64 72q14 16 35 2q49 -33 98 -33q72 0 120 47t105 160l43 84h-24q-20 0 -28.5 7t-12.5 30l-199 833h-100q-25 0 -21 25l13 88q4 25 28 25h396q23 0 18 -25l-10 -88q-2 -25 -29 -25h-115l152 -727h4l365 727h-103q-23 0 -20 25l12 88 q2 25 27 25h376z" glyph-name="ygrave" horiz-adv-x="1153" unicode="ỳ"/><glyph d="M623 1626q-20 0 -21 19q0 102 54.5 170.5t164.5 68.5q70 0 140.5 -52t105.5 -52q72 0 80 114q0 25 27 25h77q23 0 23 -21q0 -119 -53.5 -188.5t-163.5 -69.5q-72 0 -138.5 52.5t-105.5 52.5q-76 0 -84 -94q-4 -25 -29 -25h-77zM438 0q-25 0 -20 25l12 94q4 25 29 24h149 l64 445l-305 739h-129q-25 0 -21 25l12 94q4 25 27 24h455q27 0 22 -24l-14 -94q-2 -25 -29 -25h-133l219 -584h8l381 584h-129q-25 0 -20 25l14 94q2 25 27 24h452q23 0 21 -24l-12 -94q-2 -25 -29 -25h-131l-516 -739l-62 -445h152q23 0 20 -24l-14 -94q-4 -25 -27 -25 h-473z" glyph-name="uni1EF8" horiz-adv-x="1349" unicode="Ỹ"/><glyph d="M461 1157q-20 0 -21 19q0 104 54.5 172.5t164.5 68.5q70 0 140.5 -52t105.5 -52q72 0 80 117q0 25 27 24h78q23 0 22 -20q0 -260 -217 -260q-72 0 -138.5 52t-105.5 52q-76 0 -84 -96q-2 -25 -28 -25h-78zM1257 1008q25 0 21 -25l-12 -88q-4 -25 -29 -25h-98l-434 -833 l-7 -10l-59 -113q-37 -68 -48 -90.5t-42 -73.5t-46.5 -67.5t-46 -47t-57 -41t-62.5 -19.5t-79 -9q-78 0 -129 21.5t-66 43.5q-14 20 0 37l64 72q14 16 35 2q49 -33 98 -33q72 0 120 47t105 160l43 84h-24q-20 0 -28.5 7t-12.5 30l-199 833h-100q-25 0 -21 25l13 88 q4 25 28 25h396q23 0 18 -25l-10 -88q-2 -25 -29 -25h-115l152 -727h4l365 727h-103q-23 0 -20 25l12 88q2 25 27 25h376z" glyph-name="uni1EF9" horiz-adv-x="1153" unicode="ỹ"/><glyph d="M221 455q-29 0 -24 26l14 105q4 27 31 26h882q25 0 21 -26l-15 -105q-4 -27 -28 -26h-881z" glyph-name="endash" horiz-adv-x="1191" unicode="–"/><glyph d="M219 455q-27 0 -22 26l14 105q4 27 31 26h1513q27 0 23 -26l-15 -105q-4 -27 -30 -26h-1514z" glyph-name="emdash" horiz-adv-x="1822" unicode="—"/><glyph d="M543 1575q10 0 10 -10l-8 -68q-4 -12 -15 -12q-35 0 -71.5 -29t-42.5 -76q-2 -14 -2 -30h2q2 0 5 1t8 1h9q45 0 80 -34t35 -85q0 -66 -39 -104.5t-102 -38.5q-55 0 -88 39.5t-33 119.5q0 168 74 247t178 79z" glyph-name="quoteleft" horiz-adv-x="487" unicode="‘"/><glyph d="M328 1090q-10 0 -14.5 3t-2.5 11l8 61q2 14 15 15q37 0 72.5 27.5t42.5 76.5q2 16 2 31q-10 -2 -25 -2q-45 0 -80 33.5t-35 85.5q0 66 39 104.5t103 38.5q55 0 87.5 -40t32.5 -120q0 -168 -72.5 -246.5t-172.5 -78.5z" glyph-name="quoteright" horiz-adv-x="487" unicode="’"/><glyph d="M133 -291q-10 0 -14 3t-2 12l8 61q2 14 14 14q37 0 73 28t42 77q2 16 2 30q-10 -2 -25 -2q-45 0 -79.5 34t-34.5 85q0 66 39 105t102 39q55 0 88 -40t33 -120q0 -168 -73 -247t-173 -79z" glyph-name="quotesinglbase" horiz-adv-x="487" unicode="‚"/><glyph d="M543 1575q10 0 10 -10l-8 -68q-4 -12 -15 -12q-35 0 -71.5 -29t-42.5 -76q-2 -14 -2 -30h2q2 0 5 1t8 1h9q45 0 80 -34t35 -85q0 -66 -39 -104.5t-102 -38.5q-55 0 -88 39.5t-33 119.5q0 168 74 247t178 79zM907 1575q10 0 11 -10l-9 -68q-4 -12 -14 -12q-35 0 -72 -29 t-43 -76q-2 -14 -2 -30h2q2 0 5 1t8.5 1h9.5q45 0 80 -34t35 -85q0 -66 -39 -104.5t-103 -38.5q-55 0 -88 39.5t-33 119.5q0 168 74 247t178 79z" glyph-name="quotedblleft" horiz-adv-x="851" unicode="“"/><glyph d="M328 1090q-10 0 -14.5 3t-2.5 11l8 61q2 14 15 15q37 0 72.5 27.5t42.5 76.5q2 16 2 31q-10 -2 -25 -2q-45 0 -80 33.5t-35 85.5q0 66 39 104.5t103 38.5q55 0 87.5 -40t32.5 -120q0 -168 -72.5 -246.5t-172.5 -78.5zM694 1090q-10 0 -14 3t-2 11l8 61q2 14 14 15 q37 0 73 27.5t42 76.5q2 16 2 31q-10 -2 -24 -2q-45 0 -80 33.5t-35 85.5q0 66 39 104.5t102 38.5q55 0 88 -40t33 -120q0 -168 -73 -246.5t-173 -78.5z" glyph-name="quotedblright" horiz-adv-x="854" unicode="”"/><glyph d="M133 -291q-10 0 -14 3t-2 12l8 61q2 14 14 14q37 0 73 28t42 77q2 16 2 30q-10 -2 -25 -2q-45 0 -79.5 34t-34.5 85q0 66 39 105t102 39q55 0 88 -40t33 -120q0 -168 -73 -247t-173 -79zM500 -291q-10 0 -14.5 3t-2.5 12l9 61q2 14 14 14q37 0 72.5 28t42.5 77q2 16 2 30 q-10 -2 -25 -2q-45 0 -80 34t-35 85q0 66 39 105t103 39q55 0 87.5 -40t32.5 -120q0 -168 -72.5 -247t-172.5 -79z" glyph-name="quotedblbase" horiz-adv-x="854" unicode="„"/><glyph d="M344 -268q-20 0 -18 24l161 1260h-241q-29 0 -25 26l17 105q4 27 30 27h240l51 358q2 25 27 24h123q25 0 20 -24l-51 -358h229q27 0 23 -27l-15 -105q-6 -27 -28 -26h-230l-192 -1260q-6 -25 -29 -24h-92z" glyph-name="dagger" horiz-adv-x="849" unicode="†"/><glyph d="M524 145l-59 -389q-2 -25 -27 -24h-92q-23 0 -20 24l49 389h-250q-27 0 -23 29l15 102q4 29 30 29h246l94 711h-239q-29 0 -25 26l17 105q4 27 30 27h240l51 358q4 25 27 24h123q23 0 20 -24l-51 -358h229q27 0 23 -27l-14 -105q-6 -27 -29 -26h-230l-106 -711h235 q27 0 23 -29l-14 -102q-4 -29 -31 -29h-242z" glyph-name="daggerdbl" horiz-adv-x="849" unicode="‡"/><glyph d="M461 381q-98 0 -166 70.5t-68 171.5q0 127 78 205.5t199 78.5q102 0 166.5 -74.5t66.5 -177.5q0 -119 -79.5 -195.5t-196.5 -78.5z" glyph-name="bullet" horiz-adv-x="784" unicode="•"/><glyph d="M242 -14q-51 0 -86 34.5t-35 85.5q0 61 40 101.5t101 40.5q51 0 85 -38t34 -89q0 -57 -41 -96t-98 -39zM637 -14q-51 0 -86 34.5t-35 85.5q0 61 40 101.5t101 40.5q51 0 85 -38t34 -89q0 -57 -41 -96t-98 -39zM1032 -14q-51 0 -86 34.5t-35 85.5q0 61 40 101.5t102 40.5 q51 0 84.5 -38t33.5 -89q0 -57 -41 -96t-98 -39z" glyph-name="ellipsis" horiz-adv-x="1263" unicode="…"/><glyph d="M449 -55q-25 2 -11 26l887 1538q12 23 39 19l100 -15q20 -2 9 -26l-887 -1536q-14 -23 -33 -19zM514 745q-143 0 -223 87.5t-80 240.5q0 184 110.5 300t274.5 112q133 -2 214 -86t81 -240q0 -180 -103.5 -297t-273.5 -117zM526 895q88 0 141.5 71.5t53.5 184.5 q0 186 -146 186q-90 0 -142 -72.5t-52 -183.5q0 -186 145 -186zM1346 -14q-143 0 -223.5 87t-80.5 240q0 184 111 299t274 113q133 -2 214 -86t81 -240q0 -180 -103 -296.5t-273 -116.5zM2124 -14q-143 0 -223 87t-80 240q0 184 110.5 299t274.5 113q133 -2 214 -86t81 -240 q0 -180 -103.5 -296.5t-273.5 -116.5zM1358 135q88 0 141 72t53 184q0 186 -145 187q-90 0 -142.5 -73t-52.5 -183q1 -187 146 -187zM2136 135q88 0 141.5 72t53.5 184q0 186 -146 187q-90 0 -142 -73t-52 -183q0 -187 145 -187z" glyph-name="perthousand" horiz-adv-x="2500" unicode="‰"/><glyph d="M463 123l-289 313q-20 20 -18 43l6 49q2 18 31 43l378 314q8 8 17.5 6t7.5 -17l-16 -135q-2 -23 -33 -45l-242 -200l184 -201q23 -23 21 -45l-18 -115q-6 -33 -29 -10z" glyph-name="guilsinglleft" horiz-adv-x="604" unicode="‹"/><glyph d="M150 133l18 133q2 25 31 45l241 197l-184 205q-23 27 -20 45l18 116q2 14 11 16.5t18 -5.5l288 -314q23 -23 21 -43l-8 -49q-2 -18 -31 -43l-379 -313q-8 -8 -17 -6t-7 16z" glyph-name="guilsinglright" horiz-adv-x="604" unicode="›"/><glyph d="M-238 -55q-23 4 -10 26l887 1538q10 23 39 19l100 -15q18 -4 8 -24l-886 -1538q-16 -23 -35 -19z" glyph-name="fraction" horiz-adv-x="333" unicode="⁄"/><glyph d="M1440 1364q16 -14 0 -35l-84 -86q-14 -18 -35 -4q-39 29 -64.5 43t-82 29.5t-125.5 15.5q-184 0 -319.5 -105.5t-199.5 -275.5h543q25 0 21 -26l-11 -74q-2 -25 -26 -25h-561q-14 -66 -15 -145q0 -31 2 -45h437q23 0 18 -25l-10 -76q-2 -25 -27 -24h-401 q37 -168 145.5 -266.5t265.5 -98.5q41 0 78 5.5t66.5 17.5t47 20.5t43 24.5t34.5 20q23 14 32 -2l60 -88q12 -18 -12 -37q-174 -117 -373 -116q-227 0 -380 142t-192 378h-155q-25 0 -21 24l13 76q4 25 26 25h125v26q0 90 14 164h-112q-25 0 -21 25l11 74q4 27 26 26h125 q78 242 268.5 389.5t450.5 147.5q228 0 375 -119z" glyph-name="Euro" horiz-adv-x="1325" unicode="€"/><glyph d="M371 809q-14 0 -11 14l11 82q4 14 16 15h64l63 440h-135l-12 -88q-2 -12 -17 -12h-80q-16 0 -12 12l27 186q0 12 16 12h578q12 0 12 -14l-27 -184q-4 -12 -16 -12h-80q-14 0 -12 12l12 88h-129l-61 -440h63q12 0 12 -15l-12 -82q-4 -14 -16 -14h-254zM1411 809 q-10 0 -10 12l12 86q0 12 14 13h50l49 354h-2l-195 -371q-18 -35 -53 -35q-37 0 -43 35l-92 371h-2l-49 -354h49q10 0 10 -15l-12 -84q-2 -12 -15 -12h-235q-14 0 -10 12l12 86q0 12 12 13h64l63 440h-63q-14 0 -11 10l13 88q0 12 12 12h172q35 0 45 -38l74 -279l22 -111h2 q31 61 58 111l149 279q20 39 58 38h182q12 0 10 -14l-12 -84q-2 -12 -13 -12h-63l-64 -440h64q14 0 10 -15l-10 -84q-4 -12 -14 -12h-238z" glyph-name="trademark" horiz-adv-x="1681" unicode="™"/><glyph d="M901 0q-25 0 -20 25l47 346q4 23 24 22q168 0 310.5 141.5t142.5 350.5q0 211 -135 323.5t-332 112.5q-131 0 -250 -56.5t-200.5 -175t-81.5 -276.5q0 -184 90 -302t237 -118q23 0 19 -22l-50 -346q-2 -25 -28 -25h-555q-20 0 -19 25l13 90q2 23 26 22h443l20 137 q-178 41 -279.5 184.5t-101.5 350.5q0 150 62.5 277.5t166 213.5t235.5 134.5t273 48.5q272 0 452.5 -151.5t180.5 -418.5q0 -240 -156.5 -426t-383.5 -213l-19 -137h443q23 0 20 -22l-12 -90q-4 -25 -27 -25h-555z" glyph-name="uni2126" horiz-adv-x="1574" unicode="Ω"/><glyph d="M438 -55q-23 4 -10 26l887 1538q10 23 39 19l100 -15q18 -4 8 -24l-887 -1538q-12 -23 -34 -19zM721 827q18 0 18 -18l-14 -94q-2 -20 -23 -21h-489q-18 0 -16 21l14 94q2 18 20 18h177l73 516l-176 -90q-14 -6 -18 7l-33 88q-6 12 12 22l230 119q27 14 53 14h102 q14 0 15 -18l-93 -658h148zM1311 -8q-133 0 -209 46t-96 89q-6 12 6 20l92 78q10 10 20 0q76 -92 195 -92q70 0 114 30t44 81q0 106 -154 106h-51q-14 0 -12 15l12 92q2 16 18 16h35q68 0 121 27.5t53 87.5q0 86 -113 86q-51 0 -85.5 -21.5t-81.5 -70.5q-12 -12 -23 -4 l-86 61q-12 8 -2 20q106 154 293 154q125 0 192.5 -61.5t67.5 -143.5q0 -86 -66.5 -138t-107.5 -54q16 -4 34.5 -12.5t46 -27t45 -55t17.5 -83.5q0 -111 -87 -178.5t-232 -67.5z" glyph-name="onethird" horiz-adv-x="1665" unicode="⅓"/><glyph d="M438 -55q-23 4 -10 26l887 1538q10 23 39 19l100 -15q18 -4 8 -24l-887 -1538q-12 -23 -34 -19zM723 827q18 0 18 -18l-14 -94q-2 -20 -22 -21h-490q-18 0 -16 21l14 94q4 18 20 18h177l73 516l-176 -90q-12 -6 -18 7l-33 88q-6 12 12 22l230 119q27 14 53 14h102 q14 0 15 -18l-93 -658h148zM1333 -10q-143 0 -226 64.5t-83 164.5q0 66 41 117t80 70.5t57 19.5v4q-10 0 -30.5 13.5t-42 51t-21.5 87.5q0 90 78 160.5t235 70.5q147 0 215 -64.5t68 -146.5q0 -61 -34 -104t-63.5 -55.5t-43.5 -12.5v-4q10 0 37.5 -17.5t56.5 -61.5t29 -99 q0 -117 -89.5 -187.5t-263.5 -70.5zM1386 467q61 0 107.5 24.5t46.5 83.5q0 94 -131 95q-70 0 -106.5 -29t-36.5 -76t36.5 -72.5t83.5 -25.5zM1350 131q88 0 131 34t43 87q0 47 -38 77.5t-104 30.5h-22q-82 0 -125 -33.5t-43 -82.5q0 -53 42 -83t116 -30z" glyph-name="oneeighth" horiz-adv-x="1714" unicode="⅛"/><glyph d="M442 -55q-23 4 -10 26l887 1538q10 23 39 19l100 -15q18 -4 8 -24l-886 -1538q-12 -23 -35 -19zM483 686q-133 0 -208.5 46t-96.5 89q-6 12 6 21l92 78q10 10 21 0q76 -92 195 -93q70 0 113.5 30t43.5 81q0 106 -153 106h-52q-14 0 -12 15l12 92q2 16 19 16h35 q68 0 121 28t53 87q0 86 -113 86q-51 0 -86 -21.5t-82 -70.5q-12 -12 -22 -4l-86 61q-12 8 -2 21q106 154 292 153q125 0 193 -61.5t68 -142.5q0 -86 -67 -138.5t-108 -54.5q16 -4 35 -12t46.5 -26.5t45 -55.5t17.5 -84q0 -111 -87.5 -178.5t-232.5 -67.5zM1335 -10 q-143 0 -226 64.5t-83 164.5q0 66 41 117t80 70.5t57 19.5v4q-10 0 -30.5 13.5t-42 51t-21.5 87.5q0 90 78 160.5t235 70.5q147 0 215 -64.5t68 -146.5q0 -61 -34 -104t-63.5 -55.5t-43.5 -12.5v-4q10 0 37.5 -17.5t56.5 -61.5t29 -99q0 -117 -89.5 -187.5t-263.5 -70.5z M1389 467q61 0 107 24.5t46 83.5q0 94 -131 95q-70 0 -106.5 -29t-36.5 -76t37 -72.5t84 -25.5zM1352 131q88 0 131 34t43 87q0 47 -38 77.5t-104 30.5h-22q-82 0 -125 -33.5t-43 -82.5q0 -53 42 -83t116 -30z" glyph-name="threeeighths" horiz-adv-x="1716" unicode="⅜"/><glyph d="M428 -55q-23 4 -10 26l887 1538q10 23 38 19l101 -15q18 -4 8 -24l-887 -1538q-12 -23 -35 -19zM467 686q-66 0 -117 14.5t-88 44t-49 43t-33 39.5q-8 12 2 19l94 80q12 12 23 0q76 -102 176 -103q172 0 172 140q0 55 -38 88.5t-109 33.5q-59 0 -129 -19t-78 -19 q-31 0 -25 38l56 402q4 16 16 16h477q16 0 14 -16l-14 -101q-2 -14 -18 -14h-342l-25 -170q53 14 123 15q117 0 181.5 -70t64.5 -172q0 -133 -87 -211t-247 -78zM1317 -10q-143 0 -226 64.5t-83 164.5q0 66 41 117t79.5 70.5t57.5 19.5v4q-10 0 -30.5 13.5t-42 51 t-21.5 87.5q0 90 77.5 160.5t235.5 70.5q147 0 215 -64.5t68 -146.5q0 -61 -34 -104t-63.5 -55.5t-44.5 -12.5v-4q10 0 38 -17.5t56.5 -61.5t28.5 -99q0 -117 -89 -187.5t-263 -70.5zM1370 467q61 0 107.5 24.5t46.5 83.5q0 94 -131 95q-70 0 -107 -29t-37 -76t37 -72.5 t84 -25.5zM1333 131q88 0 131 34t43 87q0 47 -37.5 77.5t-103.5 30.5h-23q-82 0 -124.5 -33.5t-42.5 -82.5q0 -53 41.5 -83t115.5 -30z" glyph-name="fiveeighths" horiz-adv-x="1697" unicode="⅝"/><glyph d="M362 -55q-23 4 -10 26l887 1538q10 23 39 19l100 -15q18 -4 8 -24l-886 -1538q-12 -23 -35 -19zM324 694q-29 0 -7 35l375 633h-289l-14 -100q-4 -16 -20 -17h-119q-14 0 -12 17l30 225q4 16 19 16h594q16 0 16 -14l-6 -35q-6 -39 -31 -84l-371 -645q-16 -31 -36 -31 h-129zM1255 -10q-143 0 -226 64.5t-83 164.5q0 66 41 117t80 70.5t57 19.5v4q-10 0 -30.5 13.5t-42 51t-21.5 87.5q0 90 78 160.5t235 70.5q147 0 215 -64.5t68 -146.5q0 -61 -33.5 -104t-63.5 -55.5t-44 -12.5v-4q10 0 37.5 -17.5t56.5 -61.5t29 -99q0 -117 -89.5 -187.5 t-263.5 -70.5zM1309 467q61 0 107 24.5t46 83.5q0 94 -131 95q-70 0 -106.5 -29t-36.5 -76t37 -72.5t84 -25.5zM1272 131q88 0 131 34t43 87q0 47 -38 77.5t-103 30.5h-23q-82 0 -125 -33.5t-43 -82.5q0 -53 42 -83t116 -30z" glyph-name="seveneighths" horiz-adv-x="1638" unicode="⅞"/><glyph d="M557 -14q-197 0 -309.5 108.5t-112.5 292.5q0 227 163 385t447 158q236 0 359 -101l2 17q29 236 -48 361.5t-247 125.5q-211 0 -268 -182q-6 -25 -31 -25h-111q-12 0 -15 3.5t-3 15.5q0 129 128 233.5t331 104.5q430 0 430 -539q0 -141 -29 -278.5t-88 -260t-143 -216 t-201 -148.5t-254 -55zM563 135q176 0 313.5 139.5t213.5 413.5q-39 39 -132.5 75t-207.5 36q-201 0 -321 -118t-120 -288q0 -121 64.5 -189.5t189.5 -68.5z" glyph-name="partialdiff" horiz-adv-x="1224" unicode="∂"/><glyph d="M221 455q-25 0 -20 26l14 105q4 27 29 26h608q29 0 25 -26l-15 -105q-6 -27 -33 -26h-608z" glyph-name="minus" horiz-adv-x="925" unicode="−"/><glyph d="M113 -479q-131 0 -199 78q-16 20 0 36l63 66q18 18 35 4q49 -39 105 -39q74 0 125 53.5t65 153.5l176 1262q23 160 119 254t244 94q131 0 198 -78q18 -18 3 -35l-66 -67q-16 -16 -33 -5q-49 39 -102 39q-162 0 -193 -204l-178 -1262q-23 -166 -120 -258t-242 -92z" glyph-name="integral" horiz-adv-x="825" unicode="∫"/><glyph d="M246 614q-25 0 -25 21q0 106 63.5 185t188.5 79q72 0 152 -47t123 -47q78 0 88 74q4 25 28 24h111q25 0 24 -18q0 -106 -62.5 -185t-186.5 -79q-84 0 -162 46t-115 46q-78 0 -86 -72q-4 -27 -31 -27h-110zM186 199q-23 0 -22 18q0 106 62.5 185t187.5 79q72 0 152.5 -46 t123.5 -46q76 0 86 72q4 27 31 26h111q23 0 22 -20q0 -106 -62.5 -185t-187.5 -79q-84 0 -161.5 47t-114.5 47q-78 0 -86 -74q-2 -25 -31 -24h-111z" glyph-name="approxequal" horiz-adv-x="1005" unicode="≈"/><glyph d="M899 805q27 0 23 -29l-15 -102q-4 -29 -30 -29h-218l-102 -242h285q27 0 22 -26l-14 -105q-4 -27 -31 -26h-330l-65 -152q-12 -25 -37 -24h-82q-25 0 -12 24l65 152h-165q-25 0 -21 26l14 105q4 27 29 26h211l102 242h-278q-27 0 -23 29l15 102q4 29 30 29h324l70 162 q10 25 36 24h82q25 0 13 -24l-70 -162h172z" glyph-name="notequal" horiz-adv-x="944" unicode="≠"/><glyph d="M1415 1194q0 53 36 90t89 37t90 -37t37 -90t-37 -89t-90 -36t-89 37t-36 88zM449 553h-244q0 274 18 643h205q21 -410 21 -643zM1421 553q0 188 6 301h-124l6 -133q8 -8 30 -8q27 0 37 10v-152q-29 -31 -139 -30q-168 0 -168 135q0 25 4 100.5t4 77.5h-45v162l244 61 l2 -35h364q20 -131 21 -489h-242zM672 543q-188 0 -189 233q0 276 275 277q254 0 254 -240v-260h-170l-17 125q-12 -68 -47.5 -101.5t-105.5 -33.5zM2232 553h-233q0 53 2 114.5t2 75.5q0 59 -31 60q-37 0 -37 -60q0 -14 3.5 -75.5t3.5 -114.5h-234q0 358 21 489h163 q12 -90 13 -155q4 31 13 61.5t49 67.5t101 37q86 0 120 -51.5t38 -165.5zM2767 801q0 -258 -252 -258q-250 0 -250 254q0 256 254 256q248 0 248 -252zM799 768q0 53 -49 53q-45 0 -45 -53q0 -61 45 -61q49 0 49 61zM2562 768q0 53 -47 53q-43 0 -43 -53q0 -61 43 -61 q47 0 47 61zM877 487h213q20 -109 20 -282q0 -166 -68.5 -236.5t-242.5 -70.5q-125 0 -181 34v170q49 -33 144 -32q43 0 69.5 12t33.5 23.5t7 21.5q-33 -23 -100 -23q-184 0 -184 170v27h-113l6 -133q12 -8 31 -8q27 0 37 10v-150q-39 -31 -139 -30q-92 0 -129 34.5 t-37 110.5q0 80 6 166h-37v164l240 59l-2 -37h362v-243q0 -33 6 -44.5t25 -11.5q33 0 33 56v243zM1501 498q76 0 120 -59.5t44 -172.5q0 -276 -281 -276q2 -31 2 -80h-243q0 291 20 577h160q14 -86 14 -155q35 166 164 166zM2191 260q0 -43 -6 -72h-254q23 -37 103 -36 q70 0 112 24v-153q-47 -33 -159 -33q-289 0 -289 250q0 121 66.5 189.5t189.5 68.5q113 0 175 -61.5t62 -176.5zM2003 223q6 55 -35 56q-47 0 -47 -56h82zM1372 147q10 0 25.5 5.5t33 24t17.5 46.5q0 47 -41 47q-45 0 -45 -63q0 -29 10 -60zM2200 27q0 47 49 47t49 -47 t-49 -47t-49 47zM2212 26.5q0 -36.5 37 -36.5t37 36.5t-37 36.5t-37 -36.5zM2269 4h-12l-8 19h-11v-19h-10v47h23q20 0 20 -14t-14 -14zM2253 31q8 0 8 6t-8 6h-15v-12h15z" glyph-name="uniF8FF" horiz-adv-x="2971" unicode=""/><glyph d="M442 1206q-51 0 -84.5 36t-33.5 85q0 59 43 100t100 41q49 0 83 -35.5t34 -86.5q0 -59 -41.5 -99.5t-100.5 -40.5zM98 0q-20 0 -18 25l12 88q2 25 27 24h108l103 733h-109q-25 0 -20 25l12 88q4 25 29 25h252q27 0 22 -25l-119 -846h107q25 0 20 -24l-12 -88 q-4 -25 -29 -25h-385z" glyph-name="i.locl" horiz-adv-x="563"/><glyph d="M518 -14q-162 0 -266.5 121.5t-104.5 312.5q0 268 140.5 435t369.5 167q119 0 192 -58.5t97 -129.5h6l23 147q4 27 26 27h115q25 0 19 -27l-117 -844h106q23 0 21 -24l-12 -88q-2 -25 -27 -25h-184q-86 0 -72 86l12 86h-2q-47 -78 -133 -132t-209 -54zM559 129 q143 0 245.5 123t102.5 315q0 145 -68.5 228.5t-174.5 83.5q-145 0 -243.5 -119t-98.5 -320q0 -137 65.5 -224t171.5 -87z" glyph-name="a.salt" horiz-adv-x="1183"/><glyph d="M610 1110q-23 -14 -37 6l-45 62q-16 18 9 39l356 290q23 18 39 -2l59 -82q16 -20 -10 -39zM518 -14q-162 0 -266.5 121.5t-104.5 312.5q0 268 140.5 435t369.5 167q119 0 192 -58.5t97 -129.5h6l23 147q4 27 26 27h115q25 0 19 -27l-117 -844h106q23 0 21 -24l-12 -88 q-2 -25 -27 -25h-184q-86 0 -72 86l12 86h-2q-47 -78 -133 -132t-209 -54zM559 129q143 0 245.5 123t102.5 315q0 145 -68.5 228.5t-174.5 83.5q-145 0 -243.5 -119t-98.5 -320q0 -137 65.5 -224t171.5 -87z" glyph-name="aacute.salt" horiz-adv-x="1183"/><glyph d="M723 1126q-131 0 -209 81t-76 218q0 37 31 37h86q29 0 25 -28q-4 -74 35.5 -125.5t111.5 -51.5q154 0 174 179q0 27 31 26h88q25 0 20 -22q-24 -314 -317 -314zM518 -14q-162 0 -266.5 121.5t-104.5 312.5q0 268 140.5 435t369.5 167q119 0 192 -58.5t97 -129.5h6l23 147 q4 27 26 27h115q25 0 19 -27l-117 -844h106q23 0 21 -24l-12 -88q-2 -25 -27 -25h-184q-86 0 -72 86l12 86h-2q-47 -78 -133 -132t-209 -54zM559 129q143 0 245.5 123t102.5 315q0 145 -68.5 228.5t-174.5 83.5q-145 0 -243.5 -119t-98.5 -320q0 -137 65.5 -224t171.5 -87z " glyph-name="abreve.salt" horiz-adv-x="1183"/><glyph d="M467 1118q-23 -16 -37 4l-49 62q-14 23 8 39l340 276q14 10 23 10q10 0 20 -10l264 -276q18 -23 0 -39l-57 -54q-23 -23 -37 -4l-205 209zM518 -14q-162 0 -266.5 121.5t-104.5 312.5q0 268 140.5 435t369.5 167q119 0 192 -58.5t97 -129.5h6l23 147q4 27 26 27h115 q25 0 19 -27l-117 -844h106q23 0 21 -24l-12 -88q-2 -25 -27 -25h-184q-86 0 -72 86l12 86h-2q-47 -78 -133 -132t-209 -54zM559 129q143 0 245.5 123t102.5 315q0 145 -68.5 228.5t-174.5 83.5q-145 0 -243.5 -119t-98.5 -320q0 -137 65.5 -224t171.5 -87z" glyph-name="acircumflex.salt" horiz-adv-x="1183"/><glyph d="M520 1192q-49 0 -83 34t-34 83q0 59 42 99t100 40q47 0 80.5 -35t33.5 -86q0 -55 -40 -95t-99 -40zM905 1192q-49 0 -83 34t-34 83q0 59 42 99t100 40q47 0 80.5 -35t33.5 -86q0 -55 -40 -95t-99 -40zM518 -14q-162 0 -266.5 121.5t-104.5 312.5q0 268 140.5 435 t369.5 167q119 0 192 -58.5t97 -129.5h6l23 147q4 27 26 27h115q25 0 19 -27l-117 -844h106q23 0 21 -24l-12 -88q-2 -25 -27 -25h-184q-86 0 -72 86l12 86h-2q-47 -78 -133 -132t-209 -54zM559 129q143 0 245.5 123t102.5 315q0 145 -68.5 228.5t-174.5 83.5 q-145 0 -243.5 -119t-98.5 -320q0 -137 65.5 -224t171.5 -87z" glyph-name="adieresis.salt" horiz-adv-x="1183"/><glyph d="M518 -14q-162 0 -266.5 121.5t-104.5 312.5q0 268 140.5 435t369.5 167q119 0 192 -58.5t97 -129.5h6l23 147q4 27 26 27h115q25 0 19 -27l-117 -844h106q23 0 21 -24l-12 -88q-2 -25 -27 -25h-184q-86 0 -72 86l12 86h-2q-47 -78 -133 -132t-209 -54zM559 129 q143 0 245.5 123t102.5 315q0 145 -68.5 228.5t-174.5 83.5q-145 0 -243.5 -119t-98.5 -320q0 -137 65.5 -224t171.5 -87zM567 -367q-51 0 -84.5 36t-33.5 85q0 59 43 100.5t100 41.5q49 0 83 -36t34 -87q0 -59 -41.5 -99.5t-100.5 -40.5z" glyph-name="uni1EA1.salt" horiz-adv-x="1183"/><glyph d="M782 1112l-290 274q-20 18 0 39l77 76q20 20 37 4l277 -291q18 -18 -2 -38l-60 -60q-23 -22 -39 -4zM518 -14q-162 0 -266.5 121.5t-104.5 312.5q0 268 140.5 435t369.5 167q119 0 192 -58.5t97 -129.5h6l23 147q4 27 26 27h115q25 0 19 -27l-117 -844h106q23 0 21 -24 l-12 -88q-2 -25 -27 -25h-184q-86 0 -72 86l12 86h-2q-47 -78 -133 -132t-209 -54zM559 129q143 0 245.5 123t102.5 315q0 145 -68.5 228.5t-174.5 83.5q-145 0 -243.5 -119t-98.5 -320q0 -137 65.5 -224t171.5 -87z" glyph-name="agrave.salt" horiz-adv-x="1183"/><glyph d="M422 1225q-27 0 -21 26l13 86q4 29 28 29h580q27 0 22 -29l-12 -86q-6 -27 -31 -26h-579zM518 -14q-162 0 -266.5 121.5t-104.5 312.5q0 268 140.5 435t369.5 167q119 0 192 -58.5t97 -129.5h6l23 147q4 27 26 27h115q25 0 19 -27l-117 -844h106q23 0 21 -24l-12 -88 q-2 -25 -27 -25h-184q-86 0 -72 86l12 86h-2q-47 -78 -133 -132t-209 -54zM559 129q143 0 245.5 123t102.5 315q0 145 -68.5 228.5t-174.5 83.5q-145 0 -243.5 -119t-98.5 -320q0 -137 65.5 -224t171.5 -87z" glyph-name="amacron.salt" horiz-adv-x="1183"/><glyph d="M1124 137q23 0 21 -24l-12 -88q-2 -25 -27 -25h-23q-152 -98 -151 -213q0 -63 53 -63q33 0 62 18q27 16 36 -6l25 -60q10 -23 -8 -32q-63 -43 -144 -43q-158 0 -157 149q0 86 53 154.5t111 95.5h-41q-86 0 -72 86l12 86h-2q-47 -78 -133 -132t-209 -54 q-162 0 -266.5 121.5t-104.5 312.5q0 268 140.5 435t369.5 167q119 0 192 -58.5t97 -129.5h6l23 147q4 27 26 27h115q25 0 19 -27l-117 -844h106zM559 129q143 0 245.5 123t102.5 315q0 145 -68.5 228.5t-174.5 83.5q-145 0 -243.5 -119t-98.5 -320q0 -137 65.5 -224 t171.5 -87z" glyph-name="aogonek.salt" horiz-adv-x="1183"/><glyph d="M711 1135q-74 0 -124 52t-50 126q0 94 58 152.5t146 58.5q76 0 126.5 -55.5t50.5 -129.5q0 -88 -60.5 -146t-146.5 -58zM723 1251q31 0 52.5 23.5t21.5 58.5q0 31 -17.5 52.5t-44.5 21.5q-35 0 -56.5 -22.5t-21.5 -61.5q0 -29 19.5 -50.5t46.5 -21.5zM518 -14 q-162 0 -266.5 121.5t-104.5 312.5q0 268 140.5 435t369.5 167q119 0 192 -58.5t97 -129.5h6l23 147q4 27 26 27h115q25 0 19 -27l-117 -844h106q23 0 21 -24l-12 -88q-2 -25 -27 -25h-184q-86 0 -72 86l12 86h-2q-47 -78 -133 -132t-209 -54zM559 129q143 0 245.5 123 t102.5 315q0 145 -68.5 228.5t-174.5 83.5q-145 0 -243.5 -119t-98.5 -320q0 -137 65.5 -224t171.5 -87z" glyph-name="aring.salt" horiz-adv-x="1183"/><glyph d="M711 1135q-74 0 -124 52t-50 126q0 94 58 152.5t146 58.5h7l264 340q18 23 39 6l75 -66q8 -6 7.5 -19t-9.5 -22l-254 -297q47 -53 48 -127q0 -88 -60.5 -146t-146.5 -58zM735 1407q-35 0 -56.5 -22.5t-21.5 -61.5q0 -29 19.5 -50.5t46.5 -21.5q31 0 52.5 23.5t21.5 58.5 q0 31 -17.5 52.5t-44.5 21.5zM1124 137q23 0 21 -24l-12 -88q-2 -25 -27 -25h-184q-86 0 -72 86l12 86h-2q-47 -78 -133 -132t-209 -54q-162 0 -266.5 121.5t-104.5 312.5q0 268 140.5 435t369.5 167q119 0 192 -58.5t97 -129.5h6l23 147q4 27 26 27h115q25 0 19 -27 l-117 -844h106zM559 129q143 0 245.5 123t102.5 315q0 145 -68.5 228.5t-174.5 83.5q-145 0 -243.5 -119t-98.5 -320q0 -137 65.5 -224t171.5 -87z" glyph-name="aringacute.salt" horiz-adv-x="1183"/><glyph d="M406 1157q-20 0 -21 19q0 104 54.5 172.5t164.5 68.5q70 0 140.5 -52t105.5 -52q72 0 80 117q0 25 26 24h78q23 0 23 -20q0 -260 -217 -260q-72 0 -138.5 52t-105.5 52q-76 0 -84 -96q-4 -25 -29 -25h-77zM518 -14q-162 0 -266.5 121.5t-104.5 312.5q0 268 140.5 435 t369.5 167q119 0 192 -58.5t97 -129.5h6l23 147q4 27 26 27h115q25 0 19 -27l-117 -844h106q23 0 21 -24l-12 -88q-2 -25 -27 -25h-184q-86 0 -72 86l12 86h-2q-47 -78 -133 -132t-209 -54zM559 129q143 0 245.5 123t102.5 315q0 145 -68.5 228.5t-174.5 83.5 q-145 0 -243.5 -119t-98.5 -320q0 -137 65.5 -224t171.5 -87z" glyph-name="atilde.salt" horiz-adv-x="1183"/><glyph d="M1124 137q27 0 23 -24l-12 -88q-6 -25 -31 -25h-381q-23 0 -21 25l13 88q2 25 28 24h105l67 486q16 117 -32.5 184t-151.5 67q-178 0 -276 -182l-78 -555h104q23 0 21 -24l-13 -88q-2 -25 -26 -25h-385q-20 0 -19 25l13 88q2 25 26 24h109l168 1196h-109q-25 0 -20 25 l12 88q4 25 27 24h237q23 0 21 -24l-66 -471l-18 -111h6q111 158 311 158q164 0 251 -103.5t63 -275.5l-72 -506h106z" glyph-name="h.salt" horiz-adv-x="1173"/><glyph d="M1124 137q27 0 23 -24l-12 -88q-6 -25 -31 -25h-381q-23 0 -21 25l13 88q2 25 28 24h105l67 486q16 117 -32.5 184t-151.5 67q-178 0 -276 -182l-78 -555h104q23 0 21 -24l-13 -88q-2 -25 -26 -25h-385q-20 0 -19 25l13 88q2 25 26 24h109l133 948h-168q-29 0 -20 29 l12 82q4 27 29 27h165l17 110h-109q-25 0 -20 25l12 88q4 25 27 24h237q23 0 21 -24l-31 -223h172q31 0 27 -27l-13 -82q-6 -29 -32 -29h-172l-17 -110l-18 -111h6q111 158 311 158q164 0 251 -103.5t63 -275.5l-72 -506h106z" glyph-name="hbar.salt" horiz-adv-x="1173"/><glyph d="M215 1581l-45 64q-14 23 8 38l328 252q14 10 22 11q10 0 21 -11l270 -260q18 -18 0 -39l-57 -55q-18 -20 -37 -2l-211 193l-262 -195q-21 -16 -37 4zM1124 137q27 0 23 -24l-12 -88q-6 -25 -31 -25h-381q-23 0 -21 25l13 88q2 25 28 24h105l67 486q16 117 -32.5 184 t-151.5 67q-178 0 -276 -182l-78 -555h104q23 0 21 -24l-13 -88q-2 -25 -26 -25h-385q-20 0 -19 25l13 88q2 25 26 24h109l168 1196h-109q-25 0 -20 25l12 88q4 25 27 24h237q23 0 21 -24l-66 -471l-18 -111h6q111 158 311 158q164 0 251 -103.5t63 -275.5l-72 -506h106z " glyph-name="hcircumflex.salt" horiz-adv-x="1173"/><glyph d="M1182 1008q23 0 18 -25l-12 -88q-4 -25 -27 -25h-92l-334 -274l258 -459h119q23 0 21 -24l-13 -88q-2 -25 -26 -25h-392q-23 0 -20 25l12 88q2 25 27 24h94l-205 357l-209 -168l-26 -189h108q20 0 19 -24l-13 -88q-2 -25 -26 -25h-385q-20 0 -19 25l13 88q2 25 26 24h109 l168 1196h-109q-25 0 -20 25l12 88q4 25 27 24h254q23 0 20 -24l-131 -938l432 362h-78q-25 0 -20 25l12 88q4 25 27 25h381z" glyph-name="k.salt" horiz-adv-x="1122"/><glyph d="M1182 1008q23 0 18 -25l-12 -88q-4 -25 -27 -25h-92l-334 -274l258 -459h119q23 0 21 -24l-13 -88q-2 -25 -26 -25h-392q-23 0 -20 25l12 88q2 25 27 24h94l-205 357l-209 -168l-26 -189h108q20 0 19 -24l-13 -88q-2 -25 -26 -25h-385q-20 0 -19 25l13 88q2 25 26 24h109 l168 1196h-109q-25 0 -20 25l12 88q4 25 27 24h254q23 0 20 -24l-131 -938l432 362h-78q-25 0 -20 25l12 88q4 25 27 25h381zM549 -86q55 0 88 -40t33 -120q0 -145 -73 -214.5t-171 -69.5q-14 0 -12 14l8 63q4 12 14 13q33 0 68 19.5t41 51.5q2 8 2 23l-8 -2h-17 q-45 0 -79.5 33.5t-34.5 85.5q0 66 39 104.5t102 38.5z" glyph-name="kcommaaccent.salt" horiz-adv-x="1122"/></font>
</defs>
</svg>
