<?xml version="1.0" standalone="no"?>
<!DOCTYPE svg PUBLIC "-//W3C//DTD SVG 1.1//EN" "http://www.w3.org/Graphics/SVG/1.1/DTD/svg11.dtd">
<svg xmlns="http://www.w3.org/2000/svg"><metadata>This SVG WebFont was generated by YouWorkForThem.
Copyright Â© 2017 by Daniel Hernandez. All rights reserved.</metadata><defs><font horiz-adv-x="0" id="ywftsvg"><font-face ascent="1638" bbox="-1540.04 -549 2767 2114.16" cap-height="1470" descent="-410" font-family="" font-stretch="normal" font-weight="400" panose-1="0 0 5 0 0 0 0 0 0 0" underline-position="0" underline-thickness="0" unicode-range="U+0020-FB02" units-per-em="2048" x-height="1008"/><missing-glyph horiz-adv-x="1024"/><glyph d="M1270 137q25 0 24 -24v-88q0 -25 -24 -25h-400q-25 0 -24 25v88q0 25 24 24h115v733h-588v-733h205q25 0 25 -24v-88q0 -25 -25 -25h-489q-25 0 -25 25v88q0 25 25 24h114v733h-135q-25 0 -24 25v88q0 25 24 25h135v125q0 158 89.5 255t230.5 97q133 0 213 -64 q23 -18 8 -41l-39 -69q-6 -12 -20.5 -13.5t-22.5 5.5q-53 37 -121 36q-168 0 -168 -184v-147h731q27 0 27 -25v-846h115zM1174 1335q0 -53 -39 -91t-93 -38q-55 0 -93 38t-38 91q0 55 38 94t93 39q53 0 92.5 -39t39.5 -94z" glyph-name="uniFB01" horiz-adv-x="1353" unicode="fi"/><glyph d="M113 0q-25 0 -25 25v88q0 25 25 24h114v733h-135q-25 0 -24 25v88q0 25 24 25h135v125q0 158 89.5 255t230.5 97q133 0 213 -64q23 -18 8 -41l-39 -69q-6 -12 -20.5 -13.5t-22.5 5.5q-53 37 -121 36q-168 0 -168 -184v-147h250q25 0 25 -25v-88q0 -25 -25 -25h-250v-733 h205q25 0 25 -24v-88q0 -25 -25 -25h-489zM864 0q-27 0 -26 25v88q0 25 26 24h113v1196h-113q-27 0 -26 25v88q0 25 26 24h228q55 0 55 -51v-1282h113q27 0 26 -24v-88q0 -25 -26 -25h-396z" glyph-name="uniFB02" horiz-adv-x="1345" unicode="fl"/><glyph d="M1509 1421q20 -18 9 -41l-39 -69q-6 -12 -20.5 -13.5t-22.5 5.5q-53 37 -121 36q-168 0 -168 -184v-147h250q25 0 24 -25v-88q0 -25 -24 -25h-250v-733h205q25 0 24 -24v-88q0 -25 -24 -25h-490q-25 0 -24 25v88q0 25 24 24h115v733h-580v-733h205q25 0 25 -24v-88 q0 -25 -25 -25h-489q-25 0 -25 25v88q0 25 25 24h114v733h-135q-25 0 -24 25v88q0 25 24 25h135v125q0 158 89.5 255t230.5 97q133 0 213 -64q23 -18 8 -41l-39 -69q-6 -12 -20.5 -13.5t-22.5 5.5q-53 37 -121 36q-168 0 -168 -184v-147h580v125q0 158 89 255t230 97 q139 -1 213 -64z" glyph-name="f_f.liga" horiz-adv-x="1478" unicode="ff"/><glyph d="M2019 137q25 0 25 -24v-88q0 -25 -25 -25h-399q-25 0 -25 25v88q0 25 25 24h115v733h-588v-733h205q25 0 24 -24v-88q0 -25 -24 -25h-490q-25 0 -24 25v88q0 25 24 24h115v733h-580v-733h205q25 0 25 -24v-88q0 -25 -25 -25h-489q-25 0 -25 25v88q0 25 25 24h114v733 h-135q-25 0 -24 25v88q0 25 24 25h135v125q0 158 89.5 255t230.5 97q133 0 213 -64q23 -18 8 -41l-39 -69q-6 -12 -20.5 -13.5t-22.5 5.5q-53 37 -121 36q-80 0 -124 -46t-44 -138v-147h580v125q0 158 89 255t230 97q139 0 213 -64q20 -18 9 -41l-39 -69q-6 -12 -20.5 -13.5 t-22.5 5.5q-53 37 -121 36q-168 0 -168 -184v-147h731q27 0 27 -25v-846h114zM1923 1335q0 -53 -39 -91t-92 -38q-55 0 -93 38t-38 91q0 55 38 94t93 39q53 0 92 -39t39 -94z" glyph-name="f_f_i.liga" horiz-adv-x="2103" unicode="ffi"/><glyph d="M113 0q-25 0 -25 25v88q0 25 25 24h114v733h-135q-25 0 -24 25v88q0 25 24 25h135v125q0 158 89.5 255t230.5 97q133 0 213 -64q23 -18 8 -41l-39 -69q-6 -12 -20.5 -13.5t-22.5 5.5q-53 37 -121 36q-80 0 -124 -46t-44 -138v-147h580v125q0 158 89 255t230 97 q139 0 213 -64q20 -18 9 -41l-39 -69q-6 -12 -20.5 -13.5t-22.5 5.5q-53 37 -121 36q-168 0 -168 -184v-147h250q25 0 24 -25v-88q0 -25 -24 -25h-250v-733h205q25 0 24 -24v-88q0 -25 -24 -25h-490q-25 0 -24 25v88q0 25 24 24h115v733h-580v-733h205q25 0 25 -24v-88 q0 -25 -25 -25h-489zM1614 0q-27 0 -27 25v88q0 25 27 24h112v1196h-112q-27 0 -27 25v88q0 25 27 24h227q31 0 43 -12t12 -39v-1282h113q27 0 27 -24v-88q0 -25 -27 -25h-395z" glyph-name="f_f_l.liga" horiz-adv-x="2095" unicode="ffl"/><glyph glyph-name=".notdef" horiz-adv-x="1024"/><glyph glyph-name="glyph1"/><glyph glyph-name="glyph2" horiz-adv-x="681"/><glyph glyph-name="space" horiz-adv-x="528" unicode=" "/><glyph d="M248 385q-27 0 -27 25l-18 1122q0 25 26 24h129q25 0 25 -24l-18 -1122q0 -25 -25 -25h-92zM426 117q0 -57 -38 -94t-95 -37q-53 0 -92 36.5t-39 94.5q0 53 39 91t92 38q57 0 95 -38t38 -91z" glyph-name="exclam" horiz-adv-x="585" unicode="!"/><glyph d="M164 1087q-29 0 -29 27l-8 416q0 27 27 26h88q29 0 28 -26l-10 -416q0 -27 -29 -27h-67zM434 1087q-29 0 -28 27l-9 416q0 27 27 26h88q29 0 29 -26l-11 -416q0 -27 -28 -27h-68z" glyph-name="quotedbl" horiz-adv-x="667" unicode="&quot;"/><glyph d="M831 293l-79 -283q-6 -25 -33 -24h-101q-25 0 -18 24l80 283h-268l-78 -283q-6 -25 -33 -24h-100q-25 0 -19 24l78 283h-164q-25 0 -24 24v76q0 25 24 25h201l74 276h-162q-27 0 -27 27v74q0 27 27 26h199l84 285q8 27 32 27h101q27 0 18 -27l-84 -285h268l82 285 q8 27 35 27h100q25 0 17 -27l-84 -285h166q25 0 24 -26v-74q0 -27 -24 -27h-203l-74 -276h166q25 0 25 -25v-76q0 -25 -25 -24h-201zM791 694h-269l-76 -276h269z" glyph-name="numbersign" horiz-adv-x="1245" unicode="#"/><glyph d="M1159 403q0 -152 -103.5 -259t-301.5 -115v-160q0 -25 -27 -25h-109q-25 0 -24 25v170q-221 43 -332 217l2 -190q0 -25 -24 -25h-111q-25 0 -25 25v450q0 23 25 23h125q23 0 22 -23v-29q0 -12 12.5 -44.5t45.5 -78t78 -86t120.5 -69.5t165.5 -29q145 0 217 58.5t72 160.5 q0 47 -20.5 86t-48 64.5t-80 48.5t-93 35t-110.5 31q-61 16 -101 27t-96.5 31.5t-92.5 41t-76 53.5t-63.5 69t-38.5 86t-15 109q0 158 121.5 261.5t320.5 107.5v152q0 25 24 24h109q27 0 27 -24v-168q152 -37 231 -144l-2 125q0 25 23 25h112q25 0 25 -25v-422 q0 -25 -25 -24h-125q-25 0 -24 24v56q0 35 -19.5 74.5t-57.5 79.5t-108.5 66.5t-162.5 26.5q-295 0 -295 -213q0 -27 6 -49t15 -39.5t28.5 -35t34 -28.5t44 -25.5t46 -21.5t54.5 -19.5t54.5 -16.5t58.5 -16.5t56 -16.5q84 -25 138 -43t116.5 -53t97.5 -75t59.5 -101.5 t24.5 -139.5z" glyph-name="dollar" horiz-adv-x="1271" unicode="$"/><glyph d="M481 -55q-27 4 -14 28l704 1536q10 23 35 19l107 -15q23 -2 12 -26l-704 -1536q-10 -23 -37 -19zM416 745q-162 0 -257.5 101.5t-95.5 273.5q0 166 96.5 265.5t256.5 99.5q158 0 253 -99.5t95 -265.5q0 -174 -93 -274.5t-255 -100.5zM416 895q84 0 130 58.5t46 162.5 t-45 161.5t-131 57.5t-133 -58t-47 -160.5t48 -162t132 -59.5zM1399 -14q-162 0 -257 101t-95 273q0 166 96 265.5t256 99.5q158 0 253 -99.5t95 -265.5q0 -172 -93 -273t-255 -101zM1399 135q84 0 130 58.5t46 162.5q0 106 -45 164t-131 58t-133 -58.5t-47 -162t48 -163 t132 -59.5z" glyph-name="percent" horiz-adv-x="1810" unicode="%"/><glyph d="M1276 745q25 0 24 -24v-94q0 -25 -24 -25h-143q-8 -190 -101 -342l84 -117h127q27 0 27 -24v-94q0 -25 -27 -25h-170q-51 0 -102 68l-47 63q-160 -145 -389 -145q-219 0 -334 112.5t-115 278.5q0 299 311 467q-129 180 -129 313q0 152 100.5 239t254.5 87q137 0 232 -81 t95 -212q0 -143 -75.5 -229.5t-235.5 -165.5l2 -4l301 -410q39 90 39 192v148q0 25 27 24h268zM627 1337q-84 0 -134.5 -47t-50.5 -133t113 -248q123 55 179.5 109.5t56.5 144.5q0 76 -44 125t-120 49zM537 131q188 0 307 109l-361 487q-53 -31 -84.5 -54.5t-70.5 -64.5 t-57.5 -95t-18.5 -122q0 -117 85 -188.5t200 -71.5z" glyph-name="ampersand" horiz-adv-x="1363" unicode="&amp;"/><glyph d="M166 1087q-29 0 -29 27l-8 416q0 27 27 26h88q29 0 28 -26l-10 -416q0 -27 -29 -27h-67z" glyph-name="quotesingle" horiz-adv-x="399" unicode="'"/><glyph d="M100 604q0 186 32 346t85 271.5t123 190.5t145.5 116t151.5 37q27 0 27 -27v-96q0 -27 -27 -27q-137 0 -253 -222t-116 -595q0 -379 116 -595t253 -216q27 0 27 -29v-92q0 -29 -27 -28q-207 0 -372 256.5t-165 709.5z" glyph-name="parenleft" horiz-adv-x="702" unicode="("/><glyph d="M66 -362q-27 0 -27 28v92q0 29 27 29q137 0 252.5 216t115.5 595q0 373 -115.5 595t-252.5 222q-27 0 -27 27v96q0 27 27 27q76 0 151.5 -37t145 -116t123 -190.5t85 -271t31.5 -346.5q0 -453 -164.5 -709.5t-371.5 -256.5z" glyph-name="parenright" horiz-adv-x="702" unicode=")"/><glyph d="M406 860q-12 0 -20.5 8.5t-6.5 18.5l22 231l-139 -182q-20 -23 -41 -2l-47 49q-23 23 2 41l184 141l-235 -24q-12 -2 -20.5 6t-8.5 20v70q0 12 8.5 20.5t20.5 6.5l235 -29l-186 147q-23 18 0 39l47 49q23 18 39 0l146 -182l-27 232q-2 10 6 18t21 8h69q12 0 21.5 -7 t7.5 -19l-25 -234l142 184q18 23 38 0l50 -47q23 -23 0 -41l-185 -149l232 33q12 2 20 -6.5t8 -20.5v-70q0 -29 -28 -28l-226 22l179 -139q20 -18 0 -39l-50 -49q-20 -23 -38 0l-146 178l29 -227q2 -12 -7.5 -19.5t-21.5 -7.5h-69z" glyph-name="asterisk" horiz-adv-x="882" unicode="*"/><glyph d="M436 139q-25 0 -24 27v321h-312q-29 0 -28 27v104q0 27 28 27h312v334q0 27 24 27h117q27 0 27 -27v-334h311q29 0 29 -27v-104q0 -27 -29 -27h-311v-321q0 -27 -27 -27h-117z" glyph-name="plus" horiz-adv-x="991" unicode="+"/><glyph d="M176 -238q-12 0 -12 11v67q0 12 12 13q35 0 70 30.5t35 81.5q0 12 -2 25q-12 -4 -33 -4q-51 0 -89 36.5t-38 94.5q0 53 39 91t92 38q61 0 102 -51.5t41 -153.5q0 -139 -64.5 -209t-152.5 -70z" glyph-name="comma" horiz-adv-x="512" unicode=","/><glyph d="M166 455q-29 0 -29 26v105q0 27 29 26h637q27 0 26 -26v-105q0 -27 -26 -26h-637z" glyph-name="hyphen" horiz-adv-x="966" unicode="-"/><glyph d="M379 117q0 -57 -38 -94t-95 -37q-55 0 -93 36.5t-38 94.5q0 53 39 91t92 38q55 0 94 -38t39 -91z" glyph-name="period" horiz-adv-x="495" unicode="."/><glyph d="M86 -152q-29 0 -18 25l495 1659q6 25 33 24h121q25 0 18 -24l-495 -1659q-10 -25 -33 -25h-121z" glyph-name="slash" horiz-adv-x="804" unicode="/"/><glyph d="M698.5 -14q-278.5 0 -435.5 207.5t-157 549.5q0 328 160 534t432.5 206t432 -206t159.5 -534q0 -342 -156.5 -549.5t-435 -207.5zM698.5 137q194.5 0 303 157t108.5 443q0 281 -106.5 437.5t-305 156.5t-305 -156.5t-106.5 -437.5q0 -287 108.5 -443.5t303 -156.5z" glyph-name="zero" horiz-adv-x="1396" unicode="0"/><glyph d="M139 0q-27 0 -26 25v94q0 25 26 24h336v1147l-330 -149q-25 -10 -34 12l-41 92q-10 23 12 33l371 174q39 18 71 18h92q27 0 27 -24v-1303h301q25 0 25 -24v-94q0 -25 -25 -25h-805z" glyph-name="one" horiz-adv-x="989" unicode="1"/><glyph d="M96 0q-27 0 -26 25v59q0 70 36.5 137.5t96 121.5t136.5 111.5t155.5 106.5t155.5 106.5t136.5 112t96.5 121t37 135.5q0 133 -90.5 214t-235.5 81q-109 0 -183.5 -34.5t-170.5 -135.5q-16 -18 -35 -2l-82 72q-18 16 -2 35q102 117 213.5 167t259.5 50q221 0 363.5 -123 t142.5 -313q0 -109 -54.5 -209.5t-138.5 -173t-184 -145.5t-190.5 -128t-162 -118.5t-91.5 -120.5l688 -2v147q0 25 24 25h117q27 0 27 -25v-272q0 -25 -27 -25h-1012z" glyph-name="two" horiz-adv-x="1241" unicode="2"/><glyph d="M563 -14q-322 0 -495 237q-16 23 2 41l80 74q18 16 34 0q0 -2 24.5 -28.5t32 -34t34 -32t43 -33.5t47 -26.5t58.5 -25.5t64.5 -14.5t75.5 -6.5q172 0 265.5 80t93.5 213q0 260 -353 260h-75q-31 0 -31 31v88q0 31 29 31h61q41 0 79 5t84 20.5t79.5 41t57.5 71.5t24 105 q0 104 -75 176t-222 72q-96 0 -175 -33.5t-178 -134.5q-16 -16 -34 0l-78 72q-18 16 -2 35q180 213 462 213q123 0 220.5 -35t151.5 -91.5t82 -119.5t28 -127q0 -84 -32 -152.5t-75 -105.5t-82 -57.5t-61 -20.5v-2q29 0 74 -19.5t97 -57.5t88 -111.5t36 -165.5 q0 -199 -147.5 -315.5t-391.5 -116.5z" glyph-name="three" horiz-adv-x="1206" unicode="3"/><glyph d="M567 0q-25 0 -24 25v94q0 25 24 24h236v314h-733q-25 0 -25 24v97q0 47 29 84q281 369 413 811q8 23 33 22h142q14 0 21 -10t3 -23q-154 -473 -440 -862h557v477q0 25 26 25h117q27 0 27 -25v-477h180q27 0 27 -27v-92q0 -25 -27 -24h-180v-314h182q25 0 25 -24v-94 q0 -25 -25 -25h-588z" glyph-name="four" horiz-adv-x="1257" unicode="4"/><glyph d="M588 -14q-317 0 -498 239q-16 20 0 35l84 78q18 18 37 0q2 -2 26.5 -29.5t36 -39t40 -37t53 -38t59.5 -27.5t76 -22.5t86 -7.5q170 0 265 87t95 257q0 135 -96 217t-264 82q-37 0 -78 -4t-69.5 -10t-66.5 -16.5t-55.5 -15.5t-50 -16t-35.5 -11q-63 -20 -63 34v705 q0 25 27 24h819q25 0 24 -24v-262q0 -25 -24 -25h-119q-25 0 -25 25v137h-532v-430q2 0 31.5 8t61.5 14.5t85 12.5t107 6q238 0 370.5 -130t132.5 -329q0 -223 -147 -355t-393 -132z" glyph-name="five" horiz-adv-x="1216" unicode="5"/><glyph d="M684 -14q-123 0 -222.5 36.5t-181 118.5t-126.5 229.5t-45 352.5q0 350 155.5 555t437.5 205q262 0 428 -191q16 -18 -2 -35l-81 -73q-18 -14 -35 2q-80 82 -149.5 113.5t-157.5 31.5q-190 0 -306 -153.5t-116 -436.5v-26h4q55 90 162.5 145t238.5 55q221 0 367.5 -124.5 t146.5 -335.5q0 -199 -143.5 -334t-374.5 -135zM676 137q166 0 259 85t93 233q0 150 -101.5 229.5t-251 79.5t-250.5 -80t-101 -229q0 -141 97 -229.5t255 -88.5z" glyph-name="six" horiz-adv-x="1288" unicode="6"/><glyph d="M313 0q-33 0 -16 35l625 1282h-697v-174q0 -25 -26 -25h-117q-25 0 -25 25v303q0 25 25 24h1001q25 0 25 -24v-84q0 -55 -35 -129l-577 -1206q-12 -27 -37 -27h-146z" glyph-name="seven" horiz-adv-x="1148" unicode="7"/><glyph d="M651 -14q-254 0 -401.5 117.5t-147.5 304.5q0 98 37 176t88.5 119.5t96.5 62t73 20.5v5q-61 0 -150 85t-89 232q0 143 122.5 258t368.5 117q129 0 228.5 -35t153.5 -92.5t82 -119.5t28 -128q0 -147 -89 -232t-151 -85v-5q29 0 74 -20.5t96 -62t88 -119.5t37 -176 q0 -186 -146.5 -304t-398.5 -118zM645 842q315 0 316 254q0 98 -79 167.5t-232.5 67.5t-232.5 -69.5t-79 -165.5q0 -78 30.5 -132.5t83 -79t97.5 -33.5t96 -9zM649 137q174 0 270.5 76t96.5 211q0 121 -91 198.5t-249 77.5h-53q-158 0 -249 -76.5t-91 -199.5q0 -135 96 -211 t270 -76z" glyph-name="eight" horiz-adv-x="1298" unicode="8"/><glyph d="M608 1483q123 0 222.5 -37t181.5 -119t127 -229.5t45 -352.5q0 -172 -32 -307t-99.5 -238.5t-180 -158.5t-264.5 -55q-281 0 -463 211q-16 16 2 34l82 78q18 16 37 -2q84 -90 163 -130t177 -40q211 0 307.5 138.5t96.5 424.5v12v17h-4q-55 -90 -163 -146.5t-239 -56.5 q-223 0 -368.5 129t-145.5 359q0 199 143.5 334t374.5 135zM604 1331q-158 0 -249 -86t-91 -231q0 -166 100.5 -251t251.5 -85q94 0 173 30.5t133.5 104.5t54.5 180q0 164 -107.5 251t-265.5 87z" glyph-name="nine" horiz-adv-x="1294" unicode="9"/><glyph d="M401 868q0 -55 -37.5 -92t-95.5 -37q-55 0 -93 37t-38 92q0 53 39 92t92 39q55 0 94 -38t39 -93zM401 117q0 -57 -37.5 -94t-95.5 -37q-55 0 -93 36.5t-38 94.5q0 53 39 91t92 38q55 0 94 -38t39 -91z" glyph-name="colon" horiz-adv-x="538" unicode=":"/><glyph d="M408 868q0 -55 -38 -92t-96 -37q-55 0 -93 37t-38 92q0 53 39 92t92 39q55 0 94.5 -38t39.5 -93zM197 -238q-12 0 -13 11v67q0 12 13 13q35 0 69.5 30.5t34.5 81.5q0 12 -2 25q-12 -4 -33 -4q-51 0 -89 36.5t-38 94.5q0 53 39 91t92 38q61 0 102.5 -51.5t41.5 -153.5 q0 -139 -64.5 -209t-152.5 -70z" glyph-name="semicolon" horiz-adv-x="555" unicode=";"/><glyph d="M786 88l-694 371q-31 16 -31 43v39q0 27 31 43l694 372q12 6 20.5 2t8.5 -18v-121q0 -29 -29 -43l-497 -254l497 -254q29 -14 29 -43v-121q0 -12 -8.5 -17t-20.5 1z" glyph-name="less" horiz-adv-x="944" unicode="&lt;"/><glyph d="M168 645q-27 0 -27 29v102q0 29 27 29h655q27 0 27 -29v-102q0 -29 -27 -29h-655zM168 246q-27 0 -27 26v105q0 27 27 26h655q27 0 27 -26v-105q0 -27 -27 -26h-655z" glyph-name="equal" horiz-adv-x="991" unicode="="/><glyph d="M156 88q-12 -6 -20.5 -1t-8.5 17v121q0 29 29 43l497 254l-497 254q-29 14 -29 43v121q0 14 8 18.5t21 -2.5l694 -372q31 -16 31 -43v-39q0 -27 -31 -43z" glyph-name="greater" horiz-adv-x="944" unicode=">"/><glyph d="M418 385q-27 0 -27 25q0 100 45 180t108.5 133t127 103.5t108.5 119t45 150.5q0 125 -74.5 200.5t-209.5 75.5q-147 0 -225 -97t-83 -253q0 -25 -24 -25h-119q-27 0 -27 25q0 207 120 354.5t358 147.5q217 0 336.5 -120t119.5 -302q0 -113 -45 -200t-109.5 -140 t-128 -102.5t-108.5 -112t-45 -137.5q0 -25 -26 -25h-117zM610 117q0 -57 -37.5 -94t-95.5 -37q-53 0 -91 36.5t-38 94.5q0 53 38 91t91 38q57 0 95 -38t38 -91z" glyph-name="question" horiz-adv-x="1073" unicode="?"/><glyph d="M1313 -123q10 -23 -13 -33q-16 -12 -51 -28.5t-156.5 -45t-261.5 -28.5q-334 0 -534.5 204t-200.5 521q0 352 232.5 582.5t562.5 230.5q305 0 484 -170t179 -422q0 -258 -138 -403.5t-316 -145.5q-61 0 -91 25.5t-24 79.5l2 14l-4 -4q-2 -6 -6 -12t-11.5 -15.5 t-18.5 -19.5t-23.5 -20.5t-28.5 -18.5t-35.5 -15.5t-43 -11.5t-50.5 -4q-106 0 -191.5 81t-85.5 239q0 209 109 330.5t260 121.5q135 0 201 -84l12 41q6 23 27 23h76q25 0 20 -25l-76 -596h17q113 0 193.5 109.5t80.5 306.5q0 201 -141.5 327t-376.5 126 q-276 0 -458.5 -193.5t-182.5 -476.5q0 -258 164 -420t422 -162q123 0 225 20.5t143 41.5l41 20q23 14 33 -12zM1038 700q-14 27 -59 56.5t-115 29.5q-98 0 -164.5 -86t-66.5 -225q0 -113 49 -164t121 -51q84 0 143.5 70.5t69.5 163.5z" glyph-name="at" horiz-adv-x="1660" unicode="@"/><glyph d="M1053 0q-27 0 -27 25v94q0 25 27 24h143l-133 357h-580l-133 -357h146q27 0 26 -24v-94q0 -25 -26 -25h-451q-25 0 -25 25v94q0 25 25 24h137l447 1184h-115q-27 0 -27 25v94q0 25 27 24h268q49 0 75 -20t44 -68l471 -1239h135q27 0 27 -24v-94q0 -25 -27 -25h-454z M778 1268h-14l-225 -621h471z" glyph-name="A" horiz-adv-x="1544" unicode="A"/><glyph d="M121 0q-25 0 -25 25v94q0 25 25 24h158v1184h-158q-25 0 -25 25v94q0 25 25 24h637q203 0 324.5 -103t121.5 -263q0 -104 -53 -190.5t-147 -125.5q139 -43 209.5 -139t70.5 -223q0 -188 -134 -307t-370 -119h-659zM449 827l282 2q129 2 214 69t85 179q0 133 -85 191.5 t-208 58.5h-288v-500zM449 143h313q348 0 348 283q0 123 -94 192.5t-246 69.5h-321v-545z" glyph-name="B" horiz-adv-x="1376" unicode="B"/><glyph d="M1419 373q16 -14 4 -41q-14 -29 -39.5 -65t-80 -88t-121 -93t-169 -70.5t-216.5 -29.5q-307 0 -502 207.5t-195 549.5q0 168 57.5 309.5t153 234.5t219 144.5t258.5 51.5q328 0 463 -211l-2 174q0 25 23 24h108q25 0 25 -24v-445q0 -27 -25 -26h-118q-27 0 -27 26v15 q0 49 -29.5 103.5t-83 103.5t-139.5 80.5t-186.5 31.5t-192.5 -37.5t-165.5 -110.5t-118 -188.5t-44.5 -261.5q0 -145 43 -262t118 -189.5t169 -112.5t199.5 -40t193.5 30t146.5 78t93.5 88t59 85q14 27 37 12z" glyph-name="C" horiz-adv-x="1519" unicode="C"/><glyph d="M121 0q-25 0 -25 25v94q0 25 25 24h158v1184h-158q-25 0 -25 25v94q0 25 25 24h528q354 0 570.5 -195.5t216.5 -537.5q0 -340 -206 -538.5t-544 -198.5h-565zM637 143q307 0 465 149.5t158 440.5q0 281 -159 437.5t-468 156.5h-184v-1184h188z" glyph-name="D" horiz-adv-x="1533" unicode="D"/><glyph d="M121 0q-25 0 -25 25v94q0 25 25 24h158v1184h-158q-25 0 -25 25v94q0 25 25 24h1087q25 0 25 -24v-326q0 -25 -25 -24h-114q-25 0 -25 24v207h-620v-498h520q27 0 26 -24v-96q0 -25 -26 -25h-520v-541h622v205q0 25 27 25h114q25 0 25 -25v-323q0 -25 -25 -25h-1091z" glyph-name="E" horiz-adv-x="1347" unicode="E"/><glyph d="M121 0q-25 0 -25 25v94q0 25 25 24h158v1184h-158q-25 0 -25 25v94q0 25 25 24h1053q27 0 26 -24v-326q0 -25 -26 -24h-115q-25 0 -25 24v207h-585v-518h487q25 0 25 -25v-100q0 -25 -25 -25h-487v-516h233q25 0 25 -24v-94q0 -25 -25 -25h-561z" glyph-name="F" horiz-adv-x="1259" unicode="F"/><glyph d="M1307 0q-25 0 -25 25v143q-178 -182 -477 -182q-309 0 -507 207.5t-198 549.5q0 172 57.5 314.5t155 234.5t222 141.5t262.5 49.5q180 0 289.5 -56.5t164.5 -134.5l-2 154q0 25 23 24h108q25 0 25 -24v-418q0 -25 -25 -24h-118q-27 0 -27 24q0 133 -120 216t-310 83 q-223 0 -376 -160.5t-153 -429.5q0 -141 44.5 -256.5t119 -188.5t171 -112t200.5 -39q303 0 459 203v186h-385q-25 0 -25 27v92q0 27 25 27h524q25 0 25 -27v-624q0 -25 -25 -25h-102z" glyph-name="G" horiz-adv-x="1566" unicode="G"/><glyph d="M1063 0q-23 0 -23 25v94q0 25 23 24h160v516h-774v-516h157q25 0 25 -24v-94q0 -25 -25 -25h-485q-25 0 -25 25v94q0 25 25 24h158v1184h-158q-25 0 -25 25v94q0 25 25 24h485q25 0 25 -24v-94q0 -25 -25 -25h-157v-518h774v518h-158q-25 0 -25 25v94q0 25 25 24h485 q25 0 25 -24v-94q0 -25 -25 -25h-157v-1184h157q25 0 25 -24v-94q0 -25 -25 -25h-487z" glyph-name="H" horiz-adv-x="1671" unicode="H"/><glyph d="M121 0q-25 0 -25 25v94q0 25 25 24h158v1184h-158q-25 0 -25 25v94q0 25 25 24h483q27 0 27 -24v-94q0 -25 -27 -25h-155v-1184h155q27 0 27 -24v-94q0 -25 -27 -25h-483z" glyph-name="I" horiz-adv-x="727" unicode="I"/><glyph d="M305 133q94 0 137 58.5t43 181.5v954h-170q-25 0 -24 25v94q0 25 24 24h496q27 0 27 -24v-94q0 -25 -27 -25h-156v-954q0 -195 -81.5 -291t-256.5 -96q-74 0 -136 20.5t-85.5 36.5t-40.5 33q-20 20 -8 41l47 71q18 27 43 9q86 -64 168 -64z" glyph-name="J" horiz-adv-x="913" unicode="J"/><glyph d="M1253 0q-76 0 -118 92l-197 432q-16 35 -29.5 53.5t-56.5 38t-111 19.5h-292v-492h192q25 0 25 -24v-94q0 -25 -25 -25h-520q-25 0 -25 25v94q0 25 25 24h158v1184h-158q-25 0 -25 25v94q0 25 25 24h485q25 0 25 -24v-94q0 -25 -25 -25h-157v-551h219q217 0 323.5 122 t108.5 429h-158q-25 0 -24 25v94q0 25 24 24h483q25 0 25 -24v-94q0 -25 -25 -25h-157q-2 -457 -285 -608q49 -23 79 -65t62 -111l181 -400h122q27 0 27 -24v-94q0 -25 -27 -25h-174z" glyph-name="K" horiz-adv-x="1507" unicode="K"/><glyph d="M121 0q-25 0 -25 25v94q0 25 25 24h158v1184h-158q-25 0 -25 25v94q0 25 25 24h481q29 0 29 -26v-90q0 -27 -29 -27h-153v-1184h587v205q0 25 25 25h115q27 0 26 -25v-321q0 -27 -28 -27h-1053z" glyph-name="L" horiz-adv-x="1255" unicode="L"/><glyph d="M1288 0q-25 0 -24 25v94q0 25 24 24h142v1110h-3l-401 -1028q-25 -61 -90 -61q-72 0 -94 61l-396 1028h-4v-1110h144q25 0 24 -24v-94q0 -25 -24 -25h-465q-25 0 -25 25v94q0 25 25 24h158v1184h-158q-25 0 -25 25v94q0 25 25 24h338q68 0 94 -67l289 -744l94 -268h8 q61 172 96 264l283 746q27 70 102 69h326q25 0 25 -24v-94q0 -25 -25 -25h-158v-1184h158q25 0 25 -24v-94q0 -25 -25 -25h-463z" glyph-name="M" horiz-adv-x="1871" unicode="M"/><glyph d="M1235 0q-39 0 -61.5 15.5t-43.5 47.5l-581 961l-103 188h-4v-1069h158q27 0 27 -24v-94q0 -25 -27 -25h-479q-25 0 -25 25v94q0 25 25 24h158v1184h-158q-25 0 -25 25v94q0 25 25 24h285q66 0 106 -69l575 -948q29 -47 59 -100.5t44 -82.5l14 -30h4v1087h-157 q-25 0 -25 25v94q0 25 25 24h475q27 0 26 -24v-94q0 -25 -26 -25h-156v-1302q0 -25 -24 -25h-111z" glyph-name="N" horiz-adv-x="1630" unicode="N"/><glyph d="M813 -14q-309 0 -512 210t-203 547q0 172 58.5 313.5t158 233.5t228.5 142.5t270 50.5t269 -50.5t227.5 -142.5t158 -233.5t58.5 -313.5q0 -342 -203 -549.5t-510 -207.5zM812.5 133q105.5 0 200.5 40t171 112.5t121 190.5t45 261q0 145 -47.5 263t-125 189t-172 108.5 t-193.5 37.5t-193.5 -37.5t-172 -108.5t-125 -188.5t-47.5 -263.5q0 -143 45.5 -261t121 -190.5t171 -112.5t201 -40z" glyph-name="O" horiz-adv-x="1624" unicode="O"/><glyph d="M121 0q-25 0 -25 25v94q0 25 25 24h158v1184h-158q-25 0 -25 25v94q0 25 25 24h612q225 0 366.5 -123.5t141.5 -334.5q0 -219 -137 -337t-395 -118h-260v-414h202q25 0 25 -24v-94q0 -25 -25 -25h-530zM711 700q354 0 354 312q0 156 -101.5 235.5t-250.5 79.5h-264v-627 h262z" glyph-name="P" horiz-adv-x="1302" unicode="P"/><glyph d="M1526 -195q6 -18 -15 -30q-16 -8 -44.5 -19.5t-92 -25t-129.5 -13.5q-123 0 -224 31t-162.5 79t-97.5 89t-52 76q-268 37 -439.5 240.5t-171.5 510.5q0 172 58.5 313.5t158 233.5t228.5 142.5t270 50.5t269 -50.5t227.5 -142.5t158 -233.5t58.5 -313.5 q0 -303 -162 -503.5t-422 -243.5q29 -45 103.5 -82t205.5 -37q102 0 207 41q23 8 31 -8zM274 737q0 -143 45.5 -261t121 -190.5t171 -112.5t201 -40t200.5 40t171 112.5t121 190.5t45 261q0 145 -47.5 263t-125 189t-172 108.5t-193.5 37.5t-193.5 -37.5t-172 -108.5 t-125 -189t-47.5 -263z" glyph-name="Q" horiz-adv-x="1624" unicode="Q"/><glyph d="M1171 0q-82 0 -127 88l-206 401q-18 37 -31.5 56.5t-38.5 35t-59 15.5h-260v-453h159q25 0 25 -24v-94q0 -25 -25 -25h-487q-25 0 -25 25v94q0 25 25 24h158v1184h-158q-25 0 -25 25v94q0 25 25 24h633q219 0 355 -111.5t136 -322.5q0 -158 -80 -264t-225 -145 q47 -29 100 -138l174 -346h121q27 0 27 -22v-96q0 -25 -27 -25h-164zM709 737q360 0 360 293q0 297 -360 297h-260v-590h260z" glyph-name="R" horiz-adv-x="1411" unicode="R"/><glyph d="M135 0q-27 0 -26 25v473q0 25 26 24h119q23 0 22 -24v-31q0 -14 13.5 -48t48.5 -83t84 -93t131 -76t180 -32q158 0 234.5 63.5t76.5 174.5q0 53 -21.5 96t-51 69.5t-86 51t-98.5 38t-115 31.5q-68 18 -108 29.5t-101.5 34t-98 43t-79.5 54.5t-67.5 72t-41 90t-16.5 116 q0 168 132 276.5t349 108.5q274 0 401 -170l-2 135q0 25 23 25h108q25 0 25 -25v-440q0 -27 -25 -27h-120q-25 0 -25 27v59q0 37 -20.5 79t-61.5 86t-117.5 72.5t-175.5 28.5q-166 0 -244.5 -62.5t-78.5 -172.5q0 -41 14 -76t45 -61.5t59.5 -45t83 -38t87 -29.5t96.5 -27 q29 -8 43 -12q86 -25 143 -44.5t121.5 -55t102.5 -77.5t63.5 -106.5t25.5 -144.5q0 -166 -115.5 -280.5t-340.5 -114.5q-104 0 -192.5 24.5t-147 66.5t-93 77.5t-59.5 76.5l2 -206q0 -25 -26 -25h-105z" glyph-name="S" horiz-adv-x="1331" unicode="S"/><glyph d="M430 0q-29 0 -29 27v90q0 27 29 26h154v1184h-363v-205q0 -29 -26 -28h-111q-29 0 -29 28v322q0 27 29 26h1167q27 0 27 -26v-322q0 -29 -27 -28h-110q-27 0 -27 28v205h-360v-1184h155q27 0 27 -26v-90q0 -27 -27 -27h-479z" glyph-name="T" horiz-adv-x="1333" unicode="T"/><glyph d="M1176 1327h-156q-27 0 -27 25v94q0 25 27 24h481q25 0 25 -24v-94q0 -25 -25 -25h-158v-776q0 -274 -147 -419.5t-399 -145.5q-264 0 -407.5 143t-143.5 422v776h-158q-25 0 -25 25v94q0 25 25 24h487q25 0 25 -24v-94q0 -25 -25 -25h-157v-782q0 -399 381 -400 q193 0 285 103.5t92 283.5v795z" glyph-name="U" horiz-adv-x="1587" unicode="U"/><glyph d="M745 0q-39 0 -59 18.5t-37 63.5l-479 1245h-131q-25 0 -25 25v94q0 25 25 24h461q25 0 24 -24v-94q0 -25 -24 -25h-144l426 -1141h13l415 1141h-141q-27 0 -27 25v94q0 25 27 24h455q27 0 26 -24v-94q0 -25 -26 -25h-135l-476 -1245q-16 -45 -34.5 -63.5t-57.5 -18.5h-76 z" glyph-name="V" horiz-adv-x="1560" unicode="V"/><glyph d="M600 0q-41 0 -62.5 19.5t-33.5 62.5l-334 1245h-129q-27 0 -27 25v94q0 25 27 24h459q27 0 26 -24v-94q0 -25 -26 -25h-144l279 -1126h12l314 1208q10 35 23 48t44 13h59q31 0 44.5 -13t23.5 -48l315 -1208h13l278 1126h-143q-27 0 -27 25v94q0 25 27 24h453q27 0 26 -24 v-94q0 -25 -26 -25h-134l-333 -1245q-23 -82 -97 -82h-75q-78 0 -99 82l-274 1044h-8l-277 -1044q-20 -82 -98 -82h-76z" glyph-name="W" horiz-adv-x="2109" unicode="W"/><glyph d="M1446 1327h-154l-446 -598l440 -586h158q27 0 26 -24v-94q0 -25 -26 -25h-490q-25 0 -24 25v94q0 25 24 24h127l-354 471l-334 -471h135q25 0 25 -24v-94q0 -25 -25 -25h-489q-25 0 -25 25v94q0 25 25 24h156l440 594l-442 590h-140q-25 0 -24 25v94q0 25 24 24h490 q25 0 24 -24v-94q0 -25 -24 -25h-146l357 -475l342 475h-138q-25 0 -24 25v94q0 25 24 24h488q25 0 24 -24v-94q1 -25 -24 -25z" glyph-name="X" horiz-adv-x="1488" unicode="X"/><glyph d="M461 0q-25 0 -25 25v94q0 25 25 24h160v445l-431 739h-137q-25 0 -24 25v94q0 25 24 24h469q27 0 27 -24v-94q0 -25 -27 -25h-135l324 -584h8l319 584h-141q-25 0 -25 25v94q0 25 25 24h467q27 0 27 -24v-94q0 -25 -27 -25h-137l-434 -739v-445h161q25 0 25 -24v-94 q0 -25 -25 -25h-493z" glyph-name="Y" horiz-adv-x="1415" unicode="Y"/><glyph d="M125 0q-27 0 -27 27v86q0 23 39 69l858 1141h-731v-168q0 -27 -28 -27h-111q-27 0 -27 27v289q0 27 27 26h1057q27 0 26 -26v-74q0 -29 -43 -84l-858 -1139h737v168q0 27 27 27h113q27 0 26 -27v-288q0 -27 -26 -27h-1059z" glyph-name="Z" horiz-adv-x="1306" unicode="Z"/><glyph d="M647 -362h-411q-27 0 -27 24v1882q0 25 27 25h411q29 0 29 -29v-88q0 -27 -29 -27h-268v-1644h268q29 0 29 -29v-88q0 -26 -29 -26z" glyph-name="bracketleft" horiz-adv-x="718" unicode="["/><glyph d="M598 -152q-25 0 -33 25l-495 1659q-6 25 18 24h121q27 0 33 -24l495 -1659q8 -25 -18 -25h-121z" glyph-name="backslash" horiz-adv-x="804" unicode="\"/><glyph d="M72 -362q-29 0 -29 26v88q0 29 29 29h268v1644h-268q-29 0 -29 27v88q0 29 29 29h411q27 0 27 -25v-1882q0 -25 -27 -24h-411z" glyph-name="bracketright" horiz-adv-x="718" unicode="]"/><glyph d="M76 766l370 694q16 31 43 31h39q27 0 43 -31l373 -694q6 -12 1 -20.5t-17 -8.5h-121q-29 0 -43 29l-254 498l-254 -498q-14 -29 -43 -29h-121q-14 0 -18 8.5t2 20.5z" glyph-name="asciicircum" horiz-adv-x="1021" unicode="^"/><glyph d="M143 -205q-27 0 -26 27v104q0 27 26 27h924q27 0 27 -27v-104q0 -27 -27 -27h-924z" glyph-name="underscore" horiz-adv-x="1210" unicode="_"/><glyph d="M403 1112l-344 274q-18 14 -4 39l66 76q18 23 39 4l329 -291q23 -16 5 -38l-52 -60q-19 -20 -39 -4z" glyph-name="grave" horiz-adv-x="595" unicode="`"/><glyph d="M1032 137q27 0 27 -24v-88q0 -25 -27 -25h-176q-39 0 -63.5 23.5t-24.5 62.5v80h-4q-43 -66 -134 -123t-224 -57q-147 0 -239.5 76.5t-92.5 205.5q0 152 118.5 231t325.5 79h232v51q0 113 -68 181.5t-197 68.5q-35 0 -66.5 -4.5t-57 -11.5t-47 -15t-39 -17.5t-28.5 -16.5 t-20 -13l-8 -6q-27 -18 -45 6l-45 65q-14 20 8 39q145 117 355 117q215 0 321.5 -104.5t106.5 -288.5v-492h112zM434 129q184 4 316 178v142h-238q-121 0 -193.5 -44.5t-72.5 -125.5q0 -70 51 -111t137 -39z" glyph-name="a" horiz-adv-x="1099" unicode="a"/><glyph d="M672 -14q-129 0 -220.5 57t-127.5 133h-2v-151q0 -25 -27 -25h-109q-27 0 -26 25v1308h-115q-25 0 -25 25v88q0 25 25 24h260q25 0 25 -24v-533l-6 -79h6q104 188 352 188q205 0 332 -143.5t127 -374.5q0 -233 -130 -375.5t-339 -142.5zM655 129q137 0 225.5 104.5 t88.5 270.5q0 172 -90.5 273.5t-223.5 101.5q-137 0 -232 -100.5t-95 -274.5q0 -168 94 -271.5t233 -103.5z" glyph-name="b" horiz-adv-x="1228" unicode="b"/><glyph d="M567 1022q219 0 310 -141h2l-5 104q0 27 25 27h88q25 0 25 -27v-371q0 -25 -25 -24h-100q-25 0 -25 24v56q0 78 -69.5 143.5t-206.5 65.5q-141 0 -234.5 -105.5t-93.5 -269.5q0 -168 100.5 -271.5t251.5 -103.5q170 0 295 125q20 20 39 2l57 -53q18 -18 7 -37 q-20 -31 -61.5 -67t-140.5 -74.5t-220 -38.5q-219 0 -359.5 142t-140.5 376q0 231 140 374.5t341 143.5z" glyph-name="c" horiz-adv-x="1114" unicode="c"/><glyph d="M547 1022q135 0 225 -55.5t127 -132.5h6q-6 45 -6 79v420h-113q-27 0 -26 25v88q0 25 26 24h258q25 0 25 -24v-1309h115q25 0 24 -24v-88q0 -25 -24 -25h-187q-47 0 -68.5 19.5t-21.5 66.5v90h-2q-37 -76 -128 -133t-220 -57q-209 0 -339 142t-130 376q0 231 127 374.5 t332 143.5zM573 129q139 0 233.5 103.5t94.5 271.5q0 174 -95 274.5t-233 100.5q-133 0 -223 -101.5t-90 -273.5q0 -166 88 -270.5t225 -104.5z" glyph-name="d" horiz-adv-x="1267" unicode="d"/><glyph d="M1016 483q0 -27 -27 -26h-727q12 -152 109.5 -240t228.5 -88q158 0 283 125q20 20 39 2l57 -53q18 -18 6 -37q-20 -31 -59 -67t-132.5 -74.5t-201.5 -38.5q-221 0 -362.5 140t-141.5 378q0 236 144.5 377t330.5 141q219 0 336 -141.5t117 -397.5zM268 594h576 q-6 125 -79 205t-196 80q-113 0 -195.5 -74t-105.5 -211z" glyph-name="e" horiz-adv-x="1095" unicode="e"/><glyph d="M113 0q-25 0 -25 25v88q0 25 25 24h114v733h-135q-25 0 -24 25v88q0 25 24 25h135v125q0 158 89.5 255t230.5 97q133 0 213 -64q23 -18 8 -41l-39 -69q-6 -12 -20.5 -13.5t-22.5 5.5q-53 37 -121 36q-168 0 -168 -184v-147h250q25 0 25 -25v-88q0 -25 -25 -25h-250v-733 h205q25 0 25 -24v-88q0 -25 -25 -25h-489z" glyph-name="f" horiz-adv-x="729" unicode="f"/><glyph d="M547 1022q137 0 232 -59.5t130 -141.5h6l-2 162q0 25 25 25h244q25 0 24 -25v-88q0 -25 -24 -25h-113v-845q0 -211 -140.5 -335t-379.5 -124q-223 0 -385 121q-20 16 -6 37l57 81q12 18 35 5q2 -2 13 -9.5t20.5 -13.5t27 -16.5t33.5 -17.5t40 -16t47.5 -14.5t53 -9.5 t60.5 -4q166 0 260 85t94 231v32q0 29 6 119h-4q-33 -72 -125 -131t-219 -59q-209 0 -339 142t-130 376q0 231 127 374.5t332 143.5zM573 129q139 0 233.5 103.5t94.5 271.5q0 174 -95 274.5t-233 100.5q-133 0 -223 -101.5t-90 -273.5q0 -166 88 -270.5t225 -104.5z" glyph-name="g" horiz-adv-x="1267" unicode="g"/><glyph d="M84 0q-25 0 -25 25v88q0 25 25 24h115v1196h-115q-25 0 -25 25v88q0 25 25 24h242q25 0 24 -24v-481q0 -37 -2 -111h6q100 168 330 168q166 0 265.5 -99.5t99.5 -267.5v-518h112q27 0 27 -24v-88q0 -25 -27 -25h-192q-47 0 -68.5 19.5t-21.5 66.5v549q0 113 -65.5 176 t-172.5 63q-188 0 -272 -182v-555h114q25 0 25 -24v-88q0 -25 -25 -25h-399z" glyph-name="h" horiz-adv-x="1232" unicode="h"/><glyph d="M408 1335q0 -53 -39 -91t-93 -38q-55 0 -93 38t-38 91q0 55 38 94t93 39q53 0 92.5 -39t39.5 -94zM104 0q-25 0 -24 25v88q0 25 24 24h115v733h-115q-25 0 -24 25v88q0 25 24 25h258q27 0 27 -25v-846h115q25 0 24 -24v-88q0 -25 -24 -25h-400z" glyph-name="i" horiz-adv-x="587" unicode="i"/><glyph d="M397 1335q0 -53 -39 -91t-92 -38q-55 0 -93 38t-38 91q0 55 38 94t93 39q53 0 92 -39t39 -94zM360 1008q25 0 25 -25v-1067q0 -168 -87 -258t-232 -90q-133 0 -213 63q-23 18 -9 41l45 74q16 25 45 8q66 -41 127 -41q72 0 113 52.5t41 152.5v952h-115q-25 0 -24 25v88 q0 25 24 25h260z" glyph-name="j" horiz-adv-x="544" unicode="j"/><glyph d="M1149 137q25 0 25 -24v-88q0 -25 -25 -25h-156q-51 0 -80 39l-350 463l-194 -164v-201h114q25 0 25 -24v-88q0 -25 -25 -25h-399q-25 0 -25 25v88q0 25 25 24h115v1196h-115q-25 0 -25 25v88q0 25 25 24h260q25 0 25 -24v-944l415 368h-86q-25 0 -24 25v88q0 25 24 25 h394q25 0 24 -25v-88q0 -25 -24 -25h-105l-305 -266l350 -467h117z" glyph-name="k" horiz-adv-x="1179" unicode="k"/><glyph d="M86 0q-27 0 -27 25v88q0 25 27 24h113v1196h-113q-27 0 -27 25v88q0 25 27 24h227q55 0 56 -51v-1282h112q27 0 27 -24v-88q0 -25 -27 -25h-395z" glyph-name="l" horiz-adv-x="567" unicode="l"/><glyph d="M1800 137q27 0 27 -24v-88q0 -25 -27 -25h-194q-45 0 -66.5 19.5t-21.5 66.5v569q0 96 -60.5 160t-167.5 64q-166 0 -250 -166q4 -29 4 -58v-518h107q27 0 27 -24v-88q0 -25 -27 -25h-387q-23 0 -23 25v88q0 25 23 24h110v518q0 96 -60 160t-167 64q-178 0 -258 -187 v-555h115q25 0 24 -24v-88q0 -25 -24 -25h-400q-25 0 -24 25v88q0 25 24 24h115v733h-115q-25 0 -24 25v88q0 25 24 25h242q23 0 23 -25l-2 -129h6q100 168 319 168q106 0 186 -45t123 -127q14 25 38 48.5t64 54t101.5 50t130.5 19.5q162 0 257.5 -99.5t95.5 -267.5v-518 h112z" glyph-name="m" horiz-adv-x="1871" unicode="m"/><glyph d="M104 0q-25 0 -24 25v88q0 25 24 24h115v733h-115q-25 0 -24 25v88q0 25 24 25h242q25 0 25 -25l-2 -129h6q100 168 330 168q166 0 265 -99.5t99 -267.5v-518h113q27 0 26 -24v-88q0 -25 -26 -25h-193q-47 0 -68.5 19.5t-21.5 66.5v549q0 109 -62.5 174t-174.5 65 q-188 0 -273 -182v-555h115q25 0 24 -24v-88q0 -25 -24 -25h-400z" glyph-name="n" horiz-adv-x="1253" unicode="n"/><glyph d="M589.5 1022q227.5 0 366 -143.5t138.5 -374.5q0 -233 -138.5 -375.5t-366 -142.5t-365.5 142t-138 376q0 231 138 374.5t365.5 143.5zM589.5 129q145.5 0 239 104.5t93.5 270.5t-93.5 270.5t-239 104.5t-238.5 -104.5t-93 -270.5t93 -270.5t238.5 -104.5z" glyph-name="o" horiz-adv-x="1179" unicode="o"/><glyph d="M721 1022q205 0 332 -143.5t127 -374.5q0 -233 -130 -375.5t-339 -142.5q-127 0 -219.5 59t-124.5 131h-5q6 -90 7 -131v-328h133q25 0 24 -24v-88q0 -25 -24 -25h-418q-25 0 -25 25v88q0 25 25 24h115v1153h-115q-25 0 -25 25v88q0 25 25 25h250q25 0 24 -25 q-2 -27 -4 -81t-2 -81h6q35 82 130.5 141.5t232.5 59.5zM694 129q137 0 225.5 104.5t88.5 270.5q0 172 -90.5 273.5t-223.5 101.5q-137 0 -232 -100.5t-95 -274.5q0 -168 94 -271.5t233 -103.5z" glyph-name="p" horiz-adv-x="1267" unicode="p"/><glyph d="M547 1022q137 0 232 -59.5t130 -141.5h6l-4 162q0 25 25 25h108q25 0 25 -25v-1266h115q25 0 24 -24v-88q0 -25 -24 -25h-418q-25 0 -25 25v88q0 25 25 24h133v328q0 41 6 131h-4q-33 -72 -125 -131t-219 -59q-209 0 -339 142t-130 376q0 231 127 374.5t332 143.5z M573 129q139 0 233.5 103.5t94.5 271.5q0 174 -95 274.5t-233 100.5q-133 0 -223 -101.5t-90 -273.5q0 -166 88 -270.5t225 -104.5z" glyph-name="q" horiz-adv-x="1228" unicode="q"/><glyph d="M104 0q-25 0 -24 25v88q0 25 24 24h115v733h-115q-25 0 -24 25v88q0 25 24 25h242q25 0 25 -25v-229h6q4 20 22.5 54t58.5 84t119.5 85t184.5 35q27 0 26 -27v-119q0 -27 -26 -26h-43q-139 0 -234.5 -114t-95.5 -259v-330h191q25 0 24 -24v-88q0 -25 -24 -25h-476z" glyph-name="r" horiz-adv-x="831" unicode="r"/><glyph d="M569 -14q-109 0 -187.5 28.5t-105 54t-40.5 52.5h-5q2 -88 2 -94q0 -27 -26 -27h-80q-29 0 -29 27l2 327q0 27 27 27h90q27 0 27 -27v-6q0 -70 82 -144.5t211 -74.5q219 0 219 133q0 59 -46 97t-116 52.5t-149.5 35t-149.5 47t-116 89t-46 158.5q0 121 98.5 201t241.5 80 q199 0 283 -109h4l-6 68q-2 27 28 27h82q27 0 27 -27v-287q0 -27 -29 -26h-88q-27 0 -26 26v29q0 70 -71 113t-188 43q-86 0 -135 -37t-49 -101q0 -55 46 -90t116 -49t149.5 -35.5t149.5 -49.5t116 -92.5t46 -160.5q0 -123 -99.5 -200.5t-259.5 -77.5z" glyph-name="s" horiz-adv-x="1019" unicode="s"/><glyph d="M539 -14q-145 0 -232.5 90t-87.5 258v536h-164q-29 0 -28 27v84q0 27 28 27h164v206q0 29 27 29h114q29 0 29 -29v-206h318q29 0 28 -27v-84q0 -27 -28 -27h-318v-534q0 -100 45 -152.5t125 -52.5q51 0 115 35q27 14 43 -8l43 -68q14 -23 -8 -41q-80 -63 -213 -63z" glyph-name="t" horiz-adv-x="782" unicode="t"/><glyph d="M958 0q-88 0 -88 86v68h-6q-12 -23 -31.5 -45.5t-56.5 -53t-98.5 -50t-134.5 -19.5q-164 0 -261.5 99t-97.5 267v518h-112q-27 0 -27 25v88q0 25 27 25h258q25 0 24 -25v-631q0 -96 62.5 -159.5t169.5 -63.5q184 0 264 186v555h-115q-25 0 -24 25v88q0 25 24 25h260 q25 0 25 -25v-846h117q23 0 22 -24v-88q0 -25 -22 -25h-179z" glyph-name="u" horiz-adv-x="1218" unicode="u"/><glyph d="M537 0q-20 0 -30.5 8t-19.5 29l-335 833h-109q-25 0 -25 25v88q0 25 25 25h410q25 0 24 -25v-88q0 -25 -24 -25h-113l270 -714h4l277 714h-113q-25 0 -24 25v88q0 25 24 25h393q25 0 25 -25v-88q0 -25 -25 -25h-108l-338 -833q-14 -37 -47 -37h-141z" glyph-name="v" horiz-adv-x="1214" unicode="v"/><glyph d="M473 0q-35 0 -49 43l-274 827h-109q-25 0 -25 25v88q0 25 25 25h381q27 0 27 -25v-88q0 -25 -27 -25h-92l205 -690h4l196 783q10 45 49 45h76q41 0 51 -43l191 -785h4l205 690h-92q-27 0 -27 25v88q0 25 27 25h374q25 0 25 -25v-88q0 -25 -25 -25h-108l-273 -827 q-16 -43 -49 -43h-116q-41 0 -52 43l-172 700h-6l-176 -700q-10 -43 -51 -43h-117z" glyph-name="w" horiz-adv-x="1634" unicode="w"/><glyph d="M1051 868h-78l-318 -364l299 -367h97q27 0 26 -24v-88q0 -25 -26 -25h-377q-27 0 -27 25v88q0 25 27 24h96l-213 262l-229 -262h86q27 0 26 -24v-88q0 -25 -26 -25h-338q-27 0 -27 25v88q0 25 27 24h78l319 365l-299 368h-100q-25 0 -25 25v88q0 25 25 25h379 q25 0 24 -25v-88q0 -25 -24 -25h-95l213 -264l228 262h-86q-25 0 -25 25v88q0 25 25 25h338q27 0 26 -25v-88q1 -25 -26 -25z" glyph-name="x" horiz-adv-x="1126" unicode="x"/><glyph d="M1174 1008q25 0 24 -25v-88q0 -25 -24 -25h-109l-338 -833l-51 -123q-78 -188 -145.5 -268t-198.5 -80q-143 0 -209 65q-20 20 -6 37l51 72q14 18 37 2q41 -33 110 -33q76 0 119 46t90 161l35 84h-24q-18 0 -26.5 7t-19.5 30l-335 833h-109q-25 0 -25 25v88q0 25 25 25 h412q25 0 24 -25v-88q0 -25 -24 -25h-121l276 -727h4l283 727h-117q-25 0 -24 25v88q0 25 24 25h392z" glyph-name="y" horiz-adv-x="1212" unicode="y"/><glyph d="M113 0q-25 0 -25 25v84q0 31 31 69l610 692h-483v-163q0 -25 -23 -25h-102q-25 0 -25 25v276q0 25 25 25h782q25 0 25 -25v-72q0 -31 -31 -65l-610 -709h514v162q0 25 24 25h101q25 0 24 -25v-274q0 -25 -24 -25h-813z" glyph-name="z" horiz-adv-x="1032" unicode="z"/><glyph d="M229 -41v352q0 102 -50 169t-91 67q-29 0 -29 28v64q0 27 29 27q41 0 91 66.5t50 170.5v340q0 324 344 324q29 0 29 -27v-90q0 -27 -29 -27q-176 0 -176 -194v-324q0 -82 -30.5 -147.5t-61.5 -89.5l-31 -27v-70q4 -4 13.5 -10t30 -29.5t37 -51t29.5 -74t13 -97.5v-336 q0 -190 176 -190q29 0 29 -27v-90q0 -27 -29 -26q-344 0 -344 319z" glyph-name="braceleft" horiz-adv-x="673" unicode="{"/><glyph d="M236 -268q-27 0 -27 24v1776q0 25 27 24h120q25 0 25 -24v-1776q0 -25 -25 -24h-120z" glyph-name="bar" horiz-adv-x="589" unicode="|"/><glyph d="M100 -360q-29 0 -28 26v90q0 27 28 27q176 0 176 190v336q0 51 12.5 97.5t31 75t37 50t30.5 29.5l12 10v70q-4 4 -13 10t-29.5 30t-37 52.5t-30 74.5t-13.5 97v324q0 195 -176 194q-29 0 -28 27v90q0 27 28 27q344 0 344 -324v-340q0 -104 50.5 -170.5t91.5 -66.5 q29 0 28 -27v-64q0 -29 -28 -28q-41 0 -91.5 -66.5t-50.5 -169.5v-352q0 -319 -344 -319z" glyph-name="braceright" horiz-adv-x="673" unicode="}"/><glyph d="M172 446q-29 0 -29 25q0 121 55.5 189.5t166.5 68.5q76 0 167 -46t136 -46q82 0 82 72q0 27 26 26h113q27 0 26 -26q0 -121 -55 -189.5t-166 -68.5q-68 0 -124 23.5t-99 47t-80 23.5q-80 0 -80 -74q0 -25 -28 -25h-111z" glyph-name="asciitilde" horiz-adv-x="1056" unicode="~"/><glyph d="M274 762q-53 0 -92 38t-39 91q0 57 39 94t92 37q57 0 95.5 -37t38.5 -94q0 -53 -38.5 -91t-95.5 -38zM229 623h93q25 0 24 -25l19 -1122q0 -25 -25 -25h-129q-27 0 -27 25l19 1122q-1 25 26 25z" glyph-name="exclamdown" horiz-adv-x="550" unicode="¡"/><glyph d="M1028 344q18 -18 6 -37q-12 -18 -36.5 -40.5t-66.5 -52.5t-108.5 -53.5t-144.5 -29.5v-131q0 -25 -27 -25h-108q-25 0 -25 25v133q-190 27 -307 165t-117 347q0 211 121 350.5t303 163.5v139q0 25 25 25h108q27 0 27 -25v-141q150 -25 223 -135h2l-4 104q0 27 25 27h90 q25 0 24 -27v-370q0 -25 -24 -25h-103q-27 0 -26 25v55q0 78 -71 143.5t-210 65.5q-145 0 -239.5 -105.5t-94.5 -269.5q0 -168 101.5 -271.5t257.5 -103.5q174 0 301 125q20 20 39 2z" glyph-name="cent" horiz-adv-x="1171" unicode="¢"/><glyph d="M1153 154q25 0 25 -25v-104q0 -25 -25 -25h-997q-27 0 -27 25v98q0 29 23 45q4 2 32.5 21.5t48 35t50 45t50 58t34 70.5t14.5 85q0 39 -8 76h-264q-25 0 -25 25v75q0 27 25 27h210q-8 14 -32.5 54t-35.5 61.5t-27.5 59.5t-23.5 78t-7 85q0 213 137 336t383 123 q209 0 332.5 -114t123.5 -308v-33q0 -25 -24 -24h-127q-25 0 -25 24v35q0 115 -76.5 189.5t-203.5 74.5q-160 0 -252 -76.5t-92 -238.5q0 -43 14 -89t30.5 -77t47.5 -83t43 -77h448q25 0 25 -27v-75q0 -25 -25 -25h-401q6 -29 6 -57q0 -102 -53 -195.5t-129 -152.5h778z" glyph-name="sterling" horiz-adv-x="1271" unicode="£"/><glyph d="M1071 367l121 -140q14 -18 -4 -34l-82 -72q-20 -16 -35 2l-121 139q-119 -72 -274 -72q-156 0 -277 72l-118 -139q-16 -18 -35 -2l-82 72q-20 16 -4 34l119 140q-113 139 -113 346q0 201 110 338l-116 135q-16 18 4 35l82 71q18 16 35 -2l116 -135q121 72 279 72 q156 0 276 -74l119 137q14 18 35 2l82 -71q18 -16 4 -35l-119 -137q113 -137 113 -336q0 -207 -115 -346zM675.5 340q143.5 0 241 102.5t97.5 268.5t-99.5 266t-238.5 100t-239.5 -100t-100.5 -266t98 -268.5t241.5 -102.5z" glyph-name="currency" horiz-adv-x="1349" unicode="¤"/><glyph d="M1393 1470q27 0 26 -24v-94q0 -25 -26 -25h-136l-356 -604h260q25 0 25 -27v-65q0 -27 -25 -27h-330l-10 -16v-152h338q27 0 27 -26v-66q0 -27 -27 -27h-338v-174h162q25 0 25 -24v-94q0 -25 -25 -25h-494q-25 0 -24 25v94q0 25 24 24h160v174h-338q-27 0 -26 27v66 q0 27 26 26h338v152l-10 16h-330q-25 0 -24 27v65q0 27 24 27h260l-352 604h-135q-25 0 -25 25v94q0 25 25 24h471q27 0 27 -24v-94q0 -25 -27 -25h-137l323 -584h9l319 584h-143q-25 0 -25 25v94q0 25 25 24h469z" glyph-name="yen" horiz-adv-x="1476" unicode="¥"/><glyph d="M233 840q-25 0 -24 24v668q0 25 24 24h121q27 0 27 -24v-668q0 -25 -27 -24h-121zM233 -268q-25 0 -24 24v668q0 25 24 25h121q27 0 27 -25v-668q0 -25 -27 -24h-121z" glyph-name="brokenbar" horiz-adv-x="589" unicode="¦"/><glyph d="M1206 401q0 -145 -76 -249q76 -86 76 -213q0 -178 -120.5 -296t-360.5 -118q-96 0 -177 25.5t-136.5 68.5t-88 81t-55.5 79l2 -215q0 -25 -24 -25h-107q-25 0 -24 25v471q0 25 24 24h119q25 0 25 -24v-31q0 -12 12 -46t44 -82t77 -90t120.5 -72.5t163.5 -30.5 q154 0 240 65.5t86 183.5q0 63 -37 110.5t-98.5 73t-139 51.5t-159.5 45t-160 54t-139.5 77t-98 114.5t-36.5 169.5q0 135 73 233q-74 94 -73 227q0 172 120.5 284t325.5 112q260 0 379 -164l-2 129q-2 25 25 25h106q23 0 23 -25v-438q0 -27 -23 -27h-121q-25 0 -24 27v57 q0 35 -18.5 76t-56.5 84t-108.5 70.5t-160.5 27.5q-131 0 -210 -67.5t-79 -170.5q0 -72 48 -123t125 -81.5t170 -55t186 -56.5t170 -74t125 -118t48 -178zM1028 393q0 70 -42 118t-116.5 76.5t-153.5 51.5t-177.5 53.5t-163.5 65.5q-43 -59 -43 -131q0 -70 42 -119 t116.5 -81t153.5 -54.5t177.5 -53t163.5 -65.5q43 59 43 139z" glyph-name="section" horiz-adv-x="1320" unicode="§"/><glyph d="M311 1318q0 -52 -36.5 -89t-89 -37t-88.5 37t-36 89t36 90t87.5 38t89 -38t37.5 -90zM709 1318q0 -52 -37 -89t-90 -37q-51 0 -86 37t-35 90t34.5 90t86.5 37q53 0 90 -38t37 -90z" glyph-name="dieresis" horiz-adv-x="684" unicode="¨"/><glyph d="M1382 712q0 -171 -87 -318.5t-235.5 -235.5t-319.5 -88t-319.5 88t-235.5 235.5t-87 318.5t87 319.5t235.5 235.5t319.5 87t319.5 -87t235.5 -235.5t87 -319.5zM1239 712q0 206 -146.5 351t-352 145t-351 -145t-145.5 -351t145.5 -351.5t351 -145.5t352 145.5 t146.5 351.5zM1018 541q14 -10 6 -25q-12 -23 -30.5 -44t-52.5 -51t-87 -48.5t-119 -18.5q-143 0 -243.5 99.5t-100.5 265.5t100.5 265t243.5 99q27 0 52.5 -4t46 -9t41 -15.5t35 -18.5t29.5 -20t24.5 -21.5t21.5 -23t16.5 -19.5t12.5 -17t10 -13q8 -12 -4 -27l-74 -51 q-16 -12 -24 4q-59 98 -187 98q-82 0 -141 -58.5t-59 -166.5q0 -111 59 -170t147 -59q125 0 181 90q10 16 22 6z" glyph-name="copyright" horiz-adv-x="1482" unicode="©"/><glyph d="M741 938q18 0 19 -18v-84q0 -16 -19 -17h-143q-57 0 -57 55v46h-2q-74 -111 -230 -111q-92 0 -149.5 50t-57.5 134q0 98 81 152.5t233 54.5h106v27q0 63 -36.5 99t-106.5 36q-37 0 -71 -7t-53 -16.5t-36.5 -19.5t-19.5 -10q-14 -6 -21 6l-37 67q-8 14 4 25q90 76 248 76 q131 0 205 -66.5t74 -193.5v-285h69zM352 922q102 0 170 90v98h-96q-176 0 -176 -102q0 -41 27.5 -63.5t74.5 -22.5z" glyph-name="ordfeminine" horiz-adv-x="866" unicode="ª"/><glyph d="M469 123l-348 313q-27 25 -27 43v49q0 20 27 43l348 314q8 8 17.5 6t9.5 -17v-124q0 -23 -27 -45l-227 -201l227 -201q27 -23 27 -45v-125q0 -14 -10.5 -16t-16.5 6zM872 123l-348 313q-27 25 -26 43v49q0 20 26 43l348 314q8 8 17.5 6t9.5 -17v-124q0 -23 -27 -45 l-227 -201l227 -201q27 -23 27 -45v-125q0 -14 -10.5 -16t-16.5 6z" glyph-name="guillemotleft" horiz-adv-x="1040" unicode="«"/><glyph d="M997 289q-25 0 -24 24v351h-826q-29 0 -28 26v88q0 27 28 27h945q27 0 26 -27v-465q0 -25 -24 -24h-97z" glyph-name="logicalnot" horiz-adv-x="1269" unicode="¬"/><glyph d="M740 70q-171 0 -319.5 88t-235.5 235.5t-87 318.5t87 319.5t235.5 235.5t319.5 87t319.5 -87t235.5 -235.5t87 -319.5t-87 -318.5t-235.5 -235.5t-319.5 -88zM740.5 215q205.5 0 352 145.5t146.5 351.5t-146.5 351t-352 145t-351 -145t-145.5 -351t145.5 -351.5 t351 -145.5zM465 362q-10 0 -10 13v90q0 10 10 10h57v494h-57q-10 0 -10 12v90q0 10 10 10h303q109 0 173.5 -55t64.5 -164q0 -156 -142 -196q8 -8 33 -54l72 -137h69q8 0 9 -10v-90q0 -12 -11 -13h-104q-29 0 -53 48l-105 200q-12 25 -22.5 34t-26.5 9h-86v-178h72 q12 0 12 -10v-90q0 -12 -12 -13h-246zM639 756h123q121 0 121 106q0 49 -32 78t-89 29h-123v-213z" glyph-name="registered" horiz-adv-x="1482" unicode="®"/><glyph d="M109 1225q-27 0 -27 26v86q0 29 27 29h606q27 0 26 -29v-86q0 -27 -26 -26h-606z" glyph-name="macron" horiz-adv-x="823" unicode="¯"/><glyph d="M371 926q-117 0 -197 73.5t-80 208.5q0 119 81 198t196 79q119 0 199.5 -79t80.5 -198q0 -135 -80.5 -208.5t-199.5 -73.5zM371 1061q59 0 100 39t41 108q0 61 -41 101.5t-100 40.5q-55 0 -96.5 -40t-41.5 -102q0 -70 41.5 -108.5t96.5 -38.5z" glyph-name="degree" horiz-adv-x="745" unicode="°"/><glyph d="M485 330q-25 0 -24 26v322h-311q-29 0 -29 27v104q0 27 29 27h311v333q0 27 24 27h117q27 0 27 -27v-333h311q29 0 29 -27v-104q0 -27 -29 -27h-311v-322q0 -27 -27 -26h-117zM143 66q-27 0 -26 26v103q0 29 26 28h793q27 0 27 -28v-103q0 -27 -27 -26h-793z" glyph-name="plusminus" horiz-adv-x="1083" unicode="±"/><glyph d="M197 1110q-20 -14 -39 6l-52 60q-18 23 5 38l329 289q20 20 39 -2l66 -78q14 -20 -4 -39z" glyph-name="acute" horiz-adv-x="616" unicode="´"/><glyph d="M999 0q-88 0 -88 86v76h-6q-92 -176 -319 -176q-111 0 -189 43v-465q0 -25 -24 -25h-119q-25 0 -25 25v1306h-116q-25 0 -25 25v88q0 25 25 25h196q88 0 88 -86v-539q0 -119 57.5 -186.5t168.5 -67.5q57 0 106 18.5t79 43t50.5 52t28.5 44t8 20.5v563h-111q-25 0 -24 25 v88q0 25 24 25h254q25 0 25 -25v-846h113q27 0 26 -24v-88q0 -25 -26 -25h-177z" glyph-name="uni00B5" horiz-adv-x="1296" unicode="µ"/><glyph d="M956 -160q-25 0 -24 25v1452h-148v-1452q0 -25 -24 -25h-127q-27 0 -27 25v618h-39q-231 0 -366 121t-135 364.5t133 372.5t348 129h653q25 0 25 -24v-105q0 -25 -25 -24h-90v-1452q0 -25 -25 -25h-129z" glyph-name="paragraph" horiz-adv-x="1351" unicode="¶"/><glyph d="M401 612q0 -57 -37.5 -94t-95.5 -37q-55 0 -93 38t-38 93q0 53 39 92t92 39q55 0 94 -39t39 -92z" glyph-name="periodcentered" horiz-adv-x="538" unicode="·"/><glyph d="M221 -399q-78 0 -151 43q-16 10 -7 32l29 64q8 18 35 6q53 -27 90 -27q68 0 68 52q0 61 -99 61q-27 0 -36 9t0 30l53 166l106 -2l-35 -109q59 0 105.5 -35.5t46.5 -115.5q0 -76 -52.5 -125t-152.5 -49z" glyph-name="cedilla" horiz-adv-x="483" unicode="¸"/><glyph d="M426 1483q147 0 239.5 -93.5t92.5 -242.5q0 -152 -92.5 -245t-239.5 -93t-239.5 93t-92.5 245q0 150 92.5 243t239.5 93zM426 942q76 0 124 56.5t48 148.5t-48 147.5t-124 55.5t-124 -55.5t-48 -147.5t48 -148.5t124 -56.5z" glyph-name="ordmasculine" horiz-adv-x="851" unicode="º"/><glyph d="M168 885l348 -314q27 -25 27 -43v-49q0 -20 -27 -43l-348 -313q-8 -8 -17.5 -6t-9.5 16v125q0 23 27 45l227 201l-227 201q-27 23 -27 45v124q0 14 10.5 16.5t16.5 -5.5zM571 885l349 -314q27 -25 26 -43v-49q0 -20 -26 -43l-349 -313q-8 -8 -17 -6t-9 16v125q0 23 26 45 l228 201l-228 201q-27 23 -26 45v124q0 14 10 16.5t16 -5.5z" glyph-name="guillemotright" horiz-adv-x="1040" unicode="»"/><glyph d="M477 -55q-25 4 -14 28l704 1536q10 23 37 19l105 -15q23 -2 12 -26l-705 -1536q-10 -23 -34 -19zM641 827q20 0 21 -18v-94q0 -20 -21 -21h-510q-20 0 -20 21v94q0 18 20 18h186v516l-174 -90q-14 -8 -20 7l-47 88q-6 12 10 22l223 119q27 14 53 14h105q16 0 18 -18v-658 h156zM1415 584q0 16 17 16h127q18 0 18 -16v-269h94q18 0 19 -16v-100q0 -14 -19 -15h-94v-168q0 -16 -18 -16h-127q-16 0 -17 16v168h-426q-16 0 -16 15v80q0 33 20 65q121 190 213 442q8 23 35 23h129q23 0 12 -25q-117 -299 -233 -471h266v271z" glyph-name="onequarter" horiz-adv-x="1748" unicode="¼"/><glyph d="M471 -55q-27 4 -16 28l704 1536q12 23 37 19l104 -15q23 -2 13 -26l-705 -1536q-10 -23 -35 -19zM633 827q23 0 22 -18v-94q0 -20 -22 -21h-510q-20 0 -21 21v94q0 18 21 18h186v516l-172 -90q-14 -8 -22 7l-47 88q-6 12 10 22l223 119q27 14 53 14h105q18 0 18 -18v-658 h156zM1384 815q141 0 217 -71.5t76 -176.5q0 -82 -42 -141t-104.5 -93t-125 -61.5t-109.5 -62.5t-53 -76h430q20 0 21 -18v-97q0 -18 -23 -18h-590q-20 0 -20 18v64q0 76 33.5 134t84 89t110 60.5t109.5 52t84 59.5t34 86q0 53 -37 82t-103 29q-61 0 -102 -24.5t-80 -80.5 q-8 -12 -23 -2l-94 58q-12 8 -6 20q96 170 313 170z" glyph-name="onehalf" horiz-adv-x="1767" unicode="½"/><glyph d="M481 -55q-27 4 -14 28l704 1536q10 23 35 19l107 -15q23 -2 12 -26l-704 -1536q-10 -23 -37 -19zM399 1507q147 0 217 -66.5t70 -150.5q0 -45 -19.5 -82t-47 -56t-51 -28.5t-38.5 -11.5q23 -4 44.5 -12t57.5 -28.5t57.5 -61.5t21.5 -97q0 -102 -86 -164.5t-238 -62.5 q-70 0 -128 15.5t-96 41t-57.5 44t-31.5 34.5q-8 12 2 21l82 78q12 10 22 0q86 -92 207 -93q164 0 164 109q0 51 -46 79.5t-134 28.5h-52q-16 0 -16 15v92q0 16 16 16h37q68 0 119 25t51 80q0 96 -135 96q-59 0 -93 -21.5t-73 -70.5q-8 -10 -20 -4l-96 61q-14 8 -7 21 q43 74 120 113.5t177 39.5zM1419 584q0 16 17 16h129q16 0 16 -16v-269h96q16 0 17 -16v-100q0 -14 -17 -15h-96v-168q0 -16 -16 -16h-129q-16 0 -17 16v168h-424q-18 0 -18 15v80q0 33 20 65q123 190 215 442q8 23 33 23h129q23 0 15 -25q-117 -299 -236 -473h266v273z" glyph-name="threequarters" horiz-adv-x="1757" unicode="¾"/><glyph d="M451 891q0 57 37.5 94t95.5 37q53 0 91 -37t38 -94q0 -53 -38 -91t-91 -38q-57 0 -95 38t-38 91zM643 623q27 0 27 -25q0 -100 -45 -180t-108.5 -133.5t-127 -103.5t-108.5 -118.5t-45 -150.5q0 -125 74.5 -201t209.5 -76q147 0 225 97.5t82 253.5q0 25 25 24h119 q27 0 26 -24q0 -207 -119.5 -354.5t-357.5 -147.5q-217 0 -337 120t-120 302q0 113 45.5 200t110 140t128 102t108.5 111.5t45 138.5q0 25 26 25h117z" glyph-name="questiondown" horiz-adv-x="1054" unicode="¿"/><glyph d="M889 1575l-359 256q-23 16 -6 39l62 80q18 23 39 6l344 -273q25 -16 6 -38l-47 -64q-19 -22 -39 -6zM1053 0q-27 0 -27 25v94q0 25 27 24h143l-133 357h-580l-133 -357h146q27 0 26 -24v-94q0 -25 -26 -25h-451q-25 0 -25 25v94q0 25 25 24h137l447 1184h-115 q-27 0 -27 25v94q0 25 27 24h268q49 0 75 -20t44 -68l471 -1239h135q27 0 27 -24v-94q0 -25 -27 -25h-454zM778 1268h-14l-225 -621h471z" glyph-name="Agrave" horiz-adv-x="1544" unicode="À"/><glyph d="M614 1575q-20 -16 -36 6l-48 64q-18 23 7 38l344 273q20 16 39 -6l61 -80q16 -23 -6 -39zM1053 0q-27 0 -27 25v94q0 25 27 24h143l-133 357h-580l-133 -357h146q27 0 26 -24v-94q0 -25 -26 -25h-451q-25 0 -25 25v94q0 25 25 24h137l447 1184h-115q-27 0 -27 25v94 q0 25 27 24h268q49 0 75 -20t44 -68l471 -1239h135q27 0 27 -24v-94q0 -25 -27 -25h-454zM778 1268h-14l-225 -621h471z" glyph-name="Aacute" horiz-adv-x="1544" unicode="Á"/><glyph d="M502 1577q-20 -14 -39 4l-49 59q-18 20 4 39l315 256q12 10 20.5 10.5t20.5 -10.5l318 -256q23 -16 4 -39l-52 -59q-16 -20 -38 -4l-252 195zM1053 0q-27 0 -27 25v94q0 25 27 24h143l-133 357h-580l-133 -357h146q27 0 26 -24v-94q0 -25 -26 -25h-451q-25 0 -25 25v94 q0 25 25 24h137l447 1184h-115q-27 0 -27 25v94q0 25 27 24h268q49 0 75 -20t44 -68l471 -1239h135q27 0 27 -24v-94q0 -25 -27 -25h-454zM778 1268h-14l-225 -621h471z" glyph-name="Acircumflex" horiz-adv-x="1544" unicode="Â"/><glyph d="M446 1626q-25 0 -24 25q0 111 49 173t143 62q55 0 107.5 -26.5t91.5 -52t66 -25.5q35 0 54 23.5t19 88.5q0 25 25 25h80q25 0 24 -25q0 -252 -192 -252q-53 0 -101.5 26t-88.5 52.5t-74 26.5q-74 0 -74 -96q0 -25 -25 -25h-80zM1053 0q-27 0 -27 25v94q0 25 27 24h143 l-133 357h-580l-133 -357h146q27 0 26 -24v-94q0 -25 -26 -25h-451q-25 0 -25 25v94q0 25 25 24h137l447 1184h-115q-27 0 -27 25v94q0 25 27 24h268q49 0 75 -20t44 -68l471 -1239h135q27 0 27 -24v-94q0 -25 -27 -25h-454zM778 1268h-14l-225 -621h471z" glyph-name="Atilde" horiz-adv-x="1544" unicode="Ã"/><glyph d="M670 1767q0 -49 -35 -84.5t-86 -35.5t-87 35.5t-36 84.5q0 53 36 90t87 37t86 -37t35 -90zM1085 1767q0 -49 -37.5 -84.5t-89.5 -35.5q-51 0 -85.5 34.5t-34.5 85.5q0 53 34.5 90t85.5 37t89 -37t38 -90zM1053 0q-27 0 -27 25v94q0 25 27 24h143l-133 357h-580l-133 -357 h146q27 0 26 -24v-94q0 -25 -26 -25h-451q-25 0 -25 25v94q0 25 25 24h137l447 1184h-115q-27 0 -27 25v94q0 25 27 24h268q49 0 75 -20t44 -68l471 -1239h135q27 0 27 -24v-94q0 -25 -27 -25h-454zM778 1268h-14l-225 -621h471z" glyph-name="Adieresis" horiz-adv-x="1544" unicode="Ä"/><glyph d="M754 1559q-78 0 -136.5 58t-58.5 138q0 78 58.5 135.5t136.5 57.5q80 0 137 -57.5t57 -135.5q0 -80 -57 -138t-137 -58zM754 1677q31 0 52 21.5t21 56.5q0 33 -21.5 54.5t-51.5 21.5q-29 0 -50.5 -21.5t-21.5 -54.5q0 -35 21.5 -56.5t50.5 -21.5zM1053 0q-27 0 -27 25v94 q0 25 27 24h143l-133 357h-580l-133 -357h146q27 0 26 -24v-94q0 -25 -26 -25h-451q-25 0 -25 25v94q0 25 25 24h137l447 1184h-115q-27 0 -27 25v94q0 25 27 24h268q49 0 75 -20t44 -68l471 -1239h135q27 0 27 -24v-94q0 -25 -27 -25h-454zM778 1268h-14l-225 -621h471z " glyph-name="Aring" horiz-adv-x="1544" unicode="Å"/><glyph d="M895 0q-25 0 -25 25v94q0 25 25 24h158v516h-488l-219 -516h146q25 0 24 -24v-94q0 -25 -24 -25h-457q-25 0 -25 25v94q0 25 25 24h137l500 1180h-113q-25 0 -24 25v98q0 25 24 24h1417q25 0 25 -24v-326q0 -25 -25 -24h-106q-25 0 -25 24v203h-620v-514h522q25 0 25 -25 v-100q0 -25 -25 -25h-522v-516h618v205q0 25 25 25h108q25 0 25 -25v-323q0 -25 -25 -25h-1081zM1053 1323h-207l-221 -514h428v514z" glyph-name="AE" horiz-adv-x="2111" unicode="Æ"/><glyph d="M1419 373q16 -14 4 -41t-35.5 -59.5t-71.5 -81t-106.5 -88.5t-147.5 -72.5t-190 -40.5l-20 -64q59 0 105.5 -35.5t46.5 -115.5q0 -76 -51.5 -125t-153.5 -49q-78 0 -150 43q-16 10 -6 32l27 64q10 18 35 6q53 -27 90 -27q68 0 67 52q0 61 -98 61q-27 0 -35 9t-2 30 l37 115q-295 12 -479.5 218t-184.5 539q0 168 57.5 309.5t153 234.5t219 144.5t258.5 51.5q328 0 463 -211l-2 174q0 25 23 24h108q25 0 25 -24v-445q0 -27 -25 -26h-118q-27 0 -27 26v15q0 49 -29.5 103.5t-83 103.5t-139.5 80.5t-186.5 31.5t-192.5 -37.5t-165.5 -110.5 t-118 -188.5t-44.5 -261.5q0 -145 43 -262t118 -189.5t169 -112.5t199.5 -40t193.5 30t146.5 78t93.5 88t59 85q14 27 37 12z" glyph-name="Ccedilla" horiz-adv-x="1519" unicode="Ç"/><glyph d="M817 1575l-358 256q-23 16 -6 39l61 80q18 23 39 6l344 -273q25 -16 6 -38l-47 -64q-19 -22 -39 -6zM121 0q-25 0 -25 25v94q0 25 25 24h158v1184h-158q-25 0 -25 25v94q0 25 25 24h1087q25 0 25 -24v-326q0 -25 -25 -24h-114q-25 0 -25 24v207h-620v-498h520 q27 0 26 -24v-96q0 -25 -26 -25h-520v-541h622v205q0 25 27 25h114q25 0 25 -25v-323q0 -25 -25 -25h-1091z" glyph-name="Egrave" horiz-adv-x="1347" unicode="È"/><glyph d="M545 1575q-23 -16 -39 6l-47 64q-18 23 6 38l344 273q20 16 39 -6l61 -80q16 -23 -8 -39zM121 0q-25 0 -25 25v94q0 25 25 24h158v1184h-158q-25 0 -25 25v94q0 25 25 24h1087q25 0 25 -24v-326q0 -25 -25 -24h-114q-25 0 -25 24v207h-620v-498h520q27 0 26 -24v-96 q0 -25 -26 -25h-520v-541h622v205q0 25 27 25h114q25 0 25 -25v-323q0 -25 -25 -25h-1091z" glyph-name="Eacute" horiz-adv-x="1347" unicode="É"/><glyph d="M430 1577q-20 -14 -39 4l-49 59q-18 20 4 39l316 256q12 10 20 10.5t20 -10.5l318 -256q23 -16 4 -39l-51 -59q-16 -20 -39 -4l-252 195zM121 0q-25 0 -25 25v94q0 25 25 24h158v1184h-158q-25 0 -25 25v94q0 25 25 24h1087q25 0 25 -24v-326q0 -25 -25 -24h-114 q-25 0 -25 24v207h-620v-498h520q27 0 26 -24v-96q0 -25 -26 -25h-520v-541h622v205q0 25 27 25h114q25 0 25 -25v-323q0 -25 -25 -25h-1091z" glyph-name="Ecircumflex" horiz-adv-x="1347" unicode="Ê"/><glyph d="M598 1767q0 -49 -35 -84.5t-86 -35.5t-87 35.5t-36 84.5q0 53 36 90t87 37t86 -37t35 -90zM1012 1767q0 -49 -37 -84.5t-88 -35.5t-86 34.5t-35 85.5q0 53 35 90t86 37t88 -37t37 -90zM121 0q-25 0 -25 25v94q0 25 25 24h158v1184h-158q-25 0 -25 25v94q0 25 25 24h1087 q25 0 25 -24v-326q0 -25 -25 -24h-114q-25 0 -25 24v207h-620v-498h520q27 0 26 -24v-96q0 -25 -26 -25h-520v-541h622v205q0 25 27 25h114q25 0 25 -25v-323q0 -25 -25 -25h-1091z" glyph-name="Edieresis" horiz-adv-x="1347" unicode="Ë"/><glyph d="M502 1575l-359 256q-23 16 -6 39l62 80q18 23 39 6l344 -273q25 -16 6 -38l-47 -64q-19 -22 -39 -6zM121 0q-25 0 -25 25v94q0 25 25 24h158v1184h-158q-25 0 -25 25v94q0 25 25 24h483q27 0 27 -24v-94q0 -25 -27 -25h-155v-1184h155q27 0 27 -24v-94q0 -25 -27 -25 h-483z" glyph-name="Igrave" horiz-adv-x="727" unicode="Ì"/><glyph d="M229 1575q-23 -16 -39 6l-47 64q-18 23 7 38l344 273q20 16 38 -6l62 -80q16 -23 -8 -39zM121 0q-25 0 -25 25v94q0 25 25 24h158v1184h-158q-25 0 -25 25v94q0 25 25 24h483q27 0 27 -24v-94q0 -25 -27 -25h-155v-1184h155q27 0 27 -24v-94q0 -25 -27 -25h-483z" glyph-name="Iacute" horiz-adv-x="727" unicode="Í"/><glyph d="M115 1577q-20 -14 -39 4l-49 59q-18 20 4 39l315 256q12 10 20.5 10.5t20.5 -10.5l318 -256q23 -16 4 -39l-52 -59q-16 -20 -39 -4l-251 195zM121 0q-25 0 -25 25v94q0 25 25 24h158v1184h-158q-25 0 -25 25v94q0 25 25 24h483q27 0 27 -24v-94q0 -25 -27 -25h-155v-1184 h155q27 0 27 -24v-94q0 -25 -27 -25h-483z" glyph-name="Icircumflex" horiz-adv-x="727" unicode="Î"/><glyph d="M283 1767q0 -49 -35 -84.5t-86 -35.5t-87 35.5t-36 84.5q0 53 36 90t87 37t86 -37t35 -90zM696 1767q0 -49 -36.5 -84.5t-88.5 -35.5q-51 0 -85.5 34.5t-34.5 85.5q0 53 34.5 90t85.5 37t88 -37t37 -90zM121 0q-25 0 -25 25v94q0 25 25 24h158v1184h-158q-25 0 -25 25v94 q0 25 25 24h483q27 0 27 -24v-94q0 -25 -27 -25h-155v-1184h155q27 0 27 -24v-94q0 -25 -27 -25h-483z" glyph-name="Idieresis" horiz-adv-x="727" unicode="Ï"/><glyph d="M651 1470q354 0 570.5 -195.5t216.5 -537.5q0 -340 -206 -538.5t-544 -198.5h-565q-25 0 -25 25v94q0 25 25 24h158v525h-164q-31 0 -31 28v82q0 27 31 27h164v522h-158q-25 0 -25 25v94q0 25 25 24h528zM639 143q307 0 465 149.5t158 440.5q0 281 -159 437.5t-468 156.5 h-184v-522h229q31 0 31 -27v-82q0 -12 -9.5 -20t-21.5 -8h-229v-525h188z" glyph-name="Eth" horiz-adv-x="1536" unicode="Ð"/><glyph d="M522 1626q-25 0 -24 25q0 111 49 173t143 62q55 0 107.5 -26.5t91.5 -52t65 -25.5q35 0 54.5 23.5t19.5 88.5q0 25 25 25h80q25 0 24 -25q0 -252 -192 -252q-53 0 -101.5 26t-88.5 52.5t-75 26.5q-74 0 -73 -96q0 -25 -25 -25h-80zM1235 0q-39 0 -61.5 15.5t-43.5 47.5 l-581 961l-103 188h-4v-1069h158q27 0 27 -24v-94q0 -25 -27 -25h-479q-25 0 -25 25v94q0 25 25 24h158v1184h-158q-25 0 -25 25v94q0 25 25 24h285q66 0 106 -69l575 -948q29 -47 59 -100.5t44 -82.5l14 -30h4v1087h-157q-25 0 -25 25v94q0 25 25 24h475q27 0 26 -24v-94 q0 -25 -26 -25h-156v-1302q0 -25 -24 -25h-111z" glyph-name="Ntilde" horiz-adv-x="1630" unicode="Ñ"/><glyph d="M948 1575l-358 256q-25 16 -6 39l61 80q16 23 39 6l344 -273q23 -16 6 -38l-47 -64q-19 -22 -39 -6zM813 -14q-309 0 -512 210t-203 547q0 172 58.5 313.5t158 233.5t228.5 142.5t270 50.5t269 -50.5t227.5 -142.5t158 -233.5t58.5 -313.5q0 -342 -203 -549.5 t-510 -207.5zM812.5 133q105.5 0 200.5 40t171 112.5t121 190.5t45 261q0 145 -47.5 263t-125 189t-172 108.5t-193.5 37.5t-193.5 -37.5t-172 -108.5t-125 -188.5t-47.5 -263.5q0 -143 45.5 -261t121 -190.5t171 -112.5t201 -40z" glyph-name="Ograve" horiz-adv-x="1624" unicode="Ò"/><glyph d="M674 1575q-20 -16 -39 6l-47 64q-18 23 6 38l344 273q20 16 39 -6l61 -80q18 -23 -6 -39zM813 -14q-309 0 -512 210t-203 547q0 172 58.5 313.5t158 233.5t228.5 142.5t270 50.5t269 -50.5t227.5 -142.5t158 -233.5t58.5 -313.5q0 -342 -203 -549.5t-510 -207.5z M812.5 133q105.5 0 200.5 40t171 112.5t121 190.5t45 261q0 145 -47.5 263t-125 189t-172 108.5t-193.5 37.5t-193.5 -37.5t-172 -108.5t-125 -188.5t-47.5 -263.5q0 -143 45.5 -261t121 -190.5t171 -112.5t201 -40z" glyph-name="Oacute" horiz-adv-x="1624" unicode="Ó"/><glyph d="M561 1577q-20 -14 -39 4l-49 59q-18 20 4 39l314 256q12 10 22 11q6 0 21 -11l317 -256q23 -16 4 -39l-51 -59q-18 -20 -39 -4l-252 195zM813 -14q-309 0 -512 210t-203 547q0 172 58.5 313.5t158 233.5t228.5 142.5t270 50.5t269 -50.5t227.5 -142.5t158 -233.5 t58.5 -313.5q0 -342 -203 -549.5t-510 -207.5zM812.5 133q105.5 0 200.5 40t171 112.5t121 190.5t45 261q0 145 -47.5 263t-125 189t-172 108.5t-193.5 37.5t-193.5 -37.5t-172 -108.5t-125 -188.5t-47.5 -263.5q0 -143 45.5 -261t121 -190.5t171 -112.5t201 -40z" glyph-name="Ocircumflex" horiz-adv-x="1624" unicode="Ô"/><glyph d="M506 1626q-25 0 -25 25q0 111 48.5 173t142.5 62q57 0 108 -26.5t91 -52t67 -25.5q35 0 54.5 23.5t19.5 88.5q0 25 24 25h80q25 0 25 -25q0 -252 -193 -252q-53 0 -101 26t-88 52.5t-75 26.5q-74 0 -74 -96q0 -25 -24 -25h-80zM813 -14q-309 0 -512 210t-203 547 q0 172 58.5 313.5t158 233.5t228.5 142.5t270 50.5t269 -50.5t227.5 -142.5t158 -233.5t58.5 -313.5q0 -342 -203 -549.5t-510 -207.5zM812.5 133q105.5 0 200.5 40t171 112.5t121 190.5t45 261q0 145 -47.5 263t-125 189t-172 108.5t-193.5 37.5t-193.5 -37.5t-172 -108.5 t-125 -188.5t-47.5 -263.5q0 -143 45.5 -261t121 -190.5t171 -112.5t201 -40z" glyph-name="Otilde" horiz-adv-x="1624" unicode="Õ"/><glyph d="M729 1767q0 -49 -36 -84.5t-85 -35.5q-53 0 -89 35.5t-36 84.5q0 53 36 90t89 37q49 0 85 -37t36 -90zM1143 1767q0 -49 -38 -84.5t-89 -35.5t-86 34.5t-35 85.5q0 53 35 90t86 37t89 -37t38 -90zM813 -14q-309 0 -512 210t-203 547q0 172 58.5 313.5t158 233.5 t228.5 142.5t270 50.5t269 -50.5t227.5 -142.5t158 -233.5t58.5 -313.5q0 -342 -203 -549.5t-510 -207.5zM812.5 133q105.5 0 200.5 40t171 112.5t121 190.5t45 261q0 145 -47.5 263t-125 189t-172 108.5t-193.5 37.5t-193.5 -37.5t-172 -108.5t-125 -188.5t-47.5 -263.5 q0 -143 45.5 -261t121 -190.5t171 -112.5t201 -40z" glyph-name="Odieresis" horiz-adv-x="1624" unicode="Ö"/><glyph d="M211 246l-78 82q-20 20 0 37l221 223l-225 225q-16 18 0 39l76 76q20 16 39 -2l225 -226l209 211q18 18 37 0l80 -80q18 -18 0 -34l-209 -211l223 -226q18 -23 0 -36l-76 -78q-18 -18 -37 0l-225 225l-223 -225q-19 -16 -37 0z" glyph-name="multiply" horiz-adv-x="935" unicode="×"/><glyph d="M1094 1430q195 -80 313.5 -257.5t118.5 -429.5q0 -342 -203 -549.5t-510 -207.5q-76 0 -147 14l-27 -92q-8 -27 -31 -27h-98q-27 0 -18 27l38 131q-199 82 -315.5 267.5t-116.5 436.5q0 172 58.5 313.5t158 233.5t228.5 142.5t270 50.5q74 0 145 -15l29 97q8 25 35 24h96 q25 0 17 -24zM274 737q0 -201 82 -341t219 -208l340 1137q-51 10 -102 10q-100 0 -194.5 -37.5t-172 -108.5t-125 -189t-47.5 -263zM813 133q104 0 199.5 40t171.5 112.5t121 190.5t45 261q0 199 -83 337t-218 206l-340 -1137q51 -10 104 -10z" glyph-name="Oslash" horiz-adv-x="1624" unicode="Ø"/><glyph d="M930 1575l-359 256q-23 16 -6 39l62 80q18 23 39 6l344 -273q25 -16 6 -38l-47 -64q-19 -22 -39 -6zM1176 1327h-156q-27 0 -27 25v94q0 25 27 24h481q25 0 25 -24v-94q0 -25 -25 -25h-158v-776q0 -274 -147 -419.5t-399 -145.5q-264 0 -407.5 143t-143.5 422v776h-158 q-25 0 -25 25v94q0 25 25 24h487q25 0 25 -24v-94q0 -25 -25 -25h-157v-782q0 -399 381 -400q193 0 285 103.5t92 283.5v795z" glyph-name="Ugrave" horiz-adv-x="1587" unicode="Ù"/><glyph d="M655 1575q-20 -16 -37 6l-47 64q-18 23 7 38l344 273q20 16 39 -6l61 -80q16 -23 -6 -39zM1176 1327h-156q-27 0 -27 25v94q0 25 27 24h481q25 0 25 -24v-94q0 -25 -25 -25h-158v-776q0 -274 -147 -419.5t-399 -145.5q-264 0 -407.5 143t-143.5 422v776h-158 q-25 0 -25 25v94q0 25 25 24h487q25 0 25 -24v-94q0 -25 -25 -25h-157v-782q0 -399 381 -400q193 0 285 103.5t92 283.5v795z" glyph-name="Uacute" horiz-adv-x="1587" unicode="Ú"/><glyph d="M543 1577q-20 -14 -39 4l-49 59q-18 20 4 39l315 256q12 10 20.5 10.5t20.5 -10.5l318 -256q23 -16 4 -39l-52 -59q-16 -20 -38 -4l-252 195zM1176 1327h-156q-27 0 -27 25v94q0 25 27 24h481q25 0 25 -24v-94q0 -25 -25 -25h-158v-776q0 -274 -147 -419.5t-399 -145.5 q-264 0 -407.5 143t-143.5 422v776h-158q-25 0 -25 25v94q0 25 25 24h487q25 0 25 -24v-94q0 -25 -25 -25h-157v-782q0 -399 381 -400q193 0 285 103.5t92 283.5v795z" glyph-name="Ucircumflex" horiz-adv-x="1587" unicode="Û"/><glyph d="M711 1767q0 -49 -35 -84.5t-86 -35.5t-87 35.5t-36 84.5q0 53 36 90t87 37t86 -37t35 -90zM1126 1767q0 -49 -37.5 -84.5t-89.5 -35.5q-51 0 -85.5 34.5t-34.5 85.5q0 53 34.5 90t85.5 37t89 -37t38 -90zM1176 1327h-156q-27 0 -27 25v94q0 25 27 24h481q25 0 25 -24v-94 q0 -25 -25 -25h-158v-776q0 -274 -147 -419.5t-399 -145.5q-264 0 -407.5 143t-143.5 422v776h-158q-25 0 -25 25v94q0 25 25 24h487q25 0 25 -24v-94q0 -25 -25 -25h-157v-782q0 -399 381 -400q193 0 285 103.5t92 283.5v795z" glyph-name="Udieresis" horiz-adv-x="1587" unicode="Ü"/><glyph d="M590 1575q-23 -16 -39 6l-47 64q-18 23 6 38l344 273q20 16 39 -6l61 -80q16 -23 -8 -39zM461 0q-25 0 -25 25v94q0 25 25 24h160v445l-431 739h-137q-25 0 -24 25v94q0 25 24 24h469q27 0 27 -24v-94q0 -25 -27 -25h-135l324 -584h8l319 584h-141q-25 0 -25 25v94 q0 25 25 24h467q27 0 27 -24v-94q0 -25 -27 -25h-137l-434 -739v-445h161q25 0 25 -24v-94q0 -25 -25 -25h-493z" glyph-name="Yacute" horiz-adv-x="1415" unicode="Ý"/><glyph d="M121 0q-25 0 -25 25v94q0 25 25 24h158v1184h-158q-25 0 -25 25v94q0 25 25 24h530q25 0 25 -24v-94q0 -25 -25 -25h-202v-156h288q221 0 357.5 -114.5t136.5 -325.5t-132 -320.5t-384 -109.5h-266v-158h202q25 0 25 -24v-94q0 -25 -25 -25h-530zM449 444h282 q152 0 238 69t86 218q0 150 -92.5 223.5t-231.5 73.5h-282v-584z" glyph-name="Thorn" horiz-adv-x="1314" unicode="Þ"/><glyph d="M84 0q-25 0 -25 25v88q0 25 25 24h115v860q0 227 132 361.5t331 134.5q174 0 273 -93t99 -218q0 -80 -28.5 -137.5t-70.5 -89t-83 -57.5t-69.5 -58.5t-28.5 -75.5q0 -45 33.5 -81t86 -59.5t111.5 -55t111.5 -65.5t86.5 -96.5t34 -142.5q0 -129 -92.5 -203.5t-250.5 -74.5 q-78 0 -142 21.5t-101 50t-65.5 66.5t-39 59.5t-16.5 39.5q-8 25 12 35l88 45q25 12 37 -12q80 -164 227 -164q162 0 162 137q0 59 -47 102.5t-113.5 74t-133 66.5t-113.5 99.5t-47 151.5t44 147.5t96 85t96 69.5t44 107q0 70 -58.5 121t-150.5 51q-127 0 -204.5 -86 t-77.5 -256v-860h82q25 0 24 -24v-88q0 -25 -24 -25h-369z" glyph-name="germandbls" horiz-adv-x="1267" unicode="ß"/><glyph d="M240 1386q-18 14 -4 39l65 76q18 23 39 4l330 -291q23 -16 4 -38l-51 -60q-18 -20 -39 -4zM1032 137q27 0 27 -24v-88q0 -25 -27 -25h-176q-39 0 -63.5 23.5t-24.5 62.5v80h-4q-43 -66 -134 -123t-224 -57q-147 0 -239.5 76.5t-92.5 205.5q0 152 118.5 231t325.5 79h232 v51q0 113 -68 181.5t-197 68.5q-35 0 -66.5 -4.5t-57 -11.5t-47 -15t-39 -17.5t-28.5 -16.5t-20 -13l-8 -6q-27 -18 -45 6l-45 65q-14 20 8 39q145 117 355 117q215 0 321.5 -104.5t106.5 -288.5v-492h112zM434 129q184 4 316 178v142h-238q-121 0 -193.5 -44.5 t-72.5 -125.5q0 -70 51 -111t137 -39z" glyph-name="agrave" horiz-adv-x="1099" unicode="à"/><glyph d="M369 1116l-52 60q-18 23 5 38l329 289q20 20 39 -2l66 -78q14 -20 -4 -39l-344 -274q-21 -14 -39 6zM1032 137q27 0 27 -24v-88q0 -25 -27 -25h-176q-39 0 -63.5 23.5t-24.5 62.5v80h-4q-43 -66 -134 -123t-224 -57q-147 0 -239.5 76.5t-92.5 205.5q0 152 118.5 231 t325.5 79h232v51q0 113 -68 181.5t-197 68.5q-35 0 -66.5 -4.5t-57 -11.5t-47 -15t-39 -17.5t-28.5 -16.5t-20 -13l-8 -6q-27 -18 -45 6l-45 65q-14 20 8 39q145 117 355 117q215 0 321.5 -104.5t106.5 -288.5v-492h112zM434 129q184 4 316 178v142h-238 q-121 0 -193.5 -44.5t-72.5 -125.5q0 -70 51 -111t137 -39z" glyph-name="aacute" horiz-adv-x="1099" unicode="á"/><glyph d="M203 1124l-49 60q-18 23 4 39l313 276q14 10 23 10q8 0 20 -10l317 -276q20 -20 5 -39l-52 -60q-16 -20 -39 -4l-251 215l-252 -215q-19 -16 -39 4zM1032 137q27 0 27 -24v-88q0 -25 -27 -25h-176q-39 0 -63.5 23.5t-24.5 62.5v80h-4q-43 -66 -134 -123t-224 -57 q-147 0 -239.5 76.5t-92.5 205.5q0 152 118.5 231t325.5 79h232v51q0 113 -68 181.5t-197 68.5q-35 0 -66.5 -4.5t-57 -11.5t-47 -15t-39 -17.5t-28.5 -16.5t-19 -13l-9 -6q-27 -18 -45 6l-45 65q-14 20 8 39q145 117 355 117q215 0 321.5 -104.5t106.5 -288.5v-492h112z M434 129q184 4 316 178v142h-238q-121 0 -193.5 -44.5t-72.5 -125.5q0 -70 51 -111t137 -39z" glyph-name="acircumflex" horiz-adv-x="1099" unicode="â"/><glyph d="M184 1157q-25 0 -24 25q0 111 49 173t143 62q55 0 107.5 -26.5t91.5 -52t65 -25.5q35 0 54.5 24.5t19.5 92.5q0 25 25 24h80q25 0 24 -24q0 -256 -192 -256q-53 0 -101.5 25.5t-88.5 52t-75 26.5q-74 0 -73 -96q0 -25 -25 -25h-80zM1032 137q27 0 27 -24v-88 q0 -25 -27 -25h-176q-39 0 -63.5 23.5t-24.5 62.5v80h-4q-43 -66 -134 -123t-224 -57q-147 0 -239.5 76.5t-92.5 205.5q0 152 118.5 231t325.5 79h232v51q0 113 -68 181.5t-197 68.5q-35 0 -66.5 -4.5t-57 -11.5t-47 -15t-39 -17.5t-28.5 -16.5t-19 -13l-9 -6q-27 -18 -45 6 l-45 65q-14 20 8 39q145 117 355 117q215 0 321.5 -104.5t106.5 -288.5v-492h112zM434 129q184 4 316 178v142h-238q-121 0 -193.5 -44.5t-72.5 -125.5q0 -70 51 -111t137 -39z" glyph-name="atilde" horiz-adv-x="1099" unicode="ã"/><glyph d="M294 1192q-52 0 -89 37t-37 89t37 90t88 38t88 -38t37 -90t-36 -89t-88 -37zM690 1192q-51 0 -86 37t-35 90t35 90t86 37q53 0 91 -38t38 -90t-38 -89t-91 -37zM1032 137q27 0 27 -24v-88q0 -25 -27 -25h-176q-39 0 -63.5 23.5t-24.5 62.5v80h-4q-43 -66 -134 -123 t-224 -57q-147 0 -239.5 76.5t-92.5 205.5q0 152 118.5 231t325.5 79h232v51q0 113 -68 181.5t-197 68.5q-35 0 -66.5 -4.5t-57 -11.5t-47 -15t-39 -17.5t-28.5 -16.5t-20 -13l-8 -6q-27 -18 -45 6l-45 65q-14 20 8 39q145 117 355 117q215 0 321.5 -104.5t106.5 -288.5 v-492h112zM434 129q184 4 316 178v142h-238q-121 0 -193.5 -44.5t-72.5 -125.5q0 -70 51 -111t137 -39z" glyph-name="adieresis" horiz-adv-x="1099" unicode="ä"/><glyph d="M494 1135q-78 0 -136.5 58t-58.5 138q0 78 58.5 135.5t136.5 57.5q80 0 137 -57.5t57 -135.5q0 -80 -57 -138t-137 -58zM494 1407q-29 0 -50.5 -21.5t-21.5 -54.5q0 -35 21.5 -56.5t50.5 -21.5q31 0 52 21.5t21 56.5q0 33 -21 54.5t-52 21.5zM1032 137q27 0 27 -24v-88 q0 -25 -27 -25h-176q-39 0 -63.5 23.5t-24.5 62.5v80h-4q-43 -66 -134 -123t-224 -57q-147 0 -239.5 76.5t-92.5 205.5q0 152 118.5 231t325.5 79h232v51q0 113 -68 181.5t-197 68.5q-35 0 -66.5 -4.5t-57 -11.5t-47 -15t-39 -17.5t-28.5 -16.5t-20 -13l-8 -6q-27 -18 -45 6 l-45 65q-14 20 8 39q145 117 355 117q215 0 321.5 -104.5t106.5 -288.5v-492h112zM434 129q184 4 316 178v142h-238q-121 0 -193.5 -44.5t-72.5 -125.5q0 -70 51 -111t137 -39z" glyph-name="aring" horiz-adv-x="1099" unicode="å"/><glyph d="M410 -14q-145 0 -240.5 76.5t-95.5 205.5q0 156 122.5 233t342.5 77h211v43q0 127 -72 192.5t-195 65.5q-59 0 -112.5 -13.5t-80 -27t-52 -30.5t-27.5 -17q-20 -8 -33 6l-47 65q-20 25 4 41q143 119 354 119q287 0 373 -199q133 199 367 199q219 0 329.5 -139.5 t110.5 -399.5q0 -27 -27 -26h-718q8 -160 107 -244t233 -84q188 0 311 123q20 20 39 6l59 -55q18 -18 6 -37q-23 -33 -61.5 -68t-137 -73.5t-218.5 -38.5q-143 0 -260 62.5t-183 178.5q-145 -241 -409 -241zM928 586h575q-6 135 -73.5 214t-194.5 79q-117 0 -203 -75 t-104 -218zM422 129q57 0 108.5 15.5t86 38t63.5 50t45 50t29 41.5l10 18q-14 43 -14 107h-228q-117 0 -196.5 -41t-79.5 -132q0 -63 48 -105t128 -42z" glyph-name="ae" horiz-adv-x="1763" unicode="æ"/><glyph d="M1001 203q18 -18 7 -37q-12 -20 -39 -45t-75 -56.5t-124 -54t-164 -24.5l-18 -60q59 0 105 -35.5t46 -115.5q0 -76 -52 -125t-152 -49q-78 0 -152 43q-16 10 -6 32l29 64q8 18 34 6q53 -27 90 -27q68 0 68 52q0 61 -98 61q-27 0 -36 9t-1 30l39 121q-186 27 -301 165 t-115 347q0 231 140.5 374.5t340.5 143.5q219 0 310 -141h2l-5 104q0 27 25 27h88q25 0 25 -27v-371q0 -25 -25 -24h-100q-25 0 -25 24v56q0 78 -69.5 143.5t-206.5 65.5q-141 0 -234.5 -105.5t-93.5 -269.5q0 -168 100.5 -271.5t251.5 -103.5q170 0 295 125q20 20 39 2z " glyph-name="ccedilla" horiz-adv-x="1114" unicode="ç"/><glyph d="M305 1386q-18 14 -4 39l66 76q18 23 39 4l329 -291q23 -16 4 -38l-51 -60q-18 -20 -39 -4zM1016 483q0 -27 -27 -26h-727q12 -152 109.5 -240t228.5 -88q158 0 283 125q20 20 39 2l57 -53q18 -18 6 -37q-20 -31 -59 -67t-132.5 -74.5t-201.5 -38.5q-221 0 -362.5 140 t-141.5 378q0 236 144.5 377t330.5 141q219 0 336 -141.5t117 -397.5zM268 594h576q-6 125 -79 205t-196 80q-113 0 -195.5 -74t-105.5 -211z" glyph-name="egrave" horiz-adv-x="1095" unicode="è"/><glyph d="M434 1116l-51 60q-18 23 4 38l330 289q20 20 39 -2l65 -78q14 -20 -4 -39l-344 -274q-21 -14 -39 6zM1016 483q0 -27 -27 -26h-727q12 -152 109.5 -240t228.5 -88q158 0 283 125q20 20 39 2l57 -53q18 -18 6 -37q-20 -31 -59 -67t-132.5 -74.5t-201.5 -38.5 q-221 0 -362.5 140t-141.5 378q0 236 144.5 377t330.5 141q219 0 336 -141.5t117 -397.5zM268 594h576q-6 125 -79 205t-196 80q-113 0 -195.5 -74t-105.5 -211z" glyph-name="eacute" horiz-adv-x="1095" unicode="é"/><glyph d="M268 1124l-49 60q-18 23 4 39l314 276q14 10 22 10t21 -10l317 -276q20 -20 4 -39l-51 -60q-16 -20 -39 -4l-252 215l-252 -215q-19 -16 -39 4zM1016 483q0 -27 -27 -26h-727q12 -152 109.5 -240t228.5 -88q55 0 103.5 12.5t85 36t53 37.5t41.5 39q20 20 39 2l57 -53 q18 -18 6 -37q-14 -20 -40.5 -46t-74 -58.5t-121 -54t-157.5 -21.5q-221 0 -362.5 140t-141.5 378q0 119 42 219t109.5 163.5t151.5 99.5t172 36q219 0 336 -141.5t117 -397.5zM268 594h576q-6 125 -79 205t-196 80q-113 0 -195.5 -74t-105.5 -211z" glyph-name="ecircumflex" horiz-adv-x="1095" unicode="ê"/><glyph d="M359.5 1192q-52.5 0 -89.5 37t-37 89t37 90t88.5 38t88 -38t36.5 -90t-35.5 -89t-88 -37zM756 1192q-51 0 -86 37t-35 90t35 90t86 37q53 0 91 -38t38 -90t-38 -89t-91 -37zM1016 483q0 -27 -27 -26h-727q12 -152 109.5 -240t228.5 -88q158 0 283 125q20 20 39 2l57 -53 q18 -18 6 -37q-20 -31 -59 -67t-132.5 -74.5t-201.5 -38.5q-221 0 -362.5 140t-141.5 378q0 236 144.5 377t330.5 141q219 0 336 -141.5t117 -397.5zM268 594h576q-6 125 -79 205t-196 80q-113 0 -195.5 -74t-105.5 -211z" glyph-name="edieresis" horiz-adv-x="1095" unicode="ë"/><glyph d="M367 1112l-344 274q-18 14 -5 39l66 76q18 23 39 4l330 -291q23 -16 4 -38l-51 -60q-19 -20 -39 -4zM104 0q-25 0 -24 25v88q0 25 24 24h115v733h-115q-25 0 -24 25v88q0 25 24 25h258q27 0 27 -25v-846h115q25 0 24 -24v-88q0 -25 -24 -25h-400z" glyph-name="igrave" horiz-adv-x="587" unicode="ì"/><glyph d="M190 1110q-20 -14 -38 6l-52 60q-18 23 4 38l330 289q20 20 39 -2l66 -78q14 -20 -4 -39zM104 0q-25 0 -24 25v88q0 25 24 24h115v733h-115q-25 0 -24 25v88q0 25 24 25h258q27 0 27 -25v-846h115q25 0 24 -24v-88q0 -25 -24 -25h-400z" glyph-name="iacute" horiz-adv-x="587" unicode="í"/><glyph d="M25 1120q-18 -16 -39 4l-49 60q-18 23 4 39l313 276q14 10 22 10t21 -10l317 -276q20 -20 4 -39l-51 -60q-16 -20 -39 -4l-252 215zM104 0q-25 0 -24 25v88q0 25 24 24h115v733h-115q-25 0 -24 25v88q0 25 24 25h258q27 0 27 -25v-846h115q25 0 24 -24v-88q0 -25 -24 -25 h-400z" glyph-name="icircumflex" horiz-adv-x="587" unicode="î"/><glyph d="M201 1318q0 -52 -36 -89t-88 -37t-89 37t-37 89t37 90t88 38t88 -38t37 -90zM602 1318q0 -52 -38 -89t-91 -37q-51 0 -86 37t-35 90t35 90t86 37q53 0 91 -38t38 -90zM104 0q-25 0 -24 25v88q0 25 24 24h115v733h-115q-25 0 -24 25v88q0 25 24 25h258q27 0 27 -25v-846 h115q25 0 24 -24v-88q0 -25 -24 -25h-400z" glyph-name="idieresis" horiz-adv-x="587" unicode="ï"/><glyph d="M977 1290q158 -203 158 -567q0 -344 -136.5 -540.5t-410.5 -196.5q-223 0 -361.5 130t-138.5 349q0 223 132 354t380 131q229 0 354 -121q-6 207 -94 342l-94 -94q-20 -20 -39 0l-65 64q-20 20 0 39l98 98q-86 59 -197 59q-55 0 -104 -9t-80 -21.5t-52.5 -25.5 t-32.5 -22.5t-13 -9.5q-20 -8 -31 6l-53 74q-14 16 4 33q12 14 47 37.5t124 53.5t187 30q182 0 313 -94l101 98q18 18 37 0l63 -62q18 -20 0 -39zM586 129q182 0 277 145.5t95 415.5q-45 41 -138 78t-218 37q-160 0 -251 -94.5t-91 -247.5q0 -145 90.5 -239.5t235.5 -94.5z " glyph-name="eth" horiz-adv-x="1230" unicode="ð"/><glyph d="M328 1157q-25 0 -25 25q0 111 49 173t144 62q55 0 107 -26.5t91 -52t66 -25.5q35 0 54.5 24.5t19.5 92.5q0 25 24 24h80q25 0 25 -24q0 -256 -193 -256q-53 0 -101 25.5t-88 52t-75 26.5q-74 0 -74 -96q0 -25 -24 -25h-80zM104 0q-25 0 -24 25v88q0 25 24 24h115v733 h-115q-25 0 -24 25v88q0 25 24 25h242q25 0 25 -25l-2 -129h6q14 23 33.5 45.5t57.5 53t100.5 50t138.5 19.5q166 0 265 -99.5t99 -267.5v-518h113q27 0 26 -24v-88q0 -25 -26 -25h-193q-47 0 -68.5 19.5t-21.5 66.5v549q0 109 -62.5 174t-174.5 65q-109 0 -174.5 -55 t-98.5 -127v-555h115q25 0 24 -24v-88q0 -25 -24 -25h-400z" glyph-name="ntilde" horiz-adv-x="1228" unicode="ñ"/><glyph d="M680 1112l-344 274q-18 14 -4 39l65 76q18 23 39 4l330 -291q23 -16 4 -38l-51 -60q-19 -20 -39 -4zM589.5 1022q227.5 0 366 -143.5t138.5 -374.5q0 -233 -138.5 -375.5t-366 -142.5t-365.5 142t-138 376q0 231 138 374.5t365.5 143.5zM589.5 129q145.5 0 239 104.5 t93.5 270.5t-93.5 270.5t-239 104.5t-238.5 -104.5t-93 -270.5t93 -270.5t238.5 -104.5z" glyph-name="ograve" horiz-adv-x="1179" unicode="ò"/><glyph d="M504 1110q-20 -14 -39 6l-51 60q-18 23 4 38l330 289q20 20 38 -2l66 -78q14 -20 -4 -39zM589.5 1022q227.5 0 366 -143.5t138.5 -374.5q0 -233 -138.5 -375.5t-366 -142.5t-365.5 142t-138 376q0 231 138 374.5t365.5 143.5zM589.5 129q145.5 0 239 104.5t93.5 270.5 t-93.5 270.5t-239 104.5t-238.5 -104.5t-93 -270.5t93 -270.5t238.5 -104.5z" glyph-name="oacute" horiz-adv-x="1179" unicode="ó"/><glyph d="M338 1120q-18 -16 -39 4l-49 60q-18 23 4 39l315 276q12 10 21 10q8 0 20 -10l318 -276q20 -20 4 -39l-51 -60q-16 -20 -39 -4l-252 215zM589.5 1022q227.5 0 366 -143.5t138.5 -374.5q0 -233 -138.5 -375.5t-366 -142.5t-365.5 142t-138 376q0 231 138 374.5 t365.5 143.5zM589.5 129q145.5 0 239 104.5t93.5 270.5t-93.5 270.5t-239 104.5t-238.5 -104.5t-93 -270.5t93 -270.5t238.5 -104.5z" glyph-name="ocircumflex" horiz-adv-x="1179" unicode="ô"/><glyph d="M281 1157q-25 0 -25 25q0 111 49 173t144 62q55 0 107 -26.5t91 -52t66 -25.5q35 0 54 24.5t19 92.5q0 25 25 24h80q25 0 24 -24q0 -256 -192 -256q-53 0 -101.5 25.5t-88 52t-74.5 26.5q-74 0 -74 -96q0 -25 -25 -25h-79zM589.5 1022q227.5 0 366 -143.5t138.5 -374.5 q0 -233 -138.5 -375.5t-366 -142.5t-365.5 142t-138 376q0 231 138 374.5t365.5 143.5zM589.5 129q145.5 0 239 104.5t93.5 270.5t-93.5 270.5t-239 104.5t-238.5 -104.5t-93 -270.5t93 -270.5t238.5 -104.5z" glyph-name="otilde" horiz-adv-x="1179" unicode="õ"/><glyph d="M516 1318q0 -52 -37 -89t-89 -37t-88 37t-36 89t36 90t87 38t89 -38t38 -90zM913 1318q0 -52 -36.5 -89t-90.5 -37q-51 0 -85.5 37t-34.5 90t34.5 90t85.5 37q53 0 90 -38t37 -90zM589.5 1022q227.5 0 366 -143.5t138.5 -374.5q0 -233 -138.5 -375.5t-366 -142.5 t-365.5 142t-138 376q0 231 138 374.5t365.5 143.5zM589.5 129q145.5 0 239 104.5t93.5 270.5t-93.5 270.5t-239 104.5t-238.5 -104.5t-93 -270.5t93 -270.5t238.5 -104.5z" glyph-name="odieresis" horiz-adv-x="1179" unicode="ö"/><glyph d="M451 754q-47 0 -80 32.5t-33 78.5t32.5 80t80.5 34q47 0 78.5 -34t31.5 -80t-31.5 -78.5t-78.5 -32.5zM129 489q-29 0 -29 29v103q0 29 29 28h637q27 0 27 -28v-103q0 -29 -27 -29h-637zM451 160q-47 0 -80 32.5t-33 79.5t32.5 80t80.5 33q47 0 78.5 -33t31.5 -80 t-31.5 -79.5t-78.5 -32.5z" glyph-name="divide" horiz-adv-x="892" unicode="÷"/><glyph d="M885 938q98 -68 153.5 -180.5t55.5 -253.5q0 -233 -138.5 -375.5t-365.5 -142.5q-94 0 -176 26l-19 -37q-12 -25 -30 -24h-97q-12 0 -18 7t0 17l47 93q-100 68 -155.5 180t-55.5 256q0 231 138 374.5t366 143.5q94 0 176 -27l16 33q10 27 35 27h96q27 0 17 -27zM258 504 q0 -184 113 -291l327 649q-51 16 -108 17q-145 0 -238.5 -104.5t-93.5 -270.5zM590 129q145 0 238.5 104.5t93.5 270.5q0 182 -111 289l-330 -648q52 -16 109 -16z" glyph-name="oslash" horiz-adv-x="1179" unicode="ø"/><glyph d="M674 1112l-344 274q-18 14 -4 39l65 76q18 23 39 4l330 -291q23 -16 4 -38l-51 -60q-19 -20 -39 -4zM958 0q-88 0 -88 86v68h-6q-12 -23 -31.5 -45.5t-56.5 -53t-98.5 -50t-134.5 -19.5q-164 0 -261.5 99t-97.5 267v518h-112q-27 0 -27 25v88q0 25 27 25h258q25 0 24 -25 v-631q0 -96 62.5 -159.5t169.5 -63.5q184 0 264 186v555h-115q-25 0 -24 25v88q0 25 24 25h260q25 0 25 -25v-846h117q23 0 22 -24v-88q0 -25 -22 -25h-179z" glyph-name="ugrave" horiz-adv-x="1218" unicode="ù"/><glyph d="M498 1110q-20 -14 -39 6l-51 60q-18 23 4 38l329 289q20 20 39 -2l66 -78q14 -20 -4 -39zM958 0q-88 0 -88 86v68h-6q-12 -23 -31.5 -45.5t-56.5 -53t-98.5 -50t-134.5 -19.5q-164 0 -261.5 99t-97.5 267v518h-112q-27 0 -27 25v88q0 25 27 25h258q25 0 24 -25v-631 q0 -96 62.5 -159.5t169.5 -63.5q184 0 264 186v555h-115q-25 0 -24 25v88q0 25 24 25h260q25 0 25 -25v-846h117q23 0 22 -24v-88q0 -25 -22 -25h-179z" glyph-name="uacute" horiz-adv-x="1218" unicode="ú"/><glyph d="M332 1120q-18 -16 -39 4l-49 60q-18 23 4 39l313 276q14 10 23 10q8 0 20 -10l318 -276q20 -20 4 -39l-52 -60q-16 -20 -38 -4l-252 215zM958 0q-45 0 -66.5 19.5t-21.5 66.5v68h-6q-12 -23 -31.5 -45.5t-56.5 -53t-98.5 -50t-134.5 -19.5q-164 0 -261.5 99t-97.5 267 v518h-112q-27 0 -27 25v88q0 25 27 25h258q25 0 24 -25v-631q0 -96 62.5 -159.5t169.5 -63.5q104 0 168.5 56.5t95.5 129.5v555h-115q-25 0 -24 25v88q0 25 24 25h260q25 0 25 -25v-846h117q23 0 22 -24v-88q0 -25 -22 -25h-179z" glyph-name="ucircumflex" horiz-adv-x="1218" unicode="û"/><glyph d="M508 1318q0 -52 -36 -89t-88 -37t-89 37t-37 89t37 90t88 38t88 -38t37 -90zM909 1318q0 -52 -37.5 -89t-91.5 -37q-51 0 -86 37t-35 90t35 90t86 37q53 0 91 -38t38 -90zM958 0q-88 0 -88 86v68h-6q-12 -23 -31.5 -45.5t-56.5 -53t-98.5 -50t-134.5 -19.5 q-164 0 -261.5 99t-97.5 267v518h-112q-27 0 -27 25v88q0 25 27 25h258q25 0 24 -25v-631q0 -96 62.5 -159.5t169.5 -63.5q184 0 264 186v555h-115q-25 0 -24 25v88q0 25 24 25h260q25 0 25 -25v-846h117q23 0 22 -24v-88q0 -25 -22 -25h-179z" glyph-name="udieresis" horiz-adv-x="1218" unicode="ü"/><glyph d="M504 1116l-51 60q-18 23 4 38l329 289q20 20 39 -2l66 -78q14 -20 -4 -39l-344 -274q-21 -14 -39 6zM1174 1008q25 0 24 -25v-88q0 -25 -24 -25h-109l-338 -833l-51 -123q-78 -188 -145.5 -268t-198.5 -80q-143 0 -209 65q-20 20 -6 37l51 72q14 18 37 2q41 -33 110 -33 q76 0 119 46t90 161l35 84h-24q-18 0 -26.5 7t-19.5 30l-335 833h-109q-25 0 -25 25v88q0 25 25 25h412q25 0 24 -25v-88q0 -25 -24 -25h-121l276 -727h4l283 727h-117q-25 0 -24 25v88q0 25 24 25h392z" glyph-name="yacute" horiz-adv-x="1212" unicode="ý"/><glyph d="M35 -420q-25 0 -25 25v88q0 25 25 24h115v1616h-115q-25 0 -25 25v88q0 25 25 24h260q25 0 24 -24v-604q39 74 130.5 127t222.5 53q205 0 331.5 -143.5t126.5 -374.5q0 -233 -130 -375.5t-338 -142.5q-127 0 -219.5 59t-125.5 131h-4q6 -90 6 -131v-328h134q25 0 24 -24 v-88q0 -25 -24 -25h-418zM645 129q137 0 225 104.5t88 270.5q0 172 -90 273.5t-223 101.5q-137 0 -232.5 -100.5t-95.5 -274.5q0 -168 94.5 -271.5t233.5 -103.5z" glyph-name="thorn" horiz-adv-x="1218" unicode="þ"/><glyph d="M429 1192q-52 0 -89 37t-37 89t37 90t88 38t88 -38t37 -90t-36 -89t-88 -37zM825 1192q-51 0 -85.5 37t-34.5 90t34.5 90t85.5 37q53 0 91 -38t38 -90t-38 -89t-91 -37zM1174 1008q25 0 24 -25v-88q0 -25 -24 -25h-109l-338 -833l-51 -123q-78 -188 -145.5 -268 t-198.5 -80q-143 0 -209 65q-20 20 -6 37l51 72q14 18 37 2q41 -33 110 -33q76 0 119 46t90 161l35 84h-24q-18 0 -26.5 7t-19.5 30l-335 833h-109q-25 0 -25 25v88q0 25 25 25h412q25 0 24 -25v-88q0 -25 -24 -25h-121l276 -727h4l283 727h-117q-25 0 -24 25v88q0 25 24 25 h392z" glyph-name="ydieresis" horiz-adv-x="1212" unicode="ÿ"/><glyph d="M451 1655q-27 0 -27 26v86q0 29 27 29h606q27 0 26 -29v-86q0 -27 -26 -26h-606zM1053 0q-27 0 -27 25v94q0 25 27 24h143l-133 357h-580l-133 -357h146q27 0 26 -24v-94q0 -25 -26 -25h-451q-25 0 -25 25v94q0 25 25 24h137l447 1184h-115q-27 0 -27 25v94q0 25 27 24 h268q49 0 75 -20t44 -68l471 -1239h135q27 0 27 -24v-94q0 -25 -27 -25h-454zM778 1268h-14l-225 -621h471z" glyph-name="Amacron" horiz-adv-x="1544" unicode="Ā"/><glyph d="M190 1225q-27 0 -26 26v86q0 29 26 29h607q27 0 26 -29v-86q0 -27 -26 -26h-607zM1032 137q27 0 27 -24v-88q0 -25 -27 -25h-176q-39 0 -63.5 23.5t-24.5 62.5v80h-4q-43 -66 -134 -123t-224 -57q-147 0 -239.5 76.5t-92.5 205.5q0 152 118.5 231t325.5 79h232v51 q0 113 -68 181.5t-197 68.5q-35 0 -66.5 -4.5t-57 -11.5t-47 -15t-39 -17.5t-28.5 -16.5t-20 -13l-8 -6q-27 -18 -45 6l-45 65q-14 20 8 39q145 117 355 117q215 0 321.5 -104.5t106.5 -288.5v-492h112zM434 129q184 4 316 178v142h-238q-121 0 -193.5 -44.5t-72.5 -125.5 q0 -70 51 -111t137 -39z" glyph-name="amacron" horiz-adv-x="1099" unicode="ā"/><glyph d="M755.5 1599q-143.5 0 -226.5 78t-83 219q0 27 25 27h86q29 0 29 -27q0 -78 48 -121.5t121.5 -43.5t122 44t48.5 121q0 27 28 27h86q25 0 25 -27q0 -141 -83 -219t-226.5 -78zM1053 0q-27 0 -27 25v94q0 25 27 24h143l-133 357h-580l-133 -357h146q27 0 26 -24v-94 q0 -25 -26 -25h-451q-25 0 -25 25v94q0 25 25 24h137l447 1184h-115q-27 0 -27 25v94q0 25 27 24h268q49 0 75 -20t44 -68l471 -1239h135q27 0 27 -24v-94q0 -25 -27 -25h-454zM778 1268h-14l-225 -621h471z" glyph-name="Abreve" horiz-adv-x="1544" unicode="Ă"/><glyph d="M493.5 1126q-145.5 0 -227.5 77t-82 233q0 27 25 26h86q29 0 29 -26q0 -178 170 -178.5t170 178.5q0 27 28 26h86q25 0 25 -26q0 -156 -82 -233t-227.5 -77zM1032 137q27 0 27 -24v-88q0 -25 -27 -25h-176q-39 0 -63.5 23.5t-24.5 62.5v80h-4q-43 -66 -134 -123t-224 -57 q-147 0 -239.5 76.5t-92.5 205.5q0 152 118.5 231t325.5 79h232v51q0 113 -68 181.5t-197 68.5q-35 0 -66.5 -4.5t-57 -11.5t-47 -15t-39 -17.5t-28.5 -16.5t-20 -13l-8 -6q-27 -18 -45 6l-45 65q-14 20 8 39q145 117 355 117q215 0 321.5 -104.5t106.5 -288.5v-492h112z M434 129q184 4 316 178v142h-238q-121 0 -193.5 -44.5t-72.5 -125.5q0 -70 51 -111t137 -39z" glyph-name="abreve" horiz-adv-x="1099" unicode="ă"/><glyph d="M1507 143q27 0 27 -24v-94q0 -25 -27 -25h-164q-123 -84 -122 -203q0 -74 63 -73q33 0 64 16q29 14 38 -4l35 -62q10 -18 -8 -34q-47 -39 -141 -39q-92 0 -139.5 50t-47.5 130q0 78 43 137t91 82h-166q-27 0 -27 25v94q0 25 27 24h143l-133 357h-580l-133 -357h146 q27 0 26 -24v-94q0 -25 -26 -25h-451q-25 0 -25 25v94q0 25 25 24h137l447 1184h-115q-27 0 -27 25v94q0 25 27 24h268q49 0 75 -20t44 -68l471 -1239h135zM539 647h471l-232 621h-14z" glyph-name="Aogonek" horiz-adv-x="1544" unicode="Ą"/><glyph d="M1085 -326q12 -18 -8 -34q-45 -39 -139 -39q-92 0 -139 50t-47 130q0 78 43 137t90 82h-29q-39 0 -63.5 23.5t-24.5 62.5v80h-4q-43 -66 -134 -123t-224 -57q-147 0 -239.5 76.5t-92.5 205.5q0 152 118.5 231t325.5 79h232v51q0 113 -68 181.5t-197 68.5 q-35 0 -66.5 -4.5t-57 -11.5t-47 -15t-39 -17.5t-28.5 -16.5t-19 -13l-9 -6q-27 -18 -45 6l-45 65q-14 20 8 39q145 117 355 117q215 0 321.5 -104.5t106.5 -288.5v-492h112q27 0 27 -24v-88q0 -25 -27 -25h-22q-123 -84 -123 -201q0 -76 63 -75q33 0 64 16q29 14 39 -4z M434 129q184 4 316 178v142h-238q-121 0 -193.5 -44.5t-72.5 -125.5q0 -70 51 -111t137 -39z" glyph-name="aogonek" horiz-adv-x="1099" unicode="ą"/><glyph d="M653 1575q-20 -16 -39 6l-47 64q-18 23 6 38l345 273q20 16 38 -6l62 -80q18 -23 -6 -39zM1419 373q16 -14 4 -41q-14 -29 -39.5 -65t-80 -88t-121 -93t-169 -70.5t-216.5 -29.5q-307 0 -502 207.5t-195 549.5q0 168 57.5 309.5t153 234.5t219 144.5t258.5 51.5 q328 0 463 -211l-2 174q0 25 23 24h108q25 0 25 -24v-445q0 -27 -25 -26h-118q-27 0 -27 26v15q0 49 -29.5 103.5t-83 103.5t-139.5 80.5t-186.5 31.5t-192.5 -37.5t-165.5 -110.5t-118 -188.5t-44.5 -261.5q0 -145 43 -262t118 -189.5t169 -112.5t199.5 -40t193.5 30 t146.5 78t93.5 88t59 85q14 27 37 12z" glyph-name="Cacute" horiz-adv-x="1519" unicode="Ć"/><glyph d="M487 1110q-20 -14 -38 6l-52 60q-18 23 4 38l330 289q20 20 39 -2l66 -78q14 -20 -5 -39zM567 1022q219 0 310 -141h2l-5 104q0 27 25 27h88q25 0 25 -27v-371q0 -25 -25 -24h-100q-25 0 -25 24v56q0 78 -69.5 143.5t-206.5 65.5q-141 0 -234.5 -105.5t-93.5 -269.5 q0 -168 100.5 -271.5t251.5 -103.5q170 0 295 125q20 20 39 2l57 -53q18 -18 7 -37q-20 -31 -61.5 -67t-140.5 -74.5t-220 -38.5q-219 0 -359.5 142t-140.5 376q0 231 140 374.5t341 143.5z" glyph-name="cacute" horiz-adv-x="1114" unicode="ć"/><glyph d="M541 1577q-20 -14 -39 4l-49 59q-18 20 4 39l313 256q12 10 23 11q6 0 20 -11l317 -256q23 -16 5 -39l-52 -59q-18 -20 -39 -4l-251 195zM1419 373q16 -14 4 -41q-14 -29 -39.5 -65t-80 -88t-121 -93t-169 -70.5t-216.5 -29.5q-307 0 -502 207.5t-195 549.5 q0 168 57.5 309.5t153 234.5t219 144.5t258.5 51.5q328 0 463 -211l-2 174q0 25 23 24h108q25 0 25 -24v-445q0 -27 -25 -26h-118q-27 0 -27 26v15q0 49 -29.5 103.5t-83 103.5t-139.5 80.5t-186.5 31.5t-192.5 -37.5t-165.5 -110.5t-118 -188.5t-44.5 -261.5 q0 -145 43 -262t118 -189.5t169 -112.5t199.5 -40t193.5 30t146.5 78t93.5 88t59 85q14 27 37 12z" glyph-name="Ccircumflex" horiz-adv-x="1519" unicode="Ĉ"/><glyph d="M322 1120q-18 -16 -39 4l-50 60q-18 23 5 39l315 276q12 10 20 10t21 -10l317 -276q20 -20 4 -39l-51 -60q-16 -20 -39 -4l-252 215zM567 1022q219 0 310 -141h2l-5 104q0 27 25 27h88q25 0 25 -27v-371q0 -25 -25 -24h-100q-25 0 -25 24v56q0 78 -69.5 143.5 t-206.5 65.5q-141 0 -234.5 -105.5t-93.5 -269.5q0 -168 100.5 -271.5t251.5 -103.5q170 0 295 125q20 20 39 2l57 -53q18 -18 7 -37q-14 -20 -42 -46t-78 -58.5t-130 -54t-172 -21.5q-219 0 -359.5 142t-140.5 376q0 231 140 374.5t341 143.5z" glyph-name="ccircumflex" horiz-adv-x="1114" unicode="ĉ"/><glyph d="M913 1741q0 -49 -35.5 -84t-84.5 -35q-51 0 -86 35t-35 84q0 51 34.5 87t86.5 36q49 0 84.5 -36t35.5 -87zM1419 373q16 -14 4 -41q-14 -29 -39.5 -65t-80 -88t-121 -93t-169 -70.5t-216.5 -29.5q-307 0 -502 207.5t-195 549.5q0 168 57.5 309.5t153 234.5t219 144.5 t258.5 51.5q328 0 463 -211l-2 174q0 25 23 24h108q25 0 25 -24v-445q0 -27 -25 -26h-118q-27 0 -27 26v15q0 49 -29.5 103.5t-83 103.5t-139.5 80.5t-186.5 31.5t-192.5 -37.5t-165.5 -110.5t-118 -188.5t-44.5 -261.5q0 -145 43 -262t118 -189.5t169 -112.5t199.5 -40 t193.5 30t146.5 78t93.5 88t59 85q14 27 37 12z" glyph-name="Cdotaccent" horiz-adv-x="1519" unicode="Ċ"/><glyph d="M705 1335q0 -53 -39 -91t-93 -38q-55 0 -93 38t-38 91q0 55 38 94t93 39q53 0 92.5 -39t39.5 -94zM567 1022q219 0 310 -141h2l-5 104q0 27 25 27h88q25 0 25 -27v-371q0 -25 -25 -24h-100q-25 0 -25 24v56q0 78 -69.5 143.5t-206.5 65.5q-141 0 -234.5 -105.5 t-93.5 -269.5q0 -168 100.5 -271.5t251.5 -103.5q170 0 295 125q20 20 39 2l57 -53q18 -18 7 -37q-20 -31 -61.5 -67t-140.5 -74.5t-220 -38.5q-219 0 -359.5 142t-140.5 376q0 231 140 374.5t341 143.5z" glyph-name="cdotaccent" horiz-adv-x="1114" unicode="ċ"/><glyph d="M793 1569q-10 0 -23 10l-313 256q-23 18 -4 39l49 59q16 20 39 4l252 -194l251 194q20 16 39 -4l52 -59q16 -20 -5 -39l-317 -256q-14 -10 -20 -10zM1419 373q16 -14 4 -41q-14 -29 -39.5 -65t-80 -88t-121 -93t-169 -70.5t-216.5 -29.5q-307 0 -502 207.5t-195 549.5 q0 168 57.5 309.5t153 234.5t219 144.5t258.5 51.5q328 0 463 -211l-2 174q0 25 23 24h108q25 0 25 -24v-445q0 -27 -25 -26h-118q-27 0 -27 26v15q0 49 -29.5 103.5t-83 103.5t-139.5 80.5t-186.5 31.5t-192.5 -37.5t-165.5 -110.5t-118 -188.5t-44.5 -261.5 q0 -145 43 -262t118 -189.5t169 -112.5t199.5 -40t193.5 30t146.5 78t93.5 88t59 85q14 27 37 12z" glyph-name="Ccaron" horiz-adv-x="1519" unicode="Č"/><glyph d="M565 1108q-8 0 -20 10l-316 277q-20 18 -4 39l49 59q18 23 39 4l252 -215l252 215q20 16 39 -4l51 -59q16 -20 -4 -39l-317 -277q-13 -10 -21 -10zM567 1022q219 0 310 -141h2l-5 104q0 27 25 27h88q25 0 25 -27v-371q0 -25 -25 -24h-100q-25 0 -25 24v56 q0 78 -69.5 143.5t-206.5 65.5q-141 0 -234.5 -105.5t-93.5 -269.5q0 -168 100.5 -271.5t251.5 -103.5q170 0 295 125q20 20 39 2l57 -53q18 -18 7 -37q-14 -20 -42 -46t-78 -58.5t-130 -54t-172 -21.5q-219 0 -359.5 142t-140.5 376q0 231 140 374.5t341 143.5z" glyph-name="ccaron" horiz-adv-x="1114" unicode="č"/><glyph d="M700.5 1569q-8.5 0 -20.5 10l-315 256q-23 18 -5 39l50 59q16 20 39 4l251 -194l252 194q20 16 39 -4l51 -59q18 -20 -4 -39l-317 -256q-12 -10 -20.5 -10zM121 0q-25 0 -25 25v94q0 25 25 24h158v1184h-158q-25 0 -25 25v94q0 25 25 24h528q354 0 570.5 -195.5 t216.5 -537.5q0 -340 -206 -538.5t-544 -198.5h-565zM637 143q307 0 465 149.5t158 440.5q0 281 -159 437.5t-468 156.5h-184v-1184h188z" glyph-name="Dcaron" horiz-adv-x="1533" unicode="Ď"/><glyph d="M1208 1018q-12 0 -12 10v68q0 12 12 12q35 0 70 29.5t35 83.5q0 10 -2 22q-12 -2 -33 -2q-51 0 -89 37t-38 92q0 53 39 92t92 39q61 0 102 -51t41 -156q0 -137 -64.5 -206.5t-152.5 -69.5zM547 1022q135 0 225 -55.5t127 -132.5h6q-6 45 -6 79v420h-113q-27 0 -26 25v88 q0 25 26 24h258q25 0 25 -24v-1309h115q25 0 24 -24v-88q0 -25 -24 -25h-187q-47 0 -68.5 19.5t-21.5 66.5v90h-2q-37 -76 -128 -133t-220 -57q-209 0 -339 142t-130 376q0 231 127 374.5t332 143.5zM573 129q139 0 233.5 103.5t94.5 271.5q0 174 -95 274.5t-233 100.5 q-133 0 -223 -101.5t-90 -273.5q0 -166 88 -270.5t225 -104.5z" glyph-name="dcaron" horiz-adv-x="1308" unicode="ď"/><glyph d="M651 1470q354 0 570.5 -195.5t216.5 -537.5q0 -340 -206 -538.5t-544 -198.5h-565q-25 0 -25 25v94q0 25 25 24h158v525h-164q-31 0 -31 28v82q0 27 31 27h164v522h-158q-25 0 -25 25v94q0 25 25 24h528zM639 143q307 0 465 149.5t158 440.5q0 281 -159 437.5t-468 156.5 h-184v-522h229q31 0 31 -27v-82q0 -12 -9.5 -20t-21.5 -8h-229v-525h188z" glyph-name="Dcroat" horiz-adv-x="1536" unicode="Đ"/><glyph d="M1180 1090h-111v-953h115q25 0 24 -24v-88q0 -25 -24 -25h-187q-47 0 -68.5 19.5t-21.5 66.5v90h-2q-37 -76 -128 -133t-220 -57q-209 0 -339 142t-130 376q0 231 127 374.5t332 143.5q135 0 225 -55.5t127 -132.5h6q-6 45 -6 79v177h-231q-27 0 -27 28v82q0 27 27 27 h231v106h-113q-27 0 -26 25v88q0 25 26 24h258q25 0 25 -24v-219h111q29 0 28 -27v-82q1 -28 -28 -28zM573 129q139 0 233.5 103.5t94.5 271.5q0 174 -95 274.5t-233 100.5q-133 0 -223 -101.5t-90 -273.5q0 -166 88 -270.5t225 -104.5z" glyph-name="dcroat" horiz-adv-x="1267" unicode="đ"/><glyph d="M379 1655q-27 0 -27 26v86q0 29 27 29h606q27 0 27 -29v-86q0 -27 -27 -26h-606zM121 0q-25 0 -25 25v94q0 25 25 24h158v1184h-158q-25 0 -25 25v94q0 25 25 24h1087q25 0 25 -24v-326q0 -25 -25 -24h-114q-25 0 -25 24v207h-620v-498h520q27 0 26 -24v-96 q0 -25 -26 -25h-520v-541h622v205q0 25 27 25h114q25 0 25 -25v-323q0 -25 -25 -25h-1091z" glyph-name="Emacron" horiz-adv-x="1347" unicode="Ē"/><glyph d="M256 1225q-27 0 -27 26v86q0 29 27 29h606q27 0 27 -29v-86q0 -27 -27 -26h-606zM1016 483q0 -27 -27 -26h-727q12 -152 109.5 -240t228.5 -88q158 0 283 125q20 20 39 2l57 -53q18 -18 6 -37q-20 -31 -59 -67t-132.5 -74.5t-201.5 -38.5q-221 0 -362.5 140t-141.5 378 q0 236 144.5 377t330.5 141q219 0 336 -141.5t117 -397.5zM268 594h576q-6 125 -79 205t-196 80q-113 0 -195.5 -74t-105.5 -211z" glyph-name="emacron" horiz-adv-x="1095" unicode="ē"/><glyph d="M684 1599q-143 0 -226 78t-83 219q0 27 24 27h86q29 0 29 -27q0 -78 48 -121.5t122 -43.5t122 44t48 121q0 27 29 27h86q25 0 24 -27q0 -141 -83 -219t-226 -78zM121 0q-25 0 -25 25v94q0 25 25 24h158v1184h-158q-25 0 -25 25v94q0 25 25 24h1087q25 0 25 -24v-326 q0 -25 -25 -24h-114q-25 0 -25 24v207h-620v-498h520q27 0 26 -24v-96q0 -25 -26 -25h-520v-541h622v205q0 25 27 25h114q25 0 25 -25v-323q0 -25 -25 -25h-1091z" glyph-name="Ebreve" horiz-adv-x="1347" unicode="Ĕ"/><glyph d="M559.5 1126q-145.5 0 -227.5 77t-82 233q0 27 24 26h86q29 0 29 -26q0 -178 170 -178.5t170 178.5q0 27 29 26h86q25 0 24 -26q0 -156 -81.5 -233t-227 -77zM1016 483q0 -27 -27 -26h-727q12 -152 109.5 -240t228.5 -88q158 0 283 125q20 20 39 2l57 -53q18 -18 6 -37 q-20 -31 -59 -67t-132.5 -74.5t-201.5 -38.5q-221 0 -362.5 140t-141.5 378q0 236 144.5 377t330.5 141q219 0 336 -141.5t117 -397.5zM268 594h576q-6 125 -79 205t-196 80q-113 0 -195.5 -74t-105.5 -211z" glyph-name="ebreve" horiz-adv-x="1095" unicode="ĕ"/><glyph d="M803 1741q0 -49 -36 -84t-85 -35q-51 0 -86 35t-35 84q0 51 35 87t86 36q49 0 85 -36t36 -87zM121 0q-25 0 -25 25v94q0 25 25 24h158v1184h-158q-25 0 -25 25v94q0 25 25 24h1087q25 0 25 -24v-326q0 -25 -25 -24h-114q-25 0 -25 24v207h-620v-498h520q27 0 26 -24v-96 q0 -25 -26 -25h-520v-541h622v205q0 25 27 25h114q25 0 25 -25v-323q0 -25 -25 -25h-1091z" glyph-name="Edotaccent" horiz-adv-x="1347" unicode="Ė"/><glyph d="M559 1206q-55 0 -93 38t-38 91q0 55 38 94t93 39q53 0 92 -38.5t39 -94.5q0 -53 -39 -91t-92 -38zM1016 483q0 -27 -27 -26h-727q12 -152 109.5 -240t228.5 -88q158 0 283 125q20 20 39 2l57 -53q18 -18 6 -37q-20 -31 -59 -67t-132.5 -74.5t-201.5 -38.5 q-221 0 -362.5 140t-141.5 378q0 236 144.5 377t330.5 141q219 0 336 -141.5t117 -397.5zM268 594h576q-6 125 -79 205t-196 80q-113 0 -195.5 -74t-105.5 -211z" glyph-name="edotaccent" horiz-adv-x="1095" unicode="ė"/><glyph d="M1245 -326q10 -18 -8 -34q-47 -39 -141 -39q-92 0 -139.5 50t-47.5 130q0 78 43 137t90 82h-921q-25 0 -25 25v94q0 25 25 24h158v1184h-158q-25 0 -25 25v94q0 25 25 24h1087q25 0 25 -24v-326q0 -25 -25 -24h-114q-25 0 -25 24v207h-620v-498h520q27 0 26 -24v-96 q0 -25 -26 -25h-520v-541h622v205q0 25 27 25h114q25 0 25 -25v-323q0 -25 -25 -25h-45q-123 -84 -123 -201q0 -76 64 -75q33 0 63 16q29 14 39 -4z" glyph-name="Eogonek" horiz-adv-x="1347" unicode="Ę"/><glyph d="M1016 483q0 -27 -27 -26h-727q12 -152 109.5 -240t228.5 -88q55 0 103.5 12.5t85 36t53 37.5t41.5 39q20 20 39 2l57 -53q18 -18 6 -37q-27 -41 -96.5 -92t-173.5 -76q-121 -84 -121 -201q0 -74 63 -73q33 0 64 16q29 14 39 -4l35 -62q10 -18 -9 -34q-47 -39 -141 -39 q-92 0 -139 50t-47 130q0 68 32.5 121t77.5 84q-213 8 -347 147t-134 371q0 236 144.5 377t330.5 141q219 0 336 -141.5t117 -397.5zM268 594h576q-6 125 -79 205t-196 80q-113 0 -195.5 -74t-105.5 -211z" glyph-name="eogonek" horiz-adv-x="1095" unicode="ę"/><glyph d="M682 1569q-8 0 -20 10l-316 256q-23 18 -4 39l49 59q16 20 39 4l252 -194l252 194q20 16 39 -4l51 -59q18 -20 -4 -39l-318 -256q-12 -10 -20 -10zM121 0q-25 0 -25 25v94q0 25 25 24h158v1184h-158q-25 0 -25 25v94q0 25 25 24h1087q25 0 25 -24v-326q0 -25 -25 -24 h-114q-25 0 -25 24v207h-620v-498h520q27 0 26 -24v-96q0 -25 -26 -25h-520v-541h622v205q0 25 27 25h114q25 0 25 -25v-323q0 -25 -25 -25h-1091z" glyph-name="Ecaron" horiz-adv-x="1347" unicode="Ě"/><glyph d="M215 1395q-20 18 -4 39l49 59q18 23 39 4l252 -215l252 215q20 16 39 -4l51 -59q16 -20 -4 -39l-318 -277q-12 -10 -20 -10t-23 10zM1016 483q0 -27 -27 -26h-727q12 -152 109.5 -240t228.5 -88q55 0 103.5 12.5t85 36t53 37.5t41.5 39q20 20 39 2l57 -53q18 -18 6 -37 q-14 -20 -40.5 -46t-74 -58.5t-121 -54t-157.5 -21.5q-221 0 -362.5 140t-141.5 378q0 119 42 219t109.5 163.5t151.5 99.5t172 36q219 0 336 -141.5t117 -397.5zM268 594h576q-6 125 -79 205t-196 80q-113 0 -195.5 -74t-105.5 -211z" glyph-name="ecaron" horiz-adv-x="1095" unicode="ě"/><glyph d="M532 1577q-18 -14 -38 4l-50 59q-16 20 5 39l315 256q12 10 20 11q8 0 21 -11l317 -256q25 -16 4 -39l-51 -59q-16 -20 -39 -4l-252 195zM1307 0q-25 0 -25 25v143q-178 -182 -477 -182q-309 0 -507 207.5t-198 549.5q0 172 57.5 314.5t155 234.5t222 141.5t262.5 49.5 q180 0 289.5 -56.5t164.5 -134.5l-2 154q0 25 23 24h108q25 0 25 -24v-418q0 -25 -25 -24h-118q-27 0 -27 24q0 133 -120 216t-310 83q-223 0 -376 -160.5t-153 -429.5q0 -141 44.5 -256.5t119 -188.5t171 -112t200.5 -39q303 0 459 203v186h-385q-25 0 -25 27v92 q0 27 25 27h524q25 0 25 -27v-624q0 -25 -25 -25h-102z" glyph-name="Gcircumflex" horiz-adv-x="1566" unicode="Ĝ"/><glyph d="M348 1120q-18 -16 -39 4l-49 60q-18 23 4 39l314 276q14 10 22 10t21 -10l317 -276q20 -20 4 -39l-51 -60q-16 -20 -39 -4l-252 215zM547 1022q137 0 232 -59.5t130 -141.5h6l-2 162q0 25 25 25h244q25 0 24 -25v-88q0 -25 -24 -25h-113v-845q0 -211 -140.5 -335 t-379.5 -124q-223 0 -385 121q-20 16 -6 37l57 81q12 18 35 5q2 -2 13 -9.5t20.5 -13.5t27 -16.5t33.5 -17.5t40 -16t47.5 -14.5t53 -9.5t60.5 -4q166 0 260 85t94 231v32q0 31 6 119h-4q-33 -72 -125 -131t-219 -59q-209 0 -339 142t-130 376q0 231 127 374.5t332 143.5z M573 129q139 0 233.5 103.5t94.5 271.5q0 174 -95 274.5t-233 100.5q-133 0 -223 -101.5t-90 -273.5q0 -166 88 -270.5t225 -104.5z" glyph-name="gcircumflex" horiz-adv-x="1267" unicode="ĝ"/><glyph d="M787.5 1599q-142.5 0 -226.5 78t-84 219q0 27 25 27h86q29 0 28 -27q0 -78 48.5 -121.5t122 -43.5t121.5 44t48 121q0 27 29 27h86q25 0 25 -27q0 -141 -83 -219t-225.5 -78zM1307 0q-25 0 -25 25v143q-178 -182 -477 -182q-309 0 -507 207.5t-198 549.5 q0 172 57.5 314.5t155 234.5t222 141.5t262.5 49.5q180 0 289.5 -56.5t164.5 -134.5l-2 154q0 25 23 24h108q25 0 25 -24v-418q0 -25 -25 -24h-118q-27 0 -27 24q0 133 -120 216t-310 83q-223 0 -376 -160.5t-153 -429.5q0 -141 44.5 -256.5t119 -188.5t171 -112t200.5 -39 q303 0 459 203v186h-385q-25 0 -25 27v92q0 27 25 27h524q25 0 25 -27v-624q0 -25 -25 -25h-102z" glyph-name="Gbreve" horiz-adv-x="1566" unicode="Ğ"/><glyph d="M600 1126q-145 0 -227 77t-82 233q0 27 24 26h86q29 0 29 -26q0 -178 170 -178.5t170 178.5q0 27 29 26h86q25 0 24 -26q0 -156 -82 -233t-227 -77zM547 1022q137 0 232 -59.5t130 -141.5h6l-2 162q0 25 25 25h244q25 0 24 -25v-88q0 -25 -24 -25h-113v-845 q0 -211 -140.5 -335t-379.5 -124q-223 0 -385 121q-20 16 -6 37l57 81q12 18 35 5q2 -2 13 -9.5t20.5 -13.5t27 -16.5t33.5 -17.5t40 -16t47.5 -14.5t53 -9.5t60.5 -4q166 0 260 85t94 231v32q0 29 6 119h-4q-33 -72 -125 -131t-219 -59q-209 0 -339 142t-130 376 q0 231 127 374.5t332 143.5zM573 129q139 0 233.5 103.5t94.5 271.5q0 174 -95 274.5t-233 100.5q-133 0 -223 -101.5t-90 -273.5q0 -166 88 -270.5t225 -104.5z" glyph-name="gbreve" horiz-adv-x="1267" unicode="ğ"/><glyph d="M905 1741q0 -49 -35.5 -84t-85.5 -35q-49 0 -84.5 35t-35.5 84q0 51 35.5 87t84.5 36t85 -36t36 -87zM1307 0q-25 0 -25 25v143q-178 -182 -477 -182q-309 0 -507 207.5t-198 549.5q0 172 57.5 314.5t155 234.5t222 141.5t262.5 49.5q180 0 289.5 -56.5t164.5 -134.5 l-2 154q0 25 23 24h108q25 0 25 -24v-418q0 -25 -25 -24h-118q-27 0 -27 24q0 133 -120 216t-310 83q-223 0 -376 -160.5t-153 -429.5q0 -141 44.5 -256.5t119 -188.5t171 -112t200.5 -39q303 0 459 203v186h-385q-25 0 -25 27v92q0 27 25 27h524q25 0 25 -27v-624 q0 -25 -25 -25h-102z" glyph-name="Gdotaccent" horiz-adv-x="1566" unicode="Ġ"/><glyph d="M731 1335q0 -53 -39 -91t-92 -38q-55 0 -93 38t-38 91q0 55 38 94t93 39q53 0 92 -39t39 -94zM547 1022q137 0 232 -59.5t130 -141.5h6l-2 162q0 25 25 25h244q25 0 24 -25v-88q0 -25 -24 -25h-113v-845q0 -211 -140.5 -335t-379.5 -124q-223 0 -385 121q-20 16 -6 37 l57 81q12 18 35 5q2 -2 13 -9.5t20.5 -13.5t27 -16.5t33.5 -17.5t40 -16t47.5 -14.5t53 -9.5t60.5 -4q166 0 260 85t94 231v32q0 29 6 119h-4q-33 -72 -125 -131t-219 -59q-209 0 -339 142t-130 376q0 231 127 374.5t332 143.5zM573 129q139 0 233.5 103.5t94.5 271.5 q0 174 -95 274.5t-233 100.5q-133 0 -223 -101.5t-90 -273.5q0 -166 88 -270.5t225 -104.5z" glyph-name="gdotaccent" horiz-adv-x="1267" unicode="ġ"/><glyph d="M1307 0q-25 0 -25 25v143q-178 -182 -477 -182q-309 0 -507 207.5t-198 549.5q0 172 57.5 314.5t155 234.5t222 141.5t262.5 49.5q180 0 289.5 -56.5t164.5 -134.5l-2 154q0 25 23 24h108q25 0 25 -24v-418q0 -25 -25 -24h-118q-27 0 -27 24q0 133 -120 216t-310 83 q-223 0 -376 -160.5t-153 -429.5q0 -141 44.5 -256.5t119 -188.5t171 -112t200.5 -39q303 0 459 203v186h-385q-25 0 -25 27v92q0 27 25 27h524q25 0 25 -27v-624q0 -25 -25 -25h-102zM762 -528q-12 0 -12 10v61q0 12 12 13q37 0 73.5 22.5t36.5 65.5q0 6 -2 14 q-14 -4 -39 -4q-51 0 -88.5 37t-37.5 92t38.5 93t92.5 38q61 0 102 -51t41 -156q0 -117 -64.5 -176t-152.5 -59z" glyph-name="Gcommaaccent" horiz-adv-x="1566" unicode="Ģ"/><glyph d="M678 1577q12 0 12 -10v-62q0 -12 -12 -12q-37 0 -73 -22.5t-36 -65.5v-14q14 4 39 4q53 0 90 -37t37 -92t-38 -93t-91 -38q-63 0 -103 51t-40 153q0 119 63.5 178.5t151.5 59.5zM547 1022q137 0 232 -59.5t130 -141.5h6l-2 162q0 25 25 25h244q25 0 24 -25v-88 q0 -25 -24 -25h-113v-845q0 -211 -140.5 -335t-379.5 -124q-223 0 -385 121q-20 16 -6 37l57 81q12 18 35 5q2 -2 13 -9.5t20.5 -13.5t27 -16.5t33.5 -17.5t40 -16t47.5 -14.5t53 -9.5t60.5 -4q166 0 260 85t94 231v32q0 29 6 119h-4q-33 -72 -125 -131t-219 -59 q-209 0 -339 142t-130 376q0 231 127 374.5t332 143.5zM573 129q139 0 233.5 103.5t94.5 271.5q0 174 -95 274.5t-233 100.5q-133 0 -223 -101.5t-90 -273.5q0 -166 88 -270.5t225 -104.5z" glyph-name="gcommaaccent" horiz-adv-x="1267" unicode="ģ"/><glyph d="M584 1577q-20 -14 -39 4l-49 59q-18 20 4 39l315 256q12 10 20.5 10.5t20.5 -10.5l318 -256q23 -16 4 -39l-52 -59q-16 -20 -39 -4l-251 195zM1063 0q-23 0 -23 25v94q0 25 23 24h160v516h-774v-516h157q25 0 25 -24v-94q0 -25 -25 -25h-485q-25 0 -25 25v94q0 25 25 24 h158v1184h-158q-25 0 -25 25v94q0 25 25 24h485q25 0 25 -24v-94q0 -25 -25 -25h-157v-518h774v518h-158q-25 0 -25 25v94q0 25 25 24h485q25 0 25 -24v-94q0 -25 -25 -25h-157v-1184h157q25 0 25 -24v-94q0 -25 -25 -25h-487z" glyph-name="Hcircumflex" horiz-adv-x="1671" unicode="Ĥ"/><glyph d="M16 1577q-20 -14 -39 4l-49 59q-18 20 4 39l316 256q12 10 20 10.5t21 -10.5l317 -256q23 -16 4 -39l-51 -59q-16 -20 -39 -4l-252 195zM84 0q-25 0 -25 25v88q0 25 25 24h115v1196h-115q-25 0 -25 25v88q0 25 25 24h242q25 0 24 -24v-481q0 -37 -2 -111h6 q100 168 330 168q166 0 265.5 -99.5t99.5 -267.5v-518h112q27 0 27 -24v-88q0 -25 -27 -25h-192q-47 0 -68.5 19.5t-21.5 66.5v549q0 113 -65.5 176t-172.5 63q-188 0 -272 -182v-555h114q25 0 25 -24v-88q0 -25 -25 -25h-399z" glyph-name="hcircumflex" horiz-adv-x="1232" unicode="ĥ"/><glyph d="M1550 1327h-157v-240h110q23 0 23 -22v-94q0 -23 -23 -23h-110v-805h157q25 0 25 -24v-94q0 -25 -25 -25h-487q-23 0 -23 25v94q0 25 23 24h160v516h-774v-516h157q25 0 25 -24v-94q0 -25 -25 -25h-485q-25 0 -25 25v94q0 25 25 24h158v805h-113q-23 0 -23 23v94 q0 23 23 22h113v240h-158q-25 0 -25 25v94q0 25 25 24h485q25 0 25 -24v-94q0 -25 -25 -25h-157v-240h774v240h-158q-25 0 -25 25v94q0 25 25 24h485q25 0 25 -24v-94q0 -25 -25 -25zM1223 809v139h-774v-139h774z" glyph-name="Hbar" horiz-adv-x="1671" unicode="Ħ"/><glyph d="M1161 137q27 0 27 -24v-88q0 -25 -27 -25h-192q-47 0 -68.5 19.5t-21.5 66.5v549q0 113 -65.5 176t-172.5 63q-188 0 -272 -182v-555h114q25 0 25 -24v-88q0 -25 -25 -25h-399q-25 0 -25 25v88q0 25 25 24h115v953h-179q-27 0 -26 28v82q0 27 26 27h179v106h-115 q-25 0 -25 25v88q0 25 25 24h242q25 0 24 -24v-219h182q29 0 29 -27v-82q0 -29 -29 -28h-182v-125q0 -37 -2 -111h6q100 168 330 168q166 0 265.5 -99.5t99.5 -267.5v-518h112z" glyph-name="hbar" horiz-adv-x="1232" unicode="ħ"/><glyph d="M59 1626q-25 0 -24 25q0 111 49 173t143 62q55 0 107.5 -26.5t91.5 -52t66 -25.5q35 0 54 23.5t19 88.5q0 25 25 25h80q25 0 24 -25q0 -252 -192 -252q-53 0 -101.5 26t-88.5 52.5t-74 26.5q-74 0 -74 -96q0 -25 -25 -25h-80zM121 0q-25 0 -25 25v94q0 25 25 24h158v1184 h-158q-25 0 -25 25v94q0 25 25 24h483q27 0 27 -24v-94q0 -25 -27 -25h-155v-1184h155q27 0 27 -24v-94q0 -25 -27 -25h-483z" glyph-name="Itilde" horiz-adv-x="727" unicode="Ĩ"/><glyph d="M-2 1157q-20 0 -21 25q0 111 43 173t130 62q49 0 96 -26.5t83 -52t58 -25.5q31 0 48.5 24.5t17.5 92.5q0 25 22 24h72q23 0 22 -24q0 -256 -172 -256q-49 0 -92 25.5t-79 52t-66 26.5q-68 0 -68 -96q0 -25 -22 -25h-72zM104 0q-25 0 -24 25v88q0 25 24 24h115v733h-115 q-25 0 -24 25v88q0 25 24 25h258q27 0 27 -25v-846h115q25 0 24 -24v-88q0 -25 -24 -25h-400z" glyph-name="itilde" horiz-adv-x="587" unicode="ĩ"/><glyph d="M63 1655q-27 0 -26 26v86q0 29 26 29h607q27 0 26 -29v-86q0 -27 -26 -26h-607zM121 0q-25 0 -25 25v94q0 25 25 24h158v1184h-158q-25 0 -25 25v94q0 25 25 24h483q27 0 27 -24v-94q0 -25 -27 -25h-155v-1184h155q27 0 27 -24v-94q0 -25 -27 -25h-483z" glyph-name="Imacron" horiz-adv-x="727" unicode="Ī"/><glyph d="M20 1225q-23 0 -22 26v86q0 29 22 29h512q23 0 23 -29v-86q0 -27 -23 -26h-512zM104 0q-25 0 -24 25v88q0 25 24 24h115v733h-115q-25 0 -24 25v88q0 25 24 25h258q27 0 27 -25v-846h115q25 0 24 -24v-88q0 -25 -24 -25h-400z" glyph-name="imacron" horiz-adv-x="587" unicode="ī"/><glyph d="M368.5 1599q-143.5 0 -226.5 78t-83 219q0 27 25 27h86q29 0 29 -27q0 -78 48 -121.5t121.5 -43.5t122 44t48.5 121q0 27 28 27h86q25 0 25 -27q0 -141 -83 -219t-226.5 -78zM121 0q-25 0 -25 25v94q0 25 25 24h158v1184h-158q-25 0 -25 25v94q0 25 25 24h483 q27 0 27 -24v-94q0 -25 -27 -25h-155v-1184h155q27 0 27 -24v-94q0 -25 -27 -25h-483z" glyph-name="Ibreve" horiz-adv-x="727" unicode="Ĭ"/><glyph d="M276.5 1126q-145.5 0 -227.5 77t-82 233q0 27 25 26h86q29 0 28 -26q0 -178 170 -178.5t170 178.5q0 27 29 26h86q25 0 25 -26q0 -156 -82 -233t-227.5 -77zM104 0q-25 0 -24 25v88q0 25 24 24h115v733h-115q-25 0 -24 25v88q0 25 24 25h258q27 0 27 -25v-846h115 q25 0 24 -24v-88q0 -25 -24 -25h-400z" glyph-name="ibreve" horiz-adv-x="587" unicode="ĭ"/><glyph d="M604 1327h-155v-1184h155q27 0 27 -24v-94q0 -25 -27 -25h-151q-123 -84 -123 -203q0 -74 63 -73q33 0 64 16q29 14 39 -4l34 -62q10 -18 -8 -34q-47 -39 -141 -39q-92 0 -139 50t-47 130q0 78 43 137t90 82h-207q-25 0 -25 25v94q0 25 25 24h158v1184h-158q-25 0 -25 25 v94q0 25 25 24h483q27 0 27 -24v-94q0 -25 -27 -25z" glyph-name="Iogonek" horiz-adv-x="727" unicode="Į"/><glyph d="M276 1206q-55 0 -93 38t-38 91q0 55 38 94t93 39q53 0 92.5 -38.5t39.5 -94.5q0 -53 -39.5 -91t-92.5 -38zM504 137q25 0 24 -24v-88q0 -25 -24 -25h-119q-123 -84 -123 -203q0 -74 64 -73q33 0 63 16q29 14 39 -4l35 -62q10 -18 -8 -34q-47 -39 -142 -39q-92 0 -139 50 t-47 130q0 78 43 137t90 82h-156q-25 0 -24 25v88q0 25 24 24h115v733h-115q-25 0 -24 25v88q0 25 24 25h258q27 0 27 -25v-846h115z" glyph-name="iogonek" horiz-adv-x="587" unicode="į"/><glyph d="M487 1741q0 -49 -35.5 -84t-84.5 -35q-51 0 -86 35t-35 84q0 51 34.5 87t86.5 36q49 0 84.5 -36t35.5 -87zM121 0q-25 0 -25 25v94q0 25 25 24h158v1184h-158q-25 0 -25 25v94q0 25 25 24h483q27 0 27 -24v-94q0 -25 -27 -25h-155v-1184h155q27 0 27 -24v-94 q0 -25 -27 -25h-483z" glyph-name="Idotaccent" horiz-adv-x="727" unicode="İ"/><glyph d="M104 0q-25 0 -24 25v88q0 25 24 24h115v733h-115q-25 0 -24 25v88q0 25 24 25h258q27 0 27 -25v-846h115q25 0 24 -24v-88q0 -25 -24 -25h-400z" glyph-name="dotlessi" horiz-adv-x="587" unicode="ı"/><glyph d="M121 0q-25 0 -25 25v94q0 25 25 24h158v1184h-158q-25 0 -25 25v94q0 25 25 24h483q27 0 27 -24v-94q0 -25 -27 -25h-155v-1184h155q27 0 27 -24v-94q0 -25 -27 -25h-483zM1047 133q94 0 137 58.5t43 181.5v954h-170q-25 0 -25 25v94q0 25 25 24h495q27 0 27 -24v-94 q0 -25 -27 -25h-155v-954q0 -195 -82 -291t-256 -96q-74 0 -136.5 20.5t-86 36.5t-39.5 33q-20 20 -9 41l48 71q18 27 43 9q86 -64 168 -64z" glyph-name="IJ" horiz-adv-x="1654" unicode="Ĳ"/><glyph d="M408 1335q0 -53 -39 -91t-93 -38q-55 0 -93 38t-38 91q0 55 38 94t93 39q53 0 92.5 -39t39.5 -94zM963 1335q0 -53 -39 -91t-93 -38q-55 0 -93 38t-38 91q0 55 38 94t93 39q53 0 92.5 -39t39.5 -94zM104 0q-25 0 -24 25v88q0 25 24 24h115v733h-115q-25 0 -24 25v88 q0 25 24 25h258q27 0 27 -25v-846h115q25 0 24 -24v-88q0 -25 -24 -25h-400zM926 1008q25 0 24 -25v-1067q0 -168 -87 -258t-232 -90q-133 0 -213 63q-23 18 -8 41l45 74q16 25 45 8q66 -41 127 -41q72 0 112.5 52.5t40.5 152.5v952h-114q-25 0 -25 25v88q0 25 25 25h260z " glyph-name="ij" horiz-adv-x="1110" unicode="ĳ"/><glyph d="M309 1577q-20 -14 -39 4l-49 59q-18 20 4 39l316 256q12 10 20 10.5t21 -10.5l317 -256q23 -16 4 -39l-51 -59q-16 -20 -39 -4l-252 195zM305 133q94 0 137 58.5t43 181.5v954h-170q-25 0 -24 25v94q0 25 24 24h496q27 0 27 -24v-94q0 -25 -27 -25h-156v-954 q0 -195 -81.5 -291t-256.5 -96q-74 0 -136 20.5t-85.5 36.5t-40.5 33q-20 20 -8 41l47 71q18 27 43 9q86 -64 168 -64z" glyph-name="Jcircumflex" horiz-adv-x="913" unicode="Ĵ"/><glyph d="M14 1120q-18 -16 -39 4l-49 60q-18 23 4 39l316 276q12 10 20 10t21 -10l317 -276q20 -20 4 -39l-51 -60q-16 -20 -39 -4l-252 215zM360 1008q25 0 25 -25v-1067q0 -168 -87 -258t-232 -90q-133 0 -213 63q-23 18 -9 41l45 74q16 25 45 8q66 -41 127 -41q72 0 113 52.5 t41 152.5v952h-115q-25 0 -24 25v88q0 25 24 25h260z" glyph-name="jcircumflex" horiz-adv-x="544" unicode="ĵ"/><glyph d="M1253 0q-76 0 -118 92l-197 432q-16 35 -29.5 53.5t-56.5 38t-111 19.5h-292v-492h192q25 0 25 -24v-94q0 -25 -25 -25h-520q-25 0 -25 25v94q0 25 25 24h158v1184h-158q-25 0 -25 25v94q0 25 25 24h485q25 0 25 -24v-94q0 -25 -25 -25h-157v-551h219q217 0 323.5 122 t108.5 429h-158q-25 0 -24 25v94q0 25 24 24h483q25 0 25 -24v-94q0 -25 -25 -25h-157q-2 -457 -285 -608q49 -23 79 -65t62 -111l181 -400h122q27 0 27 -24v-94q0 -25 -27 -25h-174zM772 -528q-12 0 -12 10v61q0 12 12 13q37 0 73 22.5t36 65.5v14q-14 -4 -39 -4 q-53 0 -90 37t-37 92t38 93t91 38q63 0 103 -51t40 -154q0 -119 -63.5 -178t-151.5 -59z" glyph-name="Kcommaaccent" horiz-adv-x="1507" unicode="Ķ"/><glyph d="M1149 137q25 0 25 -24v-88q0 -25 -25 -25h-156q-51 0 -80 39l-350 463l-194 -164v-201h114q25 0 25 -24v-88q0 -25 -25 -25h-399q-25 0 -25 25v88q0 25 25 24h115v1196h-115q-25 0 -25 25v88q0 25 25 24h260q25 0 25 -24v-944l415 368h-86q-25 0 -24 25v88q0 25 24 25 h394q25 0 24 -25v-88q0 -25 -24 -25h-105l-305 -266l350 -467h117zM608 -86q63 0 103.5 -51t40.5 -156q0 -117 -63.5 -176t-151.5 -59q-12 0 -13 10v61q0 12 13 13q37 0 72.5 22.5t35.5 65.5v14q-14 -4 -39 -4q-53 0 -90 37t-37 92t38 93t91 38z" glyph-name="kcommaaccent" horiz-adv-x="1179" unicode="ķ"/><glyph d="M1169 137q25 0 25 -24v-88q0 -25 -25 -25h-129q-39 2 -71.5 19.5t-45 32t-34.5 42.5l-307 406l-193 -162v-201h115q25 0 24 -24v-88q0 -25 -24 -25h-400q-25 0 -24 25v88q0 25 24 24h115v733h-115q-25 0 -24 25v88q0 25 24 25h261q25 0 24 -25v-481l416 368h-86 q-25 0 -25 25v88q0 25 25 25h393q25 0 25 -25v-88q0 -25 -25 -25h-104l-308 -266l353 -467h116z" glyph-name="kgreenlandic" horiz-adv-x="1200" unicode="ĸ"/><glyph d="M373 1575q-20 -16 -37 6l-47 64q-18 23 6 38l344 273q20 16 39 -6l61 -80q16 -23 -6 -39zM121 0q-25 0 -25 25v94q0 25 25 24h158v1184h-158q-25 0 -25 25v94q0 25 25 24h481q29 0 29 -26v-90q0 -27 -29 -27h-153v-1184h587v205q0 25 25 25h115q27 0 26 -25v-321 q0 -27 -28 -27h-1053z" glyph-name="Lacute" horiz-adv-x="1255" unicode="Ĺ"/><glyph d="M143 1575q-20 -16 -37 6l-47 64q-18 23 7 38l344 273q20 16 39 -6l61 -80q16 -23 -6 -39zM86 0q-27 0 -27 25v88q0 25 27 24h113v1196h-113q-27 0 -27 25v88q0 25 27 24h227q31 0 43.5 -12t12.5 -39v-1282h112q27 0 27 -24v-88q0 -25 -27 -25h-395z" glyph-name="lacute" horiz-adv-x="567" unicode="ĺ"/><glyph d="M121 0q-25 0 -25 25v94q0 25 25 24h158v1184h-158q-25 0 -25 25v94q0 25 25 24h481q29 0 29 -26v-90q0 -27 -29 -27h-153v-1184h587v205q0 25 25 25h115q27 0 26 -25v-321q0 -27 -28 -27h-1053zM639 -528q-12 0 -12 10v61q0 12 12 13q37 0 73 22.5t36 65.5v14 q-14 -4 -39 -4q-53 0 -90 37t-37 92t37.5 93t91.5 38q63 0 103 -51t40 -154q0 -119 -63.5 -178t-151.5 -59z" glyph-name="Lcommaaccent" horiz-adv-x="1255" unicode="Ļ"/><glyph d="M86 0q-27 0 -27 25v88q0 25 27 24h113v1196h-113q-27 0 -27 25v88q0 25 27 24h227q55 0 56 -51v-1282h112q27 0 27 -24v-88q0 -25 -27 -25h-395zM201 -528q-12 0 -13 10v61q0 12 13 13q37 0 72.5 22.5t35.5 65.5v14q-14 -4 -39 -4q-53 0 -90 37t-37 92t38 93t91 38 q63 0 103.5 -51t40.5 -154q0 -119 -63.5 -178t-151.5 -59z" glyph-name="lcommaaccent" horiz-adv-x="567" unicode="ļ"/><glyph d="M856 1018q-12 0 -12 10v68q0 12 12 12q35 0 70 29.5t35 83.5q0 10 -3 22q-12 -2 -32 -2q-51 0 -89 37t-38 92q0 53 39 92t92 39q61 0 102 -51t41 -156q0 -137 -64.5 -206.5t-152.5 -69.5zM121 0q-25 0 -25 25v94q0 25 25 24h158v1184h-158q-25 0 -25 25v94q0 25 25 24 h481q29 0 29 -26v-90q0 -27 -29 -27h-153v-1184h587v205q0 25 25 25h115q27 0 26 -25v-321q0 -27 -28 -27h-1053z" glyph-name="Lcaron" horiz-adv-x="1259" unicode="Ľ"/><glyph d="M508 1018q-12 0 -12 10v68q0 12 12 12q35 0 69.5 29.5t34.5 83.5q0 10 -2 22q-12 -2 -32 -2q-51 0 -89 37t-38 92q0 53 38.5 92t92.5 39q61 0 102 -51t41 -156q0 -137 -64.5 -206.5t-152.5 -69.5zM86 0q-27 0 -27 25v88q0 25 27 24h113v1196h-113q-27 0 -27 25v88 q0 25 27 24h227q31 0 43.5 -12t12.5 -39v-1282h112q27 0 27 -24v-88q0 -25 -27 -25h-395z" glyph-name="lcaron" horiz-adv-x="608" unicode="ľ"/><glyph d="M121 0q-25 0 -25 25v94q0 25 25 24h158v1184h-158q-25 0 -25 25v94q0 25 25 24h481q29 0 29 -26v-90q0 -27 -29 -27h-153v-1184h587v205q0 25 25 25h115q27 0 26 -25v-321q0 -27 -28 -27h-1053zM1149 836q0 -57 -38 -94t-95 -37q-55 0 -93 37.5t-38 93.5q0 53 39 92 t92 39q55 0 94 -39t39 -92z" glyph-name="Ldot" horiz-adv-x="1261" unicode="Ŀ"/><glyph d="M86 0q-27 0 -27 25v88q0 25 27 24h113v1196h-113q-27 0 -27 25v88q0 25 27 24h227q55 0 56 -51v-1282h112q27 0 27 -24v-88q0 -25 -27 -25h-395zM719 760q0 -57 -38 -94t-95 -37q-55 0 -93 38t-38 93q0 53 38.5 92t92.5 39q55 0 94 -39t39 -92z" glyph-name="ldot" horiz-adv-x="608" unicode="ŀ"/><glyph d="M1190 373q27 0 27 -25v-321q0 -27 -29 -27h-1053q-25 0 -24 25v94q0 25 24 24h158v451l-191 -107q-27 -14 -39 11l-43 75q-12 25 13 37l260 146v571h-158q-25 0 -24 25v94q0 25 24 24h481q29 0 29 -26v-90q0 -27 -29 -27h-153v-477l192 106q27 14 39 -10l43 -76 q12 -25 -12 -39l-262 -143v-545h588v205q0 25 24 25h115z" glyph-name="Lslash" horiz-adv-x="1269" unicode="Ł"/><glyph d="M668 874q16 -25 -9 -40l-215 -150v-547h113q27 0 27 -24v-88q0 -25 -27 -25h-395q-27 0 -27 25v88q0 25 27 24h112v428l-137 -94q-20 -18 -37 6l-51 70q-16 23 8 39l217 153v594h-112q-27 0 -27 25v88q0 25 27 24h227q55 0 55 -51v-563l134 94q23 14 36 -6z" glyph-name="lslash" horiz-adv-x="700" unicode="ł"/><glyph d="M692 1575q-23 -16 -39 6l-47 64q-18 23 6 38l344 273q20 16 39 -6l62 -80q16 -23 -8 -39zM1235 0q-39 0 -61.5 15.5t-43.5 47.5l-581 961q-25 41 -50.5 88t-37.5 74l-15 26h-4v-1069h158q27 0 27 -24v-94q0 -25 -27 -25h-479q-25 0 -25 25v94q0 25 25 24h158v1184h-158 q-25 0 -25 25v94q0 25 25 24h285q66 0 106 -69l575 -948q29 -47 59 -100.5t44 -84.5l14 -28h4v1087h-157q-25 0 -25 25v94q0 25 25 24h475q27 0 26 -24v-94q0 -25 -26 -25h-156v-1302q0 -25 -24 -25h-111z" glyph-name="Nacute" horiz-adv-x="1630" unicode="Ń"/><glyph d="M528 1110q-20 -14 -39 6l-51 60q-18 23 4 38l330 289q20 20 39 -2l66 -78q14 -20 -5 -39zM104 0q-25 0 -24 25v88q0 25 24 24h115v733h-115q-25 0 -24 25v88q0 25 24 25h242q25 0 25 -25l-2 -129h6q100 168 330 168q166 0 265 -99.5t99 -267.5v-518h113q27 0 26 -24v-88 q0 -25 -26 -25h-193q-47 0 -68.5 19.5t-21.5 66.5v549q0 109 -62.5 174t-174.5 65q-188 0 -273 -182v-555h115q25 0 24 -24v-88q0 -25 -24 -25h-400z" glyph-name="nacute" horiz-adv-x="1253" unicode="ń"/><glyph d="M1235 0q-39 0 -61.5 15.5t-43.5 47.5l-581 961l-103 188h-4v-1069h158q27 0 27 -24v-94q0 -25 -27 -25h-479q-25 0 -25 25v94q0 25 25 24h158v1184h-158q-25 0 -25 25v94q0 25 25 24h285q66 0 106 -69l575 -948q29 -47 59 -100.5t44 -82.5l14 -30h4v1087h-157 q-25 0 -25 25v94q0 25 25 24h475q27 0 26 -24v-94q0 -25 -26 -25h-156v-1302q0 -25 -24 -25h-111zM774 -528q-12 0 -12 10v61q0 12 12 13q37 0 73 22.5t36 65.5v14q-14 -4 -39 -4q-53 0 -90 37t-37 92t38 93t91 38q63 0 103 -51t40 -154q0 -119 -63.5 -178t-151.5 -59z" glyph-name="Ncommaaccent" horiz-adv-x="1630" unicode="Ņ"/><glyph d="M104 0q-25 0 -24 25v88q0 25 24 24h115v733h-115q-25 0 -24 25v88q0 25 24 25h242q25 0 25 -25l-2 -129h6q100 168 330 168q166 0 265 -99.5t99 -267.5v-518h113q27 0 26 -24v-88q0 -25 -26 -25h-193q-47 0 -68.5 19.5t-21.5 66.5v549q0 109 -62.5 174t-174.5 65 q-188 0 -273 -182v-555h115q25 0 24 -24v-88q0 -25 -24 -25h-400zM600 -528q-12 0 -12 10v61q0 12 12 13q39 0 75 22.5t36 65.5q0 6 -2 14q-14 -4 -39 -4q-51 0 -89 37t-38 92t39 93t92 38q61 0 102 -51t41 -154q0 -119 -63.5 -178t-153.5 -59z" glyph-name="ncommaaccent" horiz-adv-x="1253" unicode="ņ"/><glyph d="M829.5 1569q-8.5 0 -20.5 10l-315 256q-23 18 -5 39l50 59q16 20 39 4l251 -194l252 194q20 16 39 -4l51 -59q18 -20 -4 -39l-317 -256q-12 -10 -20.5 -10zM1235 0q-39 0 -61.5 15.5t-43.5 47.5l-581 961q-25 41 -50.5 88t-37.5 74l-15 26h-4v-1069h158q27 0 27 -24v-94 q0 -25 -27 -25h-479q-25 0 -25 25v94q0 25 25 24h158v1184h-158q-25 0 -25 25v94q0 25 25 24h285q66 0 106 -69l575 -948q29 -47 59 -100.5t44 -84.5l14 -28h4v1087h-157q-25 0 -25 25v94q0 25 25 24h475q27 0 26 -24v-94q0 -25 -26 -25h-156v-1302q0 -25 -24 -25h-111z" glyph-name="Ncaron" horiz-adv-x="1630" unicode="Ň"/><glyph d="M606 1108q-8 0 -20 10l-316 277q-20 18 -4 39l49 59q18 23 39 4l252 -215l252 215q20 16 39 -4l51 -59q16 -20 -4 -39l-317 -277q-13 -10 -21 -10zM104 0q-25 0 -24 25v88q0 25 24 24h115v733h-115q-25 0 -24 25v88q0 25 24 25h242q25 0 25 -25l-2 -129h6 q14 23 33.5 45.5t57.5 53t100.5 50t138.5 19.5q166 0 265 -99.5t99 -267.5v-518h113q27 0 26 -24v-88q0 -25 -26 -25h-193q-47 0 -68.5 19.5t-21.5 66.5v549q0 109 -62.5 174t-174.5 65q-109 0 -174.5 -55t-98.5 -127v-555h115q25 0 24 -24v-88q0 -25 -24 -25h-400z" glyph-name="ncaron" horiz-adv-x="1253" unicode="ň"/><glyph d="M100 1106q-12 0 -12 10v68q0 12 12 12q35 0 70 30.5t35 84.5q0 10 -2 22q-12 -4 -33 -4q-51 0 -89 38t-38 93q0 53 39 92t92 39q61 0 102 -51t41 -156q0 -137 -64.5 -207.5t-152.5 -70.5zM252 0q-25 0 -25 25v88q0 25 25 24h115v733h-115q-25 0 -25 25v88q0 25 25 25h242 q25 0 24 -25l-2 -129h6q14 23 33.5 45.5t57.5 53t100.5 50t138.5 19.5q166 0 265.5 -99.5t99.5 -267.5v-518h112q27 0 27 -24v-88q0 -25 -27 -25h-192q-47 0 -68.5 19.5t-21.5 66.5v549q0 109 -62.5 174t-175.5 65q-109 0 -174.5 -55t-97.5 -127v-555h114q25 0 25 -24v-88 q0 -25 -25 -25h-399z" glyph-name="napostrophe" horiz-adv-x="1400" unicode="ŉ"/><glyph d="M786 -475q-27 0 -26 26v99q0 25 26 24q225 0 316.5 77t91.5 247v8q-35 10 -64 57l-581 961l-103 188h-4v-1069h156q27 0 27 -24v-94q0 -25 -27 -25h-477q-25 0 -25 25v94q0 25 25 24h158v1184h-158q-25 0 -25 25v94q0 25 25 24h285q66 0 106 -69l575 -948 q29 -47 59 -100.5t44 -82.5l14 -30h4v1087h-157q-25 0 -25 25v94q0 25 25 24h475q27 0 26 -24v-94q0 -25 -26 -25h-156v-1309q0 -250 -139.5 -371.5t-444.5 -121.5z" glyph-name="Eng" horiz-adv-x="1630" unicode="Ŋ"/><glyph d="M739 -434q-125 0 -213 76q-20 18 -4 39l53 73q16 20 39 4q66 -49 123 -49q76 0 119 53.5t43 153.5v719q0 109 -62.5 174t-174.5 65q-188 0 -273 -182v-555h115q25 0 24 -24v-88q0 -25 -24 -25h-400q-25 0 -24 25v88q0 25 24 24h115v733h-115q-25 0 -24 25v88q0 25 24 25 h242q25 0 25 -25l-2 -129h6q100 168 330 168q166 0 265 -99.5t99 -267.5v-741q0 -170 -87 -259t-243 -89z" glyph-name="eng" horiz-adv-x="1214" unicode="ŋ"/><glyph d="M510 1655q-27 0 -27 26v86q0 29 27 29h606q27 0 27 -29v-86q0 -27 -27 -26h-606zM813 -14q-309 0 -512 210t-203 547q0 172 58.5 313.5t158 233.5t228.5 142.5t270 50.5t269 -50.5t227.5 -142.5t158 -233.5t58.5 -313.5q0 -342 -203 -549.5t-510 -207.5zM812.5 133 q105.5 0 200.5 40t171 112.5t121 190.5t45 261q0 145 -47.5 263t-125 189t-172 108.5t-193.5 37.5t-193.5 -37.5t-172 -108.5t-125 -188.5t-47.5 -263.5q0 -143 45.5 -261t121 -190.5t171 -112.5t201 -40z" glyph-name="Omacron" horiz-adv-x="1624" unicode="Ō"/><glyph d="M287 1225q-27 0 -27 26v86q0 29 27 29h606q27 0 27 -29v-86q0 -27 -27 -26h-606zM589.5 1022q227.5 0 366 -143.5t138.5 -374.5q0 -233 -138.5 -375.5t-366 -142.5t-365.5 142t-138 376q0 231 138 374.5t365.5 143.5zM589.5 129q145.5 0 239 104.5t93.5 270.5 t-93.5 270.5t-239 104.5t-238.5 -104.5t-93 -270.5t93 -270.5t238.5 -104.5z" glyph-name="omacron" horiz-adv-x="1179" unicode="ō"/><glyph d="M814 1599q-142 0 -225 78t-83 219q0 27 24 27h86q29 0 29 -27q0 -78 47 -121.5t122 -43.5t123 44t48 121q0 27 29 27h86q25 0 24 -27q0 -141 -84 -219t-226 -78zM813 -14q-309 0 -512 210t-203 547q0 172 58.5 313.5t158 233.5t228.5 142.5t270 50.5t269 -50.5 t227.5 -142.5t158 -233.5t58.5 -313.5q0 -342 -203 -549.5t-510 -207.5zM812.5 133q105.5 0 200.5 40t171 112.5t121 190.5t45 261q0 145 -47.5 263t-125 189t-172 108.5t-193.5 37.5t-193.5 -37.5t-172 -108.5t-125 -188.5t-47.5 -263.5q0 -143 45.5 -261t121 -190.5 t171 -112.5t201 -40z" glyph-name="Obreve" horiz-adv-x="1624" unicode="Ŏ"/><glyph d="M589.5 1126q-145.5 0 -227 77t-81.5 233q0 27 24 26h86q29 0 29 -26q0 -178 170 -178.5t170 178.5q0 27 28 26h86q25 0 25 -26q0 -156 -82 -233t-227.5 -77zM589.5 1022q227.5 0 366 -143.5t138.5 -374.5q0 -233 -138.5 -375.5t-366 -142.5t-365.5 142t-138 376 q0 231 138 374.5t365.5 143.5zM589.5 129q145.5 0 239 104.5t93.5 270.5t-93.5 270.5t-239 104.5t-238.5 -104.5t-93 -270.5t93 -270.5t238.5 -104.5z" glyph-name="obreve" horiz-adv-x="1179" unicode="ŏ"/><glyph d="M588 1577q-14 -16 -39 -2l-60 51q-20 18 -4 39l236 301q18 25 39 4l78 -63q20 -18 4 -39zM979 1577q-14 -16 -39 -2l-59 51q-20 18 -4 39l235 301q18 25 39 4l78 -63q20 -18 4 -39zM813 -14q-309 0 -512 210t-203 547q0 172 58.5 313.5t158 233.5t228.5 142.5t270 50.5 t269 -50.5t227.5 -142.5t158 -233.5t58.5 -313.5q0 -342 -203 -549.5t-510 -207.5zM812.5 133q105.5 0 200.5 40t171 112.5t121 190.5t45 261q0 145 -47.5 263t-125 189t-172 108.5t-193.5 37.5t-193.5 -37.5t-172 -108.5t-125 -188.5t-47.5 -263.5q0 -143 45.5 -261 t121 -190.5t171 -112.5t201 -40z" glyph-name="Ohungarumlaut" horiz-adv-x="1624" unicode="Ő"/><glyph d="M719 1118q-16 -18 -39 -4l-53 35q-23 14 -6 39l204 321q16 25 39 9l84 -60q20 -20 6 -37zM383 1118q-16 -18 -39 -4l-53 35q-23 16 -6 39l204 321q16 23 39 9l84 -60q18 -18 6 -37zM589.5 1022q227.5 0 366 -143.5t138.5 -374.5q0 -233 -138.5 -375.5t-366 -142.5 t-365.5 142t-138 376q0 231 138 374.5t365.5 143.5zM589.5 129q145.5 0 239 104.5t93.5 270.5t-93.5 270.5t-239 104.5t-238.5 -104.5t-93 -270.5t93 -270.5t238.5 -104.5z" glyph-name="ohungarumlaut" horiz-adv-x="1179" unicode="ő"/><glyph d="M846 0q-319 0 -533.5 207t-214.5 536q0 223 106.5 391.5t273.5 251t366 84.5h932q27 0 26 -24v-326q0 -25 -26 -24h-111q-27 0 -27 24v207h-618v-518h520q25 0 25 -25v-100q0 -25 -25 -25h-520v-516h618v205q0 25 25 25h113q27 0 26 -25v-323q0 -25 -26 -25h-930z M844 1313q-102 -2 -200.5 -39t-182.5 -104.5t-135.5 -180t-51.5 -252.5q0 -137 49.5 -249.5t131.5 -182t182 -106.5t207 -39v1153z" glyph-name="OE" horiz-adv-x="1912" unicode="Œ"/><glyph d="M1849 483q0 -27 -26 -26h-727q12 -152 109.5 -240t228.5 -88q55 0 103 12.5t85 36t53.5 37.5t40.5 39q20 20 39 2l57 -53q18 -18 7 -37q-14 -20 -41 -46t-74 -58.5t-121 -54t-158 -21.5q-135 0 -242.5 54t-174.5 153q-66 -98 -173.5 -152.5t-244.5 -54.5 q-227 0 -365.5 142t-138.5 376q0 231 138 374.5t366 143.5q137 0 245.5 -55.5t174.5 -155.5q68 100 171 155.5t216 55.5q219 0 335.5 -141.5t116.5 -397.5zM589.5 129q145.5 0 239 104.5t93.5 270.5t-93.5 270.5t-239 104.5t-238.5 -104.5t-93 -270.5t93 -270.5 t238.5 -104.5zM1102 594h575q-6 125 -78.5 205t-195.5 80q-113 0 -195.5 -74t-105.5 -211z" glyph-name="oe" horiz-adv-x="1929" unicode="œ"/><glyph d="M573 1575q-20 -16 -36 6l-48 64q-18 23 7 38l344 273q20 16 39 -6l61 -80q16 -23 -6 -39zM1171 0q-82 0 -127 88l-206 401q-29 55 -54.5 81t-74.5 26h-260v-453h159q25 0 25 -24v-94q0 -25 -25 -25h-487q-25 0 -25 25v94q0 25 25 24h158v1184h-158q-25 0 -25 25v94 q0 25 25 24h633q219 0 355 -111.5t136 -322.5q0 -158 -80 -264t-225 -145q47 -29 100 -138l174 -346h121q27 0 27 -22v-96q0 -25 -27 -25h-164zM709 737q360 0 360 293q0 297 -360 297h-260v-590h260z" glyph-name="Racute" horiz-adv-x="1411" unicode="Ŕ"/><glyph d="M367 1110q-20 -14 -39 6l-52 60q-18 23 5 38l329 289q20 20 39 -2l66 -78q14 -20 -4 -39zM104 0q-25 0 -24 25v88q0 25 24 24h115v733h-115q-25 0 -24 25v88q0 25 24 25h242q25 0 25 -25v-229h6q4 20 22.5 54t58.5 84t119.5 85t184.5 35q27 0 26 -27v-119q0 -27 -26 -26 h-43q-139 0 -234.5 -114t-95.5 -259v-330h191q25 0 24 -24v-88q0 -25 -24 -25h-476z" glyph-name="racute" horiz-adv-x="831" unicode="ŕ"/><glyph d="M1171 0q-82 0 -127 88l-206 401q-18 37 -31.5 56.5t-38.5 35t-59 15.5h-260v-453h159q25 0 25 -24v-94q0 -25 -25 -25h-487q-25 0 -25 25v94q0 25 25 24h158v1184h-158q-25 0 -25 25v94q0 25 25 24h633q219 0 355 -111.5t136 -322.5q0 -158 -80 -264t-225 -145 q47 -29 100 -138l174 -346h121q27 0 27 -22v-96q0 -25 -27 -25h-164zM709 737q360 0 360 293q0 297 -360 297h-260v-590h260zM692 -528q-12 0 -12 10v61q0 12 12 13q37 0 73 22.5t36 65.5v14q-14 -4 -39 -4q-53 0 -90 37t-37 92t38 93t91 38q63 0 103 -51t40 -154 q0 -119 -63.5 -178t-151.5 -59z" glyph-name="Rcommaaccent" horiz-adv-x="1411" unicode="Ŗ"/><glyph d="M104 0q-25 0 -24 25v88q0 25 24 24h115v733h-115q-25 0 -24 25v88q0 25 24 25h242q25 0 25 -25v-229h6q4 20 22.5 54t58.5 84t119.5 85t184.5 35q27 0 26 -27v-119q0 -27 -26 -26h-43q-139 0 -234.5 -114t-95.5 -259v-330h191q25 0 24 -24v-88q0 -25 -24 -25h-476z M229 -528q-12 0 -12 10v61q0 12 12 13q37 0 73 22.5t36 65.5v14q-14 -4 -39 -4q-53 0 -90 37t-37 92t38 93t91 38q63 0 103 -51t40 -154q0 -119 -63.5 -178t-151.5 -59z" glyph-name="rcommaaccent" horiz-adv-x="831" unicode="ŗ"/><glyph d="M713 1569q-8 0 -21 10l-315 256q-23 18 -4 39l49 59q16 20 39 4l252 -194l252 194q20 16 39 -4l51 -59q18 -20 -4 -39l-318 -256q-12 -10 -20 -10zM1171 0q-82 0 -127 88l-206 401q-29 55 -54.5 81t-74.5 26h-260v-453h159q25 0 25 -24v-94q0 -25 -25 -25h-487 q-25 0 -25 25v94q0 25 25 24h158v1184h-158q-25 0 -25 25v94q0 25 25 24h633q219 0 355 -111.5t136 -322.5q0 -158 -80 -264t-225 -145q47 -29 100 -138l174 -346h121q27 0 27 -22v-96q0 -25 -27 -25h-164zM709 737q360 0 360 293q0 297 -360 297h-260v-590h260z" glyph-name="Rcaron" horiz-adv-x="1411" unicode="Ř"/><glyph d="M444 1108q-8 0 -22 10l-313 277q-20 18 -5 39l50 59q18 23 39 4l251 -215l252 215q20 16 39 -4l51 -59q16 -20 -4 -39l-317 -277q-13 -10 -21 -10zM104 0q-25 0 -24 25v88q0 25 24 24h115v733h-115q-25 0 -24 25v88q0 25 24 25h242q25 0 25 -25v-229h6q4 14 13 37.5 t39 64.5t69 74t109.5 57.5t154.5 24.5q27 0 26 -27v-119q0 -27 -26 -26h-43q-139 0 -234.5 -114t-95.5 -259v-330h191q25 0 24 -24v-88q0 -25 -24 -25h-476z" glyph-name="rcaron" horiz-adv-x="831" unicode="ř"/><glyph d="M541 1575q-20 -16 -39 6l-47 64q-18 23 6 38l344 273q20 16 39 -6l61 -80q16 -23 -6 -39zM135 0q-27 0 -26 25v473q0 25 26 24h119q23 0 22 -24v-31q0 -14 13.5 -48t48.5 -83t84 -93t131 -76t180 -32q158 0 234.5 63.5t76.5 174.5q0 53 -21.5 96t-51 69.5t-86 51 t-98.5 38t-115 31.5q-68 18 -108 29.5t-101.5 34t-98 43t-79.5 54.5t-67.5 72t-41 90t-16.5 116q0 168 132 276.5t349 108.5q274 0 401 -170l-2 135q0 25 23 25h108q25 0 25 -25v-440q0 -27 -25 -27h-120q-25 0 -25 27v59q0 37 -20.5 79t-61.5 86t-117.5 72.5t-175.5 28.5 q-166 0 -244.5 -62.5t-78.5 -172.5q0 -41 14 -76t45 -61.5t59.5 -45t83 -38t87 -29.5t96.5 -27q29 -8 43 -12q86 -25 143 -44.5t121.5 -55t102.5 -77.5t63.5 -106.5t25.5 -144.5q0 -166 -115.5 -280.5t-340.5 -114.5q-104 0 -192.5 24.5t-147 66.5t-93 77.5t-59.5 76.5 l2 -206q0 -25 -26 -25h-105z" glyph-name="Sacute" horiz-adv-x="1331" unicode="Ś"/><glyph d="M420 1110q-20 -14 -39 6l-51 60q-18 23 4 38l330 289q20 20 38 -2l66 -78q14 -20 -4 -39zM569 -14q-109 0 -187.5 28.5t-105 54t-40.5 52.5h-5q2 -88 2 -94q0 -27 -26 -27h-80q-29 0 -29 27l2 327q0 27 27 27h90q27 0 27 -27v-6q0 -70 82 -144.5t211 -74.5q219 0 219 133 q0 59 -46 97t-116 52.5t-149.5 35t-149.5 47t-116 89t-46 158.5q0 121 98.5 201t241.5 80q199 0 283 -109h4l-6 68q-2 27 28 27h82q27 0 27 -27v-287q0 -27 -29 -26h-88q-27 0 -26 26v29q0 70 -71 113t-188 43q-86 0 -135 -37t-49 -101q0 -55 46 -90t116 -49t149.5 -35.5 t149.5 -49.5t116 -92.5t46 -160.5q0 -123 -99.5 -200.5t-259.5 -77.5z" glyph-name="sacute" horiz-adv-x="1019" unicode="ś"/><glyph d="M426 1577q-18 -14 -37 4l-49 59q-18 20 4 39l313 256q12 10 23 11q6 0 20 -11l316 -256q25 -16 4 -39l-49 -59q-18 -20 -41 -4l-250 195zM135 0q-27 0 -26 25v473q0 25 26 24h119q23 0 22 -24v-31q0 -14 13.5 -48t48.5 -83t84 -93t131 -76t180 -32q158 0 234.5 63.5 t76.5 174.5q0 53 -21.5 96t-51 69.5t-86 51t-98.5 38t-115 31.5q-68 18 -108 29.5t-101.5 34t-98 43t-79.5 54.5t-67.5 72t-41 90t-16.5 116q0 168 132 276.5t349 108.5q274 0 401 -170l-2 135q0 25 23 25h108q25 0 25 -25v-440q0 -27 -25 -27h-120q-25 0 -25 27v59 q0 37 -20.5 79t-61.5 86t-117.5 72.5t-175.5 28.5q-166 0 -244.5 -62.5t-78.5 -172.5q0 -41 14 -76t45 -61.5t59.5 -45t83 -38t87 -29.5t96.5 -27q29 -8 43 -12q86 -25 143 -44.5t121.5 -55t102.5 -77.5t63.5 -106.5t25.5 -144.5q0 -166 -115.5 -280.5t-340.5 -114.5 q-104 0 -192.5 24.5t-147 66.5t-93 77.5t-59.5 76.5l2 -206q0 -25 -26 -25h-105z" glyph-name="Scircumflex" horiz-adv-x="1331" unicode="Ŝ"/><glyph d="M254 1120q-18 -16 -39 4l-49 60q-18 23 4 39l313 276q14 10 23 10q8 0 20 -10l318 -276q20 -20 4 -39l-51 -60q-16 -20 -39 -4l-252 215zM569 -14q-84 0 -148.5 15t-101 40t-55 43t-28.5 37h-5q2 -88 2 -94q0 -27 -26 -27h-80q-29 0 -29 27l2 327q0 27 27 27h90 q27 0 27 -27v-6q0 -70 82 -144.5t211 -74.5q219 0 219 133q0 53 -35 87t-89 51.5t-121 30.5t-133.5 32.5t-120.5 49.5t-89 88t-35 140q0 121 98.5 201t241.5 80q199 0 283 -109h4l-6 68q-2 27 28 27h82q27 0 27 -27v-287q0 -27 -29 -26h-88q-27 0 -26 26v29q0 70 -71 113 t-188 43q-86 0 -135 -37t-49 -101q0 -47 35 -78.5t89 -49t120.5 -31t133.5 -35t121 -52t89 -90t35 -141.5q0 -123 -99.5 -200.5t-259.5 -77.5z" glyph-name="scircumflex" horiz-adv-x="1019" unicode="ŝ"/><glyph d="M756 -14h-25l-18 -60q57 0 104 -35.5t47 -115.5q0 -76 -52 -125t-153 -49q-80 0 -151 43q-16 10 -6 32l28 64q8 18 35 6q53 -27 90 -27q68 0 68 52q0 61 -98 61q-29 0 -37 9t-2 30l41 125q-242 43 -363 235l2 -206q0 -25 -26 -25h-105q-27 0 -26 25v473q0 25 26 24h119 q23 0 22 -24v-31q0 -14 13.5 -48t48.5 -83t84 -93t131 -76t180 -32q158 0 234.5 63.5t76.5 174.5q0 53 -21.5 96t-51 69.5t-86 51t-98.5 38t-115 31.5q-68 18 -108 29.5t-101.5 34t-98 43t-79.5 54.5t-67.5 72t-41 90t-16.5 116q0 168 132 276.5t349 108.5q274 0 401 -170 l-2 135q0 25 23 25h108q25 0 25 -25v-440q0 -27 -25 -27h-120q-25 0 -25 27v59q0 37 -20.5 79t-61.5 86t-117.5 72.5t-175.5 28.5q-166 0 -244.5 -62.5t-78.5 -172.5q0 -41 14 -76t45 -61.5t59.5 -45t83 -38t87 -29.5t96.5 -27q29 -8 43 -12q86 -25 143 -44.5t121.5 -55 t102.5 -77.5t63.5 -106.5t25.5 -144.5q0 -166 -115.5 -280.5t-340.5 -114.5z" glyph-name="Scedilla" horiz-adv-x="1331" unicode="Ş"/><glyph d="M569 -14h-12l-18 -60q59 0 105 -35.5t46 -115.5q0 -76 -52 -125t-153 -49q-78 0 -151 43q-16 10 -6 32l28 64q8 18 35 6q53 -27 90 -27q68 0 68 52q0 61 -98 61q-27 0 -36 9t-1 30l39 125q-68 10 -118 36.5t-69.5 47t-29.5 41.5h-5q2 -88 2 -94q0 -27 -26 -27h-80 q-29 0 -29 27l2 327q0 27 27 27h90q27 0 27 -27v-6q0 -70 82 -144.5t211 -74.5q219 0 219 133q0 59 -46 97t-116 52.5t-149.5 35t-149.5 47t-116 89t-46 158.5q0 121 98.5 201t241.5 80q199 0 283 -109h4l-6 68q-2 27 28 27h82q27 0 27 -27v-287q0 -27 -29 -26h-88 q-27 0 -26 26v29q0 70 -71 113t-188 43q-86 0 -135 -37t-49 -101q0 -55 46 -90t116 -49t149.5 -35.5t149.5 -49.5t116 -92.5t46 -160.5q0 -123 -99.5 -200.5t-259.5 -77.5z" glyph-name="scedilla" horiz-adv-x="1019" unicode="ş"/><glyph d="M680 1569q-10 0 -23 10l-313 256q-23 18 -4 39l49 59q16 20 39 4l252 -194l252 194q20 16 39 -4l51 -59q16 -20 -6 -39l-316 -256q-14 -10 -20 -10zM135 0q-27 0 -26 25v473q0 25 26 24h119q23 0 22 -24v-31q0 -14 13.5 -48t48.5 -83t84 -93t131 -76t180 -32 q158 0 234.5 63.5t76.5 176.5q0 51 -21.5 94t-51 69.5t-86 51t-98.5 38t-115 31.5q-68 18 -108 29.5t-101.5 34t-98 43t-79.5 54.5t-67.5 72t-41 90t-16.5 116q0 168 132 276.5t349 108.5q274 0 401 -170l-2 135q0 25 23 25h108q25 0 25 -25v-440q0 -27 -25 -27h-120 q-25 0 -25 27v59q0 37 -20.5 79t-61.5 86t-117.5 72.5t-175.5 28.5q-166 0 -244.5 -62.5t-78.5 -170.5q0 -43 14 -78t45 -61.5t59.5 -45t83 -38t87 -29.5t96.5 -27q29 -8 43 -12q86 -25 143 -44.5t121.5 -55t102.5 -77.5t63.5 -106.5t25.5 -144.5q0 -166 -115.5 -280.5 t-340.5 -114.5q-104 0 -192.5 24.5t-147 66.5t-93 77.5t-59.5 76.5l2 -206q0 -25 -26 -25h-105z" glyph-name="Scaron" horiz-adv-x="1331" unicode="Š"/><glyph d="M498 1108q-8 0 -23 10l-313 277q-20 18 -4 39l49 59q18 23 39 4l252 -215l252 215q20 16 38 -4l52 -59q16 -20 -4 -39l-318 -277q-12 -10 -20 -10zM569 -14q-84 0 -148.5 15t-101 40t-55 43t-28.5 37h-5q2 -88 2 -94q0 -27 -26 -27h-80q-29 0 -29 27l2 327q0 27 27 27h90 q27 0 27 -27v-6q0 -70 82 -144.5t211 -74.5q219 0 219 133q0 53 -35 87t-89 51.5t-121 30.5t-133.5 32.5t-120.5 49.5t-89 88t-35 140q0 121 98.5 201t241.5 80q199 0 283 -109h4l-6 68q-2 27 28 27h82q27 0 27 -27v-287q0 -27 -29 -26h-88q-27 0 -26 26v29q0 70 -71 113 t-188 43q-86 0 -135 -37t-49 -101q0 -47 35 -78.5t89 -49t120.5 -31t133.5 -35t121 -52t89 -90t35 -141.5q0 -123 -99.5 -200.5t-259.5 -77.5z" glyph-name="scaron" horiz-adv-x="1019" unicode="š"/><glyph d="M1251 1470q27 0 27 -26v-322q0 -29 -27 -28h-110q-27 0 -27 28v205h-360v-1184h155q27 0 27 -26v-90q0 -27 -27 -27h-186l-23 -74q59 0 105.5 -35.5t46.5 -115.5q0 -76 -52 -125t-153 -49q-78 0 -151 43q-16 10 -7 32l29 64q8 18 35 6q53 -27 90 -27q68 0 68 52 q0 61 -99 61q-27 0 -36 9t-1 30l41 129h-186q-29 0 -29 27v90q0 27 29 26h154v1184h-363v-205q0 -29 -26 -28h-111q-29 0 -29 28v322q0 27 29 26h1167z" glyph-name="Tcommaaccent" horiz-adv-x="1333" unicode="Ţ"/><glyph d="M760 90q14 -23 -8 -41q-78 -61 -207 -63l-19 -60q59 0 105.5 -35.5t46.5 -115.5q0 -76 -52.5 -125t-152.5 -49q-78 0 -151 43q-16 10 -7 32l29 64q8 18 35 6q53 -27 90 -27q68 0 68 52q0 61 -99 61q-27 0 -36 9t-1 30l41 127q-104 27 -163.5 112t-59.5 224v536h-164 q-29 0 -28 27v84q0 27 28 27h164v206q0 29 27 29h114q29 0 29 -29v-206h318q29 0 28 -27v-84q0 -27 -28 -27h-318v-534q0 -100 45 -152.5t125 -52.5q51 0 115 35q27 14 43 -8z" glyph-name="tcommaaccent" horiz-adv-x="782" unicode="ţ"/><glyph d="M670 1569q-8 0 -21 10l-315 256q-23 18 -4 39l49 59q16 20 39 4l252 -194l252 194q20 16 39 -4l51 -59q18 -20 -4 -39l-318 -256q-12 -10 -20 -10zM430 0q-29 0 -29 27v90q0 27 29 26h154v1184h-363v-205q0 -29 -26 -28h-111q-12 0 -20.5 8t-8.5 20v322q0 27 29 26h1167 q27 0 27 -26v-322q0 -29 -27 -28h-110q-27 0 -27 28v205h-360v-1184h155q27 0 27 -26v-90q0 -27 -27 -27h-479z" glyph-name="Tcaron" horiz-adv-x="1333" unicode="Ť"/><glyph d="M516 1059q-12 0 -12 10v68q0 12 12 12q35 0 70 29.5t35 83.5q0 10 -3 22q-12 -2 -32 -2q-51 0 -89 37t-38 92q0 53 39 92t92 39q61 0 102 -51t41 -156q0 -137 -64.5 -206.5t-152.5 -69.5zM539 -14q-145 0 -232.5 90t-87.5 258v536h-164q-29 0 -28 27v84q0 27 28 27h164 v206q0 29 27 29h114q12 0 20.5 -8t8.5 -21v-206h318q29 0 28 -27v-84q0 -27 -28 -27h-318v-534q0 -100 45 -152.5t125 -52.5q51 0 115 35q27 14 43 -8l43 -68q14 -23 -8 -41q-80 -63 -213 -63z" glyph-name="tcaron" horiz-adv-x="782" unicode="ť"/><glyph d="M1251 1470q27 0 27 -26v-322q0 -29 -27 -28h-110q-27 0 -27 28v205h-360v-584h194q33 0 33 -26v-82q0 -12 -9 -20.5t-24 -8.5h-194v-463h155q27 0 27 -26v-90q0 -27 -27 -27h-479q-29 0 -29 27v90q0 27 29 26h154v463h-199q-29 0 -29 29v82q0 27 29 26h199v584h-363v-205 q0 -29 -26 -28h-111q-29 0 -29 28v322q0 27 29 26h1167z" glyph-name="Tbar" horiz-adv-x="1333" unicode="Ŧ"/><glyph d="M770 90q14 -23 -8 -41q-80 -63 -213 -63q-145 0 -232.5 90t-87.5 258v125h-163q-27 0 -27 28v82q0 27 27 27h163v274h-163q-29 0 -29 27v84q0 27 29 27h163v206q0 29 27 29h115q29 0 28 -29v-206h318q29 0 28 -27v-84q0 -27 -28 -27h-318v-274h179q29 0 28 -27v-82 q0 -29 -28 -28h-179v-123q0 -100 45 -152.5t125 -52.5q51 0 115 35q27 14 43 -8z" glyph-name="tbar" horiz-adv-x="792" unicode="ŧ"/><glyph d="M487 1626q-25 0 -24 25q0 111 49 173t143 62q55 0 107.5 -26.5t91.5 -52t66 -25.5q35 0 54 23.5t19 88.5q0 25 25 25h80q25 0 24 -25q0 -252 -192 -252q-53 0 -101.5 26t-88.5 52.5t-74 26.5q-74 0 -74 -96q0 -25 -25 -25h-80zM1176 1327h-156q-27 0 -27 25v94 q0 25 27 24h481q25 0 25 -24v-94q0 -25 -25 -25h-158v-776q0 -274 -147 -419.5t-399 -145.5q-264 0 -407.5 143t-143.5 422v776h-158q-25 0 -25 25v94q0 25 25 24h487q25 0 25 -24v-94q0 -25 -25 -25h-157v-782q0 -399 381 -400q193 0 285 103.5t92 283.5v795z" glyph-name="Utilde" horiz-adv-x="1587" unicode="Ũ"/><glyph d="M274 1157q-25 0 -24 25q0 111 49 173t143 62q55 0 107.5 -26.5t91.5 -52t66 -25.5q35 0 54 24.5t19 92.5q0 25 25 24h80q25 0 24 -24q0 -256 -192 -256q-53 0 -101.5 25.5t-88.5 52t-74 26.5q-74 0 -74 -96q0 -25 -25 -25h-80zM958 0q-45 0 -66.5 19.5t-21.5 66.5v68h-6 q-12 -23 -31.5 -45.5t-56.5 -53t-98.5 -50t-134.5 -19.5q-164 0 -261.5 99t-97.5 267v518h-112q-27 0 -27 25v88q0 25 27 25h258q25 0 24 -25v-631q0 -96 62.5 -159.5t169.5 -63.5q104 0 168.5 56.5t95.5 129.5v555h-115q-25 0 -24 25v88q0 25 24 25h260q25 0 25 -25v-846 h117q23 0 22 -24v-88q0 -25 -22 -25h-179z" glyph-name="utilde" horiz-adv-x="1218" unicode="ũ"/><glyph d="M492 1655q-27 0 -27 26v86q0 29 27 29h606q27 0 26 -29v-86q0 -27 -26 -26h-606zM1176 1327h-156q-27 0 -27 25v94q0 25 27 24h481q25 0 25 -24v-94q0 -25 -25 -25h-158v-776q0 -274 -147 -419.5t-399 -145.5q-264 0 -407.5 143t-143.5 422v776h-158q-25 0 -25 25v94 q0 25 25 24h487q25 0 25 -24v-94q0 -25 -25 -25h-157v-782q0 -399 381 -400q193 0 285 103.5t92 283.5v795z" glyph-name="Umacron" horiz-adv-x="1587" unicode="Ū"/><glyph d="M281 1225q-27 0 -27 26v86q0 29 27 29h606q27 0 26 -29v-86q0 -27 -26 -26h-606zM958 0q-88 0 -88 86v68h-6q-12 -23 -31.5 -45.5t-56.5 -53t-98.5 -50t-134.5 -19.5q-164 0 -261.5 99t-97.5 267v518h-112q-27 0 -27 25v88q0 25 27 25h258q25 0 24 -25v-631 q0 -96 62.5 -159.5t169.5 -63.5q184 0 264 186v555h-115q-25 0 -24 25v88q0 25 24 25h260q25 0 25 -25v-846h117q23 0 22 -24v-88q0 -25 -22 -25h-179z" glyph-name="umacron" horiz-adv-x="1218" unicode="ū"/><glyph d="M796.5 1599q-143.5 0 -226.5 78t-83 219q0 27 25 27h86q29 0 29 -27q0 -78 48 -121.5t121.5 -43.5t122 44t48.5 121q0 27 28 27h86q25 0 25 -27q0 -141 -83 -219t-226.5 -78zM1176 1327h-156q-27 0 -27 25v94q0 25 27 24h481q25 0 25 -24v-94q0 -25 -25 -25h-158v-776 q0 -274 -147 -419.5t-399 -145.5q-264 0 -407.5 143t-143.5 422v776h-158q-25 0 -25 25v94q0 25 25 24h487q25 0 25 -24v-94q0 -25 -25 -25h-157v-782q0 -399 381 -400q193 0 285 103.5t92 283.5v795z" glyph-name="Ubreve" horiz-adv-x="1587" unicode="Ŭ"/><glyph d="M583.5 1126q-145.5 0 -227.5 77t-82 233q0 27 25 26h86q29 0 29 -26q0 -178 170 -178.5t170 178.5q0 27 28 26h86q25 0 25 -26q0 -156 -82 -233t-227.5 -77zM958 0q-88 0 -88 86v68h-6q-12 -23 -31.5 -45.5t-56.5 -53t-98.5 -50t-134.5 -19.5q-164 0 -261.5 99t-97.5 267 v518h-112q-27 0 -27 25v88q0 25 27 25h258q25 0 24 -25v-631q0 -96 62.5 -159.5t169.5 -63.5q184 0 264 186v555h-115q-25 0 -24 25v88q0 25 24 25h260q25 0 25 -25v-846h117q23 0 22 -24v-88q0 -25 -22 -25h-179z" glyph-name="ubreve" horiz-adv-x="1218" unicode="ŭ"/><glyph d="M795 1559q-78 0 -136.5 58t-58.5 138q0 78 58.5 135.5t136.5 57.5q80 0 137 -57.5t57 -135.5q0 -80 -57 -138t-137 -58zM795 1677q31 0 52 21.5t21 56.5q0 33 -21.5 54.5t-51.5 21.5q-29 0 -50.5 -21.5t-21.5 -54.5q0 -35 21.5 -56.5t50.5 -21.5zM1176 1327h-156 q-27 0 -27 25v94q0 25 27 24h481q25 0 25 -24v-94q0 -25 -25 -25h-158v-776q0 -274 -147 -419.5t-399 -145.5q-264 0 -407.5 143t-143.5 422v776h-158q-25 0 -25 25v94q0 25 25 24h487q25 0 25 -24v-94q0 -25 -25 -25h-157v-782q0 -399 381 -400q193 0 285 103.5t92 283.5 v795z" glyph-name="Uring" horiz-adv-x="1587" unicode="Ů"/><glyph d="M584 1135q-78 0 -136.5 58t-58.5 138q0 78 58.5 135.5t136.5 57.5q80 0 137 -57.5t57 -135.5q0 -80 -57 -138t-137 -58zM584 1253q31 0 52 21.5t21 56.5q0 33 -21.5 54.5t-51.5 21.5q-29 0 -50.5 -21.5t-21.5 -54.5q0 -35 21.5 -56.5t50.5 -21.5zM958 0q-88 0 -88 86v68 h-6q-12 -23 -31.5 -45.5t-56.5 -53t-98.5 -50t-134.5 -19.5q-164 0 -261.5 99t-97.5 267v518h-112q-27 0 -27 25v88q0 25 27 25h258q25 0 24 -25v-631q0 -96 62.5 -159.5t169.5 -63.5q184 0 264 186v555h-115q-25 0 -24 25v88q0 25 24 25h260q25 0 25 -25v-846h117 q23 0 22 -24v-88q0 -25 -22 -25h-179z" glyph-name="uring" horiz-adv-x="1218" unicode="ů"/><glyph d="M569 1577q-14 -16 -39 -2l-59 51q-20 18 -4 39l235 301q18 25 39 4l78 -63q20 -18 4 -39zM961 1577q-14 -16 -39 -2l-60 51q-20 18 -4 39l236 301q18 25 39 4l77 -63q20 -18 4 -39zM1176 1327h-156q-27 0 -27 25v94q0 25 27 24h481q25 0 25 -24v-94q0 -25 -25 -25h-158 v-776q0 -274 -147 -419.5t-399 -145.5q-264 0 -407.5 143t-143.5 422v776h-158q-25 0 -25 25v94q0 25 25 24h487q25 0 25 -24v-94q0 -25 -25 -25h-157v-782q0 -399 381 -400q193 0 285 103.5t92 283.5v795z" glyph-name="Uhungarumlaut" horiz-adv-x="1587" unicode="Ű"/><glyph d="M713 1118q-16 -18 -39 -4l-53 35q-23 14 -7 39l205 321q16 25 39 9l84 -60q20 -20 6 -37zM377 1118q-16 -18 -39 -4l-53 35q-23 16 -6 39l204 321q16 23 39 9l84 -60q18 -18 6 -37zM958 0q-88 0 -88 86v68h-6q-12 -23 -31.5 -45.5t-56.5 -53t-98.5 -50t-134.5 -19.5 q-164 0 -261.5 99t-97.5 267v518h-112q-27 0 -27 25v88q0 25 27 25h258q25 0 24 -25v-631q0 -96 62.5 -159.5t169.5 -63.5q184 0 264 186v555h-115q-25 0 -24 25v88q0 25 24 25h260q25 0 25 -25v-846h117q23 0 22 -24v-88q0 -25 -22 -25h-179z" glyph-name="uhungarumlaut" horiz-adv-x="1218" unicode="ű"/><glyph d="M1501 1470q25 0 25 -24v-94q0 -25 -25 -25h-158v-776q0 -246 -118.5 -388.5t-325.5 -170.5q-113 -84 -113 -195q0 -74 64 -73q33 0 63 16q29 14 39 -4l35 -62q10 -18 -8 -34q-47 -39 -141 -39q-92 0 -139.5 50t-47.5 130q0 68 33 121t78 84q-248 10 -382 152.5 t-134 412.5v776h-158q-25 0 -25 25v94q0 25 25 24h487q25 0 25 -24v-94q0 -25 -25 -25h-157v-782q0 -399 381 -400q193 0 285 103.5t92 283.5v795h-156q-27 0 -27 25v94q0 25 27 24h481z" glyph-name="Uogonek" horiz-adv-x="1587" unicode="Ų"/><glyph d="M1188 -326q12 -18 -8 -34q-45 -39 -140 -39q-92 0 -139 50t-47 130q0 78 43 137t90 82h-29q-45 0 -66.5 19.5t-21.5 66.5v68h-6q-12 -23 -31.5 -45.5t-56.5 -53t-98.5 -50t-134.5 -19.5q-164 0 -261.5 99t-97.5 267v518h-112q-27 0 -27 25v88q0 25 27 25h258q25 0 24 -25 v-631q0 -96 62.5 -159.5t169.5 -63.5q104 0 168.5 56.5t95.5 129.5v555h-115q-25 0 -24 25v88q0 25 24 25h260q25 0 25 -25v-846h117q23 0 22 -24v-88q0 -25 -22 -25h-25q-123 -84 -123 -201q0 -76 64 -75q33 0 63 16q29 14 39 -4z" glyph-name="uogonek" horiz-adv-x="1218" unicode="ų"/><glyph d="M805 1577q-20 -14 -39 4l-49 59q-18 20 4 39l315 256q12 10 20.5 10.5t20.5 -10.5l318 -256q23 -16 4 -39l-51 -59q-16 -20 -39 -4l-252 195zM600 0q-41 0 -62.5 19.5t-33.5 62.5l-334 1245h-129q-27 0 -27 25v94q0 25 27 24h459q27 0 26 -24v-94q0 -25 -26 -25h-144 l279 -1126h12l314 1208q10 35 23 48t44 13h59q31 0 44.5 -13t23.5 -48l315 -1208h13l278 1126h-143q-27 0 -27 25v94q0 25 27 24h453q27 0 26 -24v-94q0 -25 -26 -25h-134l-333 -1245q-23 -82 -97 -82h-75q-78 0 -99 82l-274 1044h-8l-277 -1044q-20 -82 -98 -82h-76z" glyph-name="Wcircumflex" horiz-adv-x="2109" unicode="Ŵ"/><glyph d="M569 1120q-18 -16 -39 4l-49 60q-18 23 4 39l314 276q14 10 22 10t21 -10l317 -276q20 -20 4 -39l-51 -60q-16 -20 -39 -4l-252 215zM473 0q-20 0 -30.5 10t-18.5 33l-274 827h-109q-25 0 -25 25v88q0 25 25 25h381q27 0 27 -25v-88q0 -25 -27 -25h-92l205 -690h4 l196 785q10 43 49 43h76q41 0 51 -43l191 -785h4l205 690h-92q-27 0 -27 25v88q0 25 27 25h374q25 0 25 -25v-88q0 -25 -25 -25h-108l-273 -827q-8 -23 -18 -33t-31 -10h-116q-41 0 -52 43l-172 700h-6l-176 -700q-10 -43 -51 -43h-117z" glyph-name="wcircumflex" horiz-adv-x="1634" unicode="ŵ"/><glyph d="M475 1577q-20 -14 -39 4l-49 59q-18 20 4 39l316 256q12 10 20 10.5t21 -10.5l317 -256q23 -16 4 -39l-51 -59q-16 -20 -39 -4l-252 195zM461 0q-25 0 -25 25v94q0 25 25 24h160v445l-431 739h-137q-25 0 -24 25v94q0 25 24 24h469q27 0 27 -24v-94q0 -25 -27 -25h-135 l324 -584h8l319 584h-141q-25 0 -25 25v94q0 25 25 24h467q27 0 27 -24v-94q0 -25 -27 -25h-137l-434 -739v-445h161q25 0 25 -24v-94q0 -25 -25 -25h-493z" glyph-name="Ycircumflex" horiz-adv-x="1415" unicode="Ŷ"/><glyph d="M338 1124l-49 60q-18 23 4 39l313 276q14 10 23 10q8 0 20 -10l318 -276q20 -20 4 -39l-51 -60q-16 -20 -39 -4l-252 215l-252 -215q-19 -16 -39 4zM1174 1008q25 0 24 -25v-88q0 -25 -24 -25h-109l-338 -833l-51 -123q-31 -76 -51.5 -119t-52 -94t-62.5 -75.5t-76 -42 t-102 -17.5q-80 0 -133.5 21.5t-75.5 43.5q-20 20 -6 37l51 72q14 18 37 2q41 -33 110 -33q76 0 119 46t90 161l35 84h-24q-18 0 -26.5 7t-19.5 30l-335 833h-109q-25 0 -25 25v88q0 25 25 25h412q25 0 24 -25v-88q0 -25 -24 -25h-121l276 -727h4l283 727h-117q-25 0 -24 25 v88q0 25 24 25h392z" glyph-name="ycircumflex" horiz-adv-x="1212" unicode="ŷ"/><glyph d="M643 1767q0 -49 -35 -84.5t-86 -35.5t-87 35.5t-36 84.5q0 53 36 90t87 37t86 -37t35 -90zM1057 1767q0 -49 -37 -84.5t-88 -35.5t-86 34.5t-35 85.5q0 53 35 90t86 37t88 -37t37 -90zM461 0q-25 0 -25 25v94q0 25 25 24h160v445l-431 739h-137q-25 0 -24 25v94 q0 25 24 24h469q27 0 27 -24v-94q0 -25 -27 -25h-135l324 -584h8l319 584h-141q-25 0 -25 25v94q0 25 25 24h467q27 0 27 -24v-94q0 -25 -27 -25h-137l-434 -739v-445h161q25 0 25 -24v-94q0 -25 -25 -25h-493z" glyph-name="Ydieresis" horiz-adv-x="1415" unicode="Ÿ"/><glyph d="M516 1575q-20 -16 -37 6l-47 64q-18 23 6 38l344 273q20 16 39 -6l62 -80q16 -23 -6 -39zM125 0q-27 0 -27 27v86q0 23 39 69l858 1141h-731v-168q0 -27 -28 -27h-111q-27 0 -27 27v289q0 27 27 26h1057q27 0 26 -26v-74q0 -29 -43 -84l-858 -1139h737v168q0 27 27 27 h113q27 0 26 -27v-288q0 -27 -26 -27h-1059z" glyph-name="Zacute" horiz-adv-x="1306" unicode="Ź"/><glyph d="M434 1110q-20 -14 -39 6l-51 60q-18 23 4 38l330 289q20 20 39 -2l65 -78q14 -20 -4 -39zM113 0q-25 0 -25 25v84q0 31 31 69l610 692h-483v-163q0 -25 -23 -25h-102q-25 0 -25 25v276q0 25 25 25h782q25 0 25 -25v-72q0 -31 -31 -65l-610 -709h514v162q0 25 24 25h101 q25 0 24 -25v-274q0 -25 -24 -25h-813z" glyph-name="zacute" horiz-adv-x="1032" unicode="ź"/><glyph d="M776 1741q0 -49 -35.5 -84t-85.5 -35q-51 0 -85.5 35t-34.5 84q0 51 34.5 87t85.5 36q49 0 85 -36t36 -87zM125 0q-27 0 -27 27v86q0 23 39 69l858 1141h-731v-168q0 -27 -28 -27h-111q-27 0 -27 27v289q0 27 27 26h1057q27 0 26 -26v-74q0 -29 -43 -84l-858 -1139h737 v168q0 27 27 27h113q27 0 26 -27v-288q0 -27 -26 -27h-1059z" glyph-name="Zdotaccent" horiz-adv-x="1306" unicode="Ż"/><glyph d="M651 1335q0 -53 -39 -91t-92 -38q-55 0 -93 38t-38 91q0 55 38 94t93 39q53 0 92 -39t39 -94zM113 0q-25 0 -25 25v84q0 31 31 69l610 692h-483v-163q0 -25 -23 -25h-102q-25 0 -25 25v276q0 25 25 25h782q25 0 25 -25v-72q0 -31 -31 -65l-610 -709h514v162q0 25 24 25 h101q25 0 24 -25v-274q0 -25 -24 -25h-813z" glyph-name="zdotaccent" horiz-adv-x="1032" unicode="ż"/><glyph d="M655.5 1569q-8.5 0 -20.5 10l-316 256q-23 18 -4 39l50 59q16 20 38 4l252 -194l252 194q20 16 39 -4l51 -59q18 -20 -4 -39l-317 -256q-12 -10 -20.5 -10zM125 0q-27 0 -27 27v86q0 23 39 69l858 1141h-731v-168q0 -27 -28 -27h-111q-27 0 -27 27v289q0 27 27 26h1057 q27 0 26 -26v-74q0 -29 -43 -84l-858 -1139h737v168q0 27 27 27h113q27 0 26 -27v-288q0 -27 -26 -27h-1059z" glyph-name="Zcaron" horiz-adv-x="1306" unicode="Ž"/><glyph d="M512 1108q-8 0 -20 10l-316 277q-20 18 -4 39l49 59q18 23 39 4l252 -215l252 215q20 16 39 -4l51 -59q16 -20 -4 -39l-318 -277q-12 -10 -20 -10zM113 0q-25 0 -25 25v84q0 10 1 19t5 17.5t6 10.5t9.5 11t9.5 11l610 692h-483v-163q0 -25 -23 -25h-102q-25 0 -25 25v276 q0 25 25 25h782q25 0 25 -25v-72q0 -31 -31 -65l-610 -709h514v162q0 25 24 25h101q25 0 24 -25v-274q0 -25 -24 -25h-813z" glyph-name="zcaron" horiz-adv-x="1032" unicode="ž"/><glyph d="M113 0q-25 0 -25 25v88q0 25 25 24h114v733h-135q-25 0 -24 25v88q0 25 24 25h135v125q0 158 89.5 255t230.5 97q133 0 213 -64q23 -18 8 -41l-39 -69q-6 -12 -20.5 -13.5t-22.5 5.5q-53 37 -121 36q-168 0 -168 -184v-1018h205q25 0 25 -24v-88q0 -25 -25 -25h-489z" glyph-name="longs" horiz-adv-x="694" unicode="ſ"/><glyph d="M734 -14q-302 0 -478 199.5t-174 531.5q0 29 29 28h1128q0 143 -45 259t-117.5 187t-160 107.5t-181.5 36.5q-279 0 -475 -229q-20 -23 -41 -4l-80 74q-20 18 -2 38q233 268 598 269q135 0 256 -50.5t215 -142.5t148.5 -233.5t54.5 -313.5q0 -346 -186.5 -551.5 t-488.5 -205.5zM733 133q199 0 328 120t168 347h-973q16 -229 150 -348t327 -119z" glyph-name="uni018F" horiz-adv-x="1509" unicode="Ə"/><glyph d="M102 -479q-125 0 -206 82q-23 18 -7 37l50 61q18 20 34 4q47 -37 113 -37q174 0 174 205v997h-117q-27 0 -26 25v88q0 25 26 25h117v127q0 170 87 259t243 89q115 0 207 -82q20 -18 6 -35l-49 -63q-18 -18 -35 -5q-49 39 -113 39q-84 0 -130 -52t-46 -152v-125h262 q25 0 25 -25v-88q0 -25 -25 -25h-262v-999q0 -172 -86 -261t-242 -89z" glyph-name="florin" horiz-adv-x="849" unicode="ƒ"/><glyph d="M1507 1470q27 0 27 -24v-94q0 -25 -27 -25h-155v-1302q0 -25 -25 -25h-110q-39 0 -61.5 15.5t-43.5 47.5l-582 961l-102 188h-4v-1194q0 -250 -136 -371.5t-435 -121.5q-27 0 -27 26v99q0 25 27 24q225 0 316 77t91 247v1329h-158q-25 0 -24 25v94q0 25 24 24h285 q66 0 107 -69l575 -948q29 -47 58.5 -100.5t43.5 -82.5l15 -30h4v1087h-158q-25 0 -24 25v94q0 25 24 24h475z" glyph-name="uni019D" horiz-adv-x="1611" unicode="Ɲ"/><glyph d="M784 1569q-8 0 -20 10l-315 256q-20 18 -5 39l50 59q18 20 38 4l252 -194l252 194q23 16 39 -4l51 -59q18 -20 -4 -39l-317 -256q-13 -10 -21 -10zM1307 0q-25 0 -25 25v143q-178 -182 -477 -182q-309 0 -507 207.5t-198 549.5q0 172 57.5 314.5t155 234.5t222 141.5 t262.5 49.5q180 0 289.5 -56.5t164.5 -134.5l-2 154q0 25 23 24h108q25 0 25 -24v-418q0 -25 -25 -24h-118q-27 0 -27 24q0 133 -120 216t-310 83q-223 0 -376 -160.5t-153 -429.5q0 -141 44.5 -256.5t119 -188.5t171 -112t200.5 -39q303 0 459 203v186h-385q-25 0 -25 27 v92q0 27 25 27h524q25 0 25 -27v-624q0 -25 -25 -25h-102z" glyph-name="Gcaron" horiz-adv-x="1566" unicode="Ǧ"/><glyph d="M592 1108q-8 0 -23 10l-313 277q-20 18 -4 39l49 59q18 23 39 4l252 -215l252 215q20 16 39 -4l51 -59q16 -20 -4 -39l-318 -277q-12 -10 -20 -10zM547 1022q137 0 232 -59.5t130 -141.5h6l-2 162q0 25 25 25h244q25 0 24 -25v-88q0 -25 -24 -25h-113v-845 q0 -211 -140.5 -335t-379.5 -124q-223 0 -385 121q-20 16 -6 37l57 81q12 18 35 5q2 -2 13 -9.5t20.5 -13.5t27 -16.5t33.5 -17.5t40 -16t47.5 -14.5t53 -9.5t60.5 -4q166 0 260 85t94 231v32q0 31 6 119h-4q-33 -72 -125 -131t-219 -59q-209 0 -339 142t-130 376 q0 231 127 374.5t332 143.5zM573 129q139 0 233.5 103.5t94.5 271.5q0 174 -95 274.5t-233 100.5q-133 0 -223 -101.5t-90 -273.5q0 -166 88 -270.5t225 -104.5z" glyph-name="gcaron" horiz-adv-x="1267" unicode="ǧ"/><glyph d="M909 -8q-111 -84 -110 -193q0 -76 65 -75q31 0 64 16q27 14 37 -4l34 -62q10 -18 -8 -34q-47 -39 -141 -39q-90 0 -138 50t-48 130q0 68 33.5 122t76.5 83q-293 14 -484.5 222t-191.5 535q0 172 58.5 313.5t158 233.5t228.5 142.5t270 50.5t269 -50.5t227.5 -142.5 t158 -233.5t58.5 -313.5q0 -313 -172.5 -515.5t-444.5 -235.5zM274 737q0 -143 45.5 -261t121 -190.5t171 -112.5t201 -40t200.5 40t171 112.5t121 190.5t45 261q0 145 -47.5 263t-125 189t-172 108.5t-193.5 37.5t-193.5 -37.5t-172 -108.5t-125 -189t-47.5 -263z" glyph-name="uni01EA" horiz-adv-x="1624" unicode="Ǫ"/><glyph d="M666 -10q-109 -84 -109 -193q0 -74 64 -73q33 0 63 16q29 14 39 -4l35 -62q10 -18 -8 -34q-47 -39 -142 -39q-92 0 -139 50t-47 130q0 68 33.5 123t79.5 84q-205 18 -327 157.5t-122 358.5q0 231 138 374.5t365.5 143.5t366 -143.5t138.5 -374.5q0 -213 -115.5 -351 t-312.5 -163zM258 504q0 -166 93 -270.5t238.5 -104.5t239 104.5t93.5 270.5t-93.5 270.5t-239 104.5t-238.5 -104.5t-93 -270.5z" glyph-name="uni01EB" horiz-adv-x="1179" unicode="ǫ"/><glyph d="M754 1559q-78 0 -136.5 58t-58.5 138q0 78 58.5 135.5t136.5 57.5q63 0 114 -39l308 200q23 14 38 -10l54 -84q14 -25 -11 -39l-313 -182q4 -20 4 -39q0 -80 -57 -138t-137 -58zM754 1831q-29 0 -50.5 -21.5t-21.5 -54.5q0 -35 21.5 -56.5t50.5 -21.5q31 0 52 21.5 t21 56.5q0 33 -21 54.5t-52 21.5zM1507 143q27 0 27 -24v-94q0 -25 -27 -25h-454q-27 0 -27 25v94q0 25 27 24h143l-133 357h-580l-133 -357h146q27 0 26 -24v-94q0 -25 -26 -25h-451q-25 0 -25 25v94q0 25 25 24h137l447 1184h-115q-27 0 -27 25v94q0 25 27 24h268 q49 0 75 -20t44 -68l471 -1239h135zM539 647h471l-232 621h-14z" glyph-name="Aringacute" horiz-adv-x="1544" unicode="Ǻ"/><glyph d="M494 1135q-78 0 -136.5 58t-58.5 138q0 78 58.5 135.5t136.5 57.5q23 0 43 -4l217 299q16 25 39 6l79 -62q18 -16 7 -39l-228 -282q37 -51 37 -111q0 -80 -57 -138t-137 -58zM494 1407q-29 0 -50.5 -21.5t-21.5 -54.5q0 -35 21.5 -56.5t50.5 -21.5q31 0 52 21.5t21 56.5 q0 33 -21 54.5t-52 21.5zM1032 137q27 0 27 -24v-88q0 -25 -27 -25h-176q-39 0 -63.5 23.5t-24.5 62.5v80h-4q-43 -66 -134 -123t-224 -57q-147 0 -239.5 76.5t-92.5 205.5q0 152 118.5 231t325.5 79h232v51q0 113 -68 181.5t-197 68.5q-35 0 -66.5 -4.5t-57 -11.5t-47 -15 t-39 -17.5t-28.5 -16.5t-19 -13l-9 -6q-27 -18 -45 6l-45 65q-14 20 8 39q145 117 355 117q215 0 321.5 -104.5t106.5 -288.5v-492h112zM434 129q184 4 316 178v142h-238q-121 0 -193.5 -44.5t-72.5 -125.5q0 -70 51 -111t137 -39z" glyph-name="aringacute" horiz-adv-x="1099" unicode="ǻ"/><glyph d="M1073 1575q-23 -16 -39 6l-47 64q-18 23 6 38l344 273q20 16 39 -6l62 -80q16 -23 -8 -39zM895 0q-25 0 -25 25v94q0 25 25 24h158v516h-488l-219 -516h146q25 0 24 -24v-94q0 -25 -24 -25h-457q-25 0 -25 25v94q0 25 25 24h137l500 1180h-113q-25 0 -24 25v98 q0 25 24 24h1417q25 0 25 -24v-326q0 -25 -25 -24h-106q-25 0 -25 24v203h-620v-514h522q25 0 25 -25v-100q0 -25 -25 -25h-522v-516h618v205q0 25 25 25h108q25 0 25 -25v-323q0 -25 -25 -25h-1081zM1053 1323h-207l-221 -514h428v514z" glyph-name="AEacute" horiz-adv-x="2050" unicode="Ǽ"/><glyph d="M782 1110q-20 -14 -39 6l-51 60q-18 23 4 38l330 289q20 20 39 -2l65 -78q14 -20 -4 -39zM410 -14q-145 0 -240.5 76.5t-95.5 205.5q0 156 122.5 233t342.5 77h211v43q0 127 -72 192.5t-195 65.5q-59 0 -112.5 -13.5t-80 -27t-52 -30.5t-27.5 -17q-20 -8 -33 6l-47 65 q-20 25 4 41q143 119 354 119q287 0 373 -199q133 199 367 199q219 0 329.5 -139.5t110.5 -399.5q0 -27 -27 -26h-718q8 -160 107 -244t233 -84q188 0 311 123q20 20 39 6l59 -55q18 -18 6 -37q-23 -33 -61.5 -68t-137 -73.5t-218.5 -38.5q-143 0 -260 62.5t-183 178.5 q-145 -241 -409 -241zM928 586h575q-6 135 -73.5 214t-194.5 79q-117 0 -203 -75t-104 -218zM422 129q57 0 108.5 15.5t86 38t63.5 50t45 50t29 41.5l10 18q-14 43 -14 107h-228q-117 0 -196.5 -41t-79.5 -132q0 -63 48 -105t128 -42z" glyph-name="aeacute" horiz-adv-x="1763" unicode="ǽ"/><glyph d="M635 1581l-45 64q-18 23 6 38l344 273q20 16 39 -6l61 -80q16 -23 -8 -39l-356 -256q-23 -17 -41 6zM1094 1430q195 -80 313.5 -257.5t118.5 -429.5q0 -342 -203 -549.5t-510 -207.5q-76 0 -147 14l-27 -92q-8 -27 -31 -27h-98q-27 0 -18 27l38 131q-199 82 -315.5 267.5 t-116.5 436.5q0 172 58.5 313.5t158 233.5t228.5 142.5t270 50.5q74 0 145 -15l29 97q8 25 35 24h96q25 0 17 -24zM274 737q0 -201 82 -341t219 -208l340 1137q-51 10 -102 10q-100 0 -194.5 -37.5t-172 -108.5t-125 -189t-47.5 -263zM813 133q104 0 199.5 40t171.5 112.5 t121 190.5t45 261q0 199 -83 337t-218 206l-340 -1137q51 -10 104 -10z" glyph-name="Oslashacute" horiz-adv-x="1624" unicode="Ǿ"/><glyph d="M471 1116l-51 60q-18 23 4 38l330 289q20 20 39 -2l65 -78q14 -20 -4 -39l-344 -274q-21 -14 -39 6zM885 938q98 -68 153.5 -180.5t55.5 -253.5q0 -233 -138.5 -375.5t-365.5 -142.5q-94 0 -176 26l-19 -37q-12 -25 -30 -24h-97q-12 0 -18 7t0 17l47 93 q-100 68 -155.5 180t-55.5 256q0 231 138 374.5t366 143.5q94 0 176 -27l16 33q10 27 35 27h96q27 0 17 -27zM258 504q0 -184 113 -291l327 649q-51 16 -108 17q-145 0 -238.5 -104.5t-93.5 -270.5zM590 129q145 0 238.5 104.5t93.5 270.5q0 182 -111 289l-330 -648 q52 -16 109 -16z" glyph-name="oslashacute" horiz-adv-x="1179" unicode="ǿ"/><glyph d="M135 0q-27 0 -26 25v473q0 25 26 24h119q23 0 22 -24v-31q0 -14 13.5 -48t48.5 -83t84 -93t131 -76t180 -32q158 0 234.5 63.5t76.5 174.5q0 53 -21.5 96t-51 69.5t-86 51t-98.5 38t-115 31.5q-68 18 -108 29.5t-101.5 34t-98 43t-79.5 54.5t-67.5 72t-41 90t-16.5 116 q0 168 132 276.5t349 108.5q274 0 401 -170l-2 135q0 25 23 25h108q25 0 25 -25v-440q0 -27 -25 -27h-120q-25 0 -25 27v59q0 37 -20.5 79t-61.5 86t-117.5 72.5t-175.5 28.5q-166 0 -244.5 -62.5t-78.5 -172.5q0 -41 14 -76t45 -61.5t59.5 -45t83 -38t87 -29.5t96.5 -27 q29 -8 43 -12q86 -25 143 -44.5t121.5 -55t102.5 -77.5t63.5 -106.5t25.5 -144.5q0 -166 -115.5 -280.5t-340.5 -114.5q-104 0 -192.5 24.5t-147 66.5t-93 77.5t-59.5 76.5l2 -206q0 -25 -26 -25h-105zM600 -528q-12 0 -12 10v61q0 12 12 13q37 0 73 22.5t36 65.5v14 q-14 -4 -39 -4q-53 0 -90 37t-37 92t37.5 93t91.5 38q63 0 103 -51t40 -154q0 -119 -63.5 -178t-151.5 -59z" glyph-name="Scommaaccent" horiz-adv-x="1331" unicode="Ș"/><glyph d="M569 -14q-109 0 -187.5 28.5t-105 54t-40.5 52.5h-5q2 -88 2 -94q0 -27 -26 -27h-80q-29 0 -29 27l2 327q0 27 27 27h90q27 0 27 -27v-6q0 -70 82 -144.5t211 -74.5q219 0 219 133q0 59 -46 97t-116 52.5t-149.5 35t-149.5 47t-116 89t-46 158.5q0 121 98.5 201t241.5 80 q199 0 283 -109h4l-6 68q-2 27 28 27h82q27 0 27 -27v-287q0 -27 -29 -26h-88q-27 0 -26 26v29q0 70 -71 113t-188 43q-86 0 -135 -37t-49 -101q0 -55 46 -90t116 -49t149.5 -35.5t149.5 -49.5t116 -92.5t46 -160.5q0 -123 -99.5 -200.5t-259.5 -77.5zM426 -528 q-12 0 -12 10v61q0 12 12 13q37 0 73 22.5t36 65.5v14q-14 -4 -39 -4q-53 0 -90 37t-37 92t37.5 93t91.5 38q63 0 103 -51t40 -154q0 -119 -63.5 -178t-151.5 -59z" glyph-name="scommaaccent" horiz-adv-x="1019" unicode="ș"/><glyph d="M430 0q-29 0 -29 27v90q0 27 29 26h154v1184h-363v-205q0 -29 -26 -28h-111q-29 0 -29 28v322q0 27 29 26h1167q27 0 27 -26v-322q0 -29 -27 -28h-110q-27 0 -27 28v205h-360v-1184h155q27 0 27 -26v-90q0 -27 -27 -27h-479zM588 -528q-12 0 -13 10v61q0 12 13 13 q37 0 72.5 22.5t35.5 65.5v14q-14 -4 -39 -4q-53 0 -90 37t-37 92t38 93t91 38q63 0 103.5 -51t40.5 -154q0 -119 -63.5 -178t-151.5 -59z" glyph-name="uni021A" horiz-adv-x="1333" unicode="Ț"/><glyph d="M539 -14q-145 0 -232.5 90t-87.5 258v536h-164q-29 0 -28 27v84q0 27 28 27h164v206q0 29 27 29h114q29 0 29 -29v-206h318q29 0 28 -27v-84q0 -27 -28 -27h-318v-534q0 -100 45 -152.5t125 -52.5q51 0 115 35q27 14 43 -8l43 -68q14 -23 -8 -41q-80 -63 -213 -63z M414 -528q-12 0 -13 10v61q0 12 13 13q37 0 72.5 22.5t35.5 65.5v14q-14 -4 -39 -4q-53 0 -90 37t-37 92t38 93t91 38q63 0 103.5 -51t40.5 -154q0 -119 -63.5 -178t-151.5 -59z" glyph-name="uni021B" horiz-adv-x="782" unicode="ț"/><glyph d="M424 1655q-27 0 -27 26v86q0 29 27 29h606q27 0 27 -29v-86q0 -27 -27 -26h-606zM461 0q-25 0 -25 25v94q0 25 25 24h160v445l-431 739h-137q-25 0 -24 25v94q0 25 24 24h469q27 0 27 -24v-94q0 -25 -27 -25h-135l324 -584h8l319 584h-141q-25 0 -25 25v94q0 25 25 24 h467q27 0 27 -24v-94q0 -25 -27 -25h-137l-434 -739v-445h161q25 0 25 -24v-94q0 -25 -25 -25h-493z" glyph-name="uni0232" horiz-adv-x="1415" unicode="Ȳ"/><glyph d="M326 1225q-27 0 -27 26v86q0 29 27 29h606q27 0 26 -29v-86q0 -27 -26 -26h-606zM1174 1008q25 0 24 -25v-88q0 -25 -24 -25h-109l-338 -833l-51 -123q-78 -188 -145.5 -268t-198.5 -80q-143 0 -209 65q-20 20 -6 37l51 72q14 18 37 2q41 -33 110 -33q76 0 119 46t90 161 l35 84h-24q-18 0 -26.5 7t-19.5 30l-335 833h-109q-25 0 -25 25v88q0 25 25 25h412q25 0 24 -25v-88q0 -25 -24 -25h-121l276 -727h4l283 727h-117q-25 0 -24 25v88q0 25 24 25h392z" glyph-name="uni0233" horiz-adv-x="1212" unicode="ȳ"/><glyph d="M360 1008q25 0 25 -25v-1067q0 -168 -87 -258t-232 -90q-133 0 -213 63q-23 18 -9 41l45 74q16 25 45 8q66 -41 127 -41q72 0 113 52.5t41 152.5v952h-115q-25 0 -24 25v88q0 25 24 25h260z" glyph-name="uni0237" horiz-adv-x="544" unicode="ȷ"/><glyph d="M504 1022q221 0 362.5 -140.5t141.5 -377.5q0 -236 -144.5 -377t-331.5 -141q-219 0 -335.5 141t-116.5 397q0 27 26 27h728q-12 152 -109.5 240t-228.5 88q-158 0 -283 -125q-20 -20 -39 -2l-57 53q-18 18 -6 37q20 31 59 66.5t132 74.5t202 39zM526 129q113 0 196 73.5 t105 211.5h-575q6 -125 78.5 -205t195.5 -80z" glyph-name="uni0259" horiz-adv-x="1093" unicode="ə"/><glyph d="M1161 137q27 0 27 -24v-88q0 -25 -27 -25h-397q-25 0 -25 25v88q0 25 25 24h115v498q0 109 -62.5 174t-175.5 65q-109 0 -174.5 -55t-97.5 -127v-778q0 -170 -87 -259t-243 -89q-125 0 -213 76q-20 18 -4 39l53 73q16 20 39 4q66 -49 123 -49q76 0 119 53.5t43 153.5v954 h-115q-25 0 -25 25v88q0 25 25 25h242q25 0 24 -25l-2 -129h6q100 168 330 168q166 0 265.5 -99.5t99.5 -267.5v-518h112z" glyph-name="uni0272" horiz-adv-x="1232" unicode="ɲ"/><glyph d="M166 1120q-18 -16 -39 4l-49 60q-18 23 4 39l315 276q12 10 21 10q8 0 20 -10l318 -276q20 -20 4 -39l-51 -60q-16 -20 -39 -4l-252 215z" glyph-name="circumflex" horiz-adv-x="839" unicode="ˆ"/><glyph d="M418 1108q-8 0 -21 10l-315 277q-20 18 -4 39l49 59q18 23 39 4l252 -215l252 215q20 16 39 -4l51 -59q16 -20 -4 -39l-318 -277q-12 -10 -20 -10z" glyph-name="caron" horiz-adv-x="839" unicode="ˇ"/><glyph d="M391.5 1126q-145.5 0 -227.5 77t-82 233q0 27 24 26h87q29 0 28 -26q0 -178 170 -178.5t170 178.5q0 27 29 26h86q25 0 24 -26q0 -156 -81.5 -233t-227 -77z" glyph-name="breve" horiz-adv-x="737" unicode="˘"/><glyph d="M334 1335q0 -53 -39 -91t-92 -38q-55 0 -93 38t-38 91q0 55 37.5 94t93.5 39q53 0 92 -39t39 -94z" glyph-name="dotaccent" horiz-adv-x="376" unicode="˙"/><glyph d="M276 1135q-78 0 -136 58t-58 138q0 78 58.5 135.5t135.5 57.5q80 0 137.5 -57.5t57.5 -135.5q0 -80 -57.5 -138t-137.5 -58zM276 1253q31 0 52.5 21.5t21.5 56.5q0 33 -21.5 54.5t-52.5 21.5q-29 0 -50 -21.5t-21 -54.5q0 -35 21 -56.5t50 -21.5z" glyph-name="ring" horiz-adv-x="460" unicode="˚"/><glyph d="M401 -326q10 -18 -8 -34q-47 -39 -141 -39q-92 0 -139 50t-47 130q0 92 60 159.5t101 67.5h109q-12 -8 -27.5 -20.5t-43 -39t-46 -66.5t-18.5 -83q0 -76 63 -75q33 0 64 16q29 14 39 -4z" glyph-name="ogonek" horiz-adv-x="468" unicode="˛"/><glyph d="M123 1157q-25 0 -25 25q0 111 49.5 173t143.5 62q55 0 107.5 -26.5t91 -52t65.5 -25.5q35 0 54.5 24.5t19.5 92.5q0 25 24 24h80q25 0 25 -24q0 -256 -193 -256q-53 0 -101 25.5t-88 52t-75 26.5q-74 0 -74 -96q0 -25 -24 -25h-80z" glyph-name="tilde" horiz-adv-x="786" unicode="˜"/><glyph d="M602 1118q-16 -18 -39 -4l-53 35q-23 14 -6 39l205 321q16 25 39 9l83 -60q20 -20 7 -37zM266 1118q-16 -18 -39 -4l-53 35q-23 16 -6 39l205 321q16 23 39 9l84 -60q18 -18 6 -37z" glyph-name="hungarumlaut" horiz-adv-x="948" unicode="˝"/><glyph d="M-193 1112l-344 274q-18 14 -4 39l66 76q18 23 39 4l330 -291q23 -16 4 -38l-52 -60q-19 -20 -39 -4z" glyph-name="gravecomb" unicode="̀"/><glyph d="M-436 1110q-20 -14 -39 6l-51 60q-18 23 4 38l329 289q20 20 39 -2l66 -78q14 -20 -4 -39z" glyph-name="acutecomb" unicode="́"/><glyph d="M-674 1120q-18 -16 -39 4l-49 60q-18 23 4 39l316 276q12 10 20 10t21 -10l317 -276q20 -20 4 -39l-51 -60q-16 -20 -39 -4l-252 215z" glyph-name="uni0302" unicode="̂"/><glyph d="M-737 1157q-25 0 -25 25q0 111 49 173t144 62q55 0 107 -26.5t91 -52t66 -25.5q35 0 54.5 24.5t19.5 92.5q0 25 24 24h80q25 0 25 -24q0 -256 -193 -256q-53 0 -101 25.5t-88 52t-75 26.5q-74 0 -74 -96q0 -25 -24 -25h-80z" glyph-name="tildecomb" unicode="̃"/><glyph d="M-715 1225q-27 0 -26 26v86q0 29 26 29h606q27 0 27 -29v-86q0 -27 -27 -26h-606z" glyph-name="uni0304" unicode="̄"/><glyph d="M-391.5 1126q-145.5 0 -227 77t-81.5 233q0 27 24 26h86q29 0 29 -26q0 -178 170 -178.5t170 178.5q0 27 28 26h87q25 0 24 -26q0 -156 -82 -233t-227.5 -77z" glyph-name="uni0306" unicode="̆"/><glyph d="M-72 1335q0 -53 -39 -91t-92 -38q-55 0 -93 38t-38 91q0 55 38 94t93 39q53 0 92 -39t39 -94z" glyph-name="uni0307" unicode="̇"/><glyph d="M-459 1318q0 -52 -36.5 -89t-89 -37t-88.5 37t-36 89t36 90t87 38t89 -38t38 -90zM-61 1318q0 -52 -37 -89t-90 -37q-51 0 -86 37t-35 90t34.5 90t86.5 37q53 0 90 -38t37 -90z" glyph-name="uni0308" unicode="̈"/><glyph d="M-276 1135q-78 0 -136.5 58t-58.5 138q0 78 58.5 135.5t136.5 57.5q80 0 137 -57.5t57 -135.5q0 -80 -57 -138t-137 -58zM-276 1253q31 0 52 21.5t21 56.5q0 33 -21.5 54.5t-51.5 21.5q-29 0 -50.5 -21.5t-21.5 -54.5q0 -35 21.5 -56.5t50.5 -21.5z" glyph-name="uni030A" unicode="̊"/><glyph d="M-346 1118q-16 -18 -39 -4l-53 35q-23 14 -6 39l204 321q16 25 39 9l84 -60q20 -20 6 -37zM-682 1118q-16 -18 -39 -4l-53 35q-23 16 -6 39l205 321q16 23 38 9l84 -60q18 -18 7 -37z" glyph-name="uni030B" unicode="̋"/><glyph d="M-422 1108q-8 0 -20 10l-316 277q-20 18 -4 39l49 59q18 23 39 4l252 -215l252 215q20 16 39 -4l51 -59q16 -20 -4 -39l-317 -277q-13 -10 -21 -10z" glyph-name="uni030C" unicode="̌"/><glyph d="M-72 -238q0 -53 -39 -91t-92 -38q-55 0 -93 38t-38 91q0 55 38 94.5t93 39.5q53 0 92 -39.5t39 -94.5z" glyph-name="dotbelowcomb" unicode="̣"/><glyph d="M-254 -528q-12 0 -12 10v61q0 12 12 13q37 0 73 22.5t36 65.5v14q-14 -4 -39 -4q-53 0 -90 37t-37 92t37.5 93t91.5 38q63 0 103 -51t40 -154q0 -119 -63.5 -178t-151.5 -59z" glyph-name="uni0326" unicode="̦"/><glyph d="M-262 -399q-78 0 -152 43q-16 10 -6 32l29 64q8 18 35 6q53 -27 90 -27q68 0 67 52q0 61 -98 61q-27 0 -36 9t-1 30l53 166l107 -2l-35 -109q59 0 105.5 -35.5t46.5 -115.5q0 -76 -52.5 -125t-152.5 -49z" glyph-name="uni0327" unicode="̧"/><glyph d="M-70 -326q12 -18 -8 -34q-45 -39 -139 -39q-92 0 -139 50t-47 130q0 92 60 159.5t101 67.5h109q-12 -8 -27.5 -20.5t-43 -39t-46 -66.5t-18.5 -83q0 -76 63 -75q33 0 64 16q29 14 39 -4z" glyph-name="uni0328" unicode="̨"/><glyph d="M-717 494q-27 0 -26 28v82q0 27 26 27h512q29 0 29 -27v-82q0 -29 -29 -28h-512z" glyph-name="uni0335" unicode="̵"/><glyph d="M-1518 993q-23 0 -22 23v94q0 23 22 23h1338q23 0 22 -23v-94q0 -23 -22 -23h-1338z" glyph-name="uni0336" unicode="̶"/><glyph d="M-633 520q-20 -18 -37 6l-51 70q-16 23 8 39l520 364q23 14 37 -6l54 -69q16 -25 -9 -41z" glyph-name="uni0337" unicode="̷"/><glyph d="M-598 -35q-12 -25 -31 -24h-96q-12 0 -18.5 7t0.5 17l532 1053q10 27 35 26h96q27 0 17 -26z" glyph-name="uni0338" unicode="̸"/><glyph d="M1192 1575l-358 256q-23 16 -7 39l62 80q18 23 39 6l344 -273q25 -16 6 -38l-47 -64q-19 -22 -39 -6zM600 0q-41 0 -62.5 19.5t-33.5 62.5l-334 1245h-129q-27 0 -27 25v94q0 25 27 24h459q27 0 26 -24v-94q0 -25 -26 -25h-144l279 -1126h12l314 1208q10 35 23 48t44 13 h59q31 0 44.5 -13t23.5 -48l315 -1208h13l280 1126h-145q-27 0 -27 25v94q0 25 27 24h453q27 0 26 -24v-94q0 -25 -26 -25h-132l-335 -1245q-12 -43 -34 -62.5t-63 -19.5h-75q-78 0 -99 82l-274 1044h-8l-277 -1044q-20 -82 -98 -82h-76z" glyph-name="Wgrave" horiz-adv-x="2109" unicode="Ẁ"/><glyph d="M911 1112l-344 274q-18 14 -4 39l66 76q18 23 39 4l329 -291q23 -16 4 -38l-51 -60q-19 -20 -39 -4zM473 0q-35 0 -49 43l-274 827h-109q-25 0 -25 25v88q0 25 25 25h381q27 0 27 -25v-88q0 -25 -27 -25h-92l205 -690h4l196 783q10 45 49 45h76q41 0 51 -43l191 -785h4 l205 690h-92q-27 0 -27 25v88q0 25 27 25h374q25 0 25 -25v-88q0 -25 -25 -25h-108l-273 -827q-16 -43 -49 -43h-116q-41 0 -52 43l-172 700h-6l-176 -700q-10 -43 -51 -43h-117z" glyph-name="wgrave" horiz-adv-x="1634" unicode="ẁ"/><glyph d="M918 1575q-20 -16 -37 6l-47 64q-18 23 6 38l344 273q20 16 39 -6l61 -80q16 -23 -6 -39zM600 0q-41 0 -62.5 19.5t-33.5 62.5l-334 1245h-129q-27 0 -27 25v94q0 25 27 24h459q27 0 26 -24v-94q0 -25 -26 -25h-144l279 -1126h12l314 1208q10 35 23 48t44 13h59 q31 0 44.5 -13t23.5 -48l315 -1208h13l280 1126h-145q-27 0 -27 25v94q0 25 27 24h453q27 0 26 -24v-94q0 -25 -26 -25h-132l-335 -1245q-12 -43 -34 -62.5t-63 -19.5h-75q-78 0 -99 82l-274 1044h-8l-277 -1044q-20 -82 -98 -82h-76z" glyph-name="Wacute" horiz-adv-x="2109" unicode="Ẃ"/><glyph d="M735 1110q-20 -14 -39 6l-51 60q-18 23 4 38l330 289q20 20 39 -2l65 -78q14 -20 -4 -39zM473 0q-35 0 -49 43l-274 827h-109q-25 0 -25 25v88q0 25 25 25h381q27 0 27 -25v-88q0 -25 -27 -25h-92l205 -690h4l196 783q10 45 49 45h76q41 0 51 -43l191 -785h4l205 690h-92 q-27 0 -27 25v88q0 25 27 25h374q25 0 25 -25v-88q0 -25 -25 -25h-108l-273 -827q-16 -43 -49 -43h-116q-41 0 -52 43l-172 700h-6l-176 -700q-10 -43 -51 -43h-117z" glyph-name="wacute" horiz-adv-x="1634" unicode="ẃ"/><glyph d="M973 1767q0 -49 -35 -84.5t-86 -35.5t-87 35.5t-36 84.5q0 53 36 90t87 37t86 -37t35 -90zM1389 1767q0 -49 -38 -84.5t-89 -35.5t-86 34.5t-35 85.5q0 53 34.5 90t86.5 37q51 0 89 -37t38 -90zM600 0q-41 0 -62.5 19.5t-33.5 62.5l-334 1245h-129q-27 0 -27 25v94 q0 25 27 24h459q27 0 26 -24v-94q0 -25 -26 -25h-144l279 -1126h12l314 1208q10 35 23 48t44 13h59q31 0 44.5 -13t23.5 -48l315 -1208h13l278 1126h-143q-27 0 -27 25v94q0 25 27 24h453q27 0 26 -24v-94q0 -25 -26 -25h-134l-333 -1245q-23 -82 -97 -82h-75q-78 0 -99 82 l-274 1044h-8l-277 -1044q-20 -82 -98 -82h-76z" glyph-name="Wdieresis" horiz-adv-x="2109" unicode="Ẅ"/><glyph d="M745 1318q0 -52 -35.5 -89t-88 -37t-89 37t-36.5 89t36.5 90t88 38t88 -38t36.5 -90zM1147 1318q0 -52 -38 -89t-91 -37q-51 0 -86 37t-35 90t35 90t86 37q53 0 91 -38t38 -90zM473 0q-35 0 -49 43l-274 827h-109q-25 0 -25 25v88q0 25 25 25h381q27 0 27 -25v-88 q0 -25 -27 -25h-92l205 -690h4l196 783q10 45 49 45h76q41 0 51 -43l191 -785h4l205 690h-92q-27 0 -27 25v88q0 25 27 25h374q25 0 25 -25v-88q0 -25 -25 -25h-108l-273 -827q-16 -43 -49 -43h-116q-41 0 -52 43l-172 700h-6l-176 -700q-10 -43 -51 -43h-117z" glyph-name="wdieresis" horiz-adv-x="1634" unicode="ẅ"/><glyph d="M109 0q-25 0 -25 25v90q0 25 25 24h122v842q0 242 164 373t418 131q264 0 414 -119q25 -20 24 -41q0 -16 -22 -29q-4 -2 -59.5 -30.5t-74 -40t-63.5 -43t-63.5 -57t-37 -64.5t-18.5 -82q0 -68 47.5 -126t115 -106.5t136 -101.5t115.5 -135t47 -184q0 -158 -102.5 -249 t-278.5 -91q-96 0 -172 27.5t-116.5 71.5t-57 68.5t-26.5 51.5q-8 23 12 35l108 59q23 10 35 -12l4 -8q4 -6 8.5 -14.5t12.5 -21t18 -23.5t22.5 -23.5t29 -21.5t35 -17t42 -13.5t47.5 -5.5q92 0 147.5 43t55.5 117q0 68 -34 124t-86 94t-111.5 83t-110.5 89t-86 112.5 t-35 150.5q0 238 240 355q-61 27 -191 26q-76 0 -142.5 -20.5t-121.5 -62.5t-87 -113.5t-32 -165.5v-832h121q25 0 25 -24v-90q0 -25 -25 -25h-413z" glyph-name="uni1E9E" horiz-adv-x="1431" unicode="ẞ"/><glyph d="M1053 0q-27 0 -27 25v94q0 25 27 24h143l-133 357h-580l-133 -357h146q27 0 26 -24v-94q0 -25 -26 -25h-451q-25 0 -25 25v94q0 25 25 24h137l447 1184h-115q-27 0 -27 25v94q0 25 27 24h268q49 0 75 -20t44 -68l471 -1239h135q27 0 27 -24v-94q0 -25 -27 -25h-454z M778 1268h-14l-225 -621h471zM897 -238q0 -53 -39 -91t-92 -38q-55 0 -93 38t-38 91q0 55 38 94.5t93 39.5q53 0 92 -39.5t39 -94.5z" glyph-name="uni1EA0" horiz-adv-x="1544" unicode="Ạ"/><glyph d="M1032 137q27 0 27 -24v-88q0 -25 -27 -25h-176q-39 0 -63.5 23.5t-24.5 62.5v80h-4q-43 -66 -134 -123t-224 -57q-147 0 -239.5 76.5t-92.5 205.5q0 152 118.5 231t325.5 79h232v51q0 113 -68 181.5t-197 68.5q-35 0 -66.5 -4.5t-57 -11.5t-47 -15t-39 -17.5t-28.5 -16.5 t-20 -13l-8 -6q-27 -18 -45 6l-45 65q-14 20 8 39q145 117 355 117q215 0 321.5 -104.5t106.5 -288.5v-492h112zM434 129q184 4 316 178v142h-238q-121 0 -193.5 -44.5t-72.5 -125.5q0 -70 51 -111t137 -39zM522 -104q53 0 92 -39t39 -95q0 -53 -39 -91t-92 -38 q-55 0 -93 38t-38 91q0 55 38 94.5t93 39.5z" glyph-name="uni1EA1" horiz-adv-x="1099" unicode="ạ"/><glyph d="M121 0q-25 0 -25 25v94q0 25 25 24h158v1184h-158q-25 0 -25 25v94q0 25 25 24h1087q25 0 25 -24v-326q0 -25 -25 -24h-114q-25 0 -25 24v207h-620v-498h520q27 0 26 -24v-96q0 -25 -26 -25h-520v-541h622v205q0 25 27 25h114q25 0 25 -25v-323q0 -25 -25 -25h-1091z M809 -238q0 -53 -39 -91t-92 -38q-55 0 -93 38t-38 91q0 55 38 94.5t93 39.5q53 0 92 -39.5t39 -94.5z" glyph-name="uni1EB8" horiz-adv-x="1347" unicode="Ẹ"/><glyph d="M1016 483q0 -27 -27 -26h-727q12 -152 109.5 -240t228.5 -88q158 0 283 125q20 20 39 2l57 -53q18 -18 6 -37q-20 -31 -59 -67t-132.5 -74.5t-201.5 -38.5q-221 0 -362.5 140t-141.5 378q0 236 144.5 377t330.5 141q219 0 336 -141.5t117 -397.5zM268 594h576 q-6 125 -79 205t-196 80q-113 0 -195.5 -74t-105.5 -211zM559 -104q53 0 92 -39t39 -95q0 -53 -39 -91t-92 -38q-55 0 -93 38t-38 91q0 55 38 94.5t93 39.5z" glyph-name="uni1EB9" horiz-adv-x="1095" unicode="ẹ"/><glyph d="M375 1626q-25 0 -25 25q0 111 49.5 173t143.5 62q55 0 107 -26.5t91 -52t66 -25.5q35 0 54.5 23.5t19.5 88.5q0 25 24 25h80q25 0 25 -25q0 -252 -193 -252q-53 0 -101 26t-88 52.5t-75 26.5q-74 0 -74 -96q0 -25 -24 -25h-80zM121 0q-25 0 -25 25v94q0 25 25 24h158 v1184h-158q-25 0 -25 25v94q0 25 25 24h1087q25 0 25 -24v-326q0 -25 -25 -24h-114q-25 0 -25 24v207h-620v-498h520q27 0 26 -24v-96q0 -25 -26 -25h-520v-541h622v205q0 25 27 25h114q25 0 25 -25v-323q0 -25 -25 -25h-1091z" glyph-name="uni1EBC" horiz-adv-x="1347" unicode="Ẽ"/><glyph d="M250 1157q-25 0 -25 25q0 111 49.5 173t143.5 62q55 0 107.5 -26.5t91 -52t65.5 -25.5q35 0 54.5 24.5t19.5 92.5q0 25 24 24h80q25 0 25 -24q0 -256 -193 -256q-53 0 -101 25.5t-88 52t-75 26.5q-74 0 -74 -96q0 -25 -24 -25h-80zM1016 483q0 -27 -27 -26h-727 q12 -152 109.5 -240t228.5 -88q55 0 103.5 12.5t85 36t53 37.5t41.5 39q20 20 39 2l57 -53q18 -18 6 -37q-14 -20 -40.5 -46t-74 -58.5t-121 -54t-157.5 -21.5q-221 0 -362.5 140t-141.5 378q0 119 42 219t109.5 163.5t151.5 99.5t172 36q219 0 336 -141.5t117 -397.5z M268 594h576q-6 125 -79 205t-196 80q-113 0 -195.5 -74t-105.5 -211z" glyph-name="uni1EBD" horiz-adv-x="1095" unicode="ẽ"/><glyph d="M121 0q-25 0 -25 25v94q0 25 25 24h158v1184h-158q-25 0 -25 25v94q0 25 25 24h483q27 0 27 -24v-94q0 -25 -27 -25h-155v-1184h155q27 0 27 -24v-94q0 -25 -27 -25h-483zM498 -238q0 -53 -39 -91t-92 -38q-55 0 -93 38t-38 91q0 55 37.5 94.5t93.5 39.5q53 0 92 -39.5 t39 -94.5z" glyph-name="uni1ECA" horiz-adv-x="727" unicode="Ị"/><glyph d="M408 1335q0 -53 -39 -91t-93 -38q-55 0 -93 38t-38 91q0 55 38 94t93 39q53 0 92.5 -39t39.5 -94zM104 0q-25 0 -24 25v88q0 25 24 24h115v733h-115q-25 0 -24 25v88q0 25 24 25h258q27 0 27 -25v-846h115q25 0 24 -24v-88q0 -25 -24 -25h-400zM424 -238q0 -53 -39 -91 t-92 -38q-55 0 -93 38t-38 91q0 55 38 94.5t93 39.5q53 0 92 -39.5t39 -94.5z" glyph-name="uni1ECB" horiz-adv-x="587" unicode="ị"/><glyph d="M813 -14q-309 0 -512 210t-203 547q0 172 58.5 313.5t158 233.5t228.5 142.5t270 50.5t269 -50.5t227.5 -142.5t158 -233.5t58.5 -313.5q0 -342 -203 -549.5t-510 -207.5zM812.5 133q105.5 0 200.5 40t171 112.5t121 190.5t45 261q0 145 -47.5 263t-125 189t-172 108.5 t-193.5 37.5t-193.5 -37.5t-172 -108.5t-125 -188.5t-47.5 -263.5q0 -143 45.5 -261t121 -190.5t171 -112.5t201 -40zM944 -238q0 -53 -39 -91t-92 -38q-55 0 -93 38t-38 91q0 55 38 94.5t93 39.5q53 0 92 -39.5t39 -94.5z" glyph-name="uni1ECC" horiz-adv-x="1624" unicode="Ọ"/><glyph d="M589.5 1022q227.5 0 366 -143.5t138.5 -374.5q0 -233 -138.5 -375.5t-366 -142.5t-365.5 142t-138 376q0 231 138 374.5t365.5 143.5zM589.5 129q145.5 0 239 104.5t93.5 270.5t-93.5 270.5t-239 104.5t-238.5 -104.5t-93 -270.5t93 -270.5t238.5 -104.5zM721 -238 q0 -53 -39 -91t-92 -38q-55 0 -93 38t-38 91q0 55 38 94.5t93 39.5q53 0 92 -39.5t39 -94.5z" glyph-name="uni1ECD" horiz-adv-x="1179" unicode="ọ"/><glyph d="M1176 1327h-156q-27 0 -27 25v94q0 25 27 24h481q25 0 25 -24v-94q0 -25 -25 -25h-158v-776q0 -274 -147 -419.5t-399 -145.5q-264 0 -407.5 143t-143.5 422v776h-158q-25 0 -25 25v94q0 25 25 24h487q25 0 25 -24v-94q0 -25 -25 -25h-157v-782q0 -399 381 -400 q193 0 285 103.5t92 283.5v795zM926 -238q0 -53 -39 -91t-92 -38q-55 0 -93 38t-38 91q0 55 37.5 94.5t93.5 39.5q53 0 92 -39.5t39 -94.5z" glyph-name="uni1EE4" horiz-adv-x="1587" unicode="Ụ"/><glyph d="M958 0q-88 0 -88 86v68h-6q-12 -23 -31.5 -45.5t-56.5 -53t-98.5 -50t-134.5 -19.5q-164 0 -261.5 99t-97.5 267v518h-112q-27 0 -27 25v88q0 25 27 25h258q25 0 24 -25v-631q0 -96 62.5 -159.5t169.5 -63.5q184 0 264 186v555h-115q-25 0 -24 25v88q0 25 24 25h260 q25 0 25 -25v-846h117q23 0 22 -24v-88q0 -25 -22 -25h-179zM737 -238q0 -53 -39 -91t-92 -38q-55 0 -93 38t-38 91q0 55 38 94.5t93 39.5q53 0 92 -39.5t39 -94.5z" glyph-name="uni1EE5" horiz-adv-x="1218" unicode="ụ"/><glyph d="M862 1575l-358 256q-23 16 -6 39l61 80q18 23 39 6l344 -273q25 -16 6 -38l-47 -64q-19 -22 -39 -6zM461 0q-25 0 -25 25v94q0 25 25 24h160v445l-431 739h-137q-25 0 -24 25v94q0 25 24 24h469q27 0 27 -24v-94q0 -25 -27 -25h-135l324 -584h8l319 584h-141 q-25 0 -25 25v94q0 25 25 24h467q27 0 27 -24v-94q0 -25 -27 -25h-137l-434 -739v-445h161q25 0 25 -24v-94q0 -25 -25 -25h-493z" glyph-name="Ygrave" horiz-adv-x="1415" unicode="Ỳ"/><glyph d="M375 1386q-18 14 -4 39l65 76q18 23 39 4l330 -291q23 -16 4 -38l-51 -60q-18 -20 -39 -4zM1174 1008q25 0 24 -25v-88q0 -25 -24 -25h-109l-338 -833l-51 -123q-78 -188 -145.5 -268t-198.5 -80q-143 0 -209 65q-20 20 -6 37l51 72q14 18 37 2q41 -33 110 -33 q76 0 119 46t90 161l35 84h-24q-18 0 -26.5 7t-19.5 30l-335 833h-109q-25 0 -25 25v88q0 25 25 25h412q25 0 24 -25v-88q0 -25 -24 -25h-121l276 -727h4l283 727h-117q-25 0 -24 25v88q0 25 24 25h392z" glyph-name="ygrave" horiz-adv-x="1212" unicode="ỳ"/><glyph d="M420 1626q-25 0 -25 25q0 111 49.5 173t143.5 62q55 0 107.5 -26.5t91 -52t65.5 -25.5q35 0 54.5 23.5t19.5 88.5q0 25 24 25h80q25 0 25 -25q0 -252 -193 -252q-53 0 -101 26t-88 52.5t-75 26.5q-74 0 -74 -96q0 -25 -24 -25h-80zM461 0q-25 0 -25 25v94q0 25 25 24h160 v445l-431 739h-137q-25 0 -24 25v94q0 25 24 24h469q27 0 27 -24v-94q0 -25 -27 -25h-135l324 -584h8l319 584h-141q-25 0 -25 25v94q0 25 25 24h467q27 0 27 -24v-94q0 -25 -27 -25h-137l-434 -739v-445h161q25 0 25 -24v-94q0 -25 -25 -25h-493z" glyph-name="uni1EF8" horiz-adv-x="1415" unicode="Ỹ"/><glyph d="M319 1157q-25 0 -24 25q0 111 49 173t143 62q55 0 107.5 -26.5t91.5 -52t66 -25.5q35 0 54 24.5t19 92.5q0 25 25 24h80q25 0 24 -24q0 -256 -192 -256q-53 0 -101.5 25.5t-88.5 52t-74 26.5q-74 0 -74 -96q0 -25 -25 -25h-80zM1174 1008q25 0 24 -25v-88q0 -25 -24 -25 h-109l-338 -833l-51 -123q-31 -76 -51.5 -119t-52 -94t-62.5 -75.5t-76 -42t-102 -17.5q-80 0 -133.5 21.5t-75.5 43.5q-20 20 -6 37l51 72q14 18 37 2q41 -33 110 -33q76 0 119 46t90 161l35 84h-24q-18 0 -26.5 7t-19.5 30l-335 833h-109q-25 0 -25 25v88q0 25 25 25h412 q25 0 24 -25v-88q0 -25 -24 -25h-121l276 -727h4l283 727h-117q-25 0 -24 25v88q0 25 24 25h392z" glyph-name="uni1EF9" horiz-adv-x="1212" unicode="ỹ"/><glyph d="M166 455q-29 0 -29 26v105q0 27 29 26h924q27 0 26 -26v-105q0 -27 -26 -26h-924z" glyph-name="endash" horiz-adv-x="1253" unicode="–"/><glyph d="M166 455q-29 0 -29 26v105q0 27 29 26h1589q27 0 27 -26v-105q0 -27 -27 -26h-1589z" glyph-name="emdash" horiz-adv-x="1918" unicode="—"/><glyph d="M319 1575q12 0 13 -10v-68q0 -12 -13 -12q-35 0 -69.5 -31t-34.5 -82q0 -12 2 -24q12 4 33 4q51 0 89 -38t38 -93q0 -53 -39 -92t-92 -39q-61 0 -102.5 51t-41.5 155q0 139 64.5 209t152.5 70z" glyph-name="quoteleft" horiz-adv-x="475" unicode="‘"/><glyph d="M162 1090q-12 0 -12 10v67q0 12 12 13q35 0 69.5 30.5t34.5 83.5q0 10 -2 23q-12 -4 -33 -4q-51 0 -89 38t-38 93q0 53 39 92t93 39q61 0 102 -51t41 -156q0 -137 -64.5 -207.5t-152.5 -70.5z" glyph-name="quoteright" horiz-adv-x="475" unicode="’"/><glyph d="M180 -291q-12 0 -12 10v68q0 12 12 12q35 0 70 31t35 84q0 10 -2 23q-12 -4 -33 -5q-51 0 -89 38t-38 93q0 53 39 92.5t92 39.5q61 0 102 -51.5t41 -155.5q0 -137 -64.5 -208t-152.5 -71z" glyph-name="quotesinglbase" horiz-adv-x="514" unicode="‚"/><glyph d="M319 1575q12 0 13 -10v-68q0 -12 -13 -12q-35 0 -68.5 -31t-33.5 -82q0 -12 2 -24q10 4 31 4q51 0 89 -38t38 -93q0 -53 -38 -91t-93 -38q-61 0 -101.5 50t-40.5 154q0 139 63.5 209t151.5 70zM686 1575q12 0 12 -10v-68q0 -12 -12 -12q-35 0 -68.5 -31t-33.5 -82 q0 -12 2 -24q10 4 30 4q51 0 89 -38t38 -93q0 -53 -37.5 -91t-91.5 -38q-63 0 -103 50t-40 154q0 139 63.5 209t151.5 70z" glyph-name="quotedblleft" horiz-adv-x="841" unicode="“"/><glyph d="M162 1092q-12 0 -12 10v67q0 12 12 13q35 0 68.5 29.5t33.5 82.5q0 10 -2 23q-10 -2 -31 -2q-51 0 -89 37t-38 92q0 53 38 92t91 39q63 0 103.5 -51t40.5 -156q0 -137 -63.5 -206.5t-151.5 -69.5zM528 1092q-12 0 -12 10v67q0 12 12 13q35 0 69 29.5t34 82.5q0 10 -2 23 q-10 -2 -31 -2q-51 0 -89 37t-38 92q0 53 38 92t91 39q63 0 103 -51t40 -156q0 -137 -63.5 -206.5t-151.5 -69.5z" glyph-name="quotedblright" horiz-adv-x="839" unicode="”"/><glyph d="M180 -291q-12 0 -12 10v68q0 12 12 12q35 0 70 31t35 84q0 10 -2 23q-12 -4 -33 -5q-51 0 -89 38t-38 93q0 53 39 92.5t92 39.5q61 0 102 -51.5t41 -155.5q0 -137 -64.5 -208t-152.5 -71zM547 -291q-12 0 -12 10v68q0 12 12 12q35 0 69.5 31t34.5 84q0 10 -2 23 q-12 -4 -33 -5q-51 0 -89 38t-38 93q0 53 39 92.5t93 39.5q61 0 102 -51.5t41 -155.5q0 -137 -64.5 -208t-152.5 -71z" glyph-name="quotedblbase" horiz-adv-x="880" unicode="„"/><glyph d="M397 -268q-25 0 -24 24l-17 1260h-247q-29 0 -29 26v105q0 27 29 27h247v358q0 25 27 24h121q25 0 24 -24v-358h238q27 0 27 -27v-105q0 -27 -27 -26h-238l-16 -1260q0 -25 -25 -24h-90z" glyph-name="dagger" horiz-adv-x="878" unicode="†"/><glyph d="M518 145l-4 -389q0 -25 -25 -24h-90q-25 0 -24 24l-6 389h-258q-29 0 -29 29v102q0 29 29 29h254l-7 711h-247q-29 0 -29 26v105q0 27 29 27h247v358q0 25 27 24h121q25 0 24 -24v-358h238q27 0 27 -27v-105q0 -27 -27 -26h-238l-6 -711h244q27 0 27 -29v-102 q0 -29 -27 -29h-250z" glyph-name="daggerdbl" horiz-adv-x="878" unicode="‡"/><glyph d="M410 381q-111 0 -183.5 74.5t-72.5 189.5t72.5 190.5t183.5 75.5q113 0 185.5 -75.5t72.5 -190.5t-72.5 -189.5t-185.5 -74.5z" glyph-name="bullet" horiz-adv-x="823" unicode="•"/><glyph d="M379 117q0 -57 -38 -94t-95 -37q-55 0 -93 36.5t-38 94.5q0 53 39 91t92 38q55 0 94 -38t39 -91zM788 117q0 -57 -37.5 -94t-95.5 -37q-55 0 -93 36.5t-38 94.5q0 53 39 91t92 38q55 0 94 -38t39 -91zM1198 117q0 -57 -38 -94t-95 -37q-55 0 -93 36.5t-38 94.5 q0 53 39 91t92 38q55 0 94 -38t39 -91z" glyph-name="ellipsis" horiz-adv-x="1314" unicode="…"/><glyph d="M481 -55q-27 4 -14 28l704 1536q10 23 35 19l107 -15q23 -2 12 -26l-704 -1536q-10 -23 -37 -19zM416 745q-162 0 -257.5 101.5t-95.5 273.5q0 166 96.5 265.5t256.5 99.5q158 0 253 -99.5t95 -265.5q0 -174 -93 -274.5t-255 -100.5zM416 895q84 0 130 58.5t46 162.5 t-45 161.5t-131 57.5t-133 -58t-47 -160.5t48 -162t132 -59.5zM1399 -14q-162 0 -257 101t-95 273q0 166 96 265.5t256 99.5q158 0 253 -99.5t95 -265.5q0 -172 -93 -273t-255 -101zM2218 -14q-162 0 -257 101t-95 273q0 166 96 265.5t256 99.5q158 0 253 -99.5t95 -265.5 q0 -172 -93 -273t-255 -101zM1399 135q84 0 130 58.5t46 162.5q0 106 -45 164t-131 58t-133 -58.5t-47 -162t48 -163t132 -59.5zM2218 135q84 0 130 58.5t46 162.5q0 106 -45 164t-131 58t-133 -58.5t-47 -162t48 -163t132 -59.5z" glyph-name="perthousand" horiz-adv-x="2627" unicode="‰"/><glyph d="M469 123l-348 313q-27 25 -27 43v49q0 20 27 43l348 314q8 8 17.5 6t9.5 -17v-124q0 -23 -27 -45l-227 -201l227 -201q27 -23 27 -45v-125q0 -14 -10.5 -16t-16.5 6z" glyph-name="guilsinglleft" horiz-adv-x="636" unicode="‹"/><glyph d="M141 133v125q0 23 27 45l227 201l-227 201q-27 23 -27 45v124q0 14 9.5 16.5t17.5 -5.5l348 -314q27 -23 27 -43v-49q0 -18 -27 -43l-348 -313q-6 -8 -16.5 -6t-10.5 16z" glyph-name="guilsinglright" horiz-adv-x="636" unicode="›"/><glyph d="M-240 -55q-27 4 -14 28l705 1536q10 23 34 19l105 -15q23 -2 14 -26l-706 -1536q-10 -23 -35 -19z" glyph-name="fraction" horiz-adv-x="348" unicode="⁄"/><glyph d="M1243 227l70 -88q16 -20 -6 -37q-172 -117 -385 -116q-250 0 -428.5 143t-241.5 377h-158q-25 0 -24 24v76q0 25 24 25h135q-6 49 -6 100q0 45 4 90h-133q-25 0 -24 25v74q0 27 24 26h154q59 244 240.5 390.5t433.5 146.5q205 0 387 -119q20 -14 4 -35l-70 -86 q-12 -18 -35 -4q-47 29 -75.5 43t-86 29.5t-120.5 15.5q-186 -2 -316.5 -104.5t-181.5 -276.5h563q25 0 25 -26v-74q0 -25 -25 -25h-588q-4 -43 -4 -86q0 -53 7 -104h466q25 0 25 -25v-76q0 -25 -25 -24h-438q55 -166 184.5 -265.5t307.5 -99.5q25 0 48 2t43.5 6.5t37 7.5 t35 10t28.5 11t27.5 14.5t23 12.5t22.5 13l17 11q23 12 35 -2z" glyph-name="Euro" horiz-adv-x="1392" unicode="€"/><glyph d="M272 809q-14 0 -14 14v82q0 14 14 15h70v440h-145v-88q0 -12 -15 -12h-82q-14 0 -14 12v184q0 14 14 14h609q14 0 14 -14v-184q0 -12 -14 -12h-84q-14 0 -15 12v88h-139v-440h68q14 0 14 -15v-82q0 -14 -14 -14h-267zM1368 809q-12 0 -12 12v86q0 12 12 13h53v354h-2 l-153 -371q-14 -35 -51 -35t-50 35l-153 371h-2v-354h53q12 0 12 -13v-86q0 -12 -12 -12h-248q-12 0 -12 12v86q0 12 12 13h68v440h-68q-12 0 -12 12v86q0 12 12 12h184q37 0 54 -38l121 -279l40 -111h3q23 61 43 111l118 279q16 39 54 38h184q12 0 12 -12v-86 q0 -12 -12 -12h-68v-440h68q12 0 12 -13v-86q0 -12 -12 -12h-248z" glyph-name="trademark" horiz-adv-x="1771" unicode="™"/><glyph d="M950 0q-27 0 -26 25v346q0 23 22 22q166 0 289 119t123 328q0 227 -162 354t-366.5 127t-366.5 -127t-162 -354q0 -209 123 -328t289 -119q23 0 22 -22v-346q0 -25 -26 -25h-582q-25 0 -25 25v90q0 23 25 22h471v137q-213 37 -347 193t-134 379q0 195 101 343t261 221 t350 73q293 0 503 -173t210 -464q0 -223 -134 -379t-347 -193v-137h471q25 0 24 -22v-90q0 -25 -24 -25h-582z" glyph-name="uni2126" horiz-adv-x="1658" unicode="Ω"/><glyph d="M471 -55q-27 4 -16 28l704 1536q12 23 37 19l104 -15q23 -2 13 -26l-705 -1536q-10 -23 -35 -19zM633 827q23 0 22 -18v-94q0 -20 -22 -21h-510q-20 0 -21 21v94q0 18 21 18h186v516l-172 -90q-14 -8 -22 7l-47 88q-6 12 10 22l223 119q27 14 53 14h105q18 0 18 -18v-658 h156zM1364 813q147 0 218 -66.5t71 -150.5q0 -45 -20.5 -82t-48.5 -56.5t-50.5 -28.5t-36.5 -11q20 -4 43 -12.5t57.5 -29t57 -61.5t22.5 -96q0 -102 -87 -164.5t-238 -62.5q-70 0 -128.5 15.5t-95 41t-57 44t-33.5 34.5q-8 12 4 20l82 78q10 10 21 0q88 -92 207 -92 q164 0 164 109q0 51 -46.5 78.5t-134.5 27.5h-49q-16 0 -16 17v92q0 16 16 16h35q68 0 119 24.5t51 80.5q0 94 -135 94q-57 0 -92 -20.5t-72 -69.5q-10 -10 -23 -4l-96 61q-14 8 -6 20q43 74 120 114t177 40z" glyph-name="onethird" horiz-adv-x="1746" unicode="⅓"/><glyph d="M471 -55q-27 4 -14 28l704 1536q10 23 35 19l107 -15q23 -2 12 -26l-705 -1536q-10 -23 -37 -19zM635 827q20 0 20 -18v-94q0 -20 -20 -21h-510q-20 0 -21 21v94q0 18 21 18h184v516l-172 -90q-14 -8 -20 7l-47 88q-8 12 8 22l223 119q27 14 55 14h105q16 0 16 -18v-658 h158zM1388.5 -10q-161.5 0 -254 68.5t-92.5 172.5q0 49 22.5 89t51.5 61.5t52.5 33t31.5 11.5v2q-6 0 -18.5 5t-30.5 17.5t-34.5 31t-28 49t-11.5 69.5q0 80 78 146.5t233.5 66.5t232.5 -66.5t77 -146.5q0 -39 -11.5 -69.5t-28 -49t-34.5 -31t-30.5 -17.5t-18.5 -5v-2 q10 0 32.5 -11.5t52.5 -33t51.5 -61t21.5 -89.5q0 -104 -91.5 -172.5t-253 -68.5zM1386 467q59 0 103.5 24.5t44.5 79.5q0 43 -37 71t-108.5 28t-108.5 -28t-37 -71q0 -55 43 -79.5t100 -24.5zM1389 131q84 0 130 33t46 86q0 45 -42 77.5t-122 32.5h-25q-80 0 -123 -31.5 t-43 -78.5q0 -53 47.5 -86t131.5 -33z" glyph-name="oneeighth" horiz-adv-x="1800" unicode="⅛"/><glyph d="M475 -55q-27 4 -16 28l706 1536q10 23 35 19l105 -15q23 -2 14 -26l-707 -1536q-10 -23 -34 -19zM393 1507q147 0 217 -66.5t70 -150.5q0 -45 -19.5 -82t-47 -56t-51 -28.5t-38.5 -11.5q23 -4 44.5 -12t57.5 -28.5t57.5 -61.5t21.5 -97q0 -102 -86.5 -164.5t-237.5 -62.5 q-70 0 -128 15.5t-96 41t-57.5 44t-31.5 34.5q-8 12 2 21l82 78q12 10 22 0q86 -92 207 -93q164 0 164 109q0 51 -46 79.5t-134 28.5h-52q-16 0 -16 15v92q0 16 16 16h37q68 0 119 25t51 80q0 96 -135 96q-59 0 -93 -21.5t-73 -70.5q-8 -10 -20 -4l-97 61q-14 8 -8 21 q45 74 122 113.5t177 39.5zM1387.5 -10q-162.5 0 -254 68.5t-91.5 172.5q0 49 21.5 89t51.5 61.5t52.5 33t32.5 11.5v2q-6 0 -18.5 5t-30.5 17.5t-34.5 31t-28 49t-11.5 69.5q0 80 77 146.5t233.5 66.5t233.5 -66.5t77 -146.5q0 -39 -11.5 -69.5t-28 -49t-34.5 -31 t-30.5 -17.5t-18.5 -5v-2q10 0 32.5 -11.5t52.5 -33t51.5 -61t21.5 -89.5q0 -104 -91.5 -172.5t-254 -68.5zM1386 467q59 0 102.5 24.5t43.5 79.5q0 43 -36 71t-108.5 28t-109.5 -28t-37 -71q0 -55 44 -79.5t101 -24.5zM1388 131q85 0 131 33t46 86q0 45 -43 77.5t-121 32.5 h-27q-80 0 -122 -31.5t-42 -78.5q0 -53 46.5 -86t131.5 -33z" glyph-name="threeeighths" horiz-adv-x="1802" unicode="⅜"/><glyph d="M459 -55q-27 4 -15 28l705 1536q10 23 35 19l106 -15q23 -2 13 -26l-705 -1536q-10 -23 -37 -19zM377 686q-33 0 -65.5 5t-56.5 11.5t-48.5 18.5t-38.5 20.5t-33.5 24.5t-27 22.5t-22.5 22.5l-15 16q-10 10 0 19l84 80q12 12 22 0q92 -102 203 -103q162 0 162 131 q0 59 -44 95t-130 36q-61 0 -132 -19t-79 -19q-33 0 -33 38v402q0 16 16 16h498q16 0 16 -16v-101q0 -14 -16 -14h-358v-170q78 14 133 15q137 0 211.5 -73t74.5 -190q0 -121 -82.5 -194.5t-238.5 -73.5zM1371 -10q-163 0 -254 68.5t-91 172.5q0 49 21.5 89t51 61.5t52.5 33 t33 11.5v4q-6 0 -18.5 4t-31 16.5t-35 31t-27.5 49t-11 69.5q0 80 76.5 146.5t233.5 66.5t233.5 -66.5t76.5 -146.5q0 -39 -11 -69.5t-27.5 -49t-35 -31t-30.5 -16.5t-18 -4v-4q10 0 32.5 -11.5t51 -33t51 -61t22.5 -89.5q0 -104 -91 -172.5t-254 -68.5zM1370 467 q59 0 102.5 24.5t43.5 79.5q0 43 -36 71t-109 28t-109.5 -28t-36.5 -71q0 -55 44 -79.5t101 -24.5zM1371 131q85 0 131 33t46 86q0 45 -43 77.5t-121 32.5h-26q-80 0 -122 -31.5t-42 -78.5q0 -53 46 -86t131 -33z" glyph-name="fiveeighths" horiz-adv-x="1783" unicode="⅝"/><glyph d="M393 -55q-27 4 -14 28l704 1536q10 23 35 19l107 -15q23 -2 12 -26l-705 -1536q-10 -23 -36 -19zM240 694q-29 0 -13 35l303 633h-311v-100q0 -16 -16 -17h-123q-16 0 -17 17v225q0 16 17 16h625q18 0 18 -16v-33q0 -37 -21 -82l-294 -647q-14 -31 -35 -31h-133z M1305.5 -10q-162.5 0 -253.5 68.5t-91 172.5q0 49 21.5 89t51 61.5t52 33t32.5 11.5v4q-6 0 -18.5 4t-30.5 16.5t-34.5 31t-28 49t-11.5 69.5q0 80 77 146.5t233.5 66.5t233.5 -66.5t77 -146.5q0 -39 -11.5 -69.5t-27.5 -49t-34.5 -31t-31 -16.5t-18.5 -4v-4 q10 0 32.5 -11.5t51.5 -33t51.5 -61t22.5 -89.5q0 -104 -91.5 -172.5t-254 -68.5zM1305 467q59 0 102 24.5t43 79.5q0 43 -36 71t-108.5 28t-109.5 -28t-37 -71q0 -55 44.5 -79.5t101.5 -24.5zM1306 131q85 0 131 33t46 86q0 45 -43 77.5t-121 32.5h-27q-80 0 -122 -31.5 t-42 -78.5q0 -53 46.5 -86t131.5 -33z" glyph-name="seveneighths" horiz-adv-x="1722" unicode="⅞"/><glyph d="M559 -14q-219 0 -345 121.5t-126 316.5q0 227 146.5 366.5t414.5 139.5q238 0 375 -101v17q0 231 -86 359t-256 128q-137 0 -208 -56t-79 -126q-2 -25 -28 -25h-109q-23 0 -22 23q0 139 129 236.5t331 97.5q246 0 375 -168t129 -463q0 -389 -169 -627.5t-472 -238.5z M571 135q188 0 303 142.5t142 410.5q-145 111 -359 111q-180 0 -289.5 -103.5t-109.5 -263.5q0 -135 83 -216t230 -81z" glyph-name="partialdiff" horiz-adv-x="1290" unicode="∂"/><glyph d="M168 455q-27 0 -27 26v105q0 27 27 26h637q29 0 29 -26v-105q0 -27 -29 -26h-637z" glyph-name="minus" horiz-adv-x="974" unicode="−"/><glyph d="M184 -479q-125 0 -207 82q-23 18 -6 37l49 61q18 20 35 4q45 -37 113 -37q174 0 174 205v1262q0 170 87 259t243 89q115 0 207 -82q20 -18 6 -35l-49 -63q-18 -18 -35 -5q-49 39 -113 39q-84 0 -130 -52t-46 -152v-1262q0 -172 -86 -261t-242 -89z" glyph-name="integral" horiz-adv-x="858" unicode="∫"/><glyph d="M172 614q-29 0 -29 27q0 121 55.5 189.5t166.5 68.5q76 0 167 -47t136 -47q82 0 82 74q0 25 26 24h113q27 0 26 -24q0 -121 -55 -189.5t-166 -68.5q-68 0 -124 23.5t-99 46t-80 22.5q-80 0 -80 -72q0 -27 -28 -27h-111zM170 199q-27 0 -27 24q0 121 55.5 189.5 t166.5 68.5q76 0 167 -46t136 -46q82 0 82 72q0 27 26 26h113q27 0 26 -26q0 -121 -54 -189.5t-167 -68.5q-68 0 -124 23.5t-99 47t-80 23.5q-82 0 -82 -74q0 -25 -26 -24h-113z" glyph-name="approxequal" horiz-adv-x="1056" unicode="≈"/><glyph d="M823 645h-229l-74 -242h303q27 0 27 -26v-105q0 -27 -27 -26h-350l-45 -152q-8 -25 -33 -24h-82q-27 0 -18 24l45 152h-172q-27 0 -27 26v105q0 27 27 26h219l74 242h-293q-27 0 -27 29v102q0 29 27 29h340l49 162q8 25 35 24h82q25 0 16 -24l-49 -162h182q27 0 27 -29 v-102q0 -29 -27 -29z" glyph-name="notequal" horiz-adv-x="991" unicode="≠"/><glyph d="M1415 1194q0 53 36 90t89 37t90 -37t37 -90t-37 -89t-90 -36t-89 37t-36 88zM449 553h-244q0 274 18 643h205q21 -410 21 -643zM1421 553q0 188 6 301h-124l6 -133q8 -8 30 -8q27 0 37 10v-152q-29 -31 -139 -30q-168 0 -168 135q0 25 4 100.5t4 77.5h-45v162l244 61 l2 -35h364q20 -131 21 -489h-242zM672 543q-188 0 -189 233q0 276 275 277q254 0 254 -240v-260h-170l-17 125q-12 -68 -47.5 -101.5t-105.5 -33.5zM2232 553h-233q0 53 2 114.5t2 75.5q0 59 -31 60q-37 0 -37 -60q0 -14 3.5 -75.5t3.5 -114.5h-234q0 358 21 489h163 q12 -90 13 -155q4 31 13 61.5t49 67.5t101 37q86 0 120 -51.5t38 -165.5zM2767 801q0 -258 -252 -258q-250 0 -250 254q0 256 254 256q248 0 248 -252zM799 768q0 53 -49 53q-45 0 -45 -53q0 -61 45 -61q49 0 49 61zM2562 768q0 53 -47 53q-43 0 -43 -53q0 -61 43 -61 q47 0 47 61zM877 487h213q20 -109 20 -282q0 -166 -68.5 -236.5t-242.5 -70.5q-125 0 -181 34v170q49 -33 144 -32q43 0 69.5 12t33.5 23.5t7 21.5q-33 -23 -100 -23q-184 0 -184 170v27h-113l6 -133q12 -8 31 -8q27 0 37 10v-150q-39 -31 -139 -30q-92 0 -129 34.5 t-37 110.5q0 80 6 166h-37v164l240 59l-2 -37h362v-243q0 -33 6 -44.5t25 -11.5q33 0 33 56v243zM1501 498q76 0 120 -59.5t44 -172.5q0 -276 -281 -276q2 -31 2 -80h-243q0 291 20 577h160q14 -86 14 -155q35 166 164 166zM2191 260q0 -43 -6 -72h-254q23 -37 103 -36 q70 0 112 24v-153q-47 -33 -159 -33q-289 0 -289 250q0 121 66.5 189.5t189.5 68.5q113 0 175 -61.5t62 -176.5zM2003 223q6 55 -35 56q-47 0 -47 -56h82zM1372 147q10 0 25.5 5.5t33 24t17.5 46.5q0 47 -41 47q-45 0 -45 -63q0 -29 10 -60zM2200 27q0 47 49 47t49 -47 t-49 -47t-49 47zM2212 26.5q0 -36.5 37 -36.5t37 36.5t-37 36.5t-37 -36.5zM2269 4h-12l-8 19h-11v-19h-10v47h23q20 0 20 -14t-14 -14zM2253 31q8 0 8 6t-8 6h-15v-12h15z" glyph-name="uniF8FF" horiz-adv-x="2971" unicode=""/><glyph d="M408 1335q0 -53 -39 -91t-93 -38q-55 0 -93 38t-38 91q0 55 38 94t93 39q53 0 92.5 -39t39.5 -94zM104 0q-25 0 -24 25v88q0 25 24 24h115v733h-115q-25 0 -24 25v88q0 25 24 25h258q27 0 27 -25v-846h115q25 0 24 -24v-88q0 -25 -24 -25h-400z" glyph-name="i.locl" horiz-adv-x="587"/><glyph d="M985 0q-88 0 -88 86v119h-4q-96 -219 -342 -219q-209 0 -335 145t-126 375q0 233 128 374.5t333 141.5q135 0 220 -54.5t120 -131.5h2v145q0 27 25 27h106q25 0 25 -27v-844h114q25 0 25 -24v-88q0 -25 -25 -25h-178zM575 129q133 0 222.5 102.5t89.5 272.5 q0 174 -89 274.5t-223 100.5q-137 0 -227 -102.5t-90 -274.5q0 -166 90 -269.5t227 -103.5z" glyph-name="a.salt" horiz-adv-x="1247"/><glyph d="M483 1110q-20 -14 -39 6l-51 60q-18 23 4 38l330 289q20 20 39 -2l65 -78q14 -20 -4 -39zM985 0q-88 0 -88 86v119h-4q-96 -219 -342 -219q-209 0 -335 145t-126 375q0 233 128 374.5t333 141.5q135 0 220 -54.5t120 -131.5h2v145q0 27 25 27h106q25 0 25 -27v-844h114 q25 0 25 -24v-88q0 -25 -25 -25h-178zM575 129q133 0 222.5 102.5t89.5 272.5q0 174 -89 274.5t-223 100.5q-137 0 -227 -102.5t-90 -274.5q0 -166 90 -269.5t227 -103.5z" glyph-name="aacute.salt" horiz-adv-x="1247"/><glyph d="M569.5 1126q-145.5 0 -227.5 77t-82 233q0 27 25 26h86q29 0 28 -26q0 -178 170 -178.5t170 178.5q0 27 29 26h86q25 0 25 -26q0 -156 -82 -233t-227.5 -77zM985 0q-88 0 -88 86v119h-4q-96 -219 -342 -219q-209 0 -335 145t-126 375q0 233 128 374.5t333 141.5 q135 0 220 -54.5t120 -131.5h2v145q0 27 25 27h106q25 0 25 -27v-844h114q25 0 25 -24v-88q0 -25 -25 -25h-178zM575 129q133 0 222.5 102.5t89.5 272.5q0 174 -89 274.5t-223 100.5q-137 0 -227 -102.5t-90 -274.5q0 -166 90 -269.5t227 -103.5z" glyph-name="abreve.salt" horiz-adv-x="1247"/><glyph d="M317 1120q-18 -16 -38 4l-50 60q-18 23 4 39l316 276q12 10 20 10t21 -10l317 -276q20 -20 4 -39l-51 -60q-16 -20 -39 -4l-252 215zM985 0q-45 0 -66.5 19.5t-21.5 66.5v119h-4q-41 -94 -125 -156.5t-217 -62.5q-209 0 -335 145t-126 375q0 233 128 374.5t333 141.5 q135 0 220 -54.5t120 -131.5h2v145q0 27 25 27h106q25 0 25 -27v-844h114q25 0 25 -24v-88q0 -25 -25 -25h-178zM575 129q133 0 222.5 102.5t89.5 272.5q0 174 -89 274.5t-223 100.5q-137 0 -227 -102.5t-90 -274.5q0 -166 90 -269.5t227 -103.5z" glyph-name="acircumflex.salt" horiz-adv-x="1247"/><glyph d="M496 1318q0 -52 -37 -89t-89.5 -37t-88 37t-35.5 89t35.5 90t87 38t89.5 -38t38 -90zM893 1318q0 -52 -37 -89t-90 -37q-51 0 -86 37t-35 90t35 90t86 37q53 0 90 -38t37 -90zM985 0q-88 0 -88 86v119h-4q-96 -219 -342 -219q-209 0 -335 145t-126 375q0 233 128 374.5 t333 141.5q135 0 220 -54.5t120 -131.5h2v145q0 27 25 27h106q25 0 25 -27v-844h114q25 0 25 -24v-88q0 -25 -25 -25h-178zM575 129q133 0 222.5 102.5t89.5 272.5q0 174 -89 274.5t-223 100.5q-137 0 -227 -102.5t-90 -274.5q0 -166 90 -269.5t227 -103.5z" glyph-name="adieresis.salt" horiz-adv-x="1247"/><glyph d="M985 0q-88 0 -88 86v119h-4q-96 -219 -342 -219q-209 0 -335 145t-126 375q0 233 128 374.5t333 141.5q135 0 220 -54.5t120 -131.5h2v145q0 27 25 27h106q25 0 25 -27v-844h114q25 0 25 -24v-88q0 -25 -25 -25h-178zM575 129q133 0 222.5 102.5t89.5 272.5 q0 174 -89 274.5t-223 100.5q-137 0 -227 -102.5t-90 -274.5q0 -166 90 -269.5t227 -103.5zM754 -238q0 -53 -39 -91t-92 -38q-55 0 -93 38t-38 91q0 55 37.5 94.5t93.5 39.5q53 0 92 -39.5t39 -94.5z" glyph-name="uni1EA1.salt" horiz-adv-x="1247"/><glyph d="M659 1112l-344 274q-18 14 -4 39l66 76q18 23 39 4l329 -291q23 -16 5 -38l-52 -60q-19 -20 -39 -4zM985 0q-88 0 -88 86v119h-4q-96 -219 -342 -219q-209 0 -335 145t-126 375q0 233 128 374.5t333 141.5q135 0 220 -54.5t120 -131.5h2v145q0 27 25 27h106q25 0 25 -27 v-844h114q25 0 25 -24v-88q0 -25 -25 -25h-178zM575 129q133 0 222.5 102.5t89.5 272.5q0 174 -89 274.5t-223 100.5q-137 0 -227 -102.5t-90 -274.5q0 -166 90 -269.5t227 -103.5z" glyph-name="agrave.salt" horiz-adv-x="1247"/><glyph d="M266 1225q-27 0 -26 26v86q0 29 26 29h606q27 0 27 -29v-86q0 -27 -27 -26h-606zM985 0q-88 0 -88 86v119h-4q-96 -219 -342 -219q-209 0 -335 145t-126 375q0 233 128 374.5t333 141.5q135 0 220 -54.5t120 -131.5h2v145q0 27 25 27h106q25 0 25 -27v-844h114 q25 0 25 -24v-88q0 -25 -25 -25h-178zM575 129q133 0 222.5 102.5t89.5 272.5q0 174 -89 274.5t-223 100.5q-137 0 -227 -102.5t-90 -274.5q0 -166 90 -269.5t227 -103.5z" glyph-name="amacron.salt" horiz-adv-x="1247"/><glyph d="M1217 -326q10 -18 -9 -34q-47 -39 -141 -39q-92 0 -139 50t-47 130q0 78 43 137t90 82h-29q-45 0 -66.5 19.5t-21.5 66.5v119h-4q-41 -94 -125 -156.5t-217 -62.5q-209 0 -335 145t-126 375q0 233 128 374.5t333 141.5q135 0 220 -54.5t120 -131.5h2v145q0 27 25 27h106 q25 0 25 -27v-844h114q25 0 25 -24v-88q0 -25 -25 -25h-24q-123 -84 -123 -201q0 -76 63 -75q33 0 64 16q29 14 39 -4zM575 129q133 0 222.5 102.5t89.5 272.5q0 174 -89 274.5t-223 100.5q-137 0 -227 -102.5t-90 -274.5q0 -166 90 -269.5t227 -103.5z" glyph-name="aogonek.salt" horiz-adv-x="1247"/><glyph d="M569 1135q-78 0 -136 58t-58 138q0 78 58.5 135.5t135.5 57.5q80 0 137.5 -57.5t57.5 -135.5q0 -80 -57.5 -138t-137.5 -58zM569 1253q31 0 52.5 21.5t21.5 56.5q0 33 -21.5 54.5t-52.5 21.5q-29 0 -50 -21.5t-21 -54.5q0 -35 21 -56.5t50 -21.5zM985 0q-88 0 -88 86v119 h-4q-96 -219 -342 -219q-209 0 -335 145t-126 375q0 233 128 374.5t333 141.5q135 0 220 -54.5t120 -131.5h2v145q0 27 25 27h106q25 0 25 -27v-844h114q25 0 25 -24v-88q0 -25 -25 -25h-178zM575 129q133 0 222.5 102.5t89.5 272.5q0 174 -89 274.5t-223 100.5 q-137 0 -227 -102.5t-90 -274.5q0 -166 90 -269.5t227 -103.5z" glyph-name="aring.salt" horiz-adv-x="1247"/><glyph d="M569 1135q-78 0 -136 58t-58 138q0 78 58.5 135.5t135.5 57.5q23 0 43 -4l217 299q16 25 39 6l80 -62q18 -16 6 -39l-227 -282q37 -51 37 -111q0 -80 -57.5 -138t-137.5 -58zM569 1407q-29 0 -50 -21.5t-21 -54.5q0 -35 21.5 -56.5t49.5 -21.5q31 0 52.5 21.5t21.5 56.5 q0 33 -21.5 54.5t-52.5 21.5zM1163 137q25 0 25 -24v-88q0 -25 -25 -25h-178q-45 0 -66.5 19.5t-21.5 66.5v119h-4q-41 -94 -125 -156.5t-217 -62.5q-209 0 -335 145t-126 375q0 233 128 374.5t333 141.5q135 0 220 -54.5t120 -131.5h2v145q0 27 25 27h106q25 0 25 -27v-844 h114zM575 129q133 0 222.5 102.5t89.5 272.5q0 174 -89 274.5t-223 100.5q-137 0 -227 -102.5t-90 -274.5q0 -166 90 -269.5t227 -103.5z" glyph-name="aringacute.salt" horiz-adv-x="1247"/><glyph d="M260 1157q-25 0 -24 25q0 111 49 173t143 62q55 0 107.5 -26.5t91.5 -52t65 -25.5q35 0 54.5 24.5t19.5 92.5q0 25 25 24h79q25 0 25 -24q0 -256 -193 -256q-53 0 -101 25.5t-88 52t-75 26.5q-74 0 -73 -96q0 -25 -25 -25h-80zM985 0q-45 0 -66.5 19.5t-21.5 66.5v119h-4 q-41 -94 -125 -156.5t-217 -62.5q-209 0 -335 145t-126 375q0 233 128 374.5t333 141.5q135 0 220 -54.5t120 -131.5h2v145q0 27 25 27h106q25 0 25 -27v-844h114q25 0 25 -24v-88q0 -25 -25 -25h-178zM575 129q133 0 222.5 102.5t89.5 272.5q0 174 -89 274.5t-223 100.5 q-137 0 -227 -102.5t-90 -274.5q0 -166 90 -269.5t227 -103.5z" glyph-name="atilde.salt" horiz-adv-x="1247"/><glyph d="M1161 137q27 0 27 -24v-88q0 -25 -27 -25h-397q-25 0 -25 25v88q0 25 25 24h115v498q0 244 -238 244q-186 0 -272 -187v-555h114q25 0 25 -24v-88q0 -25 -25 -25h-399q-25 0 -25 25v88q0 25 25 24h115v1196h-115q-25 0 -25 25v88q0 25 25 24h242q25 0 24 -24v-481 q0 -18 -1 -55.5t-1 -55.5h6q100 168 330 168q166 0 265.5 -99.5t99.5 -267.5v-518h112z" glyph-name="h.salt" horiz-adv-x="1232"/><glyph d="M1161 137q27 0 27 -24v-88q0 -25 -27 -25h-397q-25 0 -25 25v88q0 25 25 24h115v498q0 244 -238 244q-186 0 -272 -187v-555h114q25 0 25 -24v-88q0 -25 -25 -25h-399q-25 0 -25 25v88q0 25 25 24h115v973h-179q-27 0 -26 29v82q0 27 26 26h179v86h-115q-25 0 -25 25v88 q0 25 25 24h242q25 0 24 -24v-199h182q29 0 29 -26v-82q0 -29 -29 -29h-182v-145q0 -18 -1 -55.5t-1 -55.5h6q100 168 330 168q166 0 265.5 -99.5t99.5 -267.5v-518h112z" glyph-name="hbar.salt" horiz-adv-x="1232"/><glyph d="M520 1577l-252 195l-252 -195q-20 -14 -39 4l-49 59q-18 20 4 39l316 256q12 10 20 10.5t21 -10.5l317 -256q23 -16 4 -39l-51 -59q-16 -20 -39 -4zM1161 137q27 0 27 -24v-88q0 -25 -27 -25h-397q-25 0 -25 25v88q0 25 25 24h115v498q0 244 -238 244q-186 0 -272 -187 v-555h114q25 0 25 -24v-88q0 -25 -25 -25h-399q-25 0 -25 25v88q0 25 25 24h115v1196h-115q-25 0 -25 25v88q0 25 25 24h242q25 0 24 -24v-481q0 -18 -1 -55.5t-1 -55.5h6q100 168 330 168q166 0 265.5 -99.5t99.5 -267.5v-518h112z" glyph-name="hcircumflex.salt" horiz-adv-x="1232"/><glyph d="M1149 137q25 0 25 -24v-88q0 -25 -25 -25h-408q-25 0 -24 25v88q0 25 24 24h95l-275 363l-192 -162v-201h114q25 0 25 -24v-88q0 -25 -25 -25h-399q-25 0 -25 25v88q0 25 25 24h115v1196h-115q-25 0 -25 25v88q0 25 25 24h260q25 0 25 -24v-944l415 368h-86q-25 0 -24 25 v88q0 25 24 25h394q25 0 24 -25v-88q0 -25 -24 -25h-105l-307 -266l352 -467h117z" glyph-name="k.salt" horiz-adv-x="1179"/><glyph d="M1149 137q25 0 25 -24v-88q0 -25 -25 -25h-408q-25 0 -24 25v88q0 25 24 24h95l-275 363l-192 -162v-201h114q25 0 25 -24v-88q0 -25 -25 -25h-399q-25 0 -25 25v88q0 25 25 24h115v1196h-115q-25 0 -25 25v88q0 25 25 24h260q25 0 25 -24v-944l415 368h-86q-25 0 -24 25 v88q0 25 24 25h394q25 0 24 -25v-88q0 -25 -24 -25h-105l-307 -266l352 -467h117zM596 -86q63 0 103 -51t40 -154q0 -119 -63.5 -178t-151.5 -59q-12 0 -12 10v61q0 12 12 13q37 0 73 22.5t36 65.5v14q-14 -4 -39 -4q-53 0 -90 37t-37 92t38 93t91 38z" glyph-name="kcommaaccent.salt" horiz-adv-x="1179"/><glyph d="M1800 137q27 0 27 -24v-88q0 -25 -27 -25h-399q-23 0 -23 25v88q0 25 23 24h117v518q0 96 -60.5 160t-167.5 64q-166 0 -250 -166q4 -29 4 -58v-518h107q27 0 27 -24v-88q0 -25 -27 -25h-387q-23 0 -23 25v88q0 25 23 24h110v518q0 96 -60 160t-167 64q-178 0 -258 -187 v-555h115q25 0 24 -24v-88q0 -25 -24 -25h-400q-25 0 -24 25v88q0 25 24 24h115v733h-115q-25 0 -24 25v88q0 25 24 25h242q23 0 23 -25l-2 -129h6q100 168 319 168q106 0 186 -45t123 -127q14 25 38 48.5t64 54t101.5 50t130.5 19.5q162 0 257.5 -99.5t95.5 -267.5v-518 h112z" glyph-name="m.salt" horiz-adv-x="1871"/><glyph d="M1182 137q27 0 26 -24v-88q0 -25 -26 -25h-398q-25 0 -24 25v88q0 25 24 24h115v498q0 109 -62.5 174t-174.5 65q-188 0 -273 -182v-555h115q25 0 24 -24v-88q0 -25 -24 -25h-400q-25 0 -24 25v88q0 25 24 24h115v733h-115q-25 0 -24 25v88q0 25 24 25h242q25 0 25 -25 l-2 -129h6q100 168 330 168q166 0 265 -99.5t99 -267.5v-518h113z" glyph-name="n.salt" horiz-adv-x="1253"/><glyph d="M512 1116l-51 60q-18 23 4 38l330 289q20 20 39 -2l65 -78q14 -20 -4 -39l-344 -274q-21 -14 -39 6zM1182 137q27 0 26 -24v-88q0 -25 -26 -25h-398q-25 0 -24 25v88q0 25 24 24h115v498q0 109 -62.5 174t-174.5 65q-188 0 -273 -182v-555h115q25 0 24 -24v-88 q0 -25 -24 -25h-400q-25 0 -24 25v88q0 25 24 24h115v733h-115q-25 0 -24 25v88q0 25 24 25h242q25 0 25 -25l-2 -129h6q100 168 330 168q166 0 265 -99.5t99 -267.5v-518h113z" glyph-name="nacute.salt" horiz-adv-x="1253"/><glyph d="M172 1591q61 0 102 -51t41 -156q0 -137 -64.5 -207.5t-152.5 -70.5q-12 0 -12 10v68q0 12 12 12q35 0 70 30.5t35 84.5q0 10 -2 22q-12 -4 -33 -4q-51 0 -89 38t-38 93q0 53 39 92t92 39zM1348 137q27 0 26 -24v-88q0 -25 -26 -25h-398q-25 0 -24 25v88q0 25 24 24h115 v498q0 109 -62.5 174t-175.5 65q-109 0 -174 -55t-98 -127v-555h115q25 0 24 -24v-88q0 -25 -24 -25h-400q-25 0 -24 25v88q0 25 24 24h115v733h-115q-25 0 -24 25v88q0 25 24 25h242q25 0 25 -25l-2 -129h6q14 23 33.5 45.5t57.5 53t100.5 50t137.5 19.5q166 0 265.5 -99.5 t99.5 -267.5v-518h113z" glyph-name="napostrophe.salt" horiz-adv-x="1419"/><glyph d="M293 1395q-20 18 -4 39l49 59q18 23 39 4l252 -215l252 215q20 16 39 -4l51 -59q16 -20 -4 -39l-318 -277q-12 -10 -20 -10t-23 10zM1182 137q27 0 26 -24v-88q0 -25 -26 -25h-398q-25 0 -24 25v88q0 25 24 24h115v498q0 109 -62.5 174t-174.5 65q-109 0 -174.5 -55 t-98.5 -127v-555h115q25 0 24 -24v-88q0 -25 -24 -25h-400q-25 0 -24 25v88q0 25 24 24h115v733h-115q-25 0 -24 25v88q0 25 24 25h242q25 0 25 -25l-2 -129h6q14 23 33.5 45.5t57.5 53t100.5 50t138.5 19.5q166 0 265 -99.5t99 -267.5v-518h113z" glyph-name="ncaron.salt" horiz-adv-x="1253"/><glyph d="M1182 137q27 0 26 -24v-88q0 -25 -26 -25h-398q-25 0 -24 25v88q0 25 24 24h115v498q0 109 -62.5 174t-174.5 65q-188 0 -273 -182v-555h115q25 0 24 -24v-88q0 -25 -24 -25h-400q-25 0 -24 25v88q0 25 24 24h115v733h-115q-25 0 -24 25v88q0 25 24 25h242q25 0 25 -25 l-2 -129h6q100 168 330 168q166 0 265 -99.5t99 -267.5v-518h113zM651 -86q63 0 103.5 -51t40.5 -154q0 -119 -63.5 -178t-151.5 -59q-12 0 -13 10v61q0 12 13 13q37 0 72.5 22.5t35.5 65.5v14q-14 -4 -39 -4q-53 0 -90 37t-37 92t38 93t91 38z" glyph-name="ncommaaccent.salt" horiz-adv-x="1253"/><glyph d="M328 1157q-25 0 -25 25q0 111 49 173t144 62q55 0 107 -26.5t91 -52t66 -25.5q35 0 54.5 24.5t19.5 92.5q0 25 24 24h80q25 0 25 -24q0 -256 -193 -256q-53 0 -101 25.5t-88 52t-75 26.5q-74 0 -74 -96q0 -25 -24 -25h-80zM1182 137q27 0 26 -24v-88q0 -25 -26 -25h-398 q-25 0 -24 25v88q0 25 24 24h115v498q0 109 -62.5 174t-174.5 65q-109 0 -174.5 -55t-98.5 -127v-555h115q25 0 24 -24v-88q0 -25 -24 -25h-400q-25 0 -24 25v88q0 25 24 24h115v733h-115q-25 0 -24 25v88q0 25 24 25h242q25 0 25 -25l-2 -129h6q14 23 33.5 45.5t57.5 53 t100.5 50t138.5 19.5q166 0 265 -99.5t99 -267.5v-518h113z" glyph-name="ntilde.salt" horiz-adv-x="1253"/><glyph d="M512 -434q-223 0 -385 121q-20 16 -6 37l57 81q12 18 35 5q2 -2 13.5 -9.5t20.5 -13.5t26.5 -16.5t34 -17.5t40 -16t47 -14.5t53 -9.5t60.5 -4q162 0 252 81t90 235v104h-4q-96 -143 -305 -143q-164 0 -259.5 97t-95.5 259l-2 528h-114q-25 0 -25 25v88q0 25 25 25h194 q47 0 68.5 -19.5t21.5 -66.5v-539q0 -119 57.5 -186.5t168.5 -67.5q92 0 158.5 47t89 87t22.5 50v557h-115q-25 0 -24 25v88q0 25 24 25h260q25 0 25 -25v-958q0 -211 -137.5 -335t-370.5 -124z" glyph-name="y.salt" horiz-adv-x="1179"/></font>
</defs>
</svg>
